<?xml version="1.0" encoding="utf-8" standalone="no"?>
<!DOCTYPE svg PUBLIC "-//W3C//DTD SVG 1.1//EN"
  "http://www.w3.org/Graphics/SVG/1.1/DTD/svg11.dtd">
<!-- Created with matplotlib (http://matplotlib.org/) -->
<svg height="507pt" version="1.1" viewBox="0 0 646 507" width="646pt" xmlns="http://www.w3.org/2000/svg" xmlns:xlink="http://www.w3.org/1999/xlink">
 <defs>
  <style type="text/css">
*{stroke-linecap:butt;stroke-linejoin:round;stroke-miterlimit:100000;}
  </style>
 </defs>
 <g id="figure_1">
  <g id="patch_1">
   <path d="M 0 507.23088 
L 646.310625 507.23088 
L 646.310625 0 
L 0 0 
z
" style="fill:#ffffff;"/>
  </g>
  <g id="axes_1">
   <g id="patch_2">
    <path d="M 67.130313 386.64 
L 625.130312 386.64 
L 625.130312 7.2 
L 67.130313 7.2 
z
" style="fill:#ffffff;"/>
   </g>
   <g id="matplotlib.axis_1">
    <g id="xtick_1">
     <g id="line2d_1">
      <defs>
       <path d="M 0 0 
L 0 6 
" id="m7eb1fa690d" style="stroke:#666666;stroke-width:0.7;"/>
      </defs>
      <g>
       <use style="fill:#666666;stroke:#666666;stroke-width:0.7;" x="67.1303125" xlink:href="#m7eb1fa690d" y="386.64"/>
      </g>
     </g>
     <g id="text_1">
      <!-- 2013 -->
      <defs>
       <path d="M 19.921875 6.6875 
Q 25.53125 6.984375 30.03125 6.984375 
L 45.265625 6.984375 
L 45.265625 0 
L 7.5625 0 
L 7.5625 5.03125 
Q 13.1875 9.1875 17.921875 12.765625 
Q 22.65625 16.359375 26.09375 19.65625 
Q 29.546875 22.953125 31.5 26.078125 
Q 33.453125 29.203125 33.453125 32.375 
Q 33.453125 36.625 30.71875 38.859375 
Q 27.984375 41.109375 22.859375 41.109375 
Q 19.046875 41.0625 15.453125 39.984375 
Q 11.859375 38.921875 8.0625 37.15625 
L 8.0625 43.609375 
Q 10.84375 45.21875 14.921875 46.40625 
Q 19 47.609375 23.875 47.609375 
Q 27.734375 47.609375 30.921875 46.625 
Q 34.125 45.65625 36.4375 43.765625 
Q 38.765625 41.890625 40.03125 39.125 
Q 41.3125 36.375 41.3125 32.765625 
Q 41.3125 28.90625 39.640625 25.5625 
Q 37.984375 22.21875 35.109375 19.140625 
Q 32.234375 16.0625 28.328125 13.0625 
Q 24.421875 10.0625 19.921875 6.890625 
z
" id="Corbel-32"/>
       <path d="M 27.25 15.046875 
Q 29.828125 14.796875 32.203125 13.765625 
Q 34.578125 12.75 36.40625 10.84375 
Q 38.234375 8.9375 39.328125 6.15625 
Q 40.4375 3.375 40.4375 -0.390625 
Q 40.4375 -4.890625 38.921875 -8.546875 
Q 37.40625 -12.203125 34.46875 -14.796875 
Q 31.546875 -17.390625 27.21875 -18.78125 
Q 22.90625 -20.171875 17.234375 -20.171875 
Q 13.28125 -20.171875 9.6875 -19.4375 
Q 6.109375 -18.703125 3.328125 -17.28125 
L 3.328125 -10.84375 
Q 6.84375 -12.359375 10.25 -13.015625 
Q 13.671875 -13.671875 16.703125 -13.671875 
Q 21.1875 -13.671875 24.21875 -12.5625 
Q 27.25 -11.46875 29.078125 -9.65625 
Q 30.90625 -7.859375 31.703125 -5.484375 
Q 32.515625 -3.125 32.515625 -0.53125 
Q 32.515625 5.8125 28.46875 8.609375 
Q 24.421875 11.421875 16.75 11.421875 
L 11.578125 11.421875 
L 11.578125 17.921875 
L 14.59375 17.921875 
Q 18.796875 17.921875 21.796875 18.875 
Q 24.8125 19.828125 26.765625 21.5 
Q 28.71875 23.1875 29.609375 25.453125 
Q 30.515625 27.734375 30.515625 30.375 
Q 30.515625 33.15625 29.515625 35.171875 
Q 28.515625 37.203125 26.78125 38.515625 
Q 25.046875 39.84375 22.703125 40.46875 
Q 20.359375 41.109375 17.671875 41.109375 
Q 14.359375 41.109375 10.984375 40.328125 
Q 7.625 39.546875 4.34375 38.234375 
L 4.34375 44.671875 
Q 8.34375 46.34375 11.984375 46.96875 
Q 15.625 47.609375 18.40625 47.609375 
Q 23.140625 47.609375 26.84375 46.328125 
Q 30.5625 45.0625 33.125 42.765625 
Q 35.6875 40.484375 37.046875 37.359375 
Q 38.421875 34.234375 38.421875 30.46875 
Q 38.421875 27.984375 37.828125 25.640625 
Q 37.25 23.296875 35.90625 21.28125 
Q 34.578125 19.28125 32.453125 17.71875 
Q 30.328125 16.15625 27.25 15.234375 
z
" id="Corbel-33"/>
       <path d="M 39.0625 23.140625 
Q 39.0625 27.34375 38.109375 30.6875 
Q 37.15625 34.03125 35.421875 36.34375 
Q 33.6875 38.671875 31.21875 39.90625 
Q 28.765625 41.15625 25.6875 41.15625 
Q 22.609375 41.15625 20.140625 39.90625 
Q 17.671875 38.671875 15.90625 36.34375 
Q 14.15625 34.03125 13.234375 30.6875 
Q 12.3125 27.34375 12.3125 23.140625 
Q 12.3125 19 13.25 15.65625 
Q 14.203125 12.3125 15.9375 10.015625 
Q 17.671875 7.71875 20.15625 6.46875 
Q 22.65625 5.21875 25.734375 5.21875 
Q 28.8125 5.21875 31.265625 6.46875 
Q 33.734375 7.71875 35.46875 10.015625 
Q 37.203125 12.3125 38.125 15.65625 
Q 39.0625 19 39.0625 23.140625 
M 46.96875 23.140625 
Q 46.96875 17.96875 45.53125 13.5 
Q 44.09375 9.03125 41.359375 5.75 
Q 38.625 2.484375 34.6875 0.625 
Q 30.765625 -1.21875 25.734375 -1.21875 
Q 20.5625 -1.21875 16.578125 0.625 
Q 12.59375 2.484375 9.875 5.75 
Q 7.171875 9.03125 5.78125 13.5 
Q 4.390625 17.96875 4.390625 23.140625 
Q 4.390625 28.375 5.828125 32.84375 
Q 7.28125 37.3125 10.015625 40.59375 
Q 12.75 43.890625 16.703125 45.75 
Q 20.65625 47.609375 25.6875 47.609375 
Q 30.8125 47.609375 34.78125 45.75 
Q 38.765625 43.890625 41.46875 40.59375 
Q 44.1875 37.3125 45.578125 32.84375 
Q 46.96875 28.375 46.96875 23.140625 
" id="Corbel-30"/>
       <path d="M 22.015625 6.984375 
L 22.015625 38.328125 
L 4.390625 32.8125 
L 4.390625 39.84375 
L 23.046875 46.390625 
L 29.59375 46.390625 
L 29.59375 6.984375 
L 42.390625 6.984375 
L 42.390625 0 
L 6.453125 0 
L 6.453125 6.984375 
z
" id="Corbel-31"/>
      </defs>
      <g style="fill:#666666;" transform="translate(53.64875 410.5384375)scale(0.14 -0.14)">
       <use xlink:href="#Corbel-32"/>
       <use x="51.07421875" xlink:href="#Corbel-30"/>
       <use x="102.44140625" xlink:href="#Corbel-31"/>
       <use x="147.265625" xlink:href="#Corbel-33"/>
      </g>
     </g>
    </g>
    <g id="xtick_2">
     <g id="line2d_2">
      <g>
       <use style="fill:#666666;stroke:#666666;stroke-width:0.7;" x="253.1303125" xlink:href="#m7eb1fa690d" y="386.64"/>
      </g>
     </g>
     <g id="text_2">
      <!-- 2014 -->
      <defs>
       <path d="M 13.140625 6.5 
L 13.140625 6.296875 
L 20.359375 6.5 
L 31.0625 6.5 
L 31.0625 21.34375 
L 38.625 21.34375 
L 38.625 6.5 
L 48.25 6.5 
L 48.25 0 
L 38.625 0 
L 38.625 -18.890625 
L 31.0625 -18.890625 
L 31.0625 0 
L 4.5 0 
L 4.5 5.5625 
L 23.734375 46.390625 
L 31.890625 46.390625 
z
" id="Corbel-34"/>
      </defs>
      <g style="fill:#666666;" transform="translate(239.2046875 410.5384375)scale(0.14 -0.14)">
       <use xlink:href="#Corbel-32"/>
       <use x="51.07421875" xlink:href="#Corbel-30"/>
       <use x="102.44140625" xlink:href="#Corbel-31"/>
       <use x="147.265625" xlink:href="#Corbel-34"/>
      </g>
     </g>
    </g>
    <g id="xtick_3">
     <g id="line2d_3">
      <g>
       <use style="fill:#666666;stroke:#666666;stroke-width:0.7;" x="439.1303125" xlink:href="#m7eb1fa690d" y="386.64"/>
      </g>
     </g>
     <g id="text_3">
      <!-- 2015 -->
      <defs>
       <path d="M 42.875 0.640625 
Q 42.875 -3.859375 41.234375 -7.65625 
Q 39.59375 -11.46875 36.5 -14.25 
Q 33.40625 -17.046875 28.953125 -18.609375 
Q 24.515625 -20.171875 18.84375 -20.171875 
Q 15.140625 -20.171875 11.765625 -19.453125 
Q 8.40625 -18.75 5.71875 -17.28125 
L 5.71875 -10.84375 
Q 9.328125 -12.453125 12.546875 -13.015625 
Q 15.765625 -13.578125 18.5 -13.578125 
Q 22.65625 -13.578125 25.734375 -12.46875 
Q 28.8125 -11.375 30.859375 -9.46875 
Q 32.90625 -7.5625 33.9375 -5.046875 
Q 34.96875 -2.546875 34.96875 0.25 
Q 34.96875 3.609375 33.90625 6.078125 
Q 32.859375 8.546875 30.609375 10.171875 
Q 28.375 11.8125 24.859375 12.609375 
Q 21.34375 13.421875 16.359375 13.421875 
Q 12.84375 13.421875 7.859375 12.9375 
L 12.5 46.390625 
L 42.828125 46.390625 
L 42.828125 39.40625 
L 19.1875 39.40625 
L 16.453125 20.015625 
Q 18.171875 20.125 19.1875 20.125 
Q 24.90625 20.125 29.3125 18.796875 
Q 33.734375 17.484375 36.734375 14.984375 
Q 39.75 12.5 41.3125 8.890625 
Q 42.875 5.28125 42.875 0.640625 
" id="Corbel-35"/>
      </defs>
      <g style="fill:#666666;" transform="translate(425.460625 410.5384375)scale(0.14 -0.14)">
       <use xlink:href="#Corbel-32"/>
       <use x="51.07421875" xlink:href="#Corbel-30"/>
       <use x="102.44140625" xlink:href="#Corbel-31"/>
       <use x="147.265625" xlink:href="#Corbel-35"/>
      </g>
     </g>
    </g>
    <g id="xtick_4">
     <g id="line2d_4">
      <g>
       <use style="fill:#666666;stroke:#666666;stroke-width:0.7;" x="625.1303125" xlink:href="#m7eb1fa690d" y="386.64"/>
      </g>
     </g>
     <g id="text_4">
      <!-- 2016 -->
      <defs>
       <path d="M 27.546875 39.359375 
Q 31.890625 39.359375 35.578125 38.109375 
Q 39.265625 36.859375 41.921875 34.421875 
Q 44.578125 31.984375 46.0625 28.390625 
Q 47.5625 24.8125 47.5625 20.125 
Q 47.5625 15.4375 46.171875 11.5 
Q 44.78125 7.5625 42.140625 4.75 
Q 39.5 1.953125 35.6875 0.359375 
Q 31.890625 -1.21875 27.046875 -1.21875 
Q 21.921875 -1.21875 17.890625 0.828125 
Q 13.875 2.875 11.078125 6.6875 
Q 8.296875 10.5 6.828125 15.921875 
Q 5.375 21.34375 5.375 28.078125 
Q 5.375 33.25 6.171875 38.109375 
Q 6.984375 42.96875 8.5625 47.234375 
Q 10.15625 51.515625 12.46875 55.046875 
Q 14.796875 58.59375 17.875 61.15625 
Q 20.953125 63.71875 24.75 65.125 
Q 28.5625 66.546875 33.0625 66.546875 
Q 36.765625 66.5 39.453125 65.8125 
Q 42.140625 65.140625 43.953125 64.265625 
L 43.953125 57.90625 
Q 42 58.6875 39.265625 59.328125 
Q 36.53125 59.96875 33.59375 59.96875 
Q 30.078125 59.96875 26.78125 58.515625 
Q 23.484375 57.078125 20.796875 54.078125 
Q 18.109375 51.078125 16.234375 46.453125 
Q 14.359375 41.84375 13.625 35.5 
L 13.8125 35.5 
Q 16.890625 37.25 20.5 38.296875 
Q 24.125 39.359375 27.546875 39.359375 
M 27.34375 5.21875 
Q 29.9375 5.21875 32.171875 6.140625 
Q 34.421875 7.078125 36.078125 8.875 
Q 37.75 10.6875 38.703125 13.34375 
Q 39.65625 16.015625 39.65625 19.4375 
Q 39.65625 23.09375 38.640625 25.609375 
Q 37.640625 28.125 35.90625 29.6875 
Q 34.1875 31.25 31.859375 31.9375 
Q 29.546875 32.625 26.90625 32.625 
Q 23.4375 32.625 19.828125 31.390625 
Q 16.21875 30.171875 13.28125 28.421875 
Q 13.234375 22.5625 14.28125 18.1875 
Q 15.328125 13.8125 17.1875 10.9375 
Q 19.046875 8.0625 21.65625 6.640625 
Q 24.265625 5.21875 27.34375 5.21875 
" id="Corbel-36"/>
      </defs>
      <g style="fill:#666666;" transform="translate(611.15 410.5384375)scale(0.14 -0.14)">
       <use xlink:href="#Corbel-32"/>
       <use x="51.07421875" xlink:href="#Corbel-30"/>
       <use x="102.44140625" xlink:href="#Corbel-31"/>
       <use x="147.265625" xlink:href="#Corbel-36"/>
      </g>
     </g>
    </g>
    <g id="text_5">
     <!-- Year -->
     <defs>
      <path d="M 34.1875 5.03125 
L 33.984375 5.03125 
Q 33.015625 4 31.640625 2.921875 
Q 30.28125 1.859375 28.515625 0.90625 
Q 26.765625 -0.046875 24.609375 -0.625 
Q 22.46875 -1.21875 19.96875 -1.21875 
Q 16.609375 -1.21875 13.671875 -0.171875 
Q 10.75 0.875 8.640625 2.84375 
Q 6.546875 4.828125 5.34375 7.640625 
Q 4.15625 10.453125 4.15625 13.921875 
Q 4.15625 17.71875 5.546875 20.75 
Q 6.9375 23.78125 9.421875 25.875 
Q 11.921875 27.984375 15.375 29.078125 
Q 18.84375 30.171875 23.046875 30.171875 
Q 26.125 30.171875 28.703125 29.78125 
Q 31.296875 29.390625 33.25 28.859375 
L 33.25 30.765625 
Q 33.25 32.421875 32.6875 33.953125 
Q 32.125 35.5 30.875 36.6875 
Q 29.640625 37.890625 27.640625 38.59375 
Q 25.640625 39.3125 22.75 39.3125 
Q 19.234375 39.3125 15.71875 38.53125 
Q 12.203125 37.75 8.109375 36.1875 
L 8.109375 45.21875 
Q 11.671875 46.78125 15.671875 47.609375 
Q 19.671875 48.4375 24.078125 48.484375 
Q 29.25 48.484375 33.125 47.21875 
Q 37.015625 45.953125 39.625 43.71875 
Q 42.234375 41.5 43.53125 38.46875 
Q 44.828125 35.453125 44.828125 31.890625 
L 44.828125 14.0625 
Q 44.828125 9.375 44.921875 6 
Q 45.015625 2.640625 45.125 0 
L 34.671875 0 
z
M 33.25 20.171875 
Q 31.59375 20.5625 29.4375 20.875 
Q 27.296875 21.1875 25.09375 21.1875 
Q 20.84375 21.1875 18.375 19.5 
Q 15.921875 17.828125 15.921875 14.359375 
Q 15.921875 12.75 16.484375 11.546875 
Q 17.046875 10.359375 18 9.578125 
Q 18.953125 8.796875 20.21875 8.40625 
Q 21.484375 8.015625 22.90625 8.015625 
Q 24.65625 8.015625 26.21875 8.46875 
Q 27.78125 8.9375 29.09375 9.640625 
Q 30.421875 10.359375 31.46875 11.234375 
Q 32.515625 12.109375 33.25 12.9375 
z
" id="Corbel-Bold-61"/>
      <path d="M 31.78125 37.203125 
L 49.171875 65.328125 
L 62.453125 65.328125 
L 37.703125 26.3125 
L 37.703125 0 
L 25.734375 0 
L 25.734375 26.3125 
L 0.984375 65.328125 
L 14.265625 65.328125 
L 31.640625 37.203125 
z
" id="Corbel-Bold-59"/>
      <path d="M 30.71875 8.109375 
Q 34.078125 8.109375 37.734375 8.78125 
Q 41.40625 9.46875 45.171875 10.75 
L 45.171875 1.515625 
Q 42.921875 0.53125 38.28125 -0.34375 
Q 33.640625 -1.21875 28.65625 -1.21875 
Q 23.640625 -1.21875 19.109375 0.078125 
Q 14.59375 1.375 11.21875 4.25 
Q 7.859375 7.125 5.875 11.71875 
Q 3.90625 16.3125 3.90625 22.859375 
Q 3.90625 29.296875 5.765625 34.125 
Q 7.625 38.96875 10.75 42.140625 
Q 13.875 45.3125 17.890625 46.890625 
Q 21.921875 48.484375 26.21875 48.484375 
Q 30.71875 48.484375 34.5 47.109375 
Q 38.28125 45.75 41.03125 42.8125 
Q 43.796875 39.890625 45.328125 35.28125 
Q 46.875 30.671875 46.875 24.359375 
Q 46.828125 21.921875 46.734375 20.21875 
L 15.71875 20.21875 
Q 15.96875 16.9375 17.1875 14.625 
Q 18.40625 12.3125 20.375 10.859375 
Q 22.359375 9.421875 25 8.765625 
Q 27.640625 8.109375 30.71875 8.109375 
M 26.078125 39.453125 
Q 23.875 39.453125 22.15625 38.640625 
Q 20.453125 37.84375 19.203125 36.453125 
Q 17.96875 35.0625 17.234375 33.203125 
Q 16.5 31.34375 16.265625 29.25 
L 34.859375 29.25 
Q 34.859375 31.34375 34.296875 33.203125 
Q 33.734375 35.0625 32.640625 36.453125 
Q 31.546875 37.84375 29.90625 38.640625 
Q 28.265625 39.453125 26.078125 39.453125 
" id="Corbel-Bold-65"/>
      <path d="M 34.46875 38.140625 
L 33.5 38.140625 
Q 28.171875 38.140625 24.140625 36.546875 
Q 20.125 34.96875 17.921875 31.6875 
L 17.921875 0 
L 6.34375 0 
L 6.34375 47.3125 
L 15.921875 47.3125 
L 17 40.71875 
L 17.1875 40.71875 
Q 19.234375 44.34375 22.828125 46.40625 
Q 26.421875 48.484375 31.453125 48.484375 
Q 33.203125 48.484375 34.46875 48.296875 
z
" id="Corbel-Bold-72"/>
     </defs>
     <g style="fill:#666666;" transform="translate(332.05921875 428.6153125)scale(0.14 -0.14)">
      <use xlink:href="#Corbel-Bold-59"/>
      <use x="63.318359375" xlink:href="#Corbel-Bold-65"/>
      <use x="114.587890625" xlink:href="#Corbel-Bold-61"/>
      <use x="166.052734375" xlink:href="#Corbel-Bold-72"/>
     </g>
    </g>
   </g>
   <g id="matplotlib.axis_2">
    <g id="ytick_1">
     <g id="line2d_5">
      <path clip-path="url(#ped86d7087b)" d="M 67.130313 386.64 
L 625.130312 386.64 
" style="fill:none;stroke:#666666;stroke-linecap:square;stroke-width:0.7;"/>
     </g>
     <g id="line2d_6">
      <defs>
       <path d="M 0 0 
L -6 0 
" id="m2f5656f242" style="stroke:#666666;stroke-width:0.7;"/>
      </defs>
      <g>
       <use style="fill:#666666;stroke:#666666;stroke-width:0.7;" x="67.1303125" xlink:href="#m2f5656f242" y="386.64"/>
      </g>
     </g>
     <g id="line2d_7">
      <defs>
       <path d="M 0 0 
L 6 0 
" id="m16866de63e" style="stroke:#666666;stroke-width:0.7;"/>
      </defs>
      <g>
       <use style="fill:#666666;stroke:#666666;stroke-width:0.7;" x="625.1303125" xlink:href="#m16866de63e" y="386.64"/>
      </g>
     </g>
     <g id="text_6">
      <!-- 0 -->
      <g style="fill:#666666;" transform="translate(45.9378125 390.0)scale(0.14 -0.14)">
       <use xlink:href="#Corbel-30"/>
      </g>
     </g>
    </g>
    <g id="ytick_2">
     <g id="line2d_8">
      <path clip-path="url(#ped86d7087b)" d="M 67.130313 329.149091 
L 625.130312 329.149091 
" style="fill:none;stroke:#666666;stroke-linecap:square;stroke-width:0.7;"/>
     </g>
     <g id="line2d_9">
      <g>
       <use style="fill:#666666;stroke:#666666;stroke-width:0.7;" x="67.1303125" xlink:href="#m2f5656f242" y="329.149090909"/>
      </g>
     </g>
     <g id="line2d_10">
      <g>
       <use style="fill:#666666;stroke:#666666;stroke-width:0.7;" x="625.1303125" xlink:href="#m16866de63e" y="329.149090909"/>
      </g>
     </g>
     <g id="text_7">
      <!-- 200 -->
      <g style="fill:#666666;" transform="translate(31.594375 332.509090909)scale(0.14 -0.14)">
       <use xlink:href="#Corbel-32"/>
       <use x="51.07421875" xlink:href="#Corbel-30"/>
       <use x="102.44140625" xlink:href="#Corbel-30"/>
      </g>
     </g>
    </g>
    <g id="ytick_3">
     <g id="line2d_11">
      <path clip-path="url(#ped86d7087b)" d="M 67.130313 271.658182 
L 625.130312 271.658182 
" style="fill:none;stroke:#666666;stroke-linecap:square;stroke-width:0.7;"/>
     </g>
     <g id="line2d_12">
      <g>
       <use style="fill:#666666;stroke:#666666;stroke-width:0.7;" x="67.1303125" xlink:href="#m2f5656f242" y="271.658181818"/>
      </g>
     </g>
     <g id="line2d_13">
      <g>
       <use style="fill:#666666;stroke:#666666;stroke-width:0.7;" x="625.1303125" xlink:href="#m16866de63e" y="271.658181818"/>
      </g>
     </g>
     <g id="text_8">
      <!-- 400 -->
      <g style="fill:#666666;" transform="translate(31.5134375 275.018181818)scale(0.14 -0.14)">
       <use xlink:href="#Corbel-34"/>
       <use x="51.66015625" xlink:href="#Corbel-30"/>
       <use x="103.02734375" xlink:href="#Corbel-30"/>
      </g>
     </g>
    </g>
    <g id="ytick_4">
     <g id="line2d_14">
      <path clip-path="url(#ped86d7087b)" d="M 67.130313 214.167273 
L 625.130312 214.167273 
" style="fill:none;stroke:#666666;stroke-linecap:square;stroke-width:0.7;"/>
     </g>
     <g id="line2d_15">
      <g>
       <use style="fill:#666666;stroke:#666666;stroke-width:0.7;" x="67.1303125" xlink:href="#m2f5656f242" y="214.167272727"/>
      </g>
     </g>
     <g id="line2d_16">
      <g>
       <use style="fill:#666666;stroke:#666666;stroke-width:0.7;" x="625.1303125" xlink:href="#m16866de63e" y="214.167272727"/>
      </g>
     </g>
     <g id="text_9">
      <!-- 600 -->
      <g style="fill:#666666;" transform="translate(31.4040625 217.527272727)scale(0.14 -0.14)">
       <use xlink:href="#Corbel-36"/>
       <use x="52.44140625" xlink:href="#Corbel-30"/>
       <use x="103.80859375" xlink:href="#Corbel-30"/>
      </g>
     </g>
    </g>
    <g id="ytick_5">
     <g id="line2d_17">
      <path clip-path="url(#ped86d7087b)" d="M 67.130313 156.676364 
L 625.130312 156.676364 
" style="fill:none;stroke:#666666;stroke-linecap:square;stroke-width:0.7;"/>
     </g>
     <g id="line2d_18">
      <g>
       <use style="fill:#666666;stroke:#666666;stroke-width:0.7;" x="67.1303125" xlink:href="#m2f5656f242" y="156.676363636"/>
      </g>
     </g>
     <g id="line2d_19">
      <g>
       <use style="fill:#666666;stroke:#666666;stroke-width:0.7;" x="625.1303125" xlink:href="#m16866de63e" y="156.676363636"/>
      </g>
     </g>
     <g id="text_10">
      <!-- 800 -->
      <defs>
       <path d="M 25.734375 -1.21875 
Q 21 -1.21875 17.109375 0.171875 
Q 13.234375 1.5625 10.453125 4 
Q 7.671875 6.453125 6.15625 9.796875 
Q 4.640625 13.140625 4.640625 17.046875 
Q 4.640625 20.65625 5.65625 23.4375 
Q 6.6875 26.21875 8.421875 28.265625 
Q 10.15625 30.328125 12.46875 31.671875 
Q 14.796875 33.015625 17.390625 33.640625 
L 17.390625 33.84375 
Q 14.9375 34.671875 12.859375 36.078125 
Q 10.796875 37.5 9.25 39.46875 
Q 7.71875 41.453125 6.859375 43.96875 
Q 6 46.484375 6 49.515625 
Q 6 53.65625 7.65625 56.828125 
Q 9.328125 60.015625 12.078125 62.1875 
Q 14.84375 64.359375 18.375 65.453125 
Q 21.921875 66.546875 25.734375 66.546875 
Q 29.546875 66.546875 33.078125 65.453125 
Q 36.625 64.359375 39.375 62.1875 
Q 42.140625 60.015625 43.796875 56.828125 
Q 45.453125 53.65625 45.453125 49.515625 
Q 45.453125 46.484375 44.5 43.96875 
Q 43.5625 41.453125 41.9375 39.46875 
Q 40.328125 37.5 38.171875 36.078125 
Q 36.03125 34.671875 33.59375 33.84375 
L 33.59375 33.640625 
Q 36.1875 33.015625 38.578125 31.671875 
Q 40.96875 30.328125 42.796875 28.265625 
Q 44.625 26.21875 45.71875 23.4375 
Q 46.828125 20.65625 46.828125 17.046875 
Q 46.828125 13.140625 45.3125 9.796875 
Q 43.796875 6.453125 41.015625 4 
Q 38.234375 1.5625 34.34375 0.171875 
Q 30.46875 -1.21875 25.734375 -1.21875 
M 25.734375 60.109375 
Q 23.1875 60.109375 21.015625 59.390625 
Q 18.84375 58.6875 17.25 57.296875 
Q 15.671875 55.90625 14.796875 53.90625 
Q 13.921875 51.90625 13.921875 49.265625 
Q 13.921875 44.28125 17.015625 41.15625 
Q 20.125 38.03125 25.734375 36.921875 
Q 31.34375 38.03125 34.4375 41.15625 
Q 37.546875 44.28125 37.546875 49.265625 
Q 37.546875 51.90625 36.671875 53.90625 
Q 35.796875 55.90625 34.203125 57.296875 
Q 32.625 58.6875 30.46875 59.390625 
Q 28.328125 60.109375 25.734375 60.109375 
M 25.734375 30.21875 
Q 23 29.9375 20.609375 29.03125 
Q 18.21875 28.125 16.40625 26.53125 
Q 14.59375 24.953125 13.5625 22.65625 
Q 12.546875 20.359375 12.546875 17.28125 
Q 12.546875 14.5 13.546875 12.25 
Q 14.546875 10.015625 16.296875 8.453125 
Q 18.0625 6.890625 20.484375 6.046875 
Q 22.90625 5.21875 25.734375 5.21875 
Q 28.609375 5.21875 31.03125 6.046875 
Q 33.453125 6.890625 35.203125 8.453125 
Q 36.96875 10.015625 37.9375 12.25 
Q 38.921875 14.5 38.921875 17.28125 
Q 38.921875 20.359375 37.890625 22.65625 
Q 36.859375 24.953125 35.046875 26.53125 
Q 33.25 28.125 30.859375 29.03125 
Q 28.46875 29.9375 25.734375 30.21875 
" id="Corbel-38"/>
      </defs>
      <g style="fill:#666666;" transform="translate(31.5396875 160.036363636)scale(0.14 -0.14)">
       <use xlink:href="#Corbel-38"/>
       <use x="51.46484375" xlink:href="#Corbel-30"/>
       <use x="102.83203125" xlink:href="#Corbel-30"/>
      </g>
     </g>
    </g>
    <g id="ytick_6">
     <g id="line2d_20">
      <path clip-path="url(#ped86d7087b)" d="M 67.130313 99.185455 
L 625.130312 99.185455 
" style="fill:none;stroke:#666666;stroke-linecap:square;stroke-width:0.7;"/>
     </g>
     <g id="line2d_21">
      <g>
       <use style="fill:#666666;stroke:#666666;stroke-width:0.7;" x="67.1303125" xlink:href="#m2f5656f242" y="99.1854545455"/>
      </g>
     </g>
     <g id="line2d_22">
      <g>
       <use style="fill:#666666;stroke:#666666;stroke-width:0.7;" x="625.1303125" xlink:href="#m16866de63e" y="99.1854545455"/>
      </g>
     </g>
     <g id="text_11">
      <!-- 1000 -->
      <g style="fill:#666666;" transform="translate(25.276875 102.545454545)scale(0.14 -0.14)">
       <use xlink:href="#Corbel-31"/>
       <use x="44.82421875" xlink:href="#Corbel-30"/>
       <use x="96.19140625" xlink:href="#Corbel-30"/>
       <use x="147.55859375" xlink:href="#Corbel-30"/>
      </g>
     </g>
    </g>
    <g id="ytick_7">
     <g id="line2d_23">
      <path clip-path="url(#ped86d7087b)" d="M 67.130313 41.694545 
L 625.130312 41.694545 
" style="fill:none;stroke:#666666;stroke-linecap:square;stroke-width:0.7;"/>
     </g>
     <g id="line2d_24">
      <g>
       <use style="fill:#666666;stroke:#666666;stroke-width:0.7;" x="67.1303125" xlink:href="#m2f5656f242" y="41.6945454545"/>
      </g>
     </g>
     <g id="line2d_25">
      <g>
       <use style="fill:#666666;stroke:#666666;stroke-width:0.7;" x="625.1303125" xlink:href="#m16866de63e" y="41.6945454545"/>
      </g>
     </g>
     <g id="text_12">
      <!-- 1200 -->
      <g style="fill:#666666;" transform="translate(25.3184375 45.0545454545)scale(0.14 -0.14)">
       <use xlink:href="#Corbel-31"/>
       <use x="44.82421875" xlink:href="#Corbel-32"/>
       <use x="95.8984375" xlink:href="#Corbel-30"/>
       <use x="147.265625" xlink:href="#Corbel-30"/>
      </g>
     </g>
    </g>
    <g id="text_13">
     <!-- Number -->
     <defs>
      <path d="M 27.25 -1.21875 
Q 20.125 -1.21875 15.4375 1.1875 
Q 10.75 3.609375 8.34375 7.71875 
Q 7.078125 9.90625 6.46875 12.546875 
Q 5.859375 15.1875 5.859375 18.40625 
L 5.859375 47.3125 
L 17.4375 47.3125 
L 17.4375 19.625 
Q 17.4375 17.234375 17.765625 15.5 
Q 18.109375 13.765625 18.796875 12.5 
Q 19.96875 10.359375 22.109375 9.296875 
Q 24.265625 8.25 27.25 8.25 
Q 30.375 8.25 32.59375 9.421875 
Q 34.8125 10.59375 35.9375 12.984375 
Q 37.0625 15.28125 37.0625 19.390625 
L 37.0625 47.3125 
L 48.640625 47.3125 
L 48.640625 18.40625 
Q 48.640625 12.640625 46.625 8.6875 
Q 45.515625 6.453125 43.71875 4.609375 
Q 41.9375 2.78125 39.515625 1.484375 
Q 37.109375 0.203125 34.046875 -0.5 
Q 31 -1.21875 27.25 -1.21875 
" id="Corbel-Bold-75"/>
      <path d="M 41.84375 34.96875 
Q 48.875 24.953125 53.265625 17.1875 
L 53.5625 17.1875 
Q 52.984375 29.9375 52.984375 35.75 
L 52.984375 65.328125 
L 64.9375 65.328125 
L 64.9375 0 
L 52.390625 0 
L 31.109375 30.078125 
Q 25.484375 37.890625 19.484375 48.1875 
L 19.1875 48.1875 
Q 19.78125 36.1875 19.78125 29.59375 
L 19.78125 0 
L 7.8125 0 
L 7.8125 65.328125 
L 20.359375 65.328125 
z
" id="Corbel-Bold-4e"/>
      <path d="M 67.28125 28.8125 
Q 67.28125 30.328125 67.1875 31.640625 
Q 67.09375 32.953125 66.84375 33.9375 
Q 66.3125 36.078125 64.75 37.390625 
Q 63.1875 38.71875 60.359375 38.765625 
Q 58.84375 38.765625 57.21875 38.328125 
Q 55.609375 37.890625 54.015625 37.078125 
Q 52.4375 36.28125 51 35.125 
Q 49.5625 33.984375 48.390625 32.5625 
L 48.390625 0 
L 36.8125 0 
L 36.8125 28.8125 
Q 36.8125 30.328125 36.71875 31.640625 
Q 36.625 32.953125 36.375 33.9375 
Q 35.84375 36.078125 34.296875 37.390625 
Q 32.765625 38.71875 29.890625 38.765625 
Q 28.375 38.765625 26.75 38.328125 
Q 25.140625 37.890625 23.546875 37.078125 
Q 21.96875 36.28125 20.53125 35.125 
Q 19.09375 33.984375 17.921875 32.5625 
L 17.921875 0 
L 6.34375 0 
L 6.34375 47.3125 
L 15.921875 47.3125 
L 17 40.71875 
L 17.1875 40.71875 
Q 18.21875 42.1875 19.78125 43.59375 
Q 21.34375 45.015625 23.3125 46.09375 
Q 25.296875 47.171875 27.65625 47.828125 
Q 30.03125 48.484375 32.671875 48.484375 
Q 37.359375 48.484375 41.09375 46.40625 
Q 44.828125 44.34375 46.78125 39.9375 
L 46.96875 39.9375 
Q 48.34375 41.84375 50.015625 43.40625 
Q 51.703125 44.96875 53.75 46.09375 
Q 55.8125 47.21875 58.171875 47.84375 
Q 60.546875 48.484375 63.234375 48.484375 
Q 68.3125 48.4375 71.75 46.359375 
Q 75.203125 44.28125 77.046875 40.671875 
Q 77.546875 39.75 77.875 38.640625 
Q 78.21875 37.546875 78.4375 36.171875 
Q 78.65625 34.8125 78.75 33.15625 
Q 78.859375 31.5 78.859375 29.34375 
L 78.859375 0 
L 67.28125 0 
z
" id="Corbel-Bold-6d"/>
      <path d="M 51.8125 24.46875 
Q 51.8125 18.0625 49.953125 13.125 
Q 48.09375 8.203125 45.09375 5.03125 
Q 42.09375 1.859375 38.328125 0.3125 
Q 34.578125 -1.21875 30.765625 -1.21875 
Q 28.078125 -1.21875 25.921875 -0.5625 
Q 23.78125 0.09375 22.171875 1.0625 
Q 20.5625 2.046875 19.453125 3.125 
Q 18.359375 4.203125 17.71875 5.03125 
L 17.53125 5.03125 
L 16.40625 0 
L 6.84375 0 
Q 6.9375 2.09375 7 5.1875 
Q 7.078125 8.296875 7.078125 11.078125 
L 7.078125 70.703125 
L 18.65625 70.703125 
L 18.65625 51.03125 
Q 18.65625 48.921875 18.625 47.140625 
Q 18.609375 45.359375 18.5625 44.390625 
L 18.65625 44.390625 
Q 19.78125 45.171875 21.09375 45.890625 
Q 22.40625 46.625 23.96875 47.203125 
Q 25.53125 47.796875 27.34375 48.140625 
Q 29.15625 48.484375 31.15625 48.484375 
Q 35.109375 48.484375 38.84375 47.046875 
Q 42.578125 45.609375 45.484375 42.65625 
Q 48.390625 39.703125 50.09375 35.078125 
Q 51.8125 30.46875 51.8125 24.46875 
M 39.84375 23.875 
Q 39.84375 28.328125 38.765625 31.515625 
Q 37.703125 34.71875 35.96875 36.40625 
Q 34.234375 38.09375 32.34375 38.671875 
Q 30.46875 39.265625 28.609375 39.265625 
Q 26.078125 39.265625 23.4375 38.234375 
Q 20.796875 37.203125 18.65625 35.5 
L 18.65625 12.84375 
Q 19.34375 12.0625 20.34375 11.203125 
Q 21.34375 10.359375 22.578125 9.640625 
Q 23.828125 8.9375 25.296875 8.46875 
Q 26.765625 8.015625 28.421875 8.015625 
Q 31.25 8.015625 33.375 9.15625 
Q 35.5 10.296875 36.9375 12.390625 
Q 38.375 14.5 39.109375 17.40625 
Q 39.84375 20.3125 39.84375 23.875 
" id="Corbel-Bold-62"/>
     </defs>
     <g style="fill:#666666;" transform="translate(17.0984375 221.7284375)rotate(-90.0)scale(0.14 -0.14)">
      <use xlink:href="#Corbel-Bold-4e"/>
      <use x="72.75390625" xlink:href="#Corbel-Bold-75"/>
      <use x="127.24609375" xlink:href="#Corbel-Bold-6d"/>
      <use x="212.451171875" xlink:href="#Corbel-Bold-62"/>
      <use x="268.1640625" xlink:href="#Corbel-Bold-65"/>
      <use x="319.43359375" xlink:href="#Corbel-Bold-72"/>
     </g>
    </g>
   </g>
   <g id="line2d_26">
    <path clip-path="url(#ped86d7087b)" d="M 67.130313 374.854364 
L 253.130313 367.380545 
L 439.130313 356.744727 
L 625.130312 343.809273 
" style="fill:none;stroke:#b71a8b;stroke-linecap:square;stroke-width:1.5;"/>
   </g>
   <g id="line2d_27">
    <path clip-path="url(#ped86d7087b)" d="M 67.130313 369.392727 
L 253.130313 338.060182 
L 439.130313 345.534 
L 625.130312 337.485273 
" style="fill:none;stroke:#0092cb;stroke-linecap:square;stroke-width:1.5;"/>
   </g>
   <g id="line2d_28">
    <path clip-path="url(#ped86d7087b)" d="M 67.130313 334.898182 
L 253.130313 234.289091 
L 439.130313 168.462 
L 625.130312 120.457091 
" style="fill:none;stroke:#e85e12;stroke-linecap:square;stroke-width:1.5;"/>
   </g>
   <g id="line2d_29">
    <path clip-path="url(#ped86d7087b)" d="M 67.130313 374.854364 
L 253.130313 359.044364 
L 439.130313 353.870182 
L 625.130312 359.906727 
" style="fill:none;stroke:#e61554;stroke-linecap:square;stroke-width:1.5;"/>
   </g>
   <g id="line2d_30">
    <path clip-path="url(#ped86d7087b)" d="M 67.130313 372.267273 
L 253.130313 312.189273 
L 439.130313 359.044364 
L 625.130312 328.861636 
" style="fill:none;stroke:#f9b000;stroke-linecap:square;stroke-width:1.5;"/>
   </g>
   <g id="line2d_31">
    <path clip-path="url(#ped86d7087b)" d="M 67.130313 364.218545 
L 253.130313 340.934727 
L 439.130313 336.622909 
L 625.130312 330.586364 
" style="fill:none;stroke:#b2bb1c;stroke-linecap:square;stroke-width:1.5;"/>
   </g>
   <g id="line2d_32">
    <path clip-path="url(#ped86d7087b)" d="M 67.130313 347.258727 
L 253.130313 329.149091 
L 439.130313 324.549818 
L 625.130312 307.877455 
" style="fill:none;stroke:#5b0d45;stroke-linecap:square;stroke-width:1.5;"/>
   </g>
   <g id="line2d_33">
    <path clip-path="url(#ped86d7087b)" d="M 67.130313 378.591273 
L 253.130313 378.878727 
L 439.130313 381.178364 
L 625.130312 376.291636 
" style="fill:none;stroke:#4a1e06;stroke-linecap:square;stroke-width:1.5;"/>
   </g>
   <g id="line2d_34">
    <path clip-path="url(#ped86d7087b)" d="M 67.130313 350.133273 
L 253.130313 252.973636 
L 439.130313 233.426727 
L 625.130312 146.040545 
" style="fill:none;stroke:#004a68;stroke-linecap:square;stroke-width:1.5;"/>
   </g>
   <g id="line2d_35">
    <path clip-path="url(#ped86d7087b)" d="M 67.130313 330.586364 
L 253.130313 232.851818 
L 439.130313 326.274545 
L 625.130312 266.484 
" style="fill:none;stroke:#940e37;stroke-linecap:square;stroke-width:1.5;"/>
   </g>
   <g id="line2d_36">
    <path clip-path="url(#ped86d7087b)" d="M 67.130313 313.051636 
L 253.130313 190.596 
L 439.130313 225.378 
L 625.130312 95.161091 
" style="fill:none;stroke:#ff0000;stroke-dasharray:1.000000,3.000000;stroke-dashoffset:0.0;stroke-width:1.5;"/>
   </g>
   <g id="patch_3">
    <path d="M 625.130312 386.64 
L 625.130312 7.2 
" style="fill:none;stroke:#666666;stroke-linecap:square;stroke-linejoin:miter;stroke-width:0.5;"/>
   </g>
   <g id="patch_4">
    <path d="M 67.130313 386.64 
L 625.130312 386.64 
" style="fill:none;stroke:#666666;stroke-linecap:square;stroke-linejoin:miter;stroke-width:0.5;"/>
   </g>
   <g id="patch_5">
    <path d="M 67.130313 386.64 
L 67.130313 7.2 
" style="fill:none;stroke:#666666;stroke-linecap:square;stroke-linejoin:miter;stroke-width:0.5;"/>
   </g>
   <g id="legend_1">
    <g id="line2d_37">
     <path d="M 62.457812 436.241505 
L 79.257812 436.241505 
" style="fill:none;stroke:#b71a8b;stroke-linecap:square;stroke-width:1.5;"/>
    </g>
    <g id="line2d_38"/>
    <g id="text_14">
     <!-- American Chemical Society (ACS) -->
     <defs>
      <path d="M 7.8125 0 
L 7.8125 46.390625 
L 15.375 46.390625 
L 15.375 0 
z
M 7.625 57.171875 
L 7.625 65.625 
L 15.578125 65.625 
L 15.578125 57.171875 
z
" id="Corbel-69"/>
      <path d="M 15.375 40.046875 
L 15.53125 40.046875 
Q 16.796875 41.65625 18.359375 43.046875 
Q 19.921875 44.4375 21.828125 45.4375 
Q 23.734375 46.4375 25.921875 47.015625 
Q 28.125 47.609375 30.671875 47.609375 
Q 33.296875 47.609375 35.9375 46.890625 
Q 38.578125 46.1875 40.8125 44.375 
Q 43.0625 42.578125 44.484375 39.359375 
Q 45.90625 36.140625 45.90625 31.0625 
L 45.90625 0 
L 38.328125 0 
L 38.328125 29.828125 
Q 38.328125 35.453125 36.203125 38.28125 
Q 34.078125 41.109375 29.25 41.109375 
Q 25.25 41.109375 21.625 38.9375 
Q 18.015625 36.765625 15.375 32.953125 
L 15.375 0 
L 7.8125 0 
L 7.8125 70.703125 
L 15.375 70.703125 
z
" id="Corbel-68"/>
      <path d="M 14.359375 48.046875 
Q 14.359375 45.171875 15.53125 43.28125 
Q 16.703125 41.40625 18.671875 40.1875 
Q 20.65625 38.96875 23.265625 38.1875 
Q 25.875 37.40625 28.71875 36.71875 
Q 32.515625 35.796875 36.203125 34.671875 
Q 39.890625 33.546875 42.765625 31.5625 
Q 45.65625 29.59375 47.4375 26.421875 
Q 49.21875 23.25 49.21875 18.265625 
Q 49.21875 13.1875 47.328125 9.5 
Q 45.453125 5.8125 42.109375 3.4375 
Q 38.765625 1.078125 34.125 -0.0625 
Q 29.5 -1.21875 23.96875 -1.21875 
Q 21.4375 -1.21875 18.765625 -0.90625 
Q 16.109375 -0.59375 13.6875 -0.046875 
Q 11.28125 0.484375 9.328125 1.171875 
Q 7.375 1.859375 6.25 2.546875 
L 6.25 9.8125 
Q 8.015625 8.9375 10.203125 8.203125 
Q 12.40625 7.46875 14.75 6.953125 
Q 17.09375 6.453125 19.484375 6.15625 
Q 21.875 5.859375 23.96875 5.859375 
Q 27.390625 5.859375 30.484375 6.4375 
Q 33.59375 7.03125 35.9375 8.390625 
Q 38.28125 9.765625 39.640625 12.125 
Q 41.015625 14.5 41.015625 18.0625 
Q 41.015625 21 39.8125 22.90625 
Q 38.625 24.8125 36.625 26.046875 
Q 34.625 27.296875 32 28.078125 
Q 29.390625 28.859375 26.515625 29.546875 
Q 22.703125 30.421875 19.0625 31.515625 
Q 15.4375 32.625 12.578125 34.578125 
Q 9.71875 36.53125 7.984375 39.59375 
Q 6.25 42.671875 6.25 47.46875 
Q 6.25 52.4375 8 56.03125 
Q 9.765625 59.625 12.796875 61.96875 
Q 15.828125 64.3125 19.875 65.421875 
Q 23.921875 66.546875 28.515625 66.546875 
Q 33.734375 66.546875 38.25 65.546875 
Q 42.78125 64.546875 46.53125 62.9375 
L 46.53125 55.5625 
Q 42.484375 57.28125 38.15625 58.34375 
Q 33.84375 59.421875 28.90625 59.46875 
Q 25.203125 59.46875 22.46875 58.65625 
Q 19.734375 57.859375 17.921875 56.375 
Q 16.109375 54.890625 15.234375 52.765625 
Q 14.359375 50.640625 14.359375 48.046875 
" id="Corbel-53"/>
      <path id="Corbel-20"/>
      <path d="M 32.765625 40.234375 
L 32.171875 40.234375 
Q 29.5 40.234375 26.90625 39.75 
Q 24.3125 39.265625 22.046875 38.25 
Q 19.78125 37.25 17.9375 35.78125 
Q 16.109375 34.328125 14.890625 32.328125 
L 14.890625 0 
L 7.328125 0 
L 7.328125 46.390625 
L 13.1875 46.390625 
L 14.65625 39.015625 
L 14.796875 39.015625 
Q 15.921875 40.828125 17.546875 42.390625 
Q 19.1875 43.953125 21.234375 45.125 
Q 23.296875 46.296875 25.734375 46.953125 
Q 28.171875 47.609375 30.859375 47.609375 
Q 31.34375 47.609375 31.859375 47.578125 
Q 32.375 47.5625 32.765625 47.515625 
z
" id="Corbel-72"/>
      <path d="M 40.046875 59.46875 
Q 34.625 59.46875 29.90625 57.734375 
Q 25.203125 56 21.734375 52.5625 
Q 18.265625 49.125 16.265625 44.015625 
Q 14.265625 38.921875 14.265625 32.125 
Q 14.265625 25.390625 16.109375 20.4375 
Q 17.96875 15.484375 21.390625 12.234375 
Q 24.8125 8.984375 29.609375 7.421875 
Q 34.421875 5.859375 40.328125 5.859375 
Q 41.9375 5.859375 43.75 6.03125 
Q 45.5625 6.203125 47.390625 6.515625 
Q 49.21875 6.84375 50.953125 7.25 
Q 52.6875 7.671875 54.046875 8.15625 
L 54.046875 1.125 
Q 51.171875 0 47.359375 -0.609375 
Q 43.5625 -1.21875 39.546875 -1.21875 
Q 31.390625 -1.21875 25.09375 1.046875 
Q 18.796875 3.328125 14.515625 7.5625 
Q 10.25 11.8125 8.046875 17.9375 
Q 5.859375 24.078125 5.859375 31.84375 
Q 5.859375 39.453125 8.171875 45.84375 
Q 10.5 52.25 14.859375 56.828125 
Q 19.234375 61.421875 25.453125 63.984375 
Q 31.6875 66.546875 39.453125 66.546875 
Q 41.5 66.546875 43.5 66.375 
Q 45.515625 66.21875 47.34375 65.890625 
Q 49.171875 65.578125 50.734375 65.140625 
Q 52.296875 64.703125 53.421875 64.203125 
L 53.421875 57.171875 
Q 50.484375 58.15625 47.015625 58.8125 
Q 43.5625 59.46875 40.046875 59.46875 
" id="Corbel-43"/>
      <path d="M 27.25 47.609375 
Q 30.609375 47.609375 33.6875 46.890625 
Q 36.765625 46.1875 38.96875 44.921875 
L 38.96875 38.625 
Q 35.890625 39.796875 33.296875 40.375 
Q 30.71875 40.96875 28.03125 40.96875 
Q 25.203125 40.96875 22.40625 40.03125 
Q 19.625 39.109375 17.421875 36.984375 
Q 15.234375 34.859375 13.890625 31.359375 
Q 12.546875 27.875 12.546875 22.703125 
Q 12.546875 18.953125 13.546875 15.765625 
Q 14.546875 12.59375 16.515625 10.265625 
Q 18.5 7.953125 21.484375 6.65625 
Q 24.46875 5.375 28.375 5.375 
Q 31.203125 5.375 34.078125 5.984375 
Q 36.96875 6.59375 39.703125 7.71875 
L 39.703125 1.421875 
Q 38.875 0.921875 37.53125 0.4375 
Q 36.1875 -0.046875 34.5625 -0.40625 
Q 32.953125 -0.78125 31.140625 -1 
Q 29.34375 -1.21875 27.546875 -1.21875 
Q 22.859375 -1.21875 18.671875 0.1875 
Q 14.5 1.609375 11.375 4.53125 
Q 8.25 7.46875 6.4375 11.953125 
Q 4.640625 16.453125 4.640625 22.609375 
Q 4.640625 27.203125 5.59375 30.859375 
Q 6.546875 34.515625 8.203125 37.296875 
Q 9.859375 40.09375 12.078125 42.046875 
Q 14.3125 44 16.828125 45.234375 
Q 19.34375 46.484375 22.015625 47.046875 
Q 24.703125 47.609375 27.25 47.609375 
" id="Corbel-63"/>
      <path d="M 25.484375 41.109375 
Q 22.90625 41.109375 20.671875 40.078125 
Q 18.453125 39.0625 16.796875 37.296875 
Q 15.140625 35.546875 14.109375 33.171875 
Q 13.09375 30.8125 12.84375 28.125 
L 36.28125 28.125 
Q 36.28125 30.859375 35.5625 33.21875 
Q 34.859375 35.59375 33.484375 37.34375 
Q 32.125 39.109375 30.125 40.109375 
Q 28.125 41.109375 25.484375 41.109375 
M 29.640625 5.375 
Q 33.40625 5.375 36.5 5.984375 
Q 39.59375 6.59375 42.671875 7.71875 
L 42.671875 1.421875 
Q 40.1875 0.203125 36.515625 -0.5 
Q 32.859375 -1.21875 28.65625 -1.21875 
Q 23.6875 -1.21875 19.3125 0.046875 
Q 14.9375 1.3125 11.671875 4.140625 
Q 8.40625 6.984375 6.515625 11.546875 
Q 4.640625 16.109375 4.640625 22.5625 
Q 4.640625 28.90625 6.390625 33.5625 
Q 8.15625 38.234375 11.078125 41.359375 
Q 14.015625 44.484375 17.8125 46.046875 
Q 21.625 47.609375 25.78125 47.609375 
Q 29.6875 47.609375 33.078125 46.3125 
Q 36.46875 45.015625 38.953125 42.234375 
Q 41.453125 39.453125 42.890625 35.0625 
Q 44.34375 30.671875 44.34375 24.515625 
Q 44.34375 23.921875 44.34375 23.5 
Q 44.34375 23.09375 44.28125 21.625 
L 12.453125 21.625 
Q 12.453125 17.1875 13.796875 14.078125 
Q 15.140625 10.984375 17.453125 9.046875 
Q 19.78125 7.125 22.90625 6.25 
Q 26.03125 5.375 29.640625 5.375 
" id="Corbel-65"/>
      <path d="M 12.9375 25.34375 
Q 12.9375 18.796875 14.0625 13.234375 
Q 15.1875 7.671875 17.03125 3.03125 
Q 18.890625 -1.609375 21.359375 -5.34375 
Q 23.828125 -9.078125 26.46875 -11.96875 
L 22.3125 -15.875 
Q 20.953125 -14.703125 19.140625 -12.71875 
Q 17.328125 -10.75 15.453125 -7.984375 
Q 13.578125 -5.21875 11.765625 -1.71875 
Q 9.96875 1.765625 8.546875 5.9375 
Q 7.125 10.109375 6.25 14.984375 
Q 5.375 19.875 5.375 25.34375 
Q 5.375 30.859375 6.25 35.71875 
Q 7.125 40.578125 8.546875 44.75 
Q 9.96875 48.921875 11.765625 52.40625 
Q 13.578125 55.90625 15.453125 58.65625 
Q 17.328125 61.421875 19.140625 63.390625 
Q 20.953125 65.375 22.3125 66.546875 
L 26.46875 62.640625 
Q 23.828125 59.765625 21.359375 56.03125 
Q 18.890625 52.296875 17.03125 47.65625 
Q 15.1875 43.015625 14.0625 37.453125 
Q 12.9375 31.890625 12.9375 25.34375 
" id="Corbel-28"/>
      <path d="M 1.703125 0 
L 28.328125 65.328125 
L 35.203125 65.328125 
L 61.8125 0 
L 53.171875 0 
L 45.359375 19.671875 
L 18.0625 19.671875 
L 10.25 0 
z
M 31.6875 55.171875 
Q 27.34375 42.96875 23.34375 33.015625 
L 20.90625 26.859375 
L 42.53125 26.859375 
L 40.09375 33.015625 
Q 36.078125 43.171875 31.890625 55.171875 
z
" id="Corbel-41"/>
      <path d="M 34.46875 5.125 
L 34.28125 5.125 
Q 33.34375 3.953125 31.921875 2.796875 
Q 30.515625 1.65625 28.65625 0.75 
Q 26.8125 -0.140625 24.609375 -0.671875 
Q 22.40625 -1.21875 19.921875 -1.21875 
Q 16.546875 -1.21875 13.734375 -0.21875 
Q 10.9375 0.78125 8.90625 2.703125 
Q 6.890625 4.640625 5.765625 7.421875 
Q 4.640625 10.203125 4.640625 13.71875 
Q 4.640625 17.1875 5.875 19.921875 
Q 7.125 22.65625 9.375 24.5625 
Q 11.625 26.46875 14.765625 27.484375 
Q 17.921875 28.515625 21.734375 28.515625 
Q 25.34375 28.46875 28.421875 27.875 
Q 31.5 27.296875 33.890625 26.421875 
L 34.078125 26.421875 
L 34.078125 29.640625 
Q 34.078125 31.546875 33.828125 33 
Q 33.59375 34.46875 33.015625 35.59375 
Q 31.734375 37.9375 28.953125 39.46875 
Q 26.171875 41.015625 21.4375 41.015625 
Q 17.921875 41.015625 14.8125 40.359375 
Q 11.71875 39.703125 8.640625 38.53125 
L 8.640625 44.875 
Q 9.8125 45.453125 11.390625 45.96875 
Q 12.984375 46.484375 14.734375 46.84375 
Q 16.5 47.21875 18.453125 47.40625 
Q 20.40625 47.609375 22.359375 47.609375 
Q 29.390625 47.609375 33.859375 45.109375 
Q 38.328125 42.625 40.28125 38.53125 
Q 41.015625 36.96875 41.328125 35.078125 
Q 41.65625 33.203125 41.65625 30.953125 
L 41.65625 0 
L 35.296875 0 
z
M 34.078125 20.359375 
Q 31.984375 20.953125 29.09375 21.484375 
Q 26.21875 22.015625 22.75 22.078125 
Q 17.921875 22.078125 15.1875 20.015625 
Q 12.453125 17.96875 12.453125 13.71875 
Q 12.453125 11.578125 13.125 9.953125 
Q 13.8125 8.34375 15.015625 7.296875 
Q 16.21875 6.25 17.84375 5.734375 
Q 19.484375 5.21875 21.34375 5.21875 
Q 23.78125 5.21875 25.875 5.921875 
Q 27.984375 6.640625 29.609375 7.609375 
Q 31.25 8.59375 32.390625 9.5625 
Q 33.546875 10.546875 34.078125 11.078125 
z
" id="Corbel-61"/>
      <path d="M 1.46875 46.390625 
L 9.234375 46.390625 
L 23.640625 10.015625 
L 23.921875 10.015625 
L 38.53125 46.390625 
L 46.484375 46.390625 
L 17.53125 -22.703125 
L 10.015625 -22.703125 
L 19.921875 0.921875 
z
" id="Corbel-79"/>
      <path d="M 31.78125 -0.09375 
Q 30.8125 -0.484375 28.8125 -0.828125 
Q 26.8125 -1.171875 24.03125 -1.21875 
Q 20.359375 -1.21875 17.671875 -0.3125 
Q 14.984375 0.59375 13.203125 2.265625 
Q 11.421875 3.953125 10.546875 6.34375 
Q 9.671875 8.734375 9.671875 11.671875 
L 9.671875 39.890625 
L 0.734375 39.890625 
L 0.734375 46.390625 
L 9.671875 46.390625 
L 9.671875 59.078125 
L 17.234375 59.078125 
L 17.234375 46.390625 
L 31.109375 46.390625 
L 31.109375 39.890625 
L 17.234375 39.890625 
L 17.234375 12.84375 
Q 17.234375 11.234375 17.703125 9.859375 
Q 18.171875 8.5 19.171875 7.5 
Q 20.171875 6.5 21.734375 5.9375 
Q 23.296875 5.375 25.484375 5.375 
Q 27 5.375 28.6875 5.609375 
Q 30.375 5.859375 31.78125 6.25 
z
" id="Corbel-74"/>
      <path d="M 7.8125 0 
L 7.8125 70.703125 
L 15.375 70.703125 
L 15.375 0 
z
" id="Corbel-6c"/>
      <path d="M 17.046875 25.34375 
Q 17.046875 31.890625 15.921875 37.453125 
Q 14.796875 43.015625 12.9375 47.65625 
Q 11.078125 52.296875 8.609375 56.03125 
Q 6.15625 59.765625 3.515625 62.640625 
L 7.671875 66.546875 
Q 9.03125 65.375 10.828125 63.390625 
Q 12.640625 61.421875 14.515625 58.65625 
Q 16.40625 55.90625 18.203125 52.40625 
Q 20.015625 48.921875 21.4375 44.75 
Q 22.859375 40.578125 23.734375 35.71875 
Q 24.609375 30.859375 24.609375 25.34375 
Q 24.609375 19.875 23.734375 14.984375 
Q 22.859375 10.109375 21.4375 5.9375 
Q 20.015625 1.765625 18.203125 -1.71875 
Q 16.40625 -5.21875 14.515625 -7.984375 
Q 12.640625 -10.75 10.828125 -12.71875 
Q 9.03125 -14.703125 7.671875 -15.875 
L 3.515625 -11.96875 
Q 6.15625 -9.078125 8.609375 -5.34375 
Q 11.078125 -1.609375 12.9375 3.03125 
Q 14.796875 7.671875 15.921875 13.234375 
Q 17.046875 18.796875 17.046875 25.34375 
" id="Corbel-29"/>
      <path d="M 14.65625 39.9375 
L 14.796875 39.9375 
Q 16.0625 41.546875 17.59375 42.9375 
Q 19.140625 44.34375 21.046875 45.390625 
Q 22.953125 46.4375 25.21875 47.015625 
Q 27.484375 47.609375 30.171875 47.609375 
Q 33.34375 47.609375 36.125 46.71875 
Q 38.921875 45.84375 40.96875 43.890625 
Q 43.015625 41.9375 44.203125 38.78125 
Q 45.40625 35.640625 45.40625 31.0625 
L 45.40625 0 
L 37.84375 0 
L 37.84375 29.828125 
Q 37.84375 35.84375 35.515625 38.46875 
Q 33.203125 41.109375 28.765625 41.109375 
Q 24.859375 41.109375 21.1875 38.9375 
Q 17.53125 36.765625 14.890625 32.953125 
L 14.890625 0 
L 7.328125 0 
L 7.328125 46.390625 
L 13.1875 46.390625 
z
" id="Corbel-6e"/>
      <path d="M 45.21875 0 
L 37.640625 0 
L 37.640625 29.828125 
Q 37.640625 32.859375 36.984375 34.984375 
Q 36.328125 37.109375 35.078125 38.46875 
Q 33.84375 39.84375 32.109375 40.46875 
Q 30.375 41.109375 28.21875 41.109375 
Q 24.171875 41.109375 20.84375 38.9375 
Q 17.53125 36.765625 14.890625 32.953125 
L 14.890625 0 
L 7.328125 0 
L 7.328125 46.390625 
L 13.1875 46.390625 
L 14.65625 39.9375 
L 14.796875 39.9375 
Q 16.0625 41.546875 17.546875 42.9375 
Q 19.046875 44.34375 20.875 45.390625 
Q 22.703125 46.4375 24.890625 47.015625 
Q 27.09375 47.609375 29.6875 47.609375 
Q 34.859375 47.609375 38.28125 45.109375 
Q 41.703125 42.625 43.5625 38.328125 
L 43.75 38.328125 
Q 46.828125 42.671875 50.78125 45.140625 
Q 54.734375 47.609375 60.015625 47.609375 
Q 62.453125 47.609375 65.1875 46.921875 
Q 67.921875 46.234375 70.21875 44.40625 
Q 72.515625 42.578125 74.015625 39.359375 
Q 75.53125 36.140625 75.53125 31.0625 
L 75.53125 0 
L 68.015625 0 
L 68.015625 29.828125 
Q 68.015625 32.859375 67.359375 34.984375 
Q 66.703125 37.109375 65.453125 38.46875 
Q 64.203125 39.84375 62.46875 40.46875 
Q 60.75 41.109375 58.59375 41.109375 
Q 54.546875 41.109375 51.203125 38.9375 
Q 47.859375 36.765625 45.21875 32.953125 
z
" id="Corbel-6d"/>
      <path d="M 40.765625 23.140625 
Q 40.765625 27.4375 39.71875 30.78125 
Q 38.671875 34.125 36.78125 36.4375 
Q 34.90625 38.765625 32.3125 39.953125 
Q 29.734375 41.15625 26.65625 41.15625 
Q 23.578125 41.15625 20.984375 39.953125 
Q 18.40625 38.765625 16.53125 36.4375 
Q 14.65625 34.125 13.59375 30.78125 
Q 12.546875 27.4375 12.546875 23.140625 
Q 12.546875 18.890625 13.59375 15.546875 
Q 14.65625 12.203125 16.546875 9.90625 
Q 18.453125 7.625 21.046875 6.421875 
Q 23.640625 5.21875 26.703125 5.21875 
Q 29.78125 5.21875 32.34375 6.421875 
Q 34.90625 7.625 36.78125 9.90625 
Q 38.671875 12.203125 39.71875 15.546875 
Q 40.765625 18.890625 40.765625 23.140625 
M 48.6875 23.140625 
Q 48.6875 17.671875 47.125 13.171875 
Q 45.5625 8.6875 42.703125 5.484375 
Q 39.84375 2.296875 35.78125 0.53125 
Q 31.734375 -1.21875 26.703125 -1.21875 
Q 21.53125 -1.21875 17.453125 0.53125 
Q 13.375 2.296875 10.515625 5.484375 
Q 7.671875 8.6875 6.15625 13.171875 
Q 4.640625 17.671875 4.640625 23.140625 
Q 4.640625 28.65625 6.203125 33.140625 
Q 7.765625 37.640625 10.625 40.859375 
Q 13.484375 44.09375 17.546875 45.84375 
Q 21.625 47.609375 26.65625 47.609375 
Q 31.78125 47.609375 35.875 45.84375 
Q 39.984375 44.09375 42.8125 40.859375 
Q 45.65625 37.640625 47.171875 33.140625 
Q 48.6875 28.65625 48.6875 23.140625 
" id="Corbel-6f"/>
     </defs>
     <g style="fill:#666666;" transform="translate(92.4578125 440.441505)scale(0.12 -0.12)">
      <use xlink:href="#Corbel-41"/>
      <use x="63.525390625" xlink:href="#Corbel-6d"/>
      <use x="146.38671875" xlink:href="#Corbel-65"/>
      <use x="196.142578125" xlink:href="#Corbel-72"/>
      <use x="229.638671875" xlink:href="#Corbel-69"/>
      <use x="252.83203125" xlink:href="#Corbel-63"/>
      <use x="296.6796875" xlink:href="#Corbel-61"/>
      <use x="345.654296875" xlink:href="#Corbel-6e"/>
      <use x="398.388671875" xlink:href="#Corbel-20"/>
      <use x="418.361328125" xlink:href="#Corbel-43"/>
      <use x="477.296875" xlink:href="#Corbel-68"/>
      <use x="530.51953125" xlink:href="#Corbel-65"/>
      <use x="580.275390625" xlink:href="#Corbel-6d"/>
      <use x="663.13671875" xlink:href="#Corbel-69"/>
      <use x="686.330078125" xlink:href="#Corbel-63"/>
      <use x="730.177734375" xlink:href="#Corbel-61"/>
      <use x="779.15234375" xlink:href="#Corbel-6c"/>
      <use x="802.345703125" xlink:href="#Corbel-20"/>
      <use x="822.333984375" xlink:href="#Corbel-53"/>
      <use x="877.509765625" xlink:href="#Corbel-6f"/>
      <use x="930.830078125" xlink:href="#Corbel-63"/>
      <use x="974.677734375" xlink:href="#Corbel-69"/>
      <use x="997.87109375" xlink:href="#Corbel-65"/>
      <use x="1047.62695312" xlink:href="#Corbel-74"/>
      <use x="1082.34375" xlink:href="#Corbel-79"/>
      <use x="1130.29296875" xlink:href="#Corbel-20"/>
      <use x="1150.3125" xlink:href="#Corbel-28"/>
      <use x="1180.29296875" xlink:href="#Corbel-41"/>
      <use x="1243.80273438" xlink:href="#Corbel-43"/>
      <use x="1302.73828125" xlink:href="#Corbel-53"/>
      <use x="1357.8984375" xlink:href="#Corbel-29"/>
     </g>
    </g>
    <g id="line2d_39">
     <path d="M 62.457812 453.450255 
L 79.257812 453.450255 
" style="fill:none;stroke:#0092cb;stroke-linecap:square;stroke-width:1.5;"/>
    </g>
    <g id="line2d_40"/>
    <g id="text_15">
     <!-- BMJ -->
     <defs>
      <path d="M 42.921875 0 
L 39.265625 0 
L 22.796875 39.015625 
Q 19.390625 47.078125 15.96875 56.546875 
L 15.578125 56.546875 
Q 16.265625 42.921875 16.265625 31.59375 
L 16.265625 0 
L 8.296875 0 
L 8.296875 65.328125 
L 19.78125 65.328125 
L 35.15625 28.375 
Q 37.796875 22.015625 40.96875 13.09375 
L 41.21875 13.09375 
Q 44.734375 23 47.015625 28.375 
L 62.40625 65.328125 
L 73.875 65.328125 
L 73.875 0 
L 65.921875 0 
L 65.921875 31.59375 
Q 65.921875 42.671875 66.609375 56.546875 
L 66.21875 56.546875 
Q 62.59375 46.53125 59.375 39.015625 
z
" id="Corbel-4d"/>
      <path d="M 40.53125 33.796875 
Q 43.5625 33.34375 45.96875 32.171875 
Q 48.390625 31 50.125 29.171875 
Q 51.859375 27.34375 52.78125 24.828125 
Q 53.71875 22.3125 53.71875 19.09375 
Q 53.71875 16.796875 53.03125 14.28125 
Q 52.34375 11.765625 50.75 9.390625 
Q 49.171875 7.03125 46.609375 5.03125 
Q 44.046875 3.03125 40.234375 1.765625 
Q 37.3125 0.78125 33.734375 0.390625 
Q 30.171875 0 25.203125 0 
L 8.296875 0 
L 8.296875 65.328125 
L 24.609375 65.328125 
Q 26.859375 65.328125 28.6875 65.25 
Q 30.515625 65.1875 32.046875 65.03125 
Q 33.59375 64.890625 34.90625 64.671875 
Q 36.234375 64.453125 37.40625 64.15625 
Q 40.484375 63.328125 43 61.890625 
Q 45.515625 60.453125 47.265625 58.453125 
Q 49.03125 56.453125 49.96875 53.90625 
Q 50.921875 51.375 50.921875 48.390625 
Q 50.921875 46 50.359375 43.796875 
Q 49.8125 41.609375 48.5625 39.75 
Q 47.3125 37.890625 45.328125 36.421875 
Q 43.359375 34.96875 40.53125 33.984375 
z
M 28.375 37.0625 
Q 30.71875 37.0625 32.421875 37.28125 
Q 34.125 37.5 35.5 37.9375 
Q 39.15625 39.15625 40.84375 41.75 
Q 42.53125 44.34375 42.53125 47.859375 
Q 42.53125 51.46875 40.765625 53.765625 
Q 39.015625 56.0625 35.25 57.171875 
Q 33.40625 57.71875 30.953125 57.9375 
Q 28.515625 58.15625 25.203125 58.15625 
L 16.265625 58.15625 
L 16.265625 37.0625 
z
M 16.265625 29.890625 
L 16.265625 7.171875 
L 25.875 7.171875 
Q 29.296875 7.171875 32.21875 7.484375 
Q 35.15625 7.8125 37.203125 8.5 
Q 39.453125 9.234375 41.015625 10.375 
Q 42.578125 11.53125 43.53125 12.921875 
Q 44.484375 14.3125 44.890625 15.875 
Q 45.3125 17.4375 45.3125 19.046875 
Q 45.3125 20.90625 44.875 22.53125 
Q 44.4375 24.171875 43.4375 25.46875 
Q 42.4375 26.765625 40.796875 27.734375 
Q 39.15625 28.71875 36.71875 29.25 
Q 35.25 29.59375 33.375 29.734375 
Q 31.5 29.890625 28.71875 29.890625 
z
" id="Corbel-42"/>
      <path d="M 21.4375 65.328125 
L 29.390625 65.328125 
L 29.390625 14.984375 
Q 29.390625 10.9375 28.171875 7.90625 
Q 26.953125 4.890625 24.671875 2.859375 
Q 22.40625 0.828125 19.234375 -0.1875 
Q 16.0625 -1.21875 12.109375 -1.21875 
Q 8.734375 -1.171875 6.421875 -0.65625 
Q 4.109375 -0.140625 2.9375 0.390625 
L 2.9375 7.421875 
Q 4.734375 6.6875 6.859375 6.265625 
Q 8.984375 5.859375 11.421875 5.859375 
Q 13.625 5.859375 15.46875 6.34375 
Q 17.328125 6.84375 18.640625 8.015625 
Q 19.96875 9.1875 20.703125 11.140625 
Q 21.4375 13.09375 21.4375 15.96875 
z
" id="Corbel-4a"/>
     </defs>
     <g style="fill:#666666;" transform="translate(92.4578125 457.650255)scale(0.12 -0.12)">
      <use xlink:href="#Corbel-42"/>
      <use x="59.326171875" xlink:href="#Corbel-4d"/>
      <use x="141.50390625" xlink:href="#Corbel-4a"/>
     </g>
    </g>
    <g id="line2d_41">
     <path d="M 62.457812 470.659005 
L 79.257812 470.659005 
" style="fill:none;stroke:#e85e12;stroke-linecap:square;stroke-width:1.5;"/>
    </g>
    <g id="line2d_42"/>
    <g id="text_16">
     <!-- Elsevier BV -->
     <defs>
      <path d="M 12.203125 34.03125 
Q 12.203125 32.125 13.03125 30.90625 
Q 13.875 29.6875 15.265625 28.921875 
Q 16.65625 28.171875 18.484375 27.6875 
Q 20.3125 27.203125 22.265625 26.8125 
Q 24.953125 26.21875 27.34375 25.515625 
Q 29.734375 24.8125 31.765625 23.390625 
Q 33.796875 21.96875 35.03125 19.546875 
Q 36.28125 17.140625 36.28125 13.28125 
Q 36.28125 9.765625 34.90625 7.046875 
Q 33.546875 4.34375 31.046875 2.515625 
Q 28.5625 0.6875 25.09375 -0.265625 
Q 21.625 -1.21875 17.484375 -1.21875 
Q 14.9375 -1.21875 12.859375 -0.953125 
Q 10.796875 -0.6875 9.203125 -0.265625 
Q 7.625 0.140625 6.5 0.578125 
Q 5.375 1.03125 4.640625 1.421875 
L 4.640625 7.765625 
Q 7.5625 6.59375 10.4375 5.90625 
Q 13.328125 5.21875 16.796875 5.21875 
Q 19.53125 5.21875 21.71875 5.703125 
Q 23.921875 6.203125 25.5 7.15625 
Q 27.09375 8.109375 27.953125 9.546875 
Q 28.8125 10.984375 28.8125 12.890625 
Q 28.8125 14.84375 28.03125 16.109375 
Q 27.25 17.390625 25.921875 18.21875 
Q 24.609375 19.046875 22.875 19.578125 
Q 21.140625 20.125 19.234375 20.5625 
Q 16.75 21.09375 14.1875 21.828125 
Q 11.625 22.5625 9.515625 23.875 
Q 7.421875 25.203125 6.125 27.46875 
Q 4.828125 29.734375 4.828125 33.296875 
Q 4.828125 36.96875 6.140625 39.640625 
Q 7.46875 42.328125 9.71875 44.078125 
Q 11.96875 45.84375 14.9375 46.71875 
Q 17.921875 47.609375 21.234375 47.609375 
Q 25.09375 47.609375 28.390625 46.875 
Q 31.6875 46.140625 34.375 45.015625 
L 34.375 38.578125 
Q 31.453125 39.703125 28.4375 40.40625 
Q 25.4375 41.109375 22.265625 41.15625 
Q 19.578125 41.15625 17.671875 40.625 
Q 15.765625 40.09375 14.546875 39.140625 
Q 13.328125 38.1875 12.765625 36.890625 
Q 12.203125 35.59375 12.203125 34.03125 
" id="Corbel-73"/>
      <path d="M 16.265625 7.171875 
L 49.75 7.171875 
L 49.75 0 
L 8.296875 0 
L 8.296875 65.328125 
L 47.953125 65.328125 
L 47.953125 58.15625 
L 16.265625 58.15625 
L 16.265625 37.0625 
L 44.4375 37.0625 
L 44.4375 29.890625 
L 16.265625 29.890625 
z
" id="Corbel-45"/>
      <path d="M 23.140625 7.671875 
Q 24.8125 12.75 27.640625 20.609375 
L 36.8125 46.390625 
L 44.734375 46.390625 
L 27.046875 0 
L 19.140625 0 
L 1.46875 46.390625 
L 9.28125 46.390625 
L 18.453125 20.609375 
Q 21.1875 12.984375 22.953125 7.671875 
z
" id="Corbel-76"/>
      <path d="M 30.46875 10.15625 
Q 33.984375 20.84375 38.03125 31.734375 
L 50.484375 65.328125 
L 58.734375 65.328125 
L 33.84375 0 
L 26.859375 0 
L 1.953125 65.328125 
L 10.203125 65.328125 
L 22.65625 31.734375 
Q 26.765625 20.84375 30.28125 10.15625 
z
" id="Corbel-56"/>
     </defs>
     <g style="fill:#666666;" transform="translate(92.4578125 474.859005)scale(0.12 -0.12)">
      <use xlink:href="#Corbel-45"/>
      <use x="55.126953125" xlink:href="#Corbel-6c"/>
      <use x="78.3203125" xlink:href="#Corbel-73"/>
      <use x="118.75" xlink:href="#Corbel-65"/>
      <use x="168.505859375" xlink:href="#Corbel-76"/>
      <use x="214.697265625" xlink:href="#Corbel-69"/>
      <use x="237.890625" xlink:href="#Corbel-65"/>
      <use x="287.646484375" xlink:href="#Corbel-72"/>
      <use x="321.142578125" xlink:href="#Corbel-20"/>
      <use x="341.162109375" xlink:href="#Corbel-42"/>
      <use x="400.48828125" xlink:href="#Corbel-56"/>
     </g>
    </g>
    <g id="line2d_43">
     <path d="M 62.457812 487.867755 
L 79.257812 487.867755 
" style="fill:none;stroke:#e61554;stroke-linecap:square;stroke-width:1.5;"/>
    </g>
    <g id="line2d_44"/>
    <g id="text_17">
     <!-- Frontiers Media SA -->
     <defs>
      <path d="M 16.265625 0 
L 8.296875 0 
L 8.296875 65.328125 
L 47.265625 65.328125 
L 47.265625 58.15625 
L 16.265625 58.15625 
L 16.265625 37.0625 
L 43.75 37.0625 
L 43.75 29.890625 
L 16.265625 29.890625 
z
" id="Corbel-46"/>
      <path d="M 12.546875 22.703125 
Q 12.546875 18.703125 13.453125 15.453125 
Q 14.359375 12.203125 16.0625 9.9375 
Q 17.78125 7.671875 20.265625 6.4375 
Q 22.75 5.21875 25.984375 5.21875 
Q 28.375 5.21875 30.328125 5.859375 
Q 32.28125 6.5 33.8125 7.46875 
Q 35.359375 8.453125 36.453125 9.546875 
Q 37.546875 10.640625 38.1875 11.578125 
L 38.1875 35.84375 
Q 35.84375 38.234375 32.765625 39.671875 
Q 29.6875 41.109375 26.125 41.109375 
Q 23.96875 41.109375 21.59375 40.296875 
Q 19.234375 39.5 17.203125 37.390625 
Q 15.1875 35.296875 13.859375 31.75 
Q 12.546875 28.21875 12.546875 22.703125 
M 4.640625 22.609375 
Q 4.640625 27.4375 5.59375 31.171875 
Q 6.546875 34.90625 8.109375 37.6875 
Q 9.671875 40.484375 11.765625 42.359375 
Q 13.875 44.234375 16.109375 45.40625 
Q 18.359375 46.578125 20.671875 47.09375 
Q 23 47.609375 25.046875 47.609375 
Q 29.296875 47.609375 32.421875 46.1875 
Q 35.546875 44.78125 38.03125 42.046875 
L 38.1875 42.046875 
L 38.1875 70.703125 
L 45.75 70.703125 
L 45.75 0 
L 40.046875 0 
L 38.484375 5.171875 
L 38.28125 5.171875 
Q 37.40625 4.046875 36.234375 2.90625 
Q 35.0625 1.765625 33.46875 0.828125 
Q 31.890625 -0.09375 29.8125 -0.65625 
Q 27.734375 -1.21875 25 -1.21875 
Q 21.1875 -1.21875 17.53125 0.078125 
Q 13.875 1.375 11.015625 4.21875 
Q 8.15625 7.078125 6.390625 11.59375 
Q 4.640625 16.109375 4.640625 22.609375 
" id="Corbel-64"/>
     </defs>
     <g style="fill:#666666;" transform="translate(92.4578125 492.067755)scale(0.12 -0.12)">
      <use xlink:href="#Corbel-46"/>
      <use x="50.439453125" xlink:href="#Corbel-72"/>
      <use x="83.935546875" xlink:href="#Corbel-6f"/>
      <use x="137.255859375" xlink:href="#Corbel-6e"/>
      <use x="189.990234375" xlink:href="#Corbel-74"/>
      <use x="224.70703125" xlink:href="#Corbel-69"/>
      <use x="247.900390625" xlink:href="#Corbel-65"/>
      <use x="297.65625" xlink:href="#Corbel-72"/>
      <use x="331.15234375" xlink:href="#Corbel-73"/>
      <use x="371.58203125" xlink:href="#Corbel-20"/>
      <use x="391.6015625" xlink:href="#Corbel-4d"/>
      <use x="473.779296875" xlink:href="#Corbel-65"/>
      <use x="523.53515625" xlink:href="#Corbel-64"/>
      <use x="577.099609375" xlink:href="#Corbel-69"/>
      <use x="600.29296875" xlink:href="#Corbel-61"/>
      <use x="649.267578125" xlink:href="#Corbel-20"/>
      <use x="669.255859375" xlink:href="#Corbel-53"/>
      <use x="724.431640625" xlink:href="#Corbel-41"/>
     </g>
    </g>
    <g id="line2d_45">
     <path d="M 286.597187 436.241505 
L 303.397187 436.241505 
" style="fill:none;stroke:#f9b000;stroke-linecap:square;stroke-width:1.5;"/>
    </g>
    <g id="line2d_46"/>
    <g id="text_18">
     <!-- Informa UK Limited -->
     <defs>
      <path d="M 8.296875 0 
L 8.296875 65.328125 
L 16.265625 65.328125 
L 16.265625 33.0625 
L 16.359375 33.0625 
L 46.390625 65.328125 
L 56.203125 65.328125 
L 25.734375 32.8125 
L 58.546875 0 
L 48.1875 0 
L 16.359375 31.984375 
L 16.265625 31.984375 
L 16.265625 0 
z
" id="Corbel-4b"/>
      <path d="M 16.265625 65.328125 
L 16.265625 7.171875 
L 48.140625 7.171875 
L 48.140625 0 
L 8.296875 0 
L 8.296875 65.328125 
z
" id="Corbel-4c"/>
      <path d="M 33.546875 5.859375 
Q 37.109375 5.859375 39.859375 6.6875 
Q 42.625 7.515625 44.671875 9.03125 
Q 46.734375 10.546875 48.09375 12.671875 
Q 49.46875 14.796875 50.203125 17.390625 
Q 50.6875 19 50.875 20.96875 
Q 51.078125 22.953125 51.078125 24.8125 
L 51.078125 65.328125 
L 59.03125 65.328125 
L 59.03125 25 
Q 59.03125 22.703125 58.78125 20.203125 
Q 58.546875 17.71875 58.015625 15.578125 
Q 57.078125 11.96875 55.21875 8.890625 
Q 53.375 5.8125 50.390625 3.5625 
Q 47.40625 1.3125 43.234375 0.046875 
Q 39.0625 -1.21875 33.453125 -1.21875 
Q 28.078125 -1.21875 24.015625 -0.046875 
Q 19.96875 1.125 17.0625 3.203125 
Q 14.15625 5.28125 12.296875 8.125 
Q 10.453125 10.984375 9.421875 14.359375 
Q 8.6875 16.796875 8.375 19.578125 
Q 8.0625 22.359375 8.0625 25 
L 8.0625 65.328125 
L 16.015625 65.328125 
L 16.015625 24.8125 
Q 16.015625 22.609375 16.328125 20.28125 
Q 16.65625 17.96875 17.328125 16.0625 
Q 19.046875 11.328125 23.015625 8.59375 
Q 27 5.859375 33.546875 5.859375 
" id="Corbel-55"/>
      <path d="M 8.296875 0 
L 8.296875 65.328125 
L 16.265625 65.328125 
L 16.265625 0 
z
" id="Corbel-49"/>
      <path d="M 34.234375 64.75 
Q 32.765625 65.046875 31 65.1875 
Q 29.25 65.328125 27.984375 65.328125 
Q 25.4375 65.328125 23.40625 64.6875 
Q 21.390625 64.0625 20.015625 62.671875 
Q 18.65625 61.28125 17.921875 59 
Q 17.1875 56.734375 17.1875 53.515625 
L 17.1875 46.390625 
L 31 46.390625 
L 31 39.890625 
L 17.1875 39.890625 
L 17.1875 0 
L 9.625 0 
L 9.625 39.890625 
L 1.46875 39.890625 
L 1.46875 46.390625 
L 9.625 46.390625 
L 9.625 53.46875 
Q 9.625 58.5 10.96875 61.9375 
Q 12.3125 65.375 14.65625 67.59375 
Q 17 69.828125 20.171875 70.875 
Q 23.34375 71.921875 27 71.921875 
Q 29.34375 71.921875 31.3125 71.671875 
Q 33.296875 71.4375 34.234375 71.140625 
z
" id="Corbel-66"/>
     </defs>
     <g style="fill:#666666;" transform="translate(316.5971875 440.441505)scale(0.12 -0.12)">
      <use xlink:href="#Corbel-49"/>
      <use x="24.560546875" xlink:href="#Corbel-6e"/>
      <use x="77.294921875" xlink:href="#Corbel-66"/>
      <use x="109.08203125" xlink:href="#Corbel-6f"/>
      <use x="162.40234375" xlink:href="#Corbel-72"/>
      <use x="195.8984375" xlink:href="#Corbel-6d"/>
      <use x="278.759765625" xlink:href="#Corbel-61"/>
      <use x="327.734375" xlink:href="#Corbel-20"/>
      <use x="347.72265625" xlink:href="#Corbel-55"/>
      <use x="414.8125" xlink:href="#Corbel-4b"/>
      <use x="475.310546875" xlink:href="#Corbel-20"/>
      <use x="495.330078125" xlink:href="#Corbel-4c"/>
      <use x="547.380859375" xlink:href="#Corbel-69"/>
      <use x="570.57421875" xlink:href="#Corbel-6d"/>
      <use x="653.435546875" xlink:href="#Corbel-69"/>
      <use x="676.62890625" xlink:href="#Corbel-74"/>
      <use x="711.345703125" xlink:href="#Corbel-65"/>
      <use x="761.1015625" xlink:href="#Corbel-64"/>
     </g>
    </g>
    <g id="line2d_47">
     <path d="M 286.597187 453.596505 
L 303.397187 453.596505 
" style="fill:none;stroke:#b2bb1c;stroke-linecap:square;stroke-width:1.5;"/>
    </g>
    <g id="line2d_48"/>
    <g id="text_19">
     <!-- Oxford University Press (OUP) -->
     <defs>
      <path d="M 16.265625 0 
L 8.296875 0 
L 8.296875 65.328125 
L 26.421875 65.328125 
Q 30.46875 65.328125 33.90625 64.84375 
Q 37.359375 64.359375 40.234375 63.328125 
Q 46.09375 61.234375 49.125 57.046875 
Q 52.15625 52.875 52.15625 46.78125 
Q 52.15625 41.796875 50.171875 38.015625 
Q 48.1875 34.234375 44.421875 31.6875 
Q 40.671875 29.15625 35.28125 27.859375 
Q 29.890625 26.5625 23.046875 26.5625 
Q 19.78125 26.5625 16.265625 26.859375 
z
M 16.265625 34.125 
Q 17.875 33.9375 19.625 33.828125 
Q 21.390625 33.734375 22.953125 33.734375 
Q 28.5625 33.734375 32.515625 34.609375 
Q 36.46875 35.5 38.953125 37.1875 
Q 41.453125 38.875 42.578125 41.28125 
Q 43.703125 43.703125 43.703125 46.78125 
Q 43.703125 50.59375 41.875 53.03125 
Q 40.046875 55.46875 36.671875 56.734375 
Q 34.578125 57.515625 31.84375 57.828125 
Q 29.109375 58.15625 25.484375 58.15625 
L 16.265625 58.15625 
z
" id="Corbel-50"/>
      <path d="M 58.796875 32.625 
Q 58.796875 39.203125 57.078125 44.234375 
Q 55.375 49.265625 52.359375 52.625 
Q 49.359375 56 45.28125 57.734375 
Q 41.21875 59.46875 36.53125 59.46875 
Q 31.84375 59.46875 27.765625 57.734375 
Q 23.6875 56 20.671875 52.625 
Q 17.671875 49.265625 15.96875 44.234375 
Q 14.265625 39.203125 14.265625 32.625 
Q 14.265625 26.03125 15.984375 21.015625 
Q 17.71875 16.015625 20.71875 12.640625 
Q 23.734375 9.28125 27.8125 7.5625 
Q 31.890625 5.859375 36.625 5.859375 
Q 41.3125 5.859375 45.328125 7.5625 
Q 49.359375 9.28125 52.359375 12.640625 
Q 55.375 16.015625 57.078125 21.015625 
Q 58.796875 26.03125 58.796875 32.625 
M 67.1875 32.625 
Q 67.1875 25.203125 65.03125 19 
Q 62.890625 12.796875 58.890625 8.296875 
Q 54.890625 3.8125 49.25 1.296875 
Q 43.609375 -1.21875 36.625 -1.21875 
Q 29.390625 -1.21875 23.671875 1.296875 
Q 17.96875 3.8125 14.015625 8.296875 
Q 10.0625 12.796875 7.953125 19 
Q 5.859375 25.203125 5.859375 32.625 
Q 5.859375 40.09375 8.03125 46.3125 
Q 10.203125 52.546875 14.1875 57.03125 
Q 18.171875 61.53125 23.828125 64.03125 
Q 29.5 66.546875 36.53125 66.546875 
Q 43.703125 66.546875 49.390625 64.03125 
Q 55.078125 61.53125 59.03125 57.03125 
Q 62.984375 52.546875 65.078125 46.3125 
Q 67.1875 40.09375 67.1875 32.625 
" id="Corbel-4f"/>
      <path d="M 22.953125 28.515625 
L 35.546875 46.390625 
L 43.890625 46.390625 
L 26.953125 23.4375 
L 44.53125 0 
L 36.328125 0 
L 22.75 18.5625 
L 22.5625 18.5625 
L 9.1875 0 
L 0.984375 0 
L 18.5625 23.640625 
L 1.609375 46.390625 
L 9.96875 46.390625 
L 22.75 28.515625 
z
" id="Corbel-78"/>
     </defs>
     <g style="fill:#666666;" transform="translate(316.5971875 457.796505)scale(0.12 -0.12)">
      <use xlink:href="#Corbel-4f"/>
      <use x="73.046875" xlink:href="#Corbel-78"/>
      <use x="118.5546875" xlink:href="#Corbel-66"/>
      <use x="150.341796875" xlink:href="#Corbel-6f"/>
      <use x="203.662109375" xlink:href="#Corbel-72"/>
      <use x="237.158203125" xlink:href="#Corbel-64"/>
      <use x="290.72265625" xlink:href="#Corbel-20"/>
      <use x="310.7109375" xlink:href="#Corbel-55"/>
      <use x="377.80078125" xlink:href="#Corbel-6e"/>
      <use x="430.53515625" xlink:href="#Corbel-69"/>
      <use x="453.728515625" xlink:href="#Corbel-76"/>
      <use x="499.919921875" xlink:href="#Corbel-65"/>
      <use x="549.67578125" xlink:href="#Corbel-72"/>
      <use x="583.171875" xlink:href="#Corbel-73"/>
      <use x="623.6015625" xlink:href="#Corbel-69"/>
      <use x="646.794921875" xlink:href="#Corbel-74"/>
      <use x="681.51171875" xlink:href="#Corbel-79"/>
      <use x="729.4609375" xlink:href="#Corbel-20"/>
      <use x="749.48046875" xlink:href="#Corbel-50"/>
      <use x="806.51171875" xlink:href="#Corbel-72"/>
      <use x="840.0078125" xlink:href="#Corbel-65"/>
      <use x="889.763671875" xlink:href="#Corbel-73"/>
      <use x="930.193359375" xlink:href="#Corbel-73"/>
      <use x="970.623046875" xlink:href="#Corbel-20"/>
      <use x="990.642578125" xlink:href="#Corbel-28"/>
      <use x="1020.62304688" xlink:href="#Corbel-4f"/>
      <use x="1093.66992188" xlink:href="#Corbel-55"/>
      <use x="1160.75976562" xlink:href="#Corbel-50"/>
      <use x="1217.79101562" xlink:href="#Corbel-29"/>
     </g>
    </g>
    <g id="line2d_49">
     <path d="M 286.597187 470.951505 
L 303.397187 470.951505 
" style="fill:none;stroke:#5b0d45;stroke-linecap:square;stroke-width:1.5;"/>
    </g>
    <g id="line2d_50"/>
    <g id="text_20">
     <!-- Public Library of Science (PLoS) -->
     <defs>
      <path d="M 41.015625 23.390625 
Q 41.015625 28.90625 39.71875 32.34375 
Q 38.421875 35.796875 36.390625 37.71875 
Q 34.375 39.65625 32.078125 40.375 
Q 29.78125 41.109375 27.484375 41.109375 
Q 23.96875 41.109375 20.875 39.640625 
Q 17.78125 38.1875 15.375 35.84375 
L 15.375 11.578125 
Q 16.0625 10.640625 17.15625 9.546875 
Q 18.265625 8.453125 19.78125 7.5 
Q 21.296875 6.546875 23.171875 5.875 
Q 25.046875 5.21875 27.296875 5.21875 
Q 30.671875 5.21875 33.234375 6.53125 
Q 35.796875 7.859375 37.53125 10.28125 
Q 39.265625 12.703125 40.140625 16.046875 
Q 41.015625 19.390625 41.015625 23.390625 
M 48.921875 23.96875 
Q 48.921875 17.484375 47.15625 12.75 
Q 45.40625 8.015625 42.53125 4.90625 
Q 39.65625 1.8125 35.9375 0.296875 
Q 32.234375 -1.21875 28.265625 -1.21875 
Q 25.296875 -1.21875 23.015625 -0.453125 
Q 20.75 0.296875 19.15625 1.34375 
Q 17.578125 2.390625 16.625 3.46875 
Q 15.671875 4.546875 15.28125 5.171875 
L 15.140625 5.171875 
L 13.53125 0 
L 7.8125 0 
L 7.8125 70.703125 
L 15.375 70.703125 
L 15.375 42.046875 
L 15.53125 42.046875 
Q 18.015625 44.671875 21.328125 46.140625 
Q 24.65625 47.609375 28.90625 47.609375 
Q 30.859375 47.609375 33.125 47.171875 
Q 35.40625 46.734375 37.625 45.65625 
Q 39.84375 44.578125 41.890625 42.8125 
Q 43.953125 41.0625 45.515625 38.453125 
Q 47.078125 35.84375 48 32.25 
Q 48.921875 28.65625 48.921875 23.96875 
" id="Corbel-62"/>
      <path d="M 25.734375 -1.21875 
Q 22.125 -1.21875 19.234375 -0.4375 
Q 16.359375 0.34375 14.1875 1.75 
Q 12.015625 3.171875 10.5 5.140625 
Q 8.984375 7.125 8.109375 9.46875 
Q 7.421875 11.234375 7.125 13.328125 
Q 6.84375 15.4375 6.84375 17.921875 
L 6.84375 46.390625 
L 14.40625 46.390625 
L 14.40625 17.96875 
Q 14.40625 14.109375 15.4375 11.53125 
Q 16.609375 8.59375 19.21875 6.90625 
Q 21.828125 5.21875 25.875 5.21875 
Q 30.171875 5.21875 32.78125 7.078125 
Q 35.40625 8.9375 36.53125 12.0625 
Q 37.359375 14.453125 37.359375 17.96875 
L 37.359375 46.390625 
L 44.921875 46.390625 
L 44.921875 17.875 
Q 44.921875 15.53125 44.65625 13.5 
Q 44.390625 11.46875 43.796875 9.765625 
Q 42.921875 7.375 41.375 5.34375 
Q 39.84375 3.328125 37.59375 1.859375 
Q 35.359375 0.390625 32.390625 -0.40625 
Q 29.4375 -1.21875 25.734375 -1.21875 
" id="Corbel-75"/>
     </defs>
     <g style="fill:#666666;" transform="translate(316.5971875 475.151505)scale(0.12 -0.12)">
      <use xlink:href="#Corbel-50"/>
      <use x="57.03125" xlink:href="#Corbel-75"/>
      <use x="108.7890625" xlink:href="#Corbel-62"/>
      <use x="162.353515625" xlink:href="#Corbel-6c"/>
      <use x="185.546875" xlink:href="#Corbel-69"/>
      <use x="208.740234375" xlink:href="#Corbel-63"/>
      <use x="252.587890625" xlink:href="#Corbel-20"/>
      <use x="272.607421875" xlink:href="#Corbel-4c"/>
      <use x="324.658203125" xlink:href="#Corbel-69"/>
      <use x="347.8515625" xlink:href="#Corbel-62"/>
      <use x="401.416015625" xlink:href="#Corbel-72"/>
      <use x="434.912109375" xlink:href="#Corbel-61"/>
      <use x="483.88671875" xlink:href="#Corbel-72"/>
      <use x="517.3828125" xlink:href="#Corbel-79"/>
      <use x="565.33203125" xlink:href="#Corbel-20"/>
      <use x="585.3515625" xlink:href="#Corbel-6f"/>
      <use x="638.671875" xlink:href="#Corbel-66"/>
      <use x="670.458984375" xlink:href="#Corbel-20"/>
      <use x="690.447265625" xlink:href="#Corbel-53"/>
      <use x="745.623046875" xlink:href="#Corbel-63"/>
      <use x="789.470703125" xlink:href="#Corbel-69"/>
      <use x="812.6640625" xlink:href="#Corbel-65"/>
      <use x="862.419921875" xlink:href="#Corbel-6e"/>
      <use x="915.154296875" xlink:href="#Corbel-63"/>
      <use x="959.001953125" xlink:href="#Corbel-65"/>
      <use x="1008.7578125" xlink:href="#Corbel-20"/>
      <use x="1028.77734375" xlink:href="#Corbel-28"/>
      <use x="1058.7578125" xlink:href="#Corbel-50"/>
      <use x="1115.7890625" xlink:href="#Corbel-4c"/>
      <use x="1167.83984375" xlink:href="#Corbel-6f"/>
      <use x="1221.16015625" xlink:href="#Corbel-53"/>
      <use x="1276.3203125" xlink:href="#Corbel-29"/>
     </g>
    </g>
    <g id="line2d_51">
     <path d="M 286.597187 488.306505 
L 303.397187 488.306505 
" style="fill:none;stroke:#4a1e06;stroke-linecap:square;stroke-width:1.5;"/>
    </g>
    <g id="line2d_52"/>
    <g id="text_21">
     <!-- Royal Society of Chemistry (RSC) -->
     <defs>
      <path d="M 16.265625 27.046875 
L 16.265625 0 
L 8.296875 0 
L 8.296875 65.328125 
L 25.25 65.328125 
Q 29.546875 65.328125 32.546875 65.015625 
Q 35.546875 64.703125 38.03125 64.015625 
Q 44.875 62.15625 48.484375 57.6875 
Q 52.09375 53.21875 52.09375 46.53125 
Q 52.09375 42.578125 50.828125 39.453125 
Q 49.5625 36.328125 47.265625 34.03125 
Q 44.96875 31.734375 41.765625 30.265625 
Q 38.578125 28.8125 34.671875 28.125 
L 34.671875 27.9375 
L 56 0 
L 46 0 
L 25.875 27.046875 
z
M 16.265625 58.15625 
L 16.265625 34.234375 
L 24.125 34.234375 
Q 27.78125 34.234375 30.359375 34.46875 
Q 32.953125 34.71875 35.015625 35.359375 
Q 39.15625 36.625 41.40625 39.40625 
Q 43.65625 42.1875 43.65625 46.6875 
Q 43.609375 50.875 41.5 53.4375 
Q 39.40625 56 35.6875 57.125 
Q 33.9375 57.671875 31.484375 57.90625 
Q 29.046875 58.15625 25.296875 58.15625 
z
" id="Corbel-52"/>
     </defs>
     <g style="fill:#666666;" transform="translate(316.5971875 492.506505)scale(0.12 -0.12)">
      <use xlink:href="#Corbel-52"/>
      <use x="59.1484375" xlink:href="#Corbel-6f"/>
      <use x="112.46875" xlink:href="#Corbel-79"/>
      <use x="160.41796875" xlink:href="#Corbel-61"/>
      <use x="209.392578125" xlink:href="#Corbel-6c"/>
      <use x="232.5859375" xlink:href="#Corbel-20"/>
      <use x="252.57421875" xlink:href="#Corbel-53"/>
      <use x="307.75" xlink:href="#Corbel-6f"/>
      <use x="361.0703125" xlink:href="#Corbel-63"/>
      <use x="404.91796875" xlink:href="#Corbel-69"/>
      <use x="428.111328125" xlink:href="#Corbel-65"/>
      <use x="477.8671875" xlink:href="#Corbel-74"/>
      <use x="512.583984375" xlink:href="#Corbel-79"/>
      <use x="560.533203125" xlink:href="#Corbel-20"/>
      <use x="580.552734375" xlink:href="#Corbel-6f"/>
      <use x="633.873046875" xlink:href="#Corbel-66"/>
      <use x="665.66015625" xlink:href="#Corbel-20"/>
      <use x="685.6328125" xlink:href="#Corbel-43"/>
      <use x="744.568359375" xlink:href="#Corbel-68"/>
      <use x="797.791015625" xlink:href="#Corbel-65"/>
      <use x="847.546875" xlink:href="#Corbel-6d"/>
      <use x="930.408203125" xlink:href="#Corbel-69"/>
      <use x="953.6015625" xlink:href="#Corbel-73"/>
      <use x="994.03125" xlink:href="#Corbel-74"/>
      <use x="1028.74804688" xlink:href="#Corbel-72"/>
      <use x="1062.24414062" xlink:href="#Corbel-79"/>
      <use x="1110.19335938" xlink:href="#Corbel-20"/>
      <use x="1130.21289062" xlink:href="#Corbel-28"/>
      <use x="1160.19335938" xlink:href="#Corbel-52"/>
      <use x="1219.37304688" xlink:href="#Corbel-53"/>
      <use x="1274.54882812" xlink:href="#Corbel-43"/>
      <use x="1333.484375" xlink:href="#Corbel-29"/>
     </g>
    </g>
    <g id="line2d_53">
     <path d="M 507.813437 436.241505 
L 524.613437 436.241505 
" style="fill:none;stroke:#004a68;stroke-linecap:square;stroke-width:1.5;"/>
    </g>
    <g id="line2d_54"/>
    <g id="text_22">
     <!-- Springer Nature -->
     <defs>
      <path d="M 40.53125 23.640625 
Q 40.53125 27.6875 39.671875 30.90625 
Q 38.8125 34.125 37.109375 36.390625 
Q 35.40625 38.671875 32.90625 39.890625 
Q 30.421875 41.109375 27.15625 41.109375 
Q 24.8125 41.109375 22.875 40.46875 
Q 20.953125 39.84375 19.390625 38.859375 
Q 17.828125 37.890625 16.703125 36.765625 
Q 15.578125 35.640625 14.890625 34.765625 
L 14.890625 10.5 
Q 17.28125 8.0625 20.328125 6.640625 
Q 23.390625 5.21875 26.90625 5.21875 
Q 29.046875 5.21875 31.4375 6.03125 
Q 33.84375 6.84375 35.859375 8.90625 
Q 37.890625 10.984375 39.203125 14.546875 
Q 40.53125 18.109375 40.53125 23.640625 
M 48.4375 23.734375 
Q 48.4375 18.890625 47.484375 15.15625 
Q 46.53125 11.421875 44.96875 8.640625 
Q 43.40625 5.859375 41.296875 3.96875 
Q 39.203125 2.09375 36.953125 0.9375 
Q 34.71875 -0.203125 32.390625 -0.703125 
Q 30.078125 -1.21875 28.03125 -1.21875 
Q 23.78125 -1.21875 20.65625 0.171875 
Q 17.53125 1.5625 15.046875 4.296875 
L 14.890625 4.296875 
L 14.890625 -22.703125 
L 7.328125 -22.703125 
L 7.328125 46.390625 
L 13.03125 46.390625 
L 14.65625 41.109375 
L 14.796875 41.109375 
Q 15.4375 42.09375 16.4375 43.015625 
Q 17.4375 43.953125 19.109375 45 
Q 20.796875 46.046875 23.15625 46.828125 
Q 25.53125 47.609375 28.328125 47.609375 
Q 32.234375 47.609375 35.859375 46.28125 
Q 39.5 44.96875 42.28125 42.078125 
Q 45.0625 39.203125 46.75 34.6875 
Q 48.4375 30.171875 48.4375 23.734375 
" id="Corbel-70"/>
      <path d="M 41.84375 28.90625 
Q 47.859375 20.265625 53.71875 11.140625 
L 54 11.140625 
Q 53.375 20.65625 53.375 30.5625 
L 53.375 65.328125 
L 61.328125 65.328125 
L 61.328125 0 
L 53.421875 0 
L 27.78125 36.421875 
Q 21.140625 45.953125 15.921875 54.203125 
L 15.625 54.203125 
Q 16.265625 45.265625 16.265625 33.34375 
L 16.265625 0 
L 8.296875 0 
L 8.296875 65.328125 
L 16.21875 65.328125 
z
" id="Corbel-4e"/>
      <path d="M 12.546875 22.90625 
Q 12.546875 17.4375 13.859375 13.96875 
Q 15.1875 10.5 17.203125 8.5625 
Q 19.234375 6.640625 21.625 5.921875 
Q 24.03125 5.21875 26.171875 5.21875 
Q 29.6875 5.21875 32.765625 6.640625 
Q 35.84375 8.0625 38.1875 10.5 
L 38.1875 34.765625 
Q 37.546875 35.640625 36.421875 36.765625 
Q 35.296875 37.890625 33.8125 38.84375 
Q 32.328125 39.796875 30.421875 40.453125 
Q 28.515625 41.109375 26.265625 41.109375 
Q 22.90625 41.109375 20.34375 39.765625 
Q 17.78125 38.421875 16.046875 36.03125 
Q 14.3125 33.640625 13.421875 30.296875 
Q 12.546875 26.953125 12.546875 22.90625 
M 25.296875 47.609375 
Q 28.328125 47.5625 30.5625 46.828125 
Q 32.8125 46.09375 34.421875 44.984375 
Q 36.03125 43.890625 36.984375 42.8125 
Q 37.9375 41.75 38.28125 41.109375 
L 38.484375 41.109375 
L 40.046875 46.390625 
L 45.75 46.390625 
L 45.75 -2.734375 
Q 45.75 -8.109375 43.984375 -12.078125 
Q 42.234375 -16.0625 39.0625 -18.703125 
Q 35.890625 -21.34375 31.421875 -22.625 
Q 26.953125 -23.921875 21.53125 -23.921875 
Q 16.9375 -23.921875 13.328125 -23.109375 
Q 9.71875 -22.3125 7.671875 -21.1875 
L 7.671875 -14.796875 
Q 9.328125 -15.484375 10.890625 -15.9375 
Q 12.453125 -16.40625 14.109375 -16.71875 
Q 15.765625 -17.046875 17.5 -17.1875 
Q 19.234375 -17.328125 21.34375 -17.328125 
Q 29.5 -17.328125 33.84375 -13.515625 
Q 38.1875 -9.71875 38.1875 -1.90625 
L 38.1875 4.296875 
L 38.03125 4.296875 
Q 35.546875 1.5625 32.25 0.171875 
Q 28.953125 -1.21875 24.703125 -1.21875 
Q 22.75 -1.21875 20.5 -0.78125 
Q 18.265625 -0.34375 16.015625 0.703125 
Q 13.765625 1.765625 11.71875 3.484375 
Q 9.671875 5.21875 8.109375 7.828125 
Q 6.546875 10.453125 5.59375 14.015625 
Q 4.640625 17.578125 4.640625 22.265625 
Q 4.640625 28.765625 6.390625 33.515625 
Q 8.15625 38.28125 11.03125 41.40625 
Q 13.921875 44.53125 17.625 46.0625 
Q 21.34375 47.609375 25.296875 47.609375 
" id="Corbel-67"/>
     </defs>
     <g style="fill:#666666;" transform="translate(537.8134375 440.441505)scale(0.12 -0.12)">
      <use xlink:href="#Corbel-53"/>
      <use x="55.17578125" xlink:href="#Corbel-70"/>
      <use x="108.251953125" xlink:href="#Corbel-72"/>
      <use x="141.748046875" xlink:href="#Corbel-69"/>
      <use x="164.94140625" xlink:href="#Corbel-6e"/>
      <use x="217.67578125" xlink:href="#Corbel-67"/>
      <use x="270.751953125" xlink:href="#Corbel-65"/>
      <use x="320.5078125" xlink:href="#Corbel-72"/>
      <use x="354.00390625" xlink:href="#Corbel-20"/>
      <use x="374.0234375" xlink:href="#Corbel-4e"/>
      <use x="443.65234375" xlink:href="#Corbel-61"/>
      <use x="492.626953125" xlink:href="#Corbel-74"/>
      <use x="527.34375" xlink:href="#Corbel-75"/>
      <use x="579.1015625" xlink:href="#Corbel-72"/>
      <use x="612.59765625" xlink:href="#Corbel-65"/>
     </g>
    </g>
    <g id="line2d_55">
     <path d="M 507.813437 453.596505 
L 524.613437 453.596505 
" style="fill:none;stroke:#940e37;stroke-linecap:square;stroke-width:1.5;"/>
    </g>
    <g id="line2d_56"/>
    <g id="text_23">
     <!-- Wiley-Blackwell -->
     <defs>
      <path d="M 5.859375 27.875 
L 27.390625 27.875 
L 27.390625 20.796875 
L 5.859375 20.796875 
z
" id="Corbel-2d"/>
      <path d="M 37.359375 46.390625 
L 47.21875 46.390625 
L 24.5625 25.046875 
L 47.171875 0 
L 37.75 0 
L 15.484375 24.703125 
L 15.375 24.703125 
L 15.375 0 
L 7.8125 0 
L 7.8125 70.703125 
L 15.375 70.703125 
L 15.375 25.6875 
L 15.484375 25.6875 
z
" id="Corbel-6b"/>
      <path d="M 35.453125 38.71875 
Q 33.9375 32.328125 32.625 27.6875 
L 25 0 
L 17.234375 0 
L 1.953125 46.390625 
L 9.625 46.390625 
L 18.21875 17.484375 
Q 19.921875 11.765625 20.796875 8.34375 
L 21 8.34375 
Q 21.78125 11.859375 23.578125 18.5 
L 31.34375 46.390625 
L 39.84375 46.390625 
L 47.609375 18.5 
Q 49.171875 12.84375 50.203125 8.34375 
L 50.390625 8.34375 
Q 51.5625 12.84375 52.984375 17.484375 
L 61.578125 46.390625 
L 69.234375 46.390625 
L 53.953125 0 
L 46.09375 0 
L 38.484375 27.6875 
Q 37.109375 32.625 35.640625 38.71875 
z
" id="Corbel-77"/>
      <path d="M 44 54.546875 
Q 43.21875 50.046875 40.328125 38.8125 
L 30.171875 0 
L 22.078125 0 
L 1.953125 65.328125 
L 10.296875 65.328125 
L 21.34375 27 
Q 23.96875 17.78125 25.828125 10.40625 
L 26.03125 10.40625 
Q 27 14.9375 28.140625 19.234375 
Q 29.296875 23.53125 30.171875 26.90625 
L 40.140625 65.328125 
L 48.046875 65.328125 
L 58.015625 26.90625 
Q 61.671875 13.03125 62.15625 10.40625 
L 62.359375 10.40625 
Q 64.015625 17.234375 66.84375 27 
L 77.875 65.328125 
L 86.234375 65.328125 
L 66.109375 0 
L 58.015625 0 
L 47.859375 38.8125 
Q 45.0625 49.65625 44.1875 54.546875 
z
" id="Corbel-57"/>
     </defs>
     <g style="fill:#666666;" transform="translate(537.8134375 457.796505)scale(0.12 -0.12)">
      <use xlink:href="#Corbel-57"/>
      <use x="88.18359375" xlink:href="#Corbel-69"/>
      <use x="111.376953125" xlink:href="#Corbel-6c"/>
      <use x="134.5703125" xlink:href="#Corbel-65"/>
      <use x="184.326171875" xlink:href="#Corbel-79"/>
      <use x="232.275390625" xlink:href="#Corbel-2d"/>
      <use x="265.52734375" xlink:href="#Corbel-42"/>
      <use x="324.853515625" xlink:href="#Corbel-6c"/>
      <use x="348.046875" xlink:href="#Corbel-61"/>
      <use x="397.021484375" xlink:href="#Corbel-63"/>
      <use x="440.869140625" xlink:href="#Corbel-6b"/>
      <use x="489.55078125" xlink:href="#Corbel-77"/>
      <use x="560.7421875" xlink:href="#Corbel-65"/>
      <use x="610.498046875" xlink:href="#Corbel-6c"/>
      <use x="633.69140625" xlink:href="#Corbel-6c"/>
     </g>
    </g>
    <g id="line2d_57">
     <path d="M 507.813437 470.805255 
L 524.613437 470.805255 
" style="fill:none;stroke:#ff0000;stroke-dasharray:1.000000,3.000000;stroke-dashoffset:0.0;stroke-width:1.5;"/>
    </g>
    <g id="line2d_58"/>
    <g id="text_24">
     <!-- All other publishers -->
     <g style="fill:#666666;" transform="translate(537.8134375 475.005255)scale(0.12 -0.12)">
      <use xlink:href="#Corbel-41"/>
      <use x="63.525390625" xlink:href="#Corbel-6c"/>
      <use x="86.71875" xlink:href="#Corbel-6c"/>
      <use x="109.912109375" xlink:href="#Corbel-20"/>
      <use x="129.931640625" xlink:href="#Corbel-6f"/>
      <use x="183.251953125" xlink:href="#Corbel-74"/>
      <use x="217.96875" xlink:href="#Corbel-68"/>
      <use x="271.19140625" xlink:href="#Corbel-65"/>
      <use x="320.947265625" xlink:href="#Corbel-72"/>
      <use x="354.443359375" xlink:href="#Corbel-20"/>
      <use x="374.462890625" xlink:href="#Corbel-70"/>
      <use x="427.5390625" xlink:href="#Corbel-75"/>
      <use x="479.296875" xlink:href="#Corbel-62"/>
      <use x="532.861328125" xlink:href="#Corbel-6c"/>
      <use x="556.0546875" xlink:href="#Corbel-69"/>
      <use x="579.248046875" xlink:href="#Corbel-73"/>
      <use x="619.677734375" xlink:href="#Corbel-68"/>
      <use x="672.900390625" xlink:href="#Corbel-65"/>
      <use x="722.65625" xlink:href="#Corbel-72"/>
      <use x="756.15234375" xlink:href="#Corbel-73"/>
     </g>
    </g>
   </g>
  </g>
 </g>
 <defs>
  <clipPath id="ped86d7087b">
   <rect height="379.44" width="558.0" x="67.1303125" y="7.2"/>
  </clipPath>
 </defs>
</svg>
