<?xml version="1.0" encoding="utf-8" standalone="no"?>
<!DOCTYPE svg PUBLIC "-//W3C//DTD SVG 1.1//EN"
  "http://www.w3.org/Graphics/SVG/1.1/DTD/svg11.dtd">
<!-- Created with matplotlib (http://matplotlib.org/) -->
<svg height="507pt" version="1.1" viewBox="0 0 647 507" width="647pt" xmlns="http://www.w3.org/2000/svg" xmlns:xlink="http://www.w3.org/1999/xlink">
 <defs>
  <style type="text/css">
*{stroke-linecap:butt;stroke-linejoin:round;stroke-miterlimit:100000;}
  </style>
 </defs>
 <g id="figure_1">
  <g id="patch_1">
   <path d="M 0 507.23088 
L 647.185625 507.23088 
L 647.185625 0 
L 0 0 
z
" style="fill:#ffffff;"/>
  </g>
  <g id="axes_1">
   <g id="patch_2">
    <path d="M 68.005313 386.64 
L 626.005312 386.64 
L 626.005312 7.2 
L 68.005313 7.2 
z
" style="fill:#ffffff;"/>
   </g>
   <g id="matplotlib.axis_1">
    <g id="xtick_1">
     <g id="line2d_1">
      <defs>
       <path d="M 0 0 
L 0 6 
" id="m26a3f183a3" style="stroke:#666666;stroke-width:0.7;"/>
      </defs>
      <g>
       <use style="fill:#666666;stroke:#666666;stroke-width:0.7;" x="68.0053125" xlink:href="#m26a3f183a3" y="386.64"/>
      </g>
     </g>
     <g id="text_1">
      <!-- 2013 -->
      <defs>
       <path d="M 19.921875 6.6875 
Q 25.53125 6.984375 30.03125 6.984375 
L 45.265625 6.984375 
L 45.265625 0 
L 7.5625 0 
L 7.5625 5.03125 
Q 13.1875 9.1875 17.921875 12.765625 
Q 22.65625 16.359375 26.09375 19.65625 
Q 29.546875 22.953125 31.5 26.078125 
Q 33.453125 29.203125 33.453125 32.375 
Q 33.453125 36.625 30.71875 38.859375 
Q 27.984375 41.109375 22.859375 41.109375 
Q 19.046875 41.0625 15.453125 39.984375 
Q 11.859375 38.921875 8.0625 37.15625 
L 8.0625 43.609375 
Q 10.84375 45.21875 14.921875 46.40625 
Q 19 47.609375 23.875 47.609375 
Q 27.734375 47.609375 30.921875 46.625 
Q 34.125 45.65625 36.4375 43.765625 
Q 38.765625 41.890625 40.03125 39.125 
Q 41.3125 36.375 41.3125 32.765625 
Q 41.3125 28.90625 39.640625 25.5625 
Q 37.984375 22.21875 35.109375 19.140625 
Q 32.234375 16.0625 28.328125 13.0625 
Q 24.421875 10.0625 19.921875 6.890625 
z
" id="Corbel-32"/>
       <path d="M 27.25 15.046875 
Q 29.828125 14.796875 32.203125 13.765625 
Q 34.578125 12.75 36.40625 10.84375 
Q 38.234375 8.9375 39.328125 6.15625 
Q 40.4375 3.375 40.4375 -0.390625 
Q 40.4375 -4.890625 38.921875 -8.546875 
Q 37.40625 -12.203125 34.46875 -14.796875 
Q 31.546875 -17.390625 27.21875 -18.78125 
Q 22.90625 -20.171875 17.234375 -20.171875 
Q 13.28125 -20.171875 9.6875 -19.4375 
Q 6.109375 -18.703125 3.328125 -17.28125 
L 3.328125 -10.84375 
Q 6.84375 -12.359375 10.25 -13.015625 
Q 13.671875 -13.671875 16.703125 -13.671875 
Q 21.1875 -13.671875 24.21875 -12.5625 
Q 27.25 -11.46875 29.078125 -9.65625 
Q 30.90625 -7.859375 31.703125 -5.484375 
Q 32.515625 -3.125 32.515625 -0.53125 
Q 32.515625 5.8125 28.46875 8.609375 
Q 24.421875 11.421875 16.75 11.421875 
L 11.578125 11.421875 
L 11.578125 17.921875 
L 14.59375 17.921875 
Q 18.796875 17.921875 21.796875 18.875 
Q 24.8125 19.828125 26.765625 21.5 
Q 28.71875 23.1875 29.609375 25.453125 
Q 30.515625 27.734375 30.515625 30.375 
Q 30.515625 33.15625 29.515625 35.171875 
Q 28.515625 37.203125 26.78125 38.515625 
Q 25.046875 39.84375 22.703125 40.46875 
Q 20.359375 41.109375 17.671875 41.109375 
Q 14.359375 41.109375 10.984375 40.328125 
Q 7.625 39.546875 4.34375 38.234375 
L 4.34375 44.671875 
Q 8.34375 46.34375 11.984375 46.96875 
Q 15.625 47.609375 18.40625 47.609375 
Q 23.140625 47.609375 26.84375 46.328125 
Q 30.5625 45.0625 33.125 42.765625 
Q 35.6875 40.484375 37.046875 37.359375 
Q 38.421875 34.234375 38.421875 30.46875 
Q 38.421875 27.984375 37.828125 25.640625 
Q 37.25 23.296875 35.90625 21.28125 
Q 34.578125 19.28125 32.453125 17.71875 
Q 30.328125 16.15625 27.25 15.234375 
z
" id="Corbel-33"/>
       <path d="M 39.0625 23.140625 
Q 39.0625 27.34375 38.109375 30.6875 
Q 37.15625 34.03125 35.421875 36.34375 
Q 33.6875 38.671875 31.21875 39.90625 
Q 28.765625 41.15625 25.6875 41.15625 
Q 22.609375 41.15625 20.140625 39.90625 
Q 17.671875 38.671875 15.90625 36.34375 
Q 14.15625 34.03125 13.234375 30.6875 
Q 12.3125 27.34375 12.3125 23.140625 
Q 12.3125 19 13.25 15.65625 
Q 14.203125 12.3125 15.9375 10.015625 
Q 17.671875 7.71875 20.15625 6.46875 
Q 22.65625 5.21875 25.734375 5.21875 
Q 28.8125 5.21875 31.265625 6.46875 
Q 33.734375 7.71875 35.46875 10.015625 
Q 37.203125 12.3125 38.125 15.65625 
Q 39.0625 19 39.0625 23.140625 
M 46.96875 23.140625 
Q 46.96875 17.96875 45.53125 13.5 
Q 44.09375 9.03125 41.359375 5.75 
Q 38.625 2.484375 34.6875 0.625 
Q 30.765625 -1.21875 25.734375 -1.21875 
Q 20.5625 -1.21875 16.578125 0.625 
Q 12.59375 2.484375 9.875 5.75 
Q 7.171875 9.03125 5.78125 13.5 
Q 4.390625 17.96875 4.390625 23.140625 
Q 4.390625 28.375 5.828125 32.84375 
Q 7.28125 37.3125 10.015625 40.59375 
Q 12.75 43.890625 16.703125 45.75 
Q 20.65625 47.609375 25.6875 47.609375 
Q 30.8125 47.609375 34.78125 45.75 
Q 38.765625 43.890625 41.46875 40.59375 
Q 44.1875 37.3125 45.578125 32.84375 
Q 46.96875 28.375 46.96875 23.140625 
" id="Corbel-30"/>
       <path d="M 22.015625 6.984375 
L 22.015625 38.328125 
L 4.390625 32.8125 
L 4.390625 39.84375 
L 23.046875 46.390625 
L 29.59375 46.390625 
L 29.59375 6.984375 
L 42.390625 6.984375 
L 42.390625 0 
L 6.453125 0 
L 6.453125 6.984375 
z
" id="Corbel-31"/>
      </defs>
      <g style="fill:#666666;" transform="translate(54.52375 410.5384375)scale(0.14 -0.14)">
       <use xlink:href="#Corbel-32"/>
       <use x="51.07421875" xlink:href="#Corbel-30"/>
       <use x="102.44140625" xlink:href="#Corbel-31"/>
       <use x="147.265625" xlink:href="#Corbel-33"/>
      </g>
     </g>
    </g>
    <g id="xtick_2">
     <g id="line2d_2">
      <g>
       <use style="fill:#666666;stroke:#666666;stroke-width:0.7;" x="254.0053125" xlink:href="#m26a3f183a3" y="386.64"/>
      </g>
     </g>
     <g id="text_2">
      <!-- 2014 -->
      <defs>
       <path d="M 13.140625 6.5 
L 13.140625 6.296875 
L 20.359375 6.5 
L 31.0625 6.5 
L 31.0625 21.34375 
L 38.625 21.34375 
L 38.625 6.5 
L 48.25 6.5 
L 48.25 0 
L 38.625 0 
L 38.625 -18.890625 
L 31.0625 -18.890625 
L 31.0625 0 
L 4.5 0 
L 4.5 5.5625 
L 23.734375 46.390625 
L 31.890625 46.390625 
z
" id="Corbel-34"/>
      </defs>
      <g style="fill:#666666;" transform="translate(240.0796875 410.5384375)scale(0.14 -0.14)">
       <use xlink:href="#Corbel-32"/>
       <use x="51.07421875" xlink:href="#Corbel-30"/>
       <use x="102.44140625" xlink:href="#Corbel-31"/>
       <use x="147.265625" xlink:href="#Corbel-34"/>
      </g>
     </g>
    </g>
    <g id="xtick_3">
     <g id="line2d_3">
      <g>
       <use style="fill:#666666;stroke:#666666;stroke-width:0.7;" x="440.0053125" xlink:href="#m26a3f183a3" y="386.64"/>
      </g>
     </g>
     <g id="text_3">
      <!-- 2015 -->
      <defs>
       <path d="M 42.875 0.640625 
Q 42.875 -3.859375 41.234375 -7.65625 
Q 39.59375 -11.46875 36.5 -14.25 
Q 33.40625 -17.046875 28.953125 -18.609375 
Q 24.515625 -20.171875 18.84375 -20.171875 
Q 15.140625 -20.171875 11.765625 -19.453125 
Q 8.40625 -18.75 5.71875 -17.28125 
L 5.71875 -10.84375 
Q 9.328125 -12.453125 12.546875 -13.015625 
Q 15.765625 -13.578125 18.5 -13.578125 
Q 22.65625 -13.578125 25.734375 -12.46875 
Q 28.8125 -11.375 30.859375 -9.46875 
Q 32.90625 -7.5625 33.9375 -5.046875 
Q 34.96875 -2.546875 34.96875 0.25 
Q 34.96875 3.609375 33.90625 6.078125 
Q 32.859375 8.546875 30.609375 10.171875 
Q 28.375 11.8125 24.859375 12.609375 
Q 21.34375 13.421875 16.359375 13.421875 
Q 12.84375 13.421875 7.859375 12.9375 
L 12.5 46.390625 
L 42.828125 46.390625 
L 42.828125 39.40625 
L 19.1875 39.40625 
L 16.453125 20.015625 
Q 18.171875 20.125 19.1875 20.125 
Q 24.90625 20.125 29.3125 18.796875 
Q 33.734375 17.484375 36.734375 14.984375 
Q 39.75 12.5 41.3125 8.890625 
Q 42.875 5.28125 42.875 0.640625 
" id="Corbel-35"/>
      </defs>
      <g style="fill:#666666;" transform="translate(426.335625 410.5384375)scale(0.14 -0.14)">
       <use xlink:href="#Corbel-32"/>
       <use x="51.07421875" xlink:href="#Corbel-30"/>
       <use x="102.44140625" xlink:href="#Corbel-31"/>
       <use x="147.265625" xlink:href="#Corbel-35"/>
      </g>
     </g>
    </g>
    <g id="xtick_4">
     <g id="line2d_4">
      <g>
       <use style="fill:#666666;stroke:#666666;stroke-width:0.7;" x="626.0053125" xlink:href="#m26a3f183a3" y="386.64"/>
      </g>
     </g>
     <g id="text_4">
      <!-- 2016 -->
      <defs>
       <path d="M 27.546875 39.359375 
Q 31.890625 39.359375 35.578125 38.109375 
Q 39.265625 36.859375 41.921875 34.421875 
Q 44.578125 31.984375 46.0625 28.390625 
Q 47.5625 24.8125 47.5625 20.125 
Q 47.5625 15.4375 46.171875 11.5 
Q 44.78125 7.5625 42.140625 4.75 
Q 39.5 1.953125 35.6875 0.359375 
Q 31.890625 -1.21875 27.046875 -1.21875 
Q 21.921875 -1.21875 17.890625 0.828125 
Q 13.875 2.875 11.078125 6.6875 
Q 8.296875 10.5 6.828125 15.921875 
Q 5.375 21.34375 5.375 28.078125 
Q 5.375 33.25 6.171875 38.109375 
Q 6.984375 42.96875 8.5625 47.234375 
Q 10.15625 51.515625 12.46875 55.046875 
Q 14.796875 58.59375 17.875 61.15625 
Q 20.953125 63.71875 24.75 65.125 
Q 28.5625 66.546875 33.0625 66.546875 
Q 36.765625 66.5 39.453125 65.8125 
Q 42.140625 65.140625 43.953125 64.265625 
L 43.953125 57.90625 
Q 42 58.6875 39.265625 59.328125 
Q 36.53125 59.96875 33.59375 59.96875 
Q 30.078125 59.96875 26.78125 58.515625 
Q 23.484375 57.078125 20.796875 54.078125 
Q 18.109375 51.078125 16.234375 46.453125 
Q 14.359375 41.84375 13.625 35.5 
L 13.8125 35.5 
Q 16.890625 37.25 20.5 38.296875 
Q 24.125 39.359375 27.546875 39.359375 
M 27.34375 5.21875 
Q 29.9375 5.21875 32.171875 6.140625 
Q 34.421875 7.078125 36.078125 8.875 
Q 37.75 10.6875 38.703125 13.34375 
Q 39.65625 16.015625 39.65625 19.4375 
Q 39.65625 23.09375 38.640625 25.609375 
Q 37.640625 28.125 35.90625 29.6875 
Q 34.1875 31.25 31.859375 31.9375 
Q 29.546875 32.625 26.90625 32.625 
Q 23.4375 32.625 19.828125 31.390625 
Q 16.21875 30.171875 13.28125 28.421875 
Q 13.234375 22.5625 14.28125 18.1875 
Q 15.328125 13.8125 17.1875 10.9375 
Q 19.046875 8.0625 21.65625 6.640625 
Q 24.265625 5.21875 27.34375 5.21875 
" id="Corbel-36"/>
      </defs>
      <g style="fill:#666666;" transform="translate(612.025 410.5384375)scale(0.14 -0.14)">
       <use xlink:href="#Corbel-32"/>
       <use x="51.07421875" xlink:href="#Corbel-30"/>
       <use x="102.44140625" xlink:href="#Corbel-31"/>
       <use x="147.265625" xlink:href="#Corbel-36"/>
      </g>
     </g>
    </g>
    <g id="text_5">
     <!-- Year -->
     <defs>
      <path d="M 34.1875 5.03125 
L 33.984375 5.03125 
Q 33.015625 4 31.640625 2.921875 
Q 30.28125 1.859375 28.515625 0.90625 
Q 26.765625 -0.046875 24.609375 -0.625 
Q 22.46875 -1.21875 19.96875 -1.21875 
Q 16.609375 -1.21875 13.671875 -0.171875 
Q 10.75 0.875 8.640625 2.84375 
Q 6.546875 4.828125 5.34375 7.640625 
Q 4.15625 10.453125 4.15625 13.921875 
Q 4.15625 17.71875 5.546875 20.75 
Q 6.9375 23.78125 9.421875 25.875 
Q 11.921875 27.984375 15.375 29.078125 
Q 18.84375 30.171875 23.046875 30.171875 
Q 26.125 30.171875 28.703125 29.78125 
Q 31.296875 29.390625 33.25 28.859375 
L 33.25 30.765625 
Q 33.25 32.421875 32.6875 33.953125 
Q 32.125 35.5 30.875 36.6875 
Q 29.640625 37.890625 27.640625 38.59375 
Q 25.640625 39.3125 22.75 39.3125 
Q 19.234375 39.3125 15.71875 38.53125 
Q 12.203125 37.75 8.109375 36.1875 
L 8.109375 45.21875 
Q 11.671875 46.78125 15.671875 47.609375 
Q 19.671875 48.4375 24.078125 48.484375 
Q 29.25 48.484375 33.125 47.21875 
Q 37.015625 45.953125 39.625 43.71875 
Q 42.234375 41.5 43.53125 38.46875 
Q 44.828125 35.453125 44.828125 31.890625 
L 44.828125 14.0625 
Q 44.828125 9.375 44.921875 6 
Q 45.015625 2.640625 45.125 0 
L 34.671875 0 
z
M 33.25 20.171875 
Q 31.59375 20.5625 29.4375 20.875 
Q 27.296875 21.1875 25.09375 21.1875 
Q 20.84375 21.1875 18.375 19.5 
Q 15.921875 17.828125 15.921875 14.359375 
Q 15.921875 12.75 16.484375 11.546875 
Q 17.046875 10.359375 18 9.578125 
Q 18.953125 8.796875 20.21875 8.40625 
Q 21.484375 8.015625 22.90625 8.015625 
Q 24.65625 8.015625 26.21875 8.46875 
Q 27.78125 8.9375 29.09375 9.640625 
Q 30.421875 10.359375 31.46875 11.234375 
Q 32.515625 12.109375 33.25 12.9375 
z
" id="Corbel-Bold-61"/>
      <path d="M 31.78125 37.203125 
L 49.171875 65.328125 
L 62.453125 65.328125 
L 37.703125 26.3125 
L 37.703125 0 
L 25.734375 0 
L 25.734375 26.3125 
L 0.984375 65.328125 
L 14.265625 65.328125 
L 31.640625 37.203125 
z
" id="Corbel-Bold-59"/>
      <path d="M 30.71875 8.109375 
Q 34.078125 8.109375 37.734375 8.78125 
Q 41.40625 9.46875 45.171875 10.75 
L 45.171875 1.515625 
Q 42.921875 0.53125 38.28125 -0.34375 
Q 33.640625 -1.21875 28.65625 -1.21875 
Q 23.640625 -1.21875 19.109375 0.078125 
Q 14.59375 1.375 11.21875 4.25 
Q 7.859375 7.125 5.875 11.71875 
Q 3.90625 16.3125 3.90625 22.859375 
Q 3.90625 29.296875 5.765625 34.125 
Q 7.625 38.96875 10.75 42.140625 
Q 13.875 45.3125 17.890625 46.890625 
Q 21.921875 48.484375 26.21875 48.484375 
Q 30.71875 48.484375 34.5 47.109375 
Q 38.28125 45.75 41.03125 42.8125 
Q 43.796875 39.890625 45.328125 35.28125 
Q 46.875 30.671875 46.875 24.359375 
Q 46.828125 21.921875 46.734375 20.21875 
L 15.71875 20.21875 
Q 15.96875 16.9375 17.1875 14.625 
Q 18.40625 12.3125 20.375 10.859375 
Q 22.359375 9.421875 25 8.765625 
Q 27.640625 8.109375 30.71875 8.109375 
M 26.078125 39.453125 
Q 23.875 39.453125 22.15625 38.640625 
Q 20.453125 37.84375 19.203125 36.453125 
Q 17.96875 35.0625 17.234375 33.203125 
Q 16.5 31.34375 16.265625 29.25 
L 34.859375 29.25 
Q 34.859375 31.34375 34.296875 33.203125 
Q 33.734375 35.0625 32.640625 36.453125 
Q 31.546875 37.84375 29.90625 38.640625 
Q 28.265625 39.453125 26.078125 39.453125 
" id="Corbel-Bold-65"/>
      <path d="M 34.46875 38.140625 
L 33.5 38.140625 
Q 28.171875 38.140625 24.140625 36.546875 
Q 20.125 34.96875 17.921875 31.6875 
L 17.921875 0 
L 6.34375 0 
L 6.34375 47.3125 
L 15.921875 47.3125 
L 17 40.71875 
L 17.1875 40.71875 
Q 19.234375 44.34375 22.828125 46.40625 
Q 26.421875 48.484375 31.453125 48.484375 
Q 33.203125 48.484375 34.46875 48.296875 
z
" id="Corbel-Bold-72"/>
     </defs>
     <g style="fill:#666666;" transform="translate(332.93421875 428.6153125)scale(0.14 -0.14)">
      <use xlink:href="#Corbel-Bold-59"/>
      <use x="63.318359375" xlink:href="#Corbel-Bold-65"/>
      <use x="114.587890625" xlink:href="#Corbel-Bold-61"/>
      <use x="166.052734375" xlink:href="#Corbel-Bold-72"/>
     </g>
    </g>
   </g>
   <g id="matplotlib.axis_2">
    <g id="ytick_1">
     <g id="line2d_5">
      <path clip-path="url(#p24d708157e)" d="M 68.005313 386.64 
L 626.005312 386.64 
" style="fill:none;stroke:#666666;stroke-linecap:square;stroke-width:0.7;"/>
     </g>
     <g id="line2d_6">
      <defs>
       <path d="M 0 0 
L -6 0 
" id="mdda1906806" style="stroke:#666666;stroke-width:0.7;"/>
      </defs>
      <g>
       <use style="fill:#666666;stroke:#666666;stroke-width:0.7;" x="68.0053125" xlink:href="#mdda1906806" y="386.64"/>
      </g>
     </g>
     <g id="line2d_7">
      <defs>
       <path d="M 0 0 
L 6 0 
" id="mb55023d408" style="stroke:#666666;stroke-width:0.7;"/>
      </defs>
      <g>
       <use style="fill:#666666;stroke:#666666;stroke-width:0.7;" x="626.0053125" xlink:href="#mb55023d408" y="386.64"/>
      </g>
     </g>
     <g id="text_6">
      <!-- 0 -->
      <g style="fill:#666666;" transform="translate(46.8128125 390.0)scale(0.14 -0.14)">
       <use xlink:href="#Corbel-30"/>
      </g>
     </g>
    </g>
    <g id="ytick_2">
     <g id="line2d_8">
      <path clip-path="url(#p24d708157e)" d="M 68.005313 308.243306 
L 626.005312 308.243306 
" style="fill:none;stroke:#666666;stroke-linecap:square;stroke-width:0.7;"/>
     </g>
     <g id="line2d_9">
      <g>
       <use style="fill:#666666;stroke:#666666;stroke-width:0.7;" x="68.0053125" xlink:href="#mdda1906806" y="308.243305785"/>
      </g>
     </g>
     <g id="line2d_10">
      <g>
       <use style="fill:#666666;stroke:#666666;stroke-width:0.7;" x="626.0053125" xlink:href="#mb55023d408" y="308.243305785"/>
      </g>
     </g>
     <g id="text_7">
      <!-- 500 -->
      <g style="fill:#666666;" transform="translate(32.9003125 311.603305785)scale(0.14 -0.14)">
       <use xlink:href="#Corbel-35"/>
       <use x="47.998046875" xlink:href="#Corbel-30"/>
       <use x="99.365234375" xlink:href="#Corbel-30"/>
      </g>
     </g>
    </g>
    <g id="ytick_3">
     <g id="line2d_11">
      <path clip-path="url(#p24d708157e)" d="M 68.005313 229.846612 
L 626.005312 229.846612 
" style="fill:none;stroke:#666666;stroke-linecap:square;stroke-width:0.7;"/>
     </g>
     <g id="line2d_12">
      <g>
       <use style="fill:#666666;stroke:#666666;stroke-width:0.7;" x="68.0053125" xlink:href="#mdda1906806" y="229.84661157"/>
      </g>
     </g>
     <g id="line2d_13">
      <g>
       <use style="fill:#666666;stroke:#666666;stroke-width:0.7;" x="626.0053125" xlink:href="#mb55023d408" y="229.84661157"/>
      </g>
     </g>
     <g id="text_8">
      <!-- 1000 -->
      <g style="fill:#666666;" transform="translate(26.151875 233.20661157)scale(0.14 -0.14)">
       <use xlink:href="#Corbel-31"/>
       <use x="44.82421875" xlink:href="#Corbel-30"/>
       <use x="96.19140625" xlink:href="#Corbel-30"/>
       <use x="147.55859375" xlink:href="#Corbel-30"/>
      </g>
     </g>
    </g>
    <g id="ytick_4">
     <g id="line2d_14">
      <path clip-path="url(#p24d708157e)" d="M 68.005313 151.449917 
L 626.005312 151.449917 
" style="fill:none;stroke:#666666;stroke-linecap:square;stroke-width:0.7;"/>
     </g>
     <g id="line2d_15">
      <g>
       <use style="fill:#666666;stroke:#666666;stroke-width:0.7;" x="68.0053125" xlink:href="#mdda1906806" y="151.449917355"/>
      </g>
     </g>
     <g id="line2d_16">
      <g>
       <use style="fill:#666666;stroke:#666666;stroke-width:0.7;" x="626.0053125" xlink:href="#mb55023d408" y="151.449917355"/>
      </g>
     </g>
     <g id="text_9">
      <!-- 1500 -->
      <g style="fill:#666666;" transform="translate(26.624375 154.809917355)scale(0.14 -0.14)">
       <use xlink:href="#Corbel-31"/>
       <use x="44.82421875" xlink:href="#Corbel-35"/>
       <use x="92.822265625" xlink:href="#Corbel-30"/>
       <use x="144.189453125" xlink:href="#Corbel-30"/>
      </g>
     </g>
    </g>
    <g id="ytick_5">
     <g id="line2d_17">
      <path clip-path="url(#p24d708157e)" d="M 68.005313 73.053223 
L 626.005312 73.053223 
" style="fill:none;stroke:#666666;stroke-linecap:square;stroke-width:0.7;"/>
     </g>
     <g id="line2d_18">
      <g>
       <use style="fill:#666666;stroke:#666666;stroke-width:0.7;" x="68.0053125" xlink:href="#mdda1906806" y="73.0532231405"/>
      </g>
     </g>
     <g id="line2d_19">
      <g>
       <use style="fill:#666666;stroke:#666666;stroke-width:0.7;" x="626.0053125" xlink:href="#mb55023d408" y="73.0532231405"/>
      </g>
     </g>
     <g id="text_10">
      <!-- 2000 -->
      <g style="fill:#666666;" transform="translate(25.276875 76.4132231405)scale(0.14 -0.14)">
       <use xlink:href="#Corbel-32"/>
       <use x="51.07421875" xlink:href="#Corbel-30"/>
       <use x="102.44140625" xlink:href="#Corbel-30"/>
       <use x="153.80859375" xlink:href="#Corbel-30"/>
      </g>
     </g>
    </g>
    <g id="text_11">
     <!-- Average APC (GBP) -->
     <defs>
      <path d="M 48.640625 47.3125 
L 30.328125 0 
L 18.84375 0 
L 0.484375 47.3125 
L 12.703125 47.3125 
L 19.28125 29.25 
Q 22.125 21.625 24.46875 14.015625 
L 24.65625 14.015625 
Q 26.703125 20.609375 29.734375 28.953125 
L 36.328125 47.3125 
z
" id="Corbel-Bold-76"/>
      <path d="M 25.875 25.296875 
Q 24.265625 25.296875 22.703125 25.34375 
Q 21.140625 25.390625 19.78125 25.53125 
L 19.78125 0 
L 7.8125 0 
L 7.8125 65.328125 
L 26.65625 65.328125 
Q 31.390625 65.328125 34.9375 64.90625 
Q 38.484375 64.5 41.265625 63.671875 
Q 47.953125 61.625 51.5625 57.125 
Q 55.171875 52.640625 55.171875 45.703125 
Q 55.171875 40.96875 53.21875 37.1875 
Q 51.265625 33.40625 47.5 30.765625 
Q 43.75 28.125 38.328125 26.703125 
Q 32.90625 25.296875 25.875 25.296875 
M 19.78125 35.59375 
Q 20.796875 35.453125 22.375 35.375 
Q 23.96875 35.296875 25.6875 35.296875 
Q 30.515625 35.296875 33.78125 36.078125 
Q 37.0625 36.859375 39.0625 38.25 
Q 41.0625 39.65625 41.9375 41.625 
Q 42.828125 43.609375 42.828125 45.953125 
Q 42.828125 48.828125 41.5 50.921875 
Q 40.1875 53.03125 36.921875 54.203125 
Q 35.203125 54.78125 32.6875 55.046875 
Q 30.171875 55.328125 26.515625 55.328125 
L 19.78125 55.328125 
z
" id="Corbel-Bold-50"/>
      <path d="M 48.4375 24.953125 
L 33.796875 24.953125 
L 33.796875 34.96875 
L 60.40625 34.96875 
L 60.40625 2 
Q 58.9375 1.46875 56.65625 0.875 
Q 54.390625 0.296875 51.578125 -0.171875 
Q 48.78125 -0.640625 45.796875 -0.921875 
Q 42.828125 -1.21875 39.890625 -1.21875 
Q 31.109375 -1.21875 24.53125 1.140625 
Q 17.96875 3.515625 13.59375 7.8125 
Q 9.234375 12.109375 7.0625 18.03125 
Q 4.890625 23.96875 4.890625 31.15625 
Q 4.890625 36.234375 6.03125 40.84375 
Q 7.171875 45.453125 9.390625 49.390625 
Q 11.625 53.328125 14.796875 56.5 
Q 17.96875 59.671875 22.046875 61.90625 
Q 26.125 64.15625 30.984375 65.34375 
Q 35.84375 66.546875 41.40625 66.546875 
Q 46.34375 66.546875 50.78125 65.84375 
Q 55.21875 65.140625 58.0625 64.109375 
L 58.0625 53.953125 
Q 54.25 55.171875 50.359375 55.8125 
Q 46.484375 56.453125 42.53125 56.453125 
Q 37.203125 56.453125 32.5625 54.859375 
Q 27.9375 53.265625 24.53125 50.171875 
Q 21.140625 47.078125 19.1875 42.53125 
Q 17.234375 37.984375 17.234375 32.03125 
Q 17.28125 20.453125 23.28125 14.671875 
Q 29.296875 8.890625 40.328125 8.890625 
Q 42.390625 8.890625 44.578125 9.109375 
Q 46.78125 9.328125 48.4375 9.671875 
z
" id="Corbel-Bold-47"/>
      <path d="M 55.125 47.953125 
Q 55.125 43.703125 53.21875 40.15625 
Q 51.3125 36.625 46.921875 34.28125 
L 46.921875 34.078125 
Q 49.359375 33.25 51.390625 31.953125 
Q 53.421875 30.671875 54.859375 28.875 
Q 56.296875 27.09375 57.09375 24.84375 
Q 57.90625 22.609375 57.90625 19.828125 
Q 57.90625 17.4375 57.140625 14.703125 
Q 56.390625 11.96875 54.484375 9.40625 
Q 52.59375 6.84375 49.40625 4.6875 
Q 46.234375 2.546875 41.40625 1.265625 
Q 40.1875 0.984375 38.75 0.734375 
Q 37.3125 0.484375 35.546875 0.3125 
Q 33.796875 0.140625 31.640625 0.0625 
Q 29.5 0 26.8125 0 
L 7.8125 0 
L 7.8125 65.328125 
L 30.515625 65.328125 
Q 37.796875 65.328125 42.234375 63.875 
Q 45.5625 62.796875 48 61.0625 
Q 50.4375 59.328125 52.015625 57.203125 
Q 53.609375 55.078125 54.359375 52.703125 
Q 55.125 50.34375 55.125 47.953125 
M 19.78125 28.421875 
L 19.78125 10.015625 
L 27.59375 10.015625 
Q 30.71875 10.015625 32.953125 10.1875 
Q 35.203125 10.359375 36.8125 10.75 
Q 39.3125 11.28125 40.96875 12.1875 
Q 42.625 13.09375 43.640625 14.234375 
Q 44.671875 15.375 45.109375 16.765625 
Q 45.5625 18.171875 45.5625 19.734375 
Q 45.5625 22.46875 44.046875 24.515625 
Q 42.53125 26.5625 39.3125 27.59375 
Q 37.890625 28.03125 35.984375 28.21875 
Q 34.078125 28.421875 31.109375 28.421875 
z
M 30.5625 38.421875 
Q 35.453125 38.421875 37.84375 39.40625 
Q 40.53125 40.53125 41.671875 42.5 
Q 42.828125 44.484375 42.828125 46.96875 
Q 42.828125 49.5625 41.5 51.578125 
Q 40.1875 53.609375 37.015625 54.59375 
Q 35.6875 54.984375 33.921875 55.15625 
Q 32.171875 55.328125 29.59375 55.328125 
L 19.78125 55.328125 
L 19.78125 38.421875 
z
" id="Corbel-Bold-42"/>
      <path d="M 39.59375 56.453125 
Q 34.71875 56.453125 30.59375 54.828125 
Q 26.46875 53.21875 23.515625 50.140625 
Q 20.5625 47.078125 18.890625 42.546875 
Q 17.234375 38.03125 17.234375 32.234375 
Q 17.234375 26.46875 18.75 22.09375 
Q 20.265625 17.71875 23.09375 14.78125 
Q 25.921875 11.859375 30 10.375 
Q 34.078125 8.890625 39.265625 8.890625 
Q 42.96875 8.890625 46.828125 9.46875 
Q 50.6875 10.0625 54.046875 11.1875 
L 54.046875 0.875 
Q 50.640625 -0.09375 46.671875 -0.65625 
Q 42.71875 -1.21875 38.484375 -1.21875 
Q 30.171875 -1.21875 23.875 1.140625 
Q 17.578125 3.515625 13.34375 7.828125 
Q 9.125 12.15625 7 18.1875 
Q 4.890625 24.21875 4.890625 31.5 
Q 4.890625 38.96875 7.15625 45.359375 
Q 9.421875 51.765625 13.6875 56.453125 
Q 17.96875 61.140625 24.390625 63.8125 
Q 30.8125 66.5 38.921875 66.546875 
Q 43.0625 66.546875 46.765625 65.984375 
Q 50.484375 65.4375 53.46875 64.40625 
L 53.46875 54.25 
Q 49.5625 55.46875 46.1875 55.953125 
Q 42.828125 56.453125 39.59375 56.453125 
" id="Corbel-Bold-43"/>
      <path d="M 37.0625 -1.21875 
Q 37.0625 -0.25 37.078125 1.1875 
Q 37.109375 2.640625 37.203125 3.609375 
L 37.109375 3.609375 
Q 36.03125 2.734375 34.640625 1.875 
Q 33.25 1.03125 31.59375 0.3125 
Q 29.9375 -0.390625 27.921875 -0.796875 
Q 25.921875 -1.21875 23.828125 -1.21875 
Q 20.0625 -1.21875 16.46875 0.125 
Q 12.890625 1.46875 10.109375 4.375 
Q 7.328125 7.28125 5.609375 11.8125 
Q 3.90625 16.359375 3.90625 22.75 
Q 3.90625 29.15625 5.640625 33.953125 
Q 7.375 38.765625 10.25 41.984375 
Q 13.140625 45.21875 16.875 46.84375 
Q 20.609375 48.484375 24.5625 48.484375 
Q 28.90625 48.484375 32.265625 46.65625 
Q 35.640625 44.828125 37.796875 42 
L 37.984375 42 
L 38.484375 47.3125 
L 48.640625 47.3125 
L 48.640625 -0.875 
Q 48.640625 -5.03125 47.953125 -8 
Q 47.265625 -10.984375 45.953125 -13.28125 
Q 44.390625 -15.96875 41.96875 -17.96875 
Q 39.546875 -19.96875 36.4375 -21.28125 
Q 33.34375 -22.609375 29.625 -23.265625 
Q 25.921875 -23.921875 21.78125 -23.921875 
Q 19.4375 -23.921875 17.1875 -23.75 
Q 14.9375 -23.578125 12.953125 -23.265625 
Q 10.984375 -22.953125 9.34375 -22.53125 
Q 7.71875 -22.125 6.59375 -21.6875 
L 6.59375 -12.25 
Q 9.8125 -13.328125 13.34375 -13.890625 
Q 16.890625 -14.453125 20.796875 -14.453125 
Q 28.5625 -14.453125 32.8125 -11.453125 
Q 37.0625 -8.453125 37.0625 -2.34375 
z
M 26.703125 8.015625 
Q 28.46875 8.015625 30.03125 8.453125 
Q 31.59375 8.890625 32.90625 9.5625 
Q 34.234375 10.25 35.28125 11.078125 
Q 36.328125 11.921875 37.0625 12.75 
L 37.0625 33.890625 
Q 35.203125 36.078125 32.46875 37.546875 
Q 29.734375 39.015625 26.65625 39.0625 
Q 25.59375 39.0625 24.390625 38.796875 
Q 23.1875 38.53125 21.96875 37.84375 
Q 20.75 37.15625 19.65625 36 
Q 18.5625 34.859375 17.71875 33.09375 
Q 16.890625 31.34375 16.375 28.90625 
Q 15.875 26.46875 15.875 23.25 
Q 15.875 19.671875 16.546875 16.859375 
Q 17.234375 14.0625 18.59375 12.078125 
Q 19.96875 10.109375 22 9.0625 
Q 24.03125 8.015625 26.703125 8.015625 
" id="Corbel-Bold-67"/>
      <path d="M 4.890625 25.34375 
Q 4.890625 30.859375 5.765625 35.71875 
Q 6.640625 40.578125 8.078125 44.796875 
Q 9.515625 49.03125 11.375 52.5625 
Q 13.234375 56.109375 15.1875 58.90625 
Q 17.140625 61.71875 19.015625 63.765625 
Q 20.90625 65.828125 22.359375 67.09375 
L 28.609375 61.328125 
Q 25.984375 58.453125 23.578125 54.875 
Q 21.1875 51.3125 19.359375 46.890625 
Q 17.53125 42.484375 16.453125 37.125 
Q 15.375 31.78125 15.375 25.34375 
Q 15.375 18.890625 16.453125 13.546875 
Q 17.53125 8.203125 19.359375 3.78125 
Q 21.1875 -0.640625 23.578125 -4.203125 
Q 25.984375 -7.765625 28.609375 -10.640625 
L 22.359375 -16.40625 
Q 20.90625 -15.140625 19.015625 -13.078125 
Q 17.140625 -11.03125 15.1875 -8.21875 
Q 13.234375 -5.421875 11.375 -1.875 
Q 9.515625 1.65625 8.078125 5.875 
Q 6.640625 10.109375 5.765625 14.984375 
Q 4.890625 19.875 4.890625 25.34375 
" id="Corbel-Bold-28"/>
      <path d="M 25.6875 25.34375 
Q 25.6875 19.875 24.796875 14.984375 
Q 23.921875 10.109375 22.484375 5.875 
Q 21.046875 1.65625 19.1875 -1.875 
Q 17.328125 -5.421875 15.375 -8.21875 
Q 13.421875 -11.03125 11.5625 -13.078125 
Q 9.71875 -15.140625 8.203125 -16.40625 
L 1.953125 -10.640625 
Q 4.59375 -7.765625 6.984375 -4.203125 
Q 9.375 -0.640625 11.203125 3.78125 
Q 13.03125 8.203125 14.109375 13.546875 
Q 15.1875 18.890625 15.1875 25.34375 
Q 15.1875 31.78125 14.109375 37.125 
Q 13.03125 42.484375 11.203125 46.890625 
Q 9.375 51.3125 6.984375 54.875 
Q 4.59375 58.453125 1.953125 61.328125 
L 8.203125 67.09375 
Q 9.671875 65.828125 11.546875 63.765625 
Q 13.421875 61.71875 15.375 58.90625 
Q 17.328125 56.109375 19.1875 52.5625 
Q 21.046875 49.03125 22.484375 44.796875 
Q 23.921875 40.578125 24.796875 35.71875 
Q 25.6875 30.859375 25.6875 25.34375 
" id="Corbel-Bold-29"/>
      <path d="M 45.21875 16.65625 
L 20.609375 16.65625 
L 14.203125 0 
L 1.46875 0 
L 27.390625 65.328125 
L 38.328125 65.328125 
L 64.265625 0 
L 51.609375 0 
z
M 32.8125 49.609375 
Q 29.390625 39.359375 26.703125 32.46875 
L 24.46875 26.65625 
L 41.359375 26.65625 
L 39.109375 32.46875 
Q 36.421875 39.40625 33.015625 49.609375 
z
" id="Corbel-Bold-41"/>
      <path id="Corbel-Bold-20"/>
     </defs>
     <g style="fill:#666666;" transform="translate(16.9278125 255.36234375)rotate(-90.0)scale(0.14 -0.14)">
      <use xlink:href="#Corbel-Bold-41"/>
      <use x="65.69140625" xlink:href="#Corbel-Bold-76"/>
      <use x="114.8125" xlink:href="#Corbel-Bold-65"/>
      <use x="166.08203125" xlink:href="#Corbel-Bold-72"/>
      <use x="201.04296875" xlink:href="#Corbel-Bold-61"/>
      <use x="252.5078125" xlink:href="#Corbel-Bold-67"/>
      <use x="307.48828125" xlink:href="#Corbel-Bold-65"/>
      <use x="358.7578125" xlink:href="#Corbel-Bold-20"/>
      <use x="379.30078125" xlink:href="#Corbel-Bold-41"/>
      <use x="445.0234375" xlink:href="#Corbel-Bold-50"/>
      <use x="505.08203125" xlink:href="#Corbel-Bold-43"/>
      <use x="563.529296875" xlink:href="#Corbel-Bold-20"/>
      <use x="584.134765625" xlink:href="#Corbel-Bold-28"/>
      <use x="614.701171875" xlink:href="#Corbel-Bold-47"/>
      <use x="681.9375" xlink:href="#Corbel-Bold-42"/>
      <use x="744.2421875" xlink:href="#Corbel-Bold-50"/>
      <use x="804.30078125" xlink:href="#Corbel-Bold-29"/>
     </g>
    </g>
   </g>
   <g id="line2d_20">
    <path clip-path="url(#p24d708157e)" d="M 68.005313 215.058684 
L 254.005313 193.352406 
L 440.005313 164.340044 
L 626.005312 146.739709 
" style="fill:none;stroke:#b71a8b;stroke-linecap:square;stroke-width:1.5;"/>
   </g>
   <g id="line2d_21">
    <path clip-path="url(#p24d708157e)" d="M 68.005313 98.439913 
L 254.005313 137.389179 
L 440.005313 87.548729 
L 626.005312 71.526857 
" style="fill:none;stroke:#5b0d45;stroke-linecap:square;stroke-width:1.5;"/>
   </g>
   <g id="patch_3">
    <path d="M 626.005312 386.64 
L 626.005312 7.2 
" style="fill:none;stroke:#666666;stroke-linecap:square;stroke-linejoin:miter;stroke-width:0.5;"/>
   </g>
   <g id="patch_4">
    <path d="M 68.005313 386.64 
L 626.005312 386.64 
" style="fill:none;stroke:#666666;stroke-linecap:square;stroke-linejoin:miter;stroke-width:0.5;"/>
   </g>
   <g id="patch_5">
    <path d="M 68.005313 386.64 
L 68.005313 7.2 
" style="fill:none;stroke:#666666;stroke-linecap:square;stroke-linejoin:miter;stroke-width:0.5;"/>
   </g>
   <g id="legend_1">
    <g id="line2d_22">
     <path d="M 269.987813 488.306505 
L 286.787812 488.306505 
" style="fill:none;stroke:#b71a8b;stroke-linecap:square;stroke-width:1.5;"/>
    </g>
    <g id="line2d_23"/>
    <g id="text_12">
     <!-- Full OA -->
     <defs>
      <path id="Corbel-20"/>
      <path d="M 16.265625 0 
L 8.296875 0 
L 8.296875 65.328125 
L 47.265625 65.328125 
L 47.265625 58.15625 
L 16.265625 58.15625 
L 16.265625 37.0625 
L 43.75 37.0625 
L 43.75 29.890625 
L 16.265625 29.890625 
z
" id="Corbel-46"/>
      <path d="M 1.703125 0 
L 28.328125 65.328125 
L 35.203125 65.328125 
L 61.8125 0 
L 53.171875 0 
L 45.359375 19.671875 
L 18.0625 19.671875 
L 10.25 0 
z
M 31.6875 55.171875 
Q 27.34375 42.96875 23.34375 33.015625 
L 20.90625 26.859375 
L 42.53125 26.859375 
L 40.09375 33.015625 
Q 36.078125 43.171875 31.890625 55.171875 
z
" id="Corbel-41"/>
      <path d="M 25.734375 -1.21875 
Q 22.125 -1.21875 19.234375 -0.4375 
Q 16.359375 0.34375 14.1875 1.75 
Q 12.015625 3.171875 10.5 5.140625 
Q 8.984375 7.125 8.109375 9.46875 
Q 7.421875 11.234375 7.125 13.328125 
Q 6.84375 15.4375 6.84375 17.921875 
L 6.84375 46.390625 
L 14.40625 46.390625 
L 14.40625 17.96875 
Q 14.40625 14.109375 15.4375 11.53125 
Q 16.609375 8.59375 19.21875 6.90625 
Q 21.828125 5.21875 25.875 5.21875 
Q 30.171875 5.21875 32.78125 7.078125 
Q 35.40625 8.9375 36.53125 12.0625 
Q 37.359375 14.453125 37.359375 17.96875 
L 37.359375 46.390625 
L 44.921875 46.390625 
L 44.921875 17.875 
Q 44.921875 15.53125 44.65625 13.5 
Q 44.390625 11.46875 43.796875 9.765625 
Q 42.921875 7.375 41.375 5.34375 
Q 39.84375 3.328125 37.59375 1.859375 
Q 35.359375 0.390625 32.390625 -0.40625 
Q 29.4375 -1.21875 25.734375 -1.21875 
" id="Corbel-75"/>
      <path d="M 58.796875 32.625 
Q 58.796875 39.203125 57.078125 44.234375 
Q 55.375 49.265625 52.359375 52.625 
Q 49.359375 56 45.28125 57.734375 
Q 41.21875 59.46875 36.53125 59.46875 
Q 31.84375 59.46875 27.765625 57.734375 
Q 23.6875 56 20.671875 52.625 
Q 17.671875 49.265625 15.96875 44.234375 
Q 14.265625 39.203125 14.265625 32.625 
Q 14.265625 26.03125 15.984375 21.015625 
Q 17.71875 16.015625 20.71875 12.640625 
Q 23.734375 9.28125 27.8125 7.5625 
Q 31.890625 5.859375 36.625 5.859375 
Q 41.3125 5.859375 45.328125 7.5625 
Q 49.359375 9.28125 52.359375 12.640625 
Q 55.375 16.015625 57.078125 21.015625 
Q 58.796875 26.03125 58.796875 32.625 
M 67.1875 32.625 
Q 67.1875 25.203125 65.03125 19 
Q 62.890625 12.796875 58.890625 8.296875 
Q 54.890625 3.8125 49.25 1.296875 
Q 43.609375 -1.21875 36.625 -1.21875 
Q 29.390625 -1.21875 23.671875 1.296875 
Q 17.96875 3.8125 14.015625 8.296875 
Q 10.0625 12.796875 7.953125 19 
Q 5.859375 25.203125 5.859375 32.625 
Q 5.859375 40.09375 8.03125 46.3125 
Q 10.203125 52.546875 14.1875 57.03125 
Q 18.171875 61.53125 23.828125 64.03125 
Q 29.5 66.546875 36.53125 66.546875 
Q 43.703125 66.546875 49.390625 64.03125 
Q 55.078125 61.53125 59.03125 57.03125 
Q 62.984375 52.546875 65.078125 46.3125 
Q 67.1875 40.09375 67.1875 32.625 
" id="Corbel-4f"/>
      <path d="M 7.8125 0 
L 7.8125 70.703125 
L 15.375 70.703125 
L 15.375 0 
z
" id="Corbel-6c"/>
     </defs>
     <g style="fill:#666666;" transform="translate(299.9878125 492.506505)scale(0.12 -0.12)">
      <use xlink:href="#Corbel-46"/>
      <use x="50.439453125" xlink:href="#Corbel-75"/>
      <use x="102.197265625" xlink:href="#Corbel-6c"/>
      <use x="125.390625" xlink:href="#Corbel-6c"/>
      <use x="148.583984375" xlink:href="#Corbel-20"/>
      <use x="168.556640625" xlink:href="#Corbel-4f"/>
      <use x="241.587890625" xlink:href="#Corbel-41"/>
     </g>
    </g>
    <g id="line2d_24">
     <path d="M 364.200938 488.306505 
L 381.000937 488.306505 
" style="fill:none;stroke:#5b0d45;stroke-linecap:square;stroke-width:1.5;"/>
    </g>
    <g id="line2d_25"/>
    <g id="text_13">
     <!-- Hybrid -->
     <defs>
      <path d="M 7.8125 0 
L 7.8125 46.390625 
L 15.375 46.390625 
L 15.375 0 
z
M 7.625 57.171875 
L 7.625 65.625 
L 15.578125 65.625 
L 15.578125 57.171875 
z
" id="Corbel-69"/>
      <path d="M 1.46875 46.390625 
L 9.234375 46.390625 
L 23.640625 10.015625 
L 23.921875 10.015625 
L 38.53125 46.390625 
L 46.484375 46.390625 
L 17.53125 -22.703125 
L 10.015625 -22.703125 
L 19.921875 0.921875 
z
" id="Corbel-79"/>
      <path d="M 16.265625 37.0625 
L 50.484375 37.0625 
L 50.484375 65.328125 
L 58.453125 65.328125 
L 58.453125 0 
L 50.484375 0 
L 50.484375 29.890625 
L 16.265625 29.890625 
L 16.265625 0 
L 8.296875 0 
L 8.296875 65.328125 
L 16.265625 65.328125 
z
" id="Corbel-48"/>
      <path d="M 32.765625 40.234375 
L 32.171875 40.234375 
Q 29.5 40.234375 26.90625 39.75 
Q 24.3125 39.265625 22.046875 38.25 
Q 19.78125 37.25 17.9375 35.78125 
Q 16.109375 34.328125 14.890625 32.328125 
L 14.890625 0 
L 7.328125 0 
L 7.328125 46.390625 
L 13.1875 46.390625 
L 14.65625 39.015625 
L 14.796875 39.015625 
Q 15.921875 40.828125 17.546875 42.390625 
Q 19.1875 43.953125 21.234375 45.125 
Q 23.296875 46.296875 25.734375 46.953125 
Q 28.171875 47.609375 30.859375 47.609375 
Q 31.34375 47.609375 31.859375 47.578125 
Q 32.375 47.5625 32.765625 47.515625 
z
" id="Corbel-72"/>
      <path d="M 41.015625 23.390625 
Q 41.015625 28.90625 39.71875 32.34375 
Q 38.421875 35.796875 36.390625 37.71875 
Q 34.375 39.65625 32.078125 40.375 
Q 29.78125 41.109375 27.484375 41.109375 
Q 23.96875 41.109375 20.875 39.640625 
Q 17.78125 38.1875 15.375 35.84375 
L 15.375 11.578125 
Q 16.0625 10.640625 17.15625 9.546875 
Q 18.265625 8.453125 19.78125 7.5 
Q 21.296875 6.546875 23.171875 5.875 
Q 25.046875 5.21875 27.296875 5.21875 
Q 30.671875 5.21875 33.234375 6.53125 
Q 35.796875 7.859375 37.53125 10.28125 
Q 39.265625 12.703125 40.140625 16.046875 
Q 41.015625 19.390625 41.015625 23.390625 
M 48.921875 23.96875 
Q 48.921875 17.484375 47.15625 12.75 
Q 45.40625 8.015625 42.53125 4.90625 
Q 39.65625 1.8125 35.9375 0.296875 
Q 32.234375 -1.21875 28.265625 -1.21875 
Q 25.296875 -1.21875 23.015625 -0.453125 
Q 20.75 0.296875 19.15625 1.34375 
Q 17.578125 2.390625 16.625 3.46875 
Q 15.671875 4.546875 15.28125 5.171875 
L 15.140625 5.171875 
L 13.53125 0 
L 7.8125 0 
L 7.8125 70.703125 
L 15.375 70.703125 
L 15.375 42.046875 
L 15.53125 42.046875 
Q 18.015625 44.671875 21.328125 46.140625 
Q 24.65625 47.609375 28.90625 47.609375 
Q 30.859375 47.609375 33.125 47.171875 
Q 35.40625 46.734375 37.625 45.65625 
Q 39.84375 44.578125 41.890625 42.8125 
Q 43.953125 41.0625 45.515625 38.453125 
Q 47.078125 35.84375 48 32.25 
Q 48.921875 28.65625 48.921875 23.96875 
" id="Corbel-62"/>
      <path d="M 12.546875 22.703125 
Q 12.546875 18.703125 13.453125 15.453125 
Q 14.359375 12.203125 16.0625 9.9375 
Q 17.78125 7.671875 20.265625 6.4375 
Q 22.75 5.21875 25.984375 5.21875 
Q 28.375 5.21875 30.328125 5.859375 
Q 32.28125 6.5 33.8125 7.46875 
Q 35.359375 8.453125 36.453125 9.546875 
Q 37.546875 10.640625 38.1875 11.578125 
L 38.1875 35.84375 
Q 35.84375 38.234375 32.765625 39.671875 
Q 29.6875 41.109375 26.125 41.109375 
Q 23.96875 41.109375 21.59375 40.296875 
Q 19.234375 39.5 17.203125 37.390625 
Q 15.1875 35.296875 13.859375 31.75 
Q 12.546875 28.21875 12.546875 22.703125 
M 4.640625 22.609375 
Q 4.640625 27.4375 5.59375 31.171875 
Q 6.546875 34.90625 8.109375 37.6875 
Q 9.671875 40.484375 11.765625 42.359375 
Q 13.875 44.234375 16.109375 45.40625 
Q 18.359375 46.578125 20.671875 47.09375 
Q 23 47.609375 25.046875 47.609375 
Q 29.296875 47.609375 32.421875 46.1875 
Q 35.546875 44.78125 38.03125 42.046875 
L 38.1875 42.046875 
L 38.1875 70.703125 
L 45.75 70.703125 
L 45.75 0 
L 40.046875 0 
L 38.484375 5.171875 
L 38.28125 5.171875 
Q 37.40625 4.046875 36.234375 2.90625 
Q 35.0625 1.765625 33.46875 0.828125 
Q 31.890625 -0.09375 29.8125 -0.65625 
Q 27.734375 -1.21875 25 -1.21875 
Q 21.1875 -1.21875 17.53125 0.078125 
Q 13.875 1.375 11.015625 4.21875 
Q 8.15625 7.078125 6.390625 11.59375 
Q 4.640625 16.109375 4.640625 22.609375 
" id="Corbel-64"/>
     </defs>
     <g style="fill:#666666;" transform="translate(394.2009375 492.506505)scale(0.12 -0.12)">
      <use xlink:href="#Corbel-48"/>
      <use x="66.748046875" xlink:href="#Corbel-79"/>
      <use x="114.697265625" xlink:href="#Corbel-62"/>
      <use x="168.26171875" xlink:href="#Corbel-72"/>
      <use x="201.7578125" xlink:href="#Corbel-69"/>
      <use x="224.951171875" xlink:href="#Corbel-64"/>
     </g>
    </g>
   </g>
  </g>
 </g>
 <defs>
  <clipPath id="p24d708157e">
   <rect height="379.44" width="558.0" x="68.0053125" y="7.2"/>
  </clipPath>
 </defs>
</svg>
