<?xml version="1.0" encoding="utf-8" standalone="no"?>
<!DOCTYPE svg PUBLIC "-//W3C//DTD SVG 1.1//EN"
  "http://www.w3.org/Graphics/SVG/1.1/DTD/svg11.dtd">
<!-- Created with matplotlib (http://matplotlib.org/) -->
<svg height="434pt" version="1.1" viewBox="0 0 534 434" width="534pt" xmlns="http://www.w3.org/2000/svg" xmlns:xlink="http://www.w3.org/1999/xlink">
 <defs>
  <style type="text/css">
*{stroke-linecap:butt;stroke-linejoin:round;stroke-miterlimit:100000;}
  </style>
 </defs>
 <g id="figure_1">
  <g id="patch_1">
   <path d="M 0 434.151896 
L 534.8475 434.151896 
L 534.8475 0 
L 0 0 
z
" style="fill:#ffffff;"/>
  </g>
  <g id="axes_1">
   <g id="patch_2">
    <path d="M 25.4475 394.798146 
L 527.6475 394.798146 
L 527.6475 15.358146 
L 25.4475 15.358146 
z
" style="fill:#ffffff;"/>
   </g>
   <g id="matplotlib.axis_1">
    <g id="xtick_1">
     <g id="text_1">
      <!-- 2013 -->
      <defs>
       <path d="M 19.921875 6.6875 
Q 25.53125 6.984375 30.03125 6.984375 
L 45.265625 6.984375 
L 45.265625 0 
L 7.5625 0 
L 7.5625 5.03125 
Q 13.1875 9.1875 17.921875 12.765625 
Q 22.65625 16.359375 26.09375 19.65625 
Q 29.546875 22.953125 31.5 26.078125 
Q 33.453125 29.203125 33.453125 32.375 
Q 33.453125 36.625 30.71875 38.859375 
Q 27.984375 41.109375 22.859375 41.109375 
Q 19.046875 41.0625 15.453125 39.984375 
Q 11.859375 38.921875 8.0625 37.15625 
L 8.0625 43.609375 
Q 10.84375 45.21875 14.921875 46.40625 
Q 19 47.609375 23.875 47.609375 
Q 27.734375 47.609375 30.921875 46.625 
Q 34.125 45.65625 36.4375 43.765625 
Q 38.765625 41.890625 40.03125 39.125 
Q 41.3125 36.375 41.3125 32.765625 
Q 41.3125 28.90625 39.640625 25.5625 
Q 37.984375 22.21875 35.109375 19.140625 
Q 32.234375 16.0625 28.328125 13.0625 
Q 24.421875 10.0625 19.921875 6.890625 
z
" id="Corbel-32"/>
       <path d="M 27.25 15.046875 
Q 29.828125 14.796875 32.203125 13.765625 
Q 34.578125 12.75 36.40625 10.84375 
Q 38.234375 8.9375 39.328125 6.15625 
Q 40.4375 3.375 40.4375 -0.390625 
Q 40.4375 -4.890625 38.921875 -8.546875 
Q 37.40625 -12.203125 34.46875 -14.796875 
Q 31.546875 -17.390625 27.21875 -18.78125 
Q 22.90625 -20.171875 17.234375 -20.171875 
Q 13.28125 -20.171875 9.6875 -19.4375 
Q 6.109375 -18.703125 3.328125 -17.28125 
L 3.328125 -10.84375 
Q 6.84375 -12.359375 10.25 -13.015625 
Q 13.671875 -13.671875 16.703125 -13.671875 
Q 21.1875 -13.671875 24.21875 -12.5625 
Q 27.25 -11.46875 29.078125 -9.65625 
Q 30.90625 -7.859375 31.703125 -5.484375 
Q 32.515625 -3.125 32.515625 -0.53125 
Q 32.515625 5.8125 28.46875 8.609375 
Q 24.421875 11.421875 16.75 11.421875 
L 11.578125 11.421875 
L 11.578125 17.921875 
L 14.59375 17.921875 
Q 18.796875 17.921875 21.796875 18.875 
Q 24.8125 19.828125 26.765625 21.5 
Q 28.71875 23.1875 29.609375 25.453125 
Q 30.515625 27.734375 30.515625 30.375 
Q 30.515625 33.15625 29.515625 35.171875 
Q 28.515625 37.203125 26.78125 38.515625 
Q 25.046875 39.84375 22.703125 40.46875 
Q 20.359375 41.109375 17.671875 41.109375 
Q 14.359375 41.109375 10.984375 40.328125 
Q 7.625 39.546875 4.34375 38.234375 
L 4.34375 44.671875 
Q 8.34375 46.34375 11.984375 46.96875 
Q 15.625 47.609375 18.40625 47.609375 
Q 23.140625 47.609375 26.84375 46.328125 
Q 30.5625 45.0625 33.125 42.765625 
Q 35.6875 40.484375 37.046875 37.359375 
Q 38.421875 34.234375 38.421875 30.46875 
Q 38.421875 27.984375 37.828125 25.640625 
Q 37.25 23.296875 35.90625 21.28125 
Q 34.578125 19.28125 32.453125 17.71875 
Q 30.328125 16.15625 27.25 15.234375 
z
" id="Corbel-33"/>
       <path d="M 39.0625 23.140625 
Q 39.0625 27.34375 38.109375 30.6875 
Q 37.15625 34.03125 35.421875 36.34375 
Q 33.6875 38.671875 31.21875 39.90625 
Q 28.765625 41.15625 25.6875 41.15625 
Q 22.609375 41.15625 20.140625 39.90625 
Q 17.671875 38.671875 15.90625 36.34375 
Q 14.15625 34.03125 13.234375 30.6875 
Q 12.3125 27.34375 12.3125 23.140625 
Q 12.3125 19 13.25 15.65625 
Q 14.203125 12.3125 15.9375 10.015625 
Q 17.671875 7.71875 20.15625 6.46875 
Q 22.65625 5.21875 25.734375 5.21875 
Q 28.8125 5.21875 31.265625 6.46875 
Q 33.734375 7.71875 35.46875 10.015625 
Q 37.203125 12.3125 38.125 15.65625 
Q 39.0625 19 39.0625 23.140625 
M 46.96875 23.140625 
Q 46.96875 17.96875 45.53125 13.5 
Q 44.09375 9.03125 41.359375 5.75 
Q 38.625 2.484375 34.6875 0.625 
Q 30.765625 -1.21875 25.734375 -1.21875 
Q 20.5625 -1.21875 16.578125 0.625 
Q 12.59375 2.484375 9.875 5.75 
Q 7.171875 9.03125 5.78125 13.5 
Q 4.390625 17.96875 4.390625 23.140625 
Q 4.390625 28.375 5.828125 32.84375 
Q 7.28125 37.3125 10.015625 40.59375 
Q 12.75 43.890625 16.703125 45.75 
Q 20.65625 47.609375 25.6875 47.609375 
Q 30.8125 47.609375 34.78125 45.75 
Q 38.765625 43.890625 41.46875 40.59375 
Q 44.1875 37.3125 45.578125 32.84375 
Q 46.96875 28.375 46.96875 23.140625 
" id="Corbel-30"/>
       <path d="M 22.015625 6.984375 
L 22.015625 38.328125 
L 4.390625 32.8125 
L 4.390625 39.84375 
L 23.046875 46.390625 
L 29.59375 46.390625 
L 29.59375 6.984375 
L 42.390625 6.984375 
L 42.390625 0 
L 6.453125 0 
L 6.453125 6.984375 
z
" id="Corbel-31"/>
      </defs>
      <g style="fill:#666666;" transform="translate(74.7409375 405.696583774)scale(0.14 -0.14)">
       <use xlink:href="#Corbel-32"/>
       <use x="51.07421875" xlink:href="#Corbel-30"/>
       <use x="102.44140625" xlink:href="#Corbel-31"/>
       <use x="147.265625" xlink:href="#Corbel-33"/>
      </g>
     </g>
    </g>
    <g id="xtick_2">
     <g id="text_2">
      <!-- 2014 -->
      <defs>
       <path d="M 13.140625 6.5 
L 13.140625 6.296875 
L 20.359375 6.5 
L 31.0625 6.5 
L 31.0625 21.34375 
L 38.625 21.34375 
L 38.625 6.5 
L 48.25 6.5 
L 48.25 0 
L 38.625 0 
L 38.625 -18.890625 
L 31.0625 -18.890625 
L 31.0625 0 
L 4.5 0 
L 4.5 5.5625 
L 23.734375 46.390625 
L 31.890625 46.390625 
z
" id="Corbel-34"/>
      </defs>
      <g style="fill:#666666;" transform="translate(199.846875 405.696583774)scale(0.14 -0.14)">
       <use xlink:href="#Corbel-32"/>
       <use x="51.07421875" xlink:href="#Corbel-30"/>
       <use x="102.44140625" xlink:href="#Corbel-31"/>
       <use x="147.265625" xlink:href="#Corbel-34"/>
      </g>
     </g>
    </g>
    <g id="xtick_3">
     <g id="text_3">
      <!-- 2015 -->
      <defs>
       <path d="M 42.875 0.640625 
Q 42.875 -3.859375 41.234375 -7.65625 
Q 39.59375 -11.46875 36.5 -14.25 
Q 33.40625 -17.046875 28.953125 -18.609375 
Q 24.515625 -20.171875 18.84375 -20.171875 
Q 15.140625 -20.171875 11.765625 -19.453125 
Q 8.40625 -18.75 5.71875 -17.28125 
L 5.71875 -10.84375 
Q 9.328125 -12.453125 12.546875 -13.015625 
Q 15.765625 -13.578125 18.5 -13.578125 
Q 22.65625 -13.578125 25.734375 -12.46875 
Q 28.8125 -11.375 30.859375 -9.46875 
Q 32.90625 -7.5625 33.9375 -5.046875 
Q 34.96875 -2.546875 34.96875 0.25 
Q 34.96875 3.609375 33.90625 6.078125 
Q 32.859375 8.546875 30.609375 10.171875 
Q 28.375 11.8125 24.859375 12.609375 
Q 21.34375 13.421875 16.359375 13.421875 
Q 12.84375 13.421875 7.859375 12.9375 
L 12.5 46.390625 
L 42.828125 46.390625 
L 42.828125 39.40625 
L 19.1875 39.40625 
L 16.453125 20.015625 
Q 18.171875 20.125 19.1875 20.125 
Q 24.90625 20.125 29.3125 18.796875 
Q 33.734375 17.484375 36.734375 14.984375 
Q 39.75 12.5 41.3125 8.890625 
Q 42.875 5.28125 42.875 0.640625 
" id="Corbel-35"/>
      </defs>
      <g style="fill:#666666;" transform="translate(325.6528125 405.696583774)scale(0.14 -0.14)">
       <use xlink:href="#Corbel-32"/>
       <use x="51.07421875" xlink:href="#Corbel-30"/>
       <use x="102.44140625" xlink:href="#Corbel-31"/>
       <use x="147.265625" xlink:href="#Corbel-35"/>
      </g>
     </g>
    </g>
    <g id="xtick_4">
     <g id="text_4">
      <!-- 2016 -->
      <defs>
       <path d="M 27.546875 39.359375 
Q 31.890625 39.359375 35.578125 38.109375 
Q 39.265625 36.859375 41.921875 34.421875 
Q 44.578125 31.984375 46.0625 28.390625 
Q 47.5625 24.8125 47.5625 20.125 
Q 47.5625 15.4375 46.171875 11.5 
Q 44.78125 7.5625 42.140625 4.75 
Q 39.5 1.953125 35.6875 0.359375 
Q 31.890625 -1.21875 27.046875 -1.21875 
Q 21.921875 -1.21875 17.890625 0.828125 
Q 13.875 2.875 11.078125 6.6875 
Q 8.296875 10.5 6.828125 15.921875 
Q 5.375 21.34375 5.375 28.078125 
Q 5.375 33.25 6.171875 38.109375 
Q 6.984375 42.96875 8.5625 47.234375 
Q 10.15625 51.515625 12.46875 55.046875 
Q 14.796875 58.59375 17.875 61.15625 
Q 20.953125 63.71875 24.75 65.125 
Q 28.5625 66.546875 33.0625 66.546875 
Q 36.765625 66.5 39.453125 65.8125 
Q 42.140625 65.140625 43.953125 64.265625 
L 43.953125 57.90625 
Q 42 58.6875 39.265625 59.328125 
Q 36.53125 59.96875 33.59375 59.96875 
Q 30.078125 59.96875 26.78125 58.515625 
Q 23.484375 57.078125 20.796875 54.078125 
Q 18.109375 51.078125 16.234375 46.453125 
Q 14.359375 41.84375 13.625 35.5 
L 13.8125 35.5 
Q 16.890625 37.25 20.5 38.296875 
Q 24.125 39.359375 27.546875 39.359375 
M 27.34375 5.21875 
Q 29.9375 5.21875 32.171875 6.140625 
Q 34.421875 7.078125 36.078125 8.875 
Q 37.75 10.6875 38.703125 13.34375 
Q 39.65625 16.015625 39.65625 19.4375 
Q 39.65625 23.09375 38.640625 25.609375 
Q 37.640625 28.125 35.90625 29.6875 
Q 34.1875 31.25 31.859375 31.9375 
Q 29.546875 32.625 26.90625 32.625 
Q 23.4375 32.625 19.828125 31.390625 
Q 16.21875 30.171875 13.28125 28.421875 
Q 13.234375 22.5625 14.28125 18.1875 
Q 15.328125 13.8125 17.1875 10.9375 
Q 19.046875 8.0625 21.65625 6.640625 
Q 24.265625 5.21875 27.34375 5.21875 
" id="Corbel-36"/>
      </defs>
      <g style="fill:#666666;" transform="translate(450.8921875 405.696583774)scale(0.14 -0.14)">
       <use xlink:href="#Corbel-32"/>
       <use x="51.07421875" xlink:href="#Corbel-30"/>
       <use x="102.44140625" xlink:href="#Corbel-31"/>
       <use x="147.265625" xlink:href="#Corbel-36"/>
      </g>
     </g>
    </g>
    <g id="text_5">
     <!-- Year -->
     <defs>
      <path d="M 34.1875 5.03125 
L 33.984375 5.03125 
Q 33.015625 4 31.640625 2.921875 
Q 30.28125 1.859375 28.515625 0.90625 
Q 26.765625 -0.046875 24.609375 -0.625 
Q 22.46875 -1.21875 19.96875 -1.21875 
Q 16.609375 -1.21875 13.671875 -0.171875 
Q 10.75 0.875 8.640625 2.84375 
Q 6.546875 4.828125 5.34375 7.640625 
Q 4.15625 10.453125 4.15625 13.921875 
Q 4.15625 17.71875 5.546875 20.75 
Q 6.9375 23.78125 9.421875 25.875 
Q 11.921875 27.984375 15.375 29.078125 
Q 18.84375 30.171875 23.046875 30.171875 
Q 26.125 30.171875 28.703125 29.78125 
Q 31.296875 29.390625 33.25 28.859375 
L 33.25 30.765625 
Q 33.25 32.421875 32.6875 33.953125 
Q 32.125 35.5 30.875 36.6875 
Q 29.640625 37.890625 27.640625 38.59375 
Q 25.640625 39.3125 22.75 39.3125 
Q 19.234375 39.3125 15.71875 38.53125 
Q 12.203125 37.75 8.109375 36.1875 
L 8.109375 45.21875 
Q 11.671875 46.78125 15.671875 47.609375 
Q 19.671875 48.4375 24.078125 48.484375 
Q 29.25 48.484375 33.125 47.21875 
Q 37.015625 45.953125 39.625 43.71875 
Q 42.234375 41.5 43.53125 38.46875 
Q 44.828125 35.453125 44.828125 31.890625 
L 44.828125 14.0625 
Q 44.828125 9.375 44.921875 6 
Q 45.015625 2.640625 45.125 0 
L 34.671875 0 
z
M 33.25 20.171875 
Q 31.59375 20.5625 29.4375 20.875 
Q 27.296875 21.1875 25.09375 21.1875 
Q 20.84375 21.1875 18.375 19.5 
Q 15.921875 17.828125 15.921875 14.359375 
Q 15.921875 12.75 16.484375 11.546875 
Q 17.046875 10.359375 18 9.578125 
Q 18.953125 8.796875 20.21875 8.40625 
Q 21.484375 8.015625 22.90625 8.015625 
Q 24.65625 8.015625 26.21875 8.46875 
Q 27.78125 8.9375 29.09375 9.640625 
Q 30.421875 10.359375 31.46875 11.234375 
Q 32.515625 12.109375 33.25 12.9375 
z
" id="Corbel-Bold-61"/>
      <path d="M 31.78125 37.203125 
L 49.171875 65.328125 
L 62.453125 65.328125 
L 37.703125 26.3125 
L 37.703125 0 
L 25.734375 0 
L 25.734375 26.3125 
L 0.984375 65.328125 
L 14.265625 65.328125 
L 31.640625 37.203125 
z
" id="Corbel-Bold-59"/>
      <path d="M 30.71875 8.109375 
Q 34.078125 8.109375 37.734375 8.78125 
Q 41.40625 9.46875 45.171875 10.75 
L 45.171875 1.515625 
Q 42.921875 0.53125 38.28125 -0.34375 
Q 33.640625 -1.21875 28.65625 -1.21875 
Q 23.640625 -1.21875 19.109375 0.078125 
Q 14.59375 1.375 11.21875 4.25 
Q 7.859375 7.125 5.875 11.71875 
Q 3.90625 16.3125 3.90625 22.859375 
Q 3.90625 29.296875 5.765625 34.125 
Q 7.625 38.96875 10.75 42.140625 
Q 13.875 45.3125 17.890625 46.890625 
Q 21.921875 48.484375 26.21875 48.484375 
Q 30.71875 48.484375 34.5 47.109375 
Q 38.28125 45.75 41.03125 42.8125 
Q 43.796875 39.890625 45.328125 35.28125 
Q 46.875 30.671875 46.875 24.359375 
Q 46.828125 21.921875 46.734375 20.21875 
L 15.71875 20.21875 
Q 15.96875 16.9375 17.1875 14.625 
Q 18.40625 12.3125 20.375 10.859375 
Q 22.359375 9.421875 25 8.765625 
Q 27.640625 8.109375 30.71875 8.109375 
M 26.078125 39.453125 
Q 23.875 39.453125 22.15625 38.640625 
Q 20.453125 37.84375 19.203125 36.453125 
Q 17.96875 35.0625 17.234375 33.203125 
Q 16.5 31.34375 16.265625 29.25 
L 34.859375 29.25 
Q 34.859375 31.34375 34.296875 33.203125 
Q 33.734375 35.0625 32.640625 36.453125 
Q 31.546875 37.84375 29.90625 38.640625 
Q 28.265625 39.453125 26.078125 39.453125 
" id="Corbel-Bold-65"/>
      <path d="M 34.46875 38.140625 
L 33.5 38.140625 
Q 28.171875 38.140625 24.140625 36.546875 
Q 20.125 34.96875 17.921875 31.6875 
L 17.921875 0 
L 6.34375 0 
L 6.34375 47.3125 
L 15.921875 47.3125 
L 17 40.71875 
L 17.1875 40.71875 
Q 19.234375 44.34375 22.828125 46.40625 
Q 26.421875 48.484375 31.453125 48.484375 
Q 33.203125 48.484375 34.46875 48.296875 
z
" id="Corbel-Bold-72"/>
     </defs>
     <g style="fill:#666666;" transform="translate(262.47640625 423.773458774)scale(0.14 -0.14)">
      <use xlink:href="#Corbel-Bold-59"/>
      <use x="63.318359375" xlink:href="#Corbel-Bold-65"/>
      <use x="114.587890625" xlink:href="#Corbel-Bold-61"/>
      <use x="166.052734375" xlink:href="#Corbel-Bold-72"/>
     </g>
    </g>
   </g>
   <g id="matplotlib.axis_2">
    <g id="ytick_1"/>
    <g id="ytick_2"/>
    <g id="ytick_3"/>
    <g id="ytick_4"/>
    <g id="ytick_5"/>
    <g id="ytick_6"/>
    <g id="ytick_7"/>
    <g id="ytick_8"/>
    <g id="text_6">
     <!-- Full OA percent of total Number -->
     <defs>
      <path d="M 27.25 -1.21875 
Q 20.125 -1.21875 15.4375 1.1875 
Q 10.75 3.609375 8.34375 7.71875 
Q 7.078125 9.90625 6.46875 12.546875 
Q 5.859375 15.1875 5.859375 18.40625 
L 5.859375 47.3125 
L 17.4375 47.3125 
L 17.4375 19.625 
Q 17.4375 17.234375 17.765625 15.5 
Q 18.109375 13.765625 18.796875 12.5 
Q 19.96875 10.359375 22.109375 9.296875 
Q 24.265625 8.25 27.25 8.25 
Q 30.375 8.25 32.59375 9.421875 
Q 34.8125 10.59375 35.9375 12.984375 
Q 37.0625 15.28125 37.0625 19.390625 
L 37.0625 47.3125 
L 48.640625 47.3125 
L 48.640625 18.40625 
Q 48.640625 12.640625 46.625 8.6875 
Q 45.515625 6.453125 43.71875 4.609375 
Q 41.9375 2.78125 39.515625 1.484375 
Q 37.109375 0.203125 34.046875 -0.5 
Q 31 -1.21875 27.25 -1.21875 
" id="Corbel-Bold-75"/>
      <path d="M 35.25 0.046875 
Q 33.296875 -0.53125 30.578125 -0.875 
Q 27.875 -1.21875 25.53125 -1.21875 
Q 19.578125 -1.21875 15.796875 0.703125 
Q 12.015625 2.640625 10.453125 6.25 
Q 9.328125 8.84375 9.328125 13.28125 
L 9.328125 37.796875 
L 0.484375 37.796875 
L 0.484375 47.3125 
L 9.328125 47.3125 
L 9.328125 60.546875 
L 20.90625 60.546875 
L 20.90625 47.3125 
L 34.578125 47.3125 
L 34.578125 37.796875 
L 20.90625 37.796875 
L 20.90625 14.796875 
Q 20.90625 12.0625 21.734375 10.75 
Q 23.1875 8.5 27.546875 8.5 
Q 29.546875 8.5 31.515625 8.8125 
Q 33.5 9.125 35.25 9.625 
z
" id="Corbel-Bold-74"/>
      <path d="M 28.515625 39.203125 
Q 25.484375 39.15625 22.75 37.71875 
Q 20.015625 36.28125 17.921875 33.84375 
L 17.921875 12.75 
Q 18.65625 11.921875 19.671875 11.078125 
Q 20.703125 10.25 21.96875 9.5625 
Q 23.25 8.890625 24.78125 8.453125 
Q 26.3125 8.015625 27.984375 8.015625 
Q 30.671875 8.015625 32.765625 9.15625 
Q 34.859375 10.296875 36.25 12.390625 
Q 37.640625 14.5 38.375 17.40625 
Q 39.109375 20.3125 39.109375 23.875 
Q 39.109375 27.6875 38.34375 30.5625 
Q 37.59375 33.453125 36.203125 35.34375 
Q 34.8125 37.25 32.859375 38.21875 
Q 30.90625 39.203125 28.515625 39.203125 
M 30.03125 -1.21875 
Q 26.21875 -1.21875 23.109375 0.171875 
Q 20.015625 1.5625 17.96875 3.609375 
L 17.78125 3.609375 
Q 17.828125 2.640625 17.875 0.859375 
Q 17.921875 -0.921875 17.921875 -3.03125 
L 17.921875 -22.703125 
L 6.34375 -22.703125 
L 6.34375 47.3125 
L 16.5 47.3125 
L 17 42 
L 17.1875 42 
Q 19.34375 44.828125 22.703125 46.65625 
Q 26.078125 48.484375 30.515625 48.484375 
Q 34.375 48.484375 38.109375 47.046875 
Q 41.84375 45.609375 44.71875 42.625 
Q 47.609375 39.65625 49.34375 35.109375 
Q 51.078125 30.5625 51.078125 24.3125 
Q 51.078125 17.71875 49.21875 12.90625 
Q 47.359375 8.109375 44.328125 4.953125 
Q 41.3125 1.8125 37.625 0.296875 
Q 33.9375 -1.21875 30.03125 -1.21875 
" id="Corbel-Bold-70"/>
      <path d="M 19.78125 0 
L 7.8125 0 
L 7.8125 65.328125 
L 49.421875 65.328125 
L 49.421875 55.328125 
L 19.78125 55.328125 
L 19.78125 38.421875 
L 45.125 38.421875 
L 45.125 28.421875 
L 19.78125 28.421875 
z
" id="Corbel-Bold-46"/>
      <path d="M 67.28125 28.8125 
Q 67.28125 30.328125 67.1875 31.640625 
Q 67.09375 32.953125 66.84375 33.9375 
Q 66.3125 36.078125 64.75 37.390625 
Q 63.1875 38.71875 60.359375 38.765625 
Q 58.84375 38.765625 57.21875 38.328125 
Q 55.609375 37.890625 54.015625 37.078125 
Q 52.4375 36.28125 51 35.125 
Q 49.5625 33.984375 48.390625 32.5625 
L 48.390625 0 
L 36.8125 0 
L 36.8125 28.8125 
Q 36.8125 30.328125 36.71875 31.640625 
Q 36.625 32.953125 36.375 33.9375 
Q 35.84375 36.078125 34.296875 37.390625 
Q 32.765625 38.71875 29.890625 38.765625 
Q 28.375 38.765625 26.75 38.328125 
Q 25.140625 37.890625 23.546875 37.078125 
Q 21.96875 36.28125 20.53125 35.125 
Q 19.09375 33.984375 17.921875 32.5625 
L 17.921875 0 
L 6.34375 0 
L 6.34375 47.3125 
L 15.921875 47.3125 
L 17 40.71875 
L 17.1875 40.71875 
Q 18.21875 42.1875 19.78125 43.59375 
Q 21.34375 45.015625 23.3125 46.09375 
Q 25.296875 47.171875 27.65625 47.828125 
Q 30.03125 48.484375 32.671875 48.484375 
Q 37.359375 48.484375 41.09375 46.40625 
Q 44.828125 44.34375 46.78125 39.9375 
L 46.96875 39.9375 
Q 48.34375 41.84375 50.015625 43.40625 
Q 51.703125 44.96875 53.75 46.09375 
Q 55.8125 47.21875 58.171875 47.84375 
Q 60.546875 48.484375 63.234375 48.484375 
Q 68.3125 48.4375 71.75 46.359375 
Q 75.203125 44.28125 77.046875 40.671875 
Q 77.546875 39.75 77.875 38.640625 
Q 78.21875 37.546875 78.4375 36.171875 
Q 78.65625 34.8125 78.75 33.15625 
Q 78.859375 31.5 78.859375 29.34375 
L 78.859375 0 
L 67.28125 0 
z
" id="Corbel-Bold-6d"/>
      <path d="M 51.8125 24.46875 
Q 51.8125 18.0625 49.953125 13.125 
Q 48.09375 8.203125 45.09375 5.03125 
Q 42.09375 1.859375 38.328125 0.3125 
Q 34.578125 -1.21875 30.765625 -1.21875 
Q 28.078125 -1.21875 25.921875 -0.5625 
Q 23.78125 0.09375 22.171875 1.0625 
Q 20.5625 2.046875 19.453125 3.125 
Q 18.359375 4.203125 17.71875 5.03125 
L 17.53125 5.03125 
L 16.40625 0 
L 6.84375 0 
Q 6.9375 2.09375 7 5.1875 
Q 7.078125 8.296875 7.078125 11.078125 
L 7.078125 70.703125 
L 18.65625 70.703125 
L 18.65625 51.03125 
Q 18.65625 48.921875 18.625 47.140625 
Q 18.609375 45.359375 18.5625 44.390625 
L 18.65625 44.390625 
Q 19.78125 45.171875 21.09375 45.890625 
Q 22.40625 46.625 23.96875 47.203125 
Q 25.53125 47.796875 27.34375 48.140625 
Q 29.15625 48.484375 31.15625 48.484375 
Q 35.109375 48.484375 38.84375 47.046875 
Q 42.578125 45.609375 45.484375 42.65625 
Q 48.390625 39.703125 50.09375 35.078125 
Q 51.8125 30.46875 51.8125 24.46875 
M 39.84375 23.875 
Q 39.84375 28.328125 38.765625 31.515625 
Q 37.703125 34.71875 35.96875 36.40625 
Q 34.234375 38.09375 32.34375 38.671875 
Q 30.46875 39.265625 28.609375 39.265625 
Q 26.078125 39.265625 23.4375 38.234375 
Q 20.796875 37.203125 18.65625 35.5 
L 18.65625 12.84375 
Q 19.34375 12.0625 20.34375 11.203125 
Q 21.34375 10.359375 22.578125 9.640625 
Q 23.828125 8.9375 25.296875 8.46875 
Q 26.765625 8.015625 28.421875 8.015625 
Q 31.25 8.015625 33.375 9.15625 
Q 35.5 10.296875 36.9375 12.390625 
Q 38.375 14.5 39.109375 17.40625 
Q 39.84375 20.3125 39.84375 23.875 
" id="Corbel-Bold-62"/>
      <path d="M 40.4375 1.03125 
Q 38.234375 0.09375 35.0625 -0.5625 
Q 31.890625 -1.21875 28.375 -1.21875 
Q 23.25 -1.21875 18.796875 0.234375 
Q 14.359375 1.703125 11.03125 4.6875 
Q 7.71875 7.671875 5.8125 12.234375 
Q 3.90625 16.796875 3.90625 22.90625 
Q 3.90625 29.734375 6.09375 34.609375 
Q 8.296875 39.5 11.78125 42.546875 
Q 15.28125 45.609375 19.65625 47.046875 
Q 24.03125 48.484375 28.265625 48.484375 
Q 31.453125 48.484375 34.375 47.921875 
Q 37.3125 47.359375 39.703125 46.390625 
L 39.703125 36.96875 
Q 37.546875 37.890625 35.125 38.453125 
Q 32.71875 39.015625 29.9375 39.015625 
Q 27.15625 39.015625 24.609375 38.15625 
Q 22.078125 37.3125 20.125 35.453125 
Q 18.171875 33.59375 17.015625 30.53125 
Q 15.875 27.484375 15.875 23.1875 
Q 15.875 20.0625 16.75 17.296875 
Q 17.625 14.546875 19.3125 12.59375 
Q 21 10.640625 23.609375 9.4375 
Q 26.21875 8.25 29.78125 8.25 
Q 32.953125 8.25 35.546875 8.875 
Q 38.140625 9.515625 40.4375 10.453125 
z
" id="Corbel-Bold-63"/>
      <path d="M 35.984375 61.328125 
Q 34.078125 61.8125 32.046875 62.125 
Q 30.03125 62.453125 28.21875 62.453125 
Q 26.265625 62.453125 24.75 61.984375 
Q 23.25 61.53125 22.1875 60.453125 
Q 21.140625 59.375 20.59375 57.65625 
Q 20.0625 55.953125 20.0625 53.515625 
L 20.0625 47.3125 
L 33.203125 47.3125 
L 33.203125 37.796875 
L 20.0625 37.796875 
L 20.0625 0 
L 8.5 0 
L 8.5 37.796875 
L 0.484375 37.796875 
L 0.484375 47.3125 
L 8.5 47.3125 
L 8.5 52.9375 
Q 8.5 57.90625 9.890625 61.5 
Q 11.28125 65.09375 13.765625 67.40625 
Q 16.265625 69.734375 19.625 70.828125 
Q 23 71.921875 26.953125 71.921875 
Q 29.390625 71.921875 31.8125 71.5 
Q 34.234375 71.09375 35.984375 70.515625 
z
" id="Corbel-Bold-66"/>
      <path d="M 45.21875 16.65625 
L 20.609375 16.65625 
L 14.203125 0 
L 1.46875 0 
L 27.390625 65.328125 
L 38.328125 65.328125 
L 64.265625 0 
L 51.609375 0 
z
M 32.8125 49.609375 
Q 29.390625 39.359375 26.703125 32.46875 
L 24.46875 26.65625 
L 41.359375 26.65625 
L 39.109375 32.46875 
Q 36.421875 39.40625 33.015625 49.609375 
z
" id="Corbel-Bold-41"/>
      <path d="M 41.84375 34.96875 
Q 48.875 24.953125 53.265625 17.1875 
L 53.5625 17.1875 
Q 52.984375 29.9375 52.984375 35.75 
L 52.984375 65.328125 
L 64.9375 65.328125 
L 64.9375 0 
L 52.390625 0 
L 31.109375 30.078125 
Q 25.484375 37.890625 19.484375 48.1875 
L 19.1875 48.1875 
Q 19.78125 36.1875 19.78125 29.59375 
L 19.78125 0 
L 7.8125 0 
L 7.8125 65.328125 
L 20.359375 65.328125 
z
" id="Corbel-Bold-4e"/>
      <path d="M 56.203125 32.671875 
Q 56.203125 38.625 54.734375 43.09375 
Q 53.265625 47.5625 50.671875 50.53125 
Q 48.09375 53.515625 44.53125 54.984375 
Q 40.96875 56.453125 36.71875 56.453125 
Q 32.46875 56.453125 28.90625 54.984375 
Q 25.34375 53.515625 22.75 50.53125 
Q 20.171875 47.5625 18.703125 43.09375 
Q 17.234375 38.625 17.234375 32.671875 
Q 17.234375 26.703125 18.703125 22.234375 
Q 20.171875 17.78125 22.75 14.8125 
Q 25.34375 11.859375 28.90625 10.375 
Q 32.46875 8.890625 36.71875 8.890625 
Q 40.96875 8.890625 44.53125 10.375 
Q 48.09375 11.859375 50.671875 14.8125 
Q 53.265625 17.78125 54.734375 22.234375 
Q 56.203125 26.703125 56.203125 32.671875 
M 68.5625 32.671875 
Q 68.5625 25.203125 66.4375 18.96875 
Q 64.3125 12.75 60.234375 8.25 
Q 56.15625 3.765625 50.21875 1.265625 
Q 44.28125 -1.21875 36.71875 -1.21875 
Q 29.15625 -1.21875 23.21875 1.265625 
Q 17.28125 3.765625 13.203125 8.25 
Q 9.125 12.75 7 18.96875 
Q 4.890625 25.203125 4.890625 32.671875 
Q 4.890625 40.140625 7 46.359375 
Q 9.125 52.59375 13.203125 57.078125 
Q 17.28125 61.578125 23.21875 64.0625 
Q 29.15625 66.546875 36.71875 66.546875 
Q 44.28125 66.546875 50.21875 64.0625 
Q 56.15625 61.578125 60.234375 57.078125 
Q 64.3125 52.59375 66.4375 46.359375 
Q 68.5625 40.140625 68.5625 32.671875 
" id="Corbel-Bold-4f"/>
      <path d="M 6.84375 0 
L 6.84375 70.703125 
L 18.40625 70.703125 
L 18.40625 0 
z
" id="Corbel-Bold-6c"/>
      <path id="Corbel-Bold-20"/>
      <path d="M 17 40.71875 
L 17.1875 40.71875 
Q 18.21875 42.1875 19.78125 43.59375 
Q 21.34375 45.015625 23.34375 46.09375 
Q 25.34375 47.171875 27.75 47.828125 
Q 30.171875 48.484375 32.90625 48.484375 
Q 35.5 48.484375 37.90625 47.890625 
Q 40.328125 47.3125 42.328125 46.0625 
Q 44.34375 44.828125 45.875 42.84375 
Q 47.40625 40.875 48.296875 38.140625 
Q 48.78125 36.625 48.953125 34.84375 
Q 49.125 33.0625 49.125 30.71875 
L 49.125 0 
L 37.546875 0 
L 37.546875 28.90625 
Q 37.546875 30.8125 37.390625 32.171875 
Q 37.25 33.546875 36.859375 34.578125 
Q 35.984375 36.8125 34.203125 37.78125 
Q 32.421875 38.765625 29.890625 38.765625 
Q 26.515625 38.765625 23.40625 37.171875 
Q 20.3125 35.59375 17.921875 32.5625 
L 17.921875 0 
L 6.34375 0 
L 6.34375 47.3125 
L 15.921875 47.3125 
z
" id="Corbel-Bold-6e"/>
      <path d="M 39.5 23.640625 
Q 39.5 27.390625 38.625 30.265625 
Q 37.75 33.15625 36.1875 35.109375 
Q 34.625 37.0625 32.421875 38.03125 
Q 30.21875 39.015625 27.640625 39.015625 
Q 25.09375 39.015625 22.921875 38.03125 
Q 20.75 37.0625 19.1875 35.109375 
Q 17.625 33.15625 16.75 30.265625 
Q 15.875 27.390625 15.875 23.640625 
Q 15.875 19.875 16.75 16.984375 
Q 17.625 14.109375 19.203125 12.171875 
Q 20.796875 10.25 22.96875 9.25 
Q 25.140625 8.25 27.734375 8.25 
Q 30.328125 8.25 32.46875 9.25 
Q 34.625 10.25 36.1875 12.171875 
Q 37.75 14.109375 38.625 16.984375 
Q 39.5 19.875 39.5 23.640625 
M 51.46875 23.640625 
Q 51.46875 18.0625 49.796875 13.46875 
Q 48.140625 8.890625 45.03125 5.609375 
Q 41.9375 2.34375 37.546875 0.5625 
Q 33.15625 -1.21875 27.734375 -1.21875 
Q 22.171875 -1.21875 17.75 0.5625 
Q 13.328125 2.34375 10.25 5.609375 
Q 7.171875 8.890625 5.53125 13.46875 
Q 3.90625 18.0625 3.90625 23.640625 
Q 3.90625 29.203125 5.5625 33.78125 
Q 7.234375 38.375 10.328125 41.640625 
Q 13.421875 44.921875 17.8125 46.703125 
Q 22.21875 48.484375 27.640625 48.484375 
Q 33.203125 48.484375 37.625 46.703125 
Q 42.046875 44.921875 45.109375 41.640625 
Q 48.1875 38.375 49.828125 33.78125 
Q 51.46875 29.203125 51.46875 23.640625 
" id="Corbel-Bold-6f"/>
     </defs>
     <g style="fill:#666666;" transform="translate(17.2690625 301.662833774)rotate(-90.0)scale(0.14 -0.14)">
      <use xlink:href="#Corbel-Bold-46"/>
      <use x="52.099609375" xlink:href="#Corbel-Bold-75"/>
      <use x="106.591796875" xlink:href="#Corbel-Bold-6c"/>
      <use x="131.8359375" xlink:href="#Corbel-Bold-6c"/>
      <use x="157.080078125" xlink:href="#Corbel-Bold-20"/>
      <use x="177.638671875" xlink:href="#Corbel-Bold-4f"/>
      <use x="251.060546875" xlink:href="#Corbel-Bold-41"/>
      <use x="316.783203125" xlink:href="#Corbel-Bold-20"/>
      <use x="337.388671875" xlink:href="#Corbel-Bold-70"/>
      <use x="392.369140625" xlink:href="#Corbel-Bold-65"/>
      <use x="443.638671875" xlink:href="#Corbel-Bold-72"/>
      <use x="478.599609375" xlink:href="#Corbel-Bold-63"/>
      <use x="522.69140625" xlink:href="#Corbel-Bold-65"/>
      <use x="573.9609375" xlink:href="#Corbel-Bold-6e"/>
      <use x="629.4296875" xlink:href="#Corbel-Bold-74"/>
      <use x="667.369140625" xlink:href="#Corbel-Bold-20"/>
      <use x="687.974609375" xlink:href="#Corbel-Bold-6f"/>
      <use x="743.345703125" xlink:href="#Corbel-Bold-66"/>
      <use x="776.158203125" xlink:href="#Corbel-Bold-20"/>
      <use x="796.763671875" xlink:href="#Corbel-Bold-74"/>
      <use x="834.703125" xlink:href="#Corbel-Bold-6f"/>
      <use x="890.07421875" xlink:href="#Corbel-Bold-74"/>
      <use x="928.013671875" xlink:href="#Corbel-Bold-61"/>
      <use x="979.478515625" xlink:href="#Corbel-Bold-6c"/>
      <use x="1004.72265625" xlink:href="#Corbel-Bold-20"/>
      <use x="1025.328125" xlink:href="#Corbel-Bold-4e"/>
      <use x="1098.08203125" xlink:href="#Corbel-Bold-75"/>
      <use x="1152.57421875" xlink:href="#Corbel-Bold-6d"/>
      <use x="1237.77929688" xlink:href="#Corbel-Bold-62"/>
      <use x="1293.4921875" xlink:href="#Corbel-Bold-65"/>
      <use x="1344.76171875" xlink:href="#Corbel-Bold-72"/>
     </g>
    </g>
   </g>
   <g id="patch_3">
    <path clip-path="url(#p4ae89124ec)" d="M 50.5575 394.798146 
L 125.8875 394.798146 
L 125.8875 101.27852 
L 50.5575 101.27852 
z
" style="fill:#b71a8b;stroke:#ffffff;stroke-linejoin:miter;stroke-width:3.0;"/>
   </g>
   <g id="patch_4">
    <path clip-path="url(#p4ae89124ec)" d="M 176.1075 394.798146 
L 251.4375 394.798146 
L 251.4375 164.506731 
L 176.1075 164.506731 
z
" style="fill:#b71a8b;stroke:#ffffff;stroke-linejoin:miter;stroke-width:3.0;"/>
   </g>
   <g id="patch_5">
    <path clip-path="url(#p4ae89124ec)" d="M 301.6575 394.798146 
L 376.9875 394.798146 
L 376.9875 24.071275 
L 301.6575 24.071275 
z
" style="fill:#b71a8b;stroke:#ffffff;stroke-linejoin:miter;stroke-width:3.0;"/>
   </g>
   <g id="patch_6">
    <path clip-path="url(#p4ae89124ec)" d="M 427.2075 394.798146 
L 502.5375 394.798146 
L 502.5375 37.060513 
L 427.2075 37.060513 
z
" style="fill:#b71a8b;stroke:#ffffff;stroke-linejoin:miter;stroke-width:3.0;"/>
   </g>
   <g id="patch_7">
    <path d="M 527.6475 394.798146 
L 527.6475 15.358146 
" style="fill:none;"/>
   </g>
   <g id="patch_8">
    <path d="M 25.4475 394.798146 
L 527.6475 394.798146 
" style="fill:none;"/>
   </g>
   <g id="patch_9">
    <path d="M 25.4475 394.798146 
L 25.4475 15.358146 
" style="fill:none;"/>
   </g>
   <g id="text_7">
    <!-- 27% -->
    <defs>
     <path d="M 63.75 41.546875 
Q 66.828125 41.546875 69.390625 40.25 
Q 71.953125 38.96875 73.75 36.328125 
Q 75.5625 33.6875 76.5625 29.703125 
Q 77.5625 25.734375 77.5625 20.359375 
Q 77.5625 14.984375 76.5625 11 
Q 75.5625 7.03125 73.75 4.390625 
Q 71.953125 1.765625 69.390625 0.4375 
Q 66.828125 -0.875 63.75 -0.875 
Q 60.671875 -0.875 58.109375 0.4375 
Q 55.546875 1.765625 53.734375 4.390625 
Q 51.9375 7.03125 50.9375 11 
Q 49.9375 14.984375 49.9375 20.359375 
Q 49.9375 25.734375 50.9375 29.703125 
Q 51.9375 33.6875 53.734375 36.328125 
Q 55.546875 38.96875 58.109375 40.25 
Q 60.671875 41.546875 63.75 41.546875 
M 63.75 5.03125 
Q 67.125 5.03125 68.875 8.8125 
Q 70.640625 12.59375 70.640625 20.359375 
Q 70.640625 28.125 68.875 31.875 
Q 67.125 35.640625 63.75 35.640625 
Q 60.375 35.640625 58.609375 31.875 
Q 56.859375 28.125 56.859375 20.359375 
Q 56.859375 12.59375 58.609375 8.8125 
Q 60.375 5.03125 63.75 5.03125 
M 61.640625 66.546875 
L 66.578125 62.75 
L 18.875 -1.21875 
L 13.9375 2.59375 
z
M 16.75 66.546875 
Q 19.828125 66.546875 22.390625 65.25 
Q 24.953125 63.96875 26.75 61.328125 
Q 28.5625 58.6875 29.5625 54.703125 
Q 30.5625 50.734375 30.5625 45.359375 
Q 30.5625 39.984375 29.5625 36 
Q 28.5625 32.03125 26.75 29.390625 
Q 24.953125 26.765625 22.390625 25.4375 
Q 19.828125 24.125 16.75 24.125 
Q 13.671875 24.125 11.109375 25.4375 
Q 8.546875 26.765625 6.734375 29.390625 
Q 4.9375 32.03125 3.9375 36 
Q 2.9375 39.984375 2.9375 45.359375 
Q 2.9375 50.734375 3.9375 54.703125 
Q 4.9375 58.6875 6.734375 61.328125 
Q 8.546875 63.96875 11.109375 65.25 
Q 13.671875 66.546875 16.75 66.546875 
M 16.75 30.03125 
Q 20.125 30.03125 21.875 33.8125 
Q 23.640625 37.59375 23.640625 45.359375 
Q 23.640625 53.125 21.875 56.875 
Q 20.125 60.640625 16.75 60.640625 
Q 13.375 60.640625 11.609375 56.875 
Q 9.859375 53.125 9.859375 45.359375 
Q 9.859375 37.59375 11.609375 33.8125 
Q 13.375 30.03125 16.75 30.03125 
" id="Corbel-25"/>
     <path d="M 1.90625 39.40625 
L 1.90625 46.390625 
L 40.1875 46.390625 
L 40.1875 41.3125 
L 13.28125 -18.890625 
L 5.375 -18.890625 
L 31.453125 39.40625 
z
" id="Corbel-37"/>
    </defs>
    <g style="fill:#b71a8b;" transform="translate(76.01953125 94.305682382)scale(0.14 -0.14)">
     <use xlink:href="#Corbel-32"/>
     <use x="51.07421875" xlink:href="#Corbel-37"/>
     <use x="93.84765625" xlink:href="#Corbel-25"/>
    </g>
   </g>
   <g id="text_8">
    <!-- 21% -->
    <g style="fill:#b71a8b;" transform="translate(201.42625 157.533893077)scale(0.14 -0.14)">
     <use xlink:href="#Corbel-32"/>
     <use x="51.07421875" xlink:href="#Corbel-31"/>
     <use x="95.8984375" xlink:href="#Corbel-25"/>
    </g>
   </g>
   <g id="text_9">
    <!-- 34% -->
    <g style="fill:#b71a8b;" transform="translate(326.901875 17.0984375)scale(0.14 -0.14)">
     <use xlink:href="#Corbel-33"/>
     <use x="45.3125" xlink:href="#Corbel-34"/>
     <use x="96.97265625" xlink:href="#Corbel-25"/>
    </g>
   </g>
   <g id="text_10">
    <!-- 33% -->
    <g style="fill:#b71a8b;" transform="translate(452.8959375 30.0876759913)scale(0.14 -0.14)">
     <use xlink:href="#Corbel-33"/>
     <use x="45.3125" xlink:href="#Corbel-33"/>
     <use x="90.625" xlink:href="#Corbel-25"/>
    </g>
   </g>
  </g>
 </g>
 <defs>
  <clipPath id="p4ae89124ec">
   <rect height="379.44" width="502.2" x="25.4475" y="15.358146274"/>
  </clipPath>
 </defs>
</svg>
