<?xml version="1.0" encoding="utf-8" standalone="no"?>
<!DOCTYPE svg PUBLIC "-//W3C//DTD SVG 1.1//EN"
  "http://www.w3.org/Graphics/SVG/1.1/DTD/svg11.dtd">
<!-- Created with matplotlib (http://matplotlib.org/) -->
<svg height="425pt" version="1.1" viewBox="0 0 534 425" width="534pt" xmlns="http://www.w3.org/2000/svg" xmlns:xlink="http://www.w3.org/1999/xlink">
 <defs>
  <style type="text/css">
*{stroke-linecap:butt;stroke-linejoin:round;stroke-miterlimit:100000;}
  </style>
 </defs>
 <g id="figure_1">
  <g id="patch_1">
   <path d="M 0 425.99375 
L 534.8475 425.99375 
L 534.8475 0 
L 0 0 
z
" style="fill:#ffffff;"/>
  </g>
  <g id="axes_1">
   <g id="patch_2">
    <path d="M 25.4475 386.64 
L 527.6475 386.64 
L 527.6475 7.2 
L 25.4475 7.2 
z
" style="fill:#ffffff;"/>
   </g>
   <g id="matplotlib.axis_1">
    <g id="xtick_1">
     <g id="text_1">
      <!-- 2013 -->
      <defs>
       <path d="M 19.921875 6.6875 
Q 25.53125 6.984375 30.03125 6.984375 
L 45.265625 6.984375 
L 45.265625 0 
L 7.5625 0 
L 7.5625 5.03125 
Q 13.1875 9.1875 17.921875 12.765625 
Q 22.65625 16.359375 26.09375 19.65625 
Q 29.546875 22.953125 31.5 26.078125 
Q 33.453125 29.203125 33.453125 32.375 
Q 33.453125 36.625 30.71875 38.859375 
Q 27.984375 41.109375 22.859375 41.109375 
Q 19.046875 41.0625 15.453125 39.984375 
Q 11.859375 38.921875 8.0625 37.15625 
L 8.0625 43.609375 
Q 10.84375 45.21875 14.921875 46.40625 
Q 19 47.609375 23.875 47.609375 
Q 27.734375 47.609375 30.921875 46.625 
Q 34.125 45.65625 36.4375 43.765625 
Q 38.765625 41.890625 40.03125 39.125 
Q 41.3125 36.375 41.3125 32.765625 
Q 41.3125 28.90625 39.640625 25.5625 
Q 37.984375 22.21875 35.109375 19.140625 
Q 32.234375 16.0625 28.328125 13.0625 
Q 24.421875 10.0625 19.921875 6.890625 
z
" id="Corbel-32"/>
       <path d="M 27.25 15.046875 
Q 29.828125 14.796875 32.203125 13.765625 
Q 34.578125 12.75 36.40625 10.84375 
Q 38.234375 8.9375 39.328125 6.15625 
Q 40.4375 3.375 40.4375 -0.390625 
Q 40.4375 -4.890625 38.921875 -8.546875 
Q 37.40625 -12.203125 34.46875 -14.796875 
Q 31.546875 -17.390625 27.21875 -18.78125 
Q 22.90625 -20.171875 17.234375 -20.171875 
Q 13.28125 -20.171875 9.6875 -19.4375 
Q 6.109375 -18.703125 3.328125 -17.28125 
L 3.328125 -10.84375 
Q 6.84375 -12.359375 10.25 -13.015625 
Q 13.671875 -13.671875 16.703125 -13.671875 
Q 21.1875 -13.671875 24.21875 -12.5625 
Q 27.25 -11.46875 29.078125 -9.65625 
Q 30.90625 -7.859375 31.703125 -5.484375 
Q 32.515625 -3.125 32.515625 -0.53125 
Q 32.515625 5.8125 28.46875 8.609375 
Q 24.421875 11.421875 16.75 11.421875 
L 11.578125 11.421875 
L 11.578125 17.921875 
L 14.59375 17.921875 
Q 18.796875 17.921875 21.796875 18.875 
Q 24.8125 19.828125 26.765625 21.5 
Q 28.71875 23.1875 29.609375 25.453125 
Q 30.515625 27.734375 30.515625 30.375 
Q 30.515625 33.15625 29.515625 35.171875 
Q 28.515625 37.203125 26.78125 38.515625 
Q 25.046875 39.84375 22.703125 40.46875 
Q 20.359375 41.109375 17.671875 41.109375 
Q 14.359375 41.109375 10.984375 40.328125 
Q 7.625 39.546875 4.34375 38.234375 
L 4.34375 44.671875 
Q 8.34375 46.34375 11.984375 46.96875 
Q 15.625 47.609375 18.40625 47.609375 
Q 23.140625 47.609375 26.84375 46.328125 
Q 30.5625 45.0625 33.125 42.765625 
Q 35.6875 40.484375 37.046875 37.359375 
Q 38.421875 34.234375 38.421875 30.46875 
Q 38.421875 27.984375 37.828125 25.640625 
Q 37.25 23.296875 35.90625 21.28125 
Q 34.578125 19.28125 32.453125 17.71875 
Q 30.328125 16.15625 27.25 15.234375 
z
" id="Corbel-33"/>
       <path d="M 39.0625 23.140625 
Q 39.0625 27.34375 38.109375 30.6875 
Q 37.15625 34.03125 35.421875 36.34375 
Q 33.6875 38.671875 31.21875 39.90625 
Q 28.765625 41.15625 25.6875 41.15625 
Q 22.609375 41.15625 20.140625 39.90625 
Q 17.671875 38.671875 15.90625 36.34375 
Q 14.15625 34.03125 13.234375 30.6875 
Q 12.3125 27.34375 12.3125 23.140625 
Q 12.3125 19 13.25 15.65625 
Q 14.203125 12.3125 15.9375 10.015625 
Q 17.671875 7.71875 20.15625 6.46875 
Q 22.65625 5.21875 25.734375 5.21875 
Q 28.8125 5.21875 31.265625 6.46875 
Q 33.734375 7.71875 35.46875 10.015625 
Q 37.203125 12.3125 38.125 15.65625 
Q 39.0625 19 39.0625 23.140625 
M 46.96875 23.140625 
Q 46.96875 17.96875 45.53125 13.5 
Q 44.09375 9.03125 41.359375 5.75 
Q 38.625 2.484375 34.6875 0.625 
Q 30.765625 -1.21875 25.734375 -1.21875 
Q 20.5625 -1.21875 16.578125 0.625 
Q 12.59375 2.484375 9.875 5.75 
Q 7.171875 9.03125 5.78125 13.5 
Q 4.390625 17.96875 4.390625 23.140625 
Q 4.390625 28.375 5.828125 32.84375 
Q 7.28125 37.3125 10.015625 40.59375 
Q 12.75 43.890625 16.703125 45.75 
Q 20.65625 47.609375 25.6875 47.609375 
Q 30.8125 47.609375 34.78125 45.75 
Q 38.765625 43.890625 41.46875 40.59375 
Q 44.1875 37.3125 45.578125 32.84375 
Q 46.96875 28.375 46.96875 23.140625 
" id="Corbel-30"/>
       <path d="M 22.015625 6.984375 
L 22.015625 38.328125 
L 4.390625 32.8125 
L 4.390625 39.84375 
L 23.046875 46.390625 
L 29.59375 46.390625 
L 29.59375 6.984375 
L 42.390625 6.984375 
L 42.390625 0 
L 6.453125 0 
L 6.453125 6.984375 
z
" id="Corbel-31"/>
      </defs>
      <g style="fill:#666666;" transform="translate(74.7409375 397.5384375)scale(0.14 -0.14)">
       <use xlink:href="#Corbel-32"/>
       <use x="51.07421875" xlink:href="#Corbel-30"/>
       <use x="102.44140625" xlink:href="#Corbel-31"/>
       <use x="147.265625" xlink:href="#Corbel-33"/>
      </g>
     </g>
    </g>
    <g id="xtick_2">
     <g id="text_2">
      <!-- 2014 -->
      <defs>
       <path d="M 13.140625 6.5 
L 13.140625 6.296875 
L 20.359375 6.5 
L 31.0625 6.5 
L 31.0625 21.34375 
L 38.625 21.34375 
L 38.625 6.5 
L 48.25 6.5 
L 48.25 0 
L 38.625 0 
L 38.625 -18.890625 
L 31.0625 -18.890625 
L 31.0625 0 
L 4.5 0 
L 4.5 5.5625 
L 23.734375 46.390625 
L 31.890625 46.390625 
z
" id="Corbel-34"/>
      </defs>
      <g style="fill:#666666;" transform="translate(199.846875 397.5384375)scale(0.14 -0.14)">
       <use xlink:href="#Corbel-32"/>
       <use x="51.07421875" xlink:href="#Corbel-30"/>
       <use x="102.44140625" xlink:href="#Corbel-31"/>
       <use x="147.265625" xlink:href="#Corbel-34"/>
      </g>
     </g>
    </g>
    <g id="xtick_3">
     <g id="text_3">
      <!-- 2015 -->
      <defs>
       <path d="M 42.875 0.640625 
Q 42.875 -3.859375 41.234375 -7.65625 
Q 39.59375 -11.46875 36.5 -14.25 
Q 33.40625 -17.046875 28.953125 -18.609375 
Q 24.515625 -20.171875 18.84375 -20.171875 
Q 15.140625 -20.171875 11.765625 -19.453125 
Q 8.40625 -18.75 5.71875 -17.28125 
L 5.71875 -10.84375 
Q 9.328125 -12.453125 12.546875 -13.015625 
Q 15.765625 -13.578125 18.5 -13.578125 
Q 22.65625 -13.578125 25.734375 -12.46875 
Q 28.8125 -11.375 30.859375 -9.46875 
Q 32.90625 -7.5625 33.9375 -5.046875 
Q 34.96875 -2.546875 34.96875 0.25 
Q 34.96875 3.609375 33.90625 6.078125 
Q 32.859375 8.546875 30.609375 10.171875 
Q 28.375 11.8125 24.859375 12.609375 
Q 21.34375 13.421875 16.359375 13.421875 
Q 12.84375 13.421875 7.859375 12.9375 
L 12.5 46.390625 
L 42.828125 46.390625 
L 42.828125 39.40625 
L 19.1875 39.40625 
L 16.453125 20.015625 
Q 18.171875 20.125 19.1875 20.125 
Q 24.90625 20.125 29.3125 18.796875 
Q 33.734375 17.484375 36.734375 14.984375 
Q 39.75 12.5 41.3125 8.890625 
Q 42.875 5.28125 42.875 0.640625 
" id="Corbel-35"/>
      </defs>
      <g style="fill:#666666;" transform="translate(325.6528125 397.5384375)scale(0.14 -0.14)">
       <use xlink:href="#Corbel-32"/>
       <use x="51.07421875" xlink:href="#Corbel-30"/>
       <use x="102.44140625" xlink:href="#Corbel-31"/>
       <use x="147.265625" xlink:href="#Corbel-35"/>
      </g>
     </g>
    </g>
    <g id="xtick_4">
     <g id="text_4">
      <!-- 2016 -->
      <defs>
       <path d="M 27.546875 39.359375 
Q 31.890625 39.359375 35.578125 38.109375 
Q 39.265625 36.859375 41.921875 34.421875 
Q 44.578125 31.984375 46.0625 28.390625 
Q 47.5625 24.8125 47.5625 20.125 
Q 47.5625 15.4375 46.171875 11.5 
Q 44.78125 7.5625 42.140625 4.75 
Q 39.5 1.953125 35.6875 0.359375 
Q 31.890625 -1.21875 27.046875 -1.21875 
Q 21.921875 -1.21875 17.890625 0.828125 
Q 13.875 2.875 11.078125 6.6875 
Q 8.296875 10.5 6.828125 15.921875 
Q 5.375 21.34375 5.375 28.078125 
Q 5.375 33.25 6.171875 38.109375 
Q 6.984375 42.96875 8.5625 47.234375 
Q 10.15625 51.515625 12.46875 55.046875 
Q 14.796875 58.59375 17.875 61.15625 
Q 20.953125 63.71875 24.75 65.125 
Q 28.5625 66.546875 33.0625 66.546875 
Q 36.765625 66.5 39.453125 65.8125 
Q 42.140625 65.140625 43.953125 64.265625 
L 43.953125 57.90625 
Q 42 58.6875 39.265625 59.328125 
Q 36.53125 59.96875 33.59375 59.96875 
Q 30.078125 59.96875 26.78125 58.515625 
Q 23.484375 57.078125 20.796875 54.078125 
Q 18.109375 51.078125 16.234375 46.453125 
Q 14.359375 41.84375 13.625 35.5 
L 13.8125 35.5 
Q 16.890625 37.25 20.5 38.296875 
Q 24.125 39.359375 27.546875 39.359375 
M 27.34375 5.21875 
Q 29.9375 5.21875 32.171875 6.140625 
Q 34.421875 7.078125 36.078125 8.875 
Q 37.75 10.6875 38.703125 13.34375 
Q 39.65625 16.015625 39.65625 19.4375 
Q 39.65625 23.09375 38.640625 25.609375 
Q 37.640625 28.125 35.90625 29.6875 
Q 34.1875 31.25 31.859375 31.9375 
Q 29.546875 32.625 26.90625 32.625 
Q 23.4375 32.625 19.828125 31.390625 
Q 16.21875 30.171875 13.28125 28.421875 
Q 13.234375 22.5625 14.28125 18.1875 
Q 15.328125 13.8125 17.1875 10.9375 
Q 19.046875 8.0625 21.65625 6.640625 
Q 24.265625 5.21875 27.34375 5.21875 
" id="Corbel-36"/>
      </defs>
      <g style="fill:#666666;" transform="translate(450.8921875 397.5384375)scale(0.14 -0.14)">
       <use xlink:href="#Corbel-32"/>
       <use x="51.07421875" xlink:href="#Corbel-30"/>
       <use x="102.44140625" xlink:href="#Corbel-31"/>
       <use x="147.265625" xlink:href="#Corbel-36"/>
      </g>
     </g>
    </g>
    <g id="text_5">
     <!-- Year -->
     <defs>
      <path d="M 34.1875 5.03125 
L 33.984375 5.03125 
Q 33.015625 4 31.640625 2.921875 
Q 30.28125 1.859375 28.515625 0.90625 
Q 26.765625 -0.046875 24.609375 -0.625 
Q 22.46875 -1.21875 19.96875 -1.21875 
Q 16.609375 -1.21875 13.671875 -0.171875 
Q 10.75 0.875 8.640625 2.84375 
Q 6.546875 4.828125 5.34375 7.640625 
Q 4.15625 10.453125 4.15625 13.921875 
Q 4.15625 17.71875 5.546875 20.75 
Q 6.9375 23.78125 9.421875 25.875 
Q 11.921875 27.984375 15.375 29.078125 
Q 18.84375 30.171875 23.046875 30.171875 
Q 26.125 30.171875 28.703125 29.78125 
Q 31.296875 29.390625 33.25 28.859375 
L 33.25 30.765625 
Q 33.25 32.421875 32.6875 33.953125 
Q 32.125 35.5 30.875 36.6875 
Q 29.640625 37.890625 27.640625 38.59375 
Q 25.640625 39.3125 22.75 39.3125 
Q 19.234375 39.3125 15.71875 38.53125 
Q 12.203125 37.75 8.109375 36.1875 
L 8.109375 45.21875 
Q 11.671875 46.78125 15.671875 47.609375 
Q 19.671875 48.4375 24.078125 48.484375 
Q 29.25 48.484375 33.125 47.21875 
Q 37.015625 45.953125 39.625 43.71875 
Q 42.234375 41.5 43.53125 38.46875 
Q 44.828125 35.453125 44.828125 31.890625 
L 44.828125 14.0625 
Q 44.828125 9.375 44.921875 6 
Q 45.015625 2.640625 45.125 0 
L 34.671875 0 
z
M 33.25 20.171875 
Q 31.59375 20.5625 29.4375 20.875 
Q 27.296875 21.1875 25.09375 21.1875 
Q 20.84375 21.1875 18.375 19.5 
Q 15.921875 17.828125 15.921875 14.359375 
Q 15.921875 12.75 16.484375 11.546875 
Q 17.046875 10.359375 18 9.578125 
Q 18.953125 8.796875 20.21875 8.40625 
Q 21.484375 8.015625 22.90625 8.015625 
Q 24.65625 8.015625 26.21875 8.46875 
Q 27.78125 8.9375 29.09375 9.640625 
Q 30.421875 10.359375 31.46875 11.234375 
Q 32.515625 12.109375 33.25 12.9375 
z
" id="Corbel-Bold-61"/>
      <path d="M 31.78125 37.203125 
L 49.171875 65.328125 
L 62.453125 65.328125 
L 37.703125 26.3125 
L 37.703125 0 
L 25.734375 0 
L 25.734375 26.3125 
L 0.984375 65.328125 
L 14.265625 65.328125 
L 31.640625 37.203125 
z
" id="Corbel-Bold-59"/>
      <path d="M 30.71875 8.109375 
Q 34.078125 8.109375 37.734375 8.78125 
Q 41.40625 9.46875 45.171875 10.75 
L 45.171875 1.515625 
Q 42.921875 0.53125 38.28125 -0.34375 
Q 33.640625 -1.21875 28.65625 -1.21875 
Q 23.640625 -1.21875 19.109375 0.078125 
Q 14.59375 1.375 11.21875 4.25 
Q 7.859375 7.125 5.875 11.71875 
Q 3.90625 16.3125 3.90625 22.859375 
Q 3.90625 29.296875 5.765625 34.125 
Q 7.625 38.96875 10.75 42.140625 
Q 13.875 45.3125 17.890625 46.890625 
Q 21.921875 48.484375 26.21875 48.484375 
Q 30.71875 48.484375 34.5 47.109375 
Q 38.28125 45.75 41.03125 42.8125 
Q 43.796875 39.890625 45.328125 35.28125 
Q 46.875 30.671875 46.875 24.359375 
Q 46.828125 21.921875 46.734375 20.21875 
L 15.71875 20.21875 
Q 15.96875 16.9375 17.1875 14.625 
Q 18.40625 12.3125 20.375 10.859375 
Q 22.359375 9.421875 25 8.765625 
Q 27.640625 8.109375 30.71875 8.109375 
M 26.078125 39.453125 
Q 23.875 39.453125 22.15625 38.640625 
Q 20.453125 37.84375 19.203125 36.453125 
Q 17.96875 35.0625 17.234375 33.203125 
Q 16.5 31.34375 16.265625 29.25 
L 34.859375 29.25 
Q 34.859375 31.34375 34.296875 33.203125 
Q 33.734375 35.0625 32.640625 36.453125 
Q 31.546875 37.84375 29.90625 38.640625 
Q 28.265625 39.453125 26.078125 39.453125 
" id="Corbel-Bold-65"/>
      <path d="M 34.46875 38.140625 
L 33.5 38.140625 
Q 28.171875 38.140625 24.140625 36.546875 
Q 20.125 34.96875 17.921875 31.6875 
L 17.921875 0 
L 6.34375 0 
L 6.34375 47.3125 
L 15.921875 47.3125 
L 17 40.71875 
L 17.1875 40.71875 
Q 19.234375 44.34375 22.828125 46.40625 
Q 26.421875 48.484375 31.453125 48.484375 
Q 33.203125 48.484375 34.46875 48.296875 
z
" id="Corbel-Bold-72"/>
     </defs>
     <g style="fill:#666666;" transform="translate(262.47640625 415.6153125)scale(0.14 -0.14)">
      <use xlink:href="#Corbel-Bold-59"/>
      <use x="63.318359375" xlink:href="#Corbel-Bold-65"/>
      <use x="114.587890625" xlink:href="#Corbel-Bold-61"/>
      <use x="166.052734375" xlink:href="#Corbel-Bold-72"/>
     </g>
    </g>
   </g>
   <g id="matplotlib.axis_2">
    <g id="ytick_1"/>
    <g id="ytick_2"/>
    <g id="ytick_3"/>
    <g id="ytick_4"/>
    <g id="ytick_5"/>
    <g id="ytick_6"/>
    <g id="ytick_7"/>
    <g id="text_6">
     <!-- Full OA percent of total Expenditure (GBP millions) -->
     <defs>
      <path d="M 19.78125 10.015625 
L 51.90625 10.015625 
L 51.90625 0 
L 7.8125 0 
L 7.8125 65.328125 
L 50.140625 65.328125 
L 50.140625 55.328125 
L 19.78125 55.328125 
L 19.78125 38.421875 
L 45.84375 38.421875 
L 45.84375 28.421875 
L 19.78125 28.421875 
z
" id="Corbel-Bold-45"/>
      <path d="M 55.125 47.953125 
Q 55.125 43.703125 53.21875 40.15625 
Q 51.3125 36.625 46.921875 34.28125 
L 46.921875 34.078125 
Q 49.359375 33.25 51.390625 31.953125 
Q 53.421875 30.671875 54.859375 28.875 
Q 56.296875 27.09375 57.09375 24.84375 
Q 57.90625 22.609375 57.90625 19.828125 
Q 57.90625 17.4375 57.140625 14.703125 
Q 56.390625 11.96875 54.484375 9.40625 
Q 52.59375 6.84375 49.40625 4.6875 
Q 46.234375 2.546875 41.40625 1.265625 
Q 40.1875 0.984375 38.75 0.734375 
Q 37.3125 0.484375 35.546875 0.3125 
Q 33.796875 0.140625 31.640625 0.0625 
Q 29.5 0 26.8125 0 
L 7.8125 0 
L 7.8125 65.328125 
L 30.515625 65.328125 
Q 37.796875 65.328125 42.234375 63.875 
Q 45.5625 62.796875 48 61.0625 
Q 50.4375 59.328125 52.015625 57.203125 
Q 53.609375 55.078125 54.359375 52.703125 
Q 55.125 50.34375 55.125 47.953125 
M 19.78125 28.421875 
L 19.78125 10.015625 
L 27.59375 10.015625 
Q 30.71875 10.015625 32.953125 10.1875 
Q 35.203125 10.359375 36.8125 10.75 
Q 39.3125 11.28125 40.96875 12.1875 
Q 42.625 13.09375 43.640625 14.234375 
Q 44.671875 15.375 45.109375 16.765625 
Q 45.5625 18.171875 45.5625 19.734375 
Q 45.5625 22.46875 44.046875 24.515625 
Q 42.53125 26.5625 39.3125 27.59375 
Q 37.890625 28.03125 35.984375 28.21875 
Q 34.078125 28.421875 31.109375 28.421875 
z
M 30.5625 38.421875 
Q 35.453125 38.421875 37.84375 39.40625 
Q 40.53125 40.53125 41.671875 42.5 
Q 42.828125 44.484375 42.828125 46.96875 
Q 42.828125 49.5625 41.5 51.578125 
Q 40.1875 53.609375 37.015625 54.59375 
Q 35.6875 54.984375 33.921875 55.15625 
Q 32.171875 55.328125 29.59375 55.328125 
L 19.78125 55.328125 
L 19.78125 38.421875 
z
" id="Corbel-Bold-42"/>
      <path d="M 4.890625 25.34375 
Q 4.890625 30.859375 5.765625 35.71875 
Q 6.640625 40.578125 8.078125 44.796875 
Q 9.515625 49.03125 11.375 52.5625 
Q 13.234375 56.109375 15.1875 58.90625 
Q 17.140625 61.71875 19.015625 63.765625 
Q 20.90625 65.828125 22.359375 67.09375 
L 28.609375 61.328125 
Q 25.984375 58.453125 23.578125 54.875 
Q 21.1875 51.3125 19.359375 46.890625 
Q 17.53125 42.484375 16.453125 37.125 
Q 15.375 31.78125 15.375 25.34375 
Q 15.375 18.890625 16.453125 13.546875 
Q 17.53125 8.203125 19.359375 3.78125 
Q 21.1875 -0.640625 23.578125 -4.203125 
Q 25.984375 -7.765625 28.609375 -10.640625 
L 22.359375 -16.40625 
Q 20.90625 -15.140625 19.015625 -13.078125 
Q 17.140625 -11.03125 15.1875 -8.21875 
Q 13.234375 -5.421875 11.375 -1.875 
Q 9.515625 1.65625 8.078125 5.875 
Q 6.640625 10.109375 5.765625 14.984375 
Q 4.890625 19.875 4.890625 25.34375 
" id="Corbel-Bold-28"/>
      <path d="M 25.6875 25.34375 
Q 25.6875 19.875 24.796875 14.984375 
Q 23.921875 10.109375 22.484375 5.875 
Q 21.046875 1.65625 19.1875 -1.875 
Q 17.328125 -5.421875 15.375 -8.21875 
Q 13.421875 -11.03125 11.5625 -13.078125 
Q 9.71875 -15.140625 8.203125 -16.40625 
L 1.953125 -10.640625 
Q 4.59375 -7.765625 6.984375 -4.203125 
Q 9.375 -0.640625 11.203125 3.78125 
Q 13.03125 8.203125 14.109375 13.546875 
Q 15.1875 18.890625 15.1875 25.34375 
Q 15.1875 31.78125 14.109375 37.125 
Q 13.03125 42.484375 11.203125 46.890625 
Q 9.375 51.3125 6.984375 54.875 
Q 4.59375 58.453125 1.953125 61.328125 
L 8.203125 67.09375 
Q 9.671875 65.828125 11.546875 63.765625 
Q 13.421875 61.71875 15.375 58.90625 
Q 17.328125 56.109375 19.1875 52.5625 
Q 21.046875 49.03125 22.484375 44.796875 
Q 23.921875 40.578125 24.796875 35.71875 
Q 25.6875 30.859375 25.6875 25.34375 
" id="Corbel-Bold-29"/>
      <path id="Corbel-Bold-20"/>
      <path d="M 6.640625 47.3125 
L 18.21875 47.3125 
L 18.21875 0 
L 6.640625 0 
z
M 6.34375 70.703125 
L 18.5 70.703125 
L 18.5 58.15625 
L 6.34375 58.15625 
z
" id="Corbel-Bold-69"/>
      <path d="M 19.78125 0 
L 7.8125 0 
L 7.8125 65.328125 
L 49.421875 65.328125 
L 49.421875 55.328125 
L 19.78125 55.328125 
L 19.78125 38.421875 
L 45.125 38.421875 
L 45.125 28.421875 
L 19.78125 28.421875 
z
" id="Corbel-Bold-46"/>
      <path d="M 48.4375 24.953125 
L 33.796875 24.953125 
L 33.796875 34.96875 
L 60.40625 34.96875 
L 60.40625 2 
Q 58.9375 1.46875 56.65625 0.875 
Q 54.390625 0.296875 51.578125 -0.171875 
Q 48.78125 -0.640625 45.796875 -0.921875 
Q 42.828125 -1.21875 39.890625 -1.21875 
Q 31.109375 -1.21875 24.53125 1.140625 
Q 17.96875 3.515625 13.59375 7.8125 
Q 9.234375 12.109375 7.0625 18.03125 
Q 4.890625 23.96875 4.890625 31.15625 
Q 4.890625 36.234375 6.03125 40.84375 
Q 7.171875 45.453125 9.390625 49.390625 
Q 11.625 53.328125 14.796875 56.5 
Q 17.96875 59.671875 22.046875 61.90625 
Q 26.125 64.15625 30.984375 65.34375 
Q 35.84375 66.546875 41.40625 66.546875 
Q 46.34375 66.546875 50.78125 65.84375 
Q 55.21875 65.140625 58.0625 64.109375 
L 58.0625 53.953125 
Q 54.25 55.171875 50.359375 55.8125 
Q 46.484375 56.453125 42.53125 56.453125 
Q 37.203125 56.453125 32.5625 54.859375 
Q 27.9375 53.265625 24.53125 50.171875 
Q 21.140625 47.078125 19.1875 42.53125 
Q 17.234375 37.984375 17.234375 32.03125 
Q 17.28125 20.453125 23.28125 14.671875 
Q 29.296875 8.890625 40.328125 8.890625 
Q 42.390625 8.890625 44.578125 9.109375 
Q 46.78125 9.328125 48.4375 9.671875 
z
" id="Corbel-Bold-47"/>
      <path d="M 40.4375 1.03125 
Q 38.234375 0.09375 35.0625 -0.5625 
Q 31.890625 -1.21875 28.375 -1.21875 
Q 23.25 -1.21875 18.796875 0.234375 
Q 14.359375 1.703125 11.03125 4.6875 
Q 7.71875 7.671875 5.8125 12.234375 
Q 3.90625 16.796875 3.90625 22.90625 
Q 3.90625 29.734375 6.09375 34.609375 
Q 8.296875 39.5 11.78125 42.546875 
Q 15.28125 45.609375 19.65625 47.046875 
Q 24.03125 48.484375 28.265625 48.484375 
Q 31.453125 48.484375 34.375 47.921875 
Q 37.3125 47.359375 39.703125 46.390625 
L 39.703125 36.96875 
Q 37.546875 37.890625 35.125 38.453125 
Q 32.71875 39.015625 29.9375 39.015625 
Q 27.15625 39.015625 24.609375 38.15625 
Q 22.078125 37.3125 20.125 35.453125 
Q 18.171875 33.59375 17.015625 30.53125 
Q 15.875 27.484375 15.875 23.1875 
Q 15.875 20.0625 16.75 17.296875 
Q 17.625 14.546875 19.3125 12.59375 
Q 21 10.640625 23.609375 9.4375 
Q 26.21875 8.25 29.78125 8.25 
Q 32.953125 8.25 35.546875 8.875 
Q 38.140625 9.515625 40.4375 10.453125 
z
" id="Corbel-Bold-63"/>
      <path d="M 26.703125 8.015625 
Q 28.421875 8.015625 29.953125 8.453125 
Q 31.5 8.890625 32.859375 9.625 
Q 34.234375 10.359375 35.28125 11.234375 
Q 36.328125 12.109375 37.0625 12.9375 
L 37.0625 35.40625 
Q 35.015625 37.0625 32.46875 38.15625 
Q 29.9375 39.265625 27.09375 39.265625 
Q 25.296875 39.265625 23.3125 38.53125 
Q 21.34375 37.796875 19.703125 36.03125 
Q 18.0625 34.28125 16.96875 31.15625 
Q 15.875 28.03125 15.875 23.1875 
Q 15.875 16.0625 18.625 12.0625 
Q 21.390625 8.0625 26.703125 8.015625 
M 3.90625 22.703125 
Q 3.90625 28.90625 5.609375 33.765625 
Q 7.328125 38.625 10.28125 41.921875 
Q 13.234375 45.21875 17.03125 46.84375 
Q 20.84375 48.484375 24.953125 48.484375 
Q 26.859375 48.484375 28.5625 48.140625 
Q 30.28125 47.796875 31.78125 47.203125 
Q 33.296875 46.625 34.609375 45.890625 
Q 35.9375 45.171875 37.0625 44.390625 
L 37.15625 44.390625 
Q 37.109375 45.359375 37.078125 47.140625 
Q 37.0625 48.921875 37.0625 51.03125 
L 37.0625 70.703125 
L 48.640625 70.703125 
L 48.640625 14.0625 
Q 48.640625 9.375 48.734375 6 
Q 48.828125 2.640625 48.921875 0 
L 38.484375 0 
L 37.984375 5.03125 
L 37.796875 5.03125 
Q 36.765625 3.8125 35.328125 2.640625 
Q 33.890625 1.46875 32.15625 0.609375 
Q 30.421875 -0.25 28.34375 -0.734375 
Q 26.265625 -1.21875 23.828125 -1.21875 
Q 19.96875 -1.21875 16.421875 0.140625 
Q 12.890625 1.515625 10.078125 4.375 
Q 7.28125 7.234375 5.59375 11.84375 
Q 3.90625 16.453125 3.90625 22.703125 
" id="Corbel-Bold-64"/>
      <path d="M 35.984375 61.328125 
Q 34.078125 61.8125 32.046875 62.125 
Q 30.03125 62.453125 28.21875 62.453125 
Q 26.265625 62.453125 24.75 61.984375 
Q 23.25 61.53125 22.1875 60.453125 
Q 21.140625 59.375 20.59375 57.65625 
Q 20.0625 55.953125 20.0625 53.515625 
L 20.0625 47.3125 
L 33.203125 47.3125 
L 33.203125 37.796875 
L 20.0625 37.796875 
L 20.0625 0 
L 8.5 0 
L 8.5 37.796875 
L 0.484375 37.796875 
L 0.484375 47.3125 
L 8.5 47.3125 
L 8.5 52.9375 
Q 8.5 57.90625 9.890625 61.5 
Q 11.28125 65.09375 13.765625 67.40625 
Q 16.265625 69.734375 19.625 70.828125 
Q 23 71.921875 26.953125 71.921875 
Q 29.390625 71.921875 31.8125 71.5 
Q 34.234375 71.09375 35.984375 70.515625 
z
" id="Corbel-Bold-66"/>
      <path d="M 45.21875 16.65625 
L 20.609375 16.65625 
L 14.203125 0 
L 1.46875 0 
L 27.390625 65.328125 
L 38.328125 65.328125 
L 64.265625 0 
L 51.609375 0 
z
M 32.8125 49.609375 
Q 29.390625 39.359375 26.703125 32.46875 
L 24.46875 26.65625 
L 41.359375 26.65625 
L 39.109375 32.46875 
Q 36.421875 39.40625 33.015625 49.609375 
z
" id="Corbel-Bold-41"/>
      <path d="M 27.25 -1.21875 
Q 20.125 -1.21875 15.4375 1.1875 
Q 10.75 3.609375 8.34375 7.71875 
Q 7.078125 9.90625 6.46875 12.546875 
Q 5.859375 15.1875 5.859375 18.40625 
L 5.859375 47.3125 
L 17.4375 47.3125 
L 17.4375 19.625 
Q 17.4375 17.234375 17.765625 15.5 
Q 18.109375 13.765625 18.796875 12.5 
Q 19.96875 10.359375 22.109375 9.296875 
Q 24.265625 8.25 27.25 8.25 
Q 30.375 8.25 32.59375 9.421875 
Q 34.8125 10.59375 35.9375 12.984375 
Q 37.0625 15.28125 37.0625 19.390625 
L 37.0625 47.3125 
L 48.640625 47.3125 
L 48.640625 18.40625 
Q 48.640625 12.640625 46.625 8.6875 
Q 45.515625 6.453125 43.71875 4.609375 
Q 41.9375 2.78125 39.515625 1.484375 
Q 37.109375 0.203125 34.046875 -0.5 
Q 31 -1.21875 27.25 -1.21875 
" id="Corbel-Bold-75"/>
      <path d="M 35.25 0.046875 
Q 33.296875 -0.53125 30.578125 -0.875 
Q 27.875 -1.21875 25.53125 -1.21875 
Q 19.578125 -1.21875 15.796875 0.703125 
Q 12.015625 2.640625 10.453125 6.25 
Q 9.328125 8.84375 9.328125 13.28125 
L 9.328125 37.796875 
L 0.484375 37.796875 
L 0.484375 47.3125 
L 9.328125 47.3125 
L 9.328125 60.546875 
L 20.90625 60.546875 
L 20.90625 47.3125 
L 34.578125 47.3125 
L 34.578125 37.796875 
L 20.90625 37.796875 
L 20.90625 14.796875 
Q 20.90625 12.0625 21.734375 10.75 
Q 23.1875 8.5 27.546875 8.5 
Q 29.546875 8.5 31.515625 8.8125 
Q 33.5 9.125 35.25 9.625 
z
" id="Corbel-Bold-74"/>
      <path d="M 27.296875 13.71875 
Q 27.296875 15.234375 26.4375 16.203125 
Q 25.59375 17.1875 24.171875 17.84375 
Q 22.75 18.5 20.921875 18.984375 
Q 19.09375 19.484375 17.09375 19.96875 
Q 14.546875 20.65625 12.203125 21.5625 
Q 9.859375 22.46875 8.078125 23.921875 
Q 6.296875 25.390625 5.25 27.609375 
Q 4.203125 29.828125 4.203125 33.0625 
Q 4.203125 37.015625 5.609375 39.921875 
Q 7.03125 42.828125 9.4375 44.71875 
Q 11.859375 46.625 15.0625 47.546875 
Q 18.265625 48.484375 21.828125 48.484375 
Q 26.171875 48.484375 29.984375 47.78125 
Q 33.796875 47.078125 36.859375 45.953125 
L 36.859375 36.53125 
Q 35.25 37.0625 33.46875 37.515625 
Q 31.6875 37.984375 29.859375 38.328125 
Q 28.03125 38.671875 26.21875 38.890625 
Q 24.421875 39.109375 22.796875 39.109375 
Q 20.75 39.109375 19.328125 38.71875 
Q 17.921875 38.328125 17.03125 37.671875 
Q 16.15625 37.015625 15.765625 36.15625 
Q 15.375 35.296875 15.375 34.375 
Q 15.375 32.765625 16.234375 31.734375 
Q 17.09375 30.71875 18.609375 30.078125 
Q 20.125 29.4375 21.78125 29.015625 
Q 23.4375 28.609375 25 28.21875 
Q 27.4375 27.640625 29.875 26.8125 
Q 32.328125 25.984375 34.28125 24.484375 
Q 36.234375 23 37.46875 20.625 
Q 38.71875 18.265625 38.71875 14.59375 
Q 38.71875 10.59375 37.203125 7.609375 
Q 35.6875 4.640625 32.984375 2.65625 
Q 30.28125 0.6875 26.484375 -0.265625 
Q 22.703125 -1.21875 18.171875 -1.21875 
Q 13.671875 -1.21875 10.078125 -0.5 
Q 6.5 0.203125 4.15625 1.265625 
L 4.15625 10.59375 
Q 7.953125 9.1875 11.171875 8.671875 
Q 14.40625 8.15625 17.1875 8.15625 
Q 19.34375 8.15625 21.1875 8.46875 
Q 23.046875 8.796875 24.390625 9.46875 
Q 25.734375 10.15625 26.515625 11.203125 
Q 27.296875 12.25 27.296875 13.71875 
" id="Corbel-Bold-73"/>
      <path d="M 28.515625 39.203125 
Q 25.484375 39.15625 22.75 37.71875 
Q 20.015625 36.28125 17.921875 33.84375 
L 17.921875 12.75 
Q 18.65625 11.921875 19.671875 11.078125 
Q 20.703125 10.25 21.96875 9.5625 
Q 23.25 8.890625 24.78125 8.453125 
Q 26.3125 8.015625 27.984375 8.015625 
Q 30.671875 8.015625 32.765625 9.15625 
Q 34.859375 10.296875 36.25 12.390625 
Q 37.640625 14.5 38.375 17.40625 
Q 39.109375 20.3125 39.109375 23.875 
Q 39.109375 27.6875 38.34375 30.5625 
Q 37.59375 33.453125 36.203125 35.34375 
Q 34.8125 37.25 32.859375 38.21875 
Q 30.90625 39.203125 28.515625 39.203125 
M 30.03125 -1.21875 
Q 26.21875 -1.21875 23.109375 0.171875 
Q 20.015625 1.5625 17.96875 3.609375 
L 17.78125 3.609375 
Q 17.828125 2.640625 17.875 0.859375 
Q 17.921875 -0.921875 17.921875 -3.03125 
L 17.921875 -22.703125 
L 6.34375 -22.703125 
L 6.34375 47.3125 
L 16.5 47.3125 
L 17 42 
L 17.1875 42 
Q 19.34375 44.828125 22.703125 46.65625 
Q 26.078125 48.484375 30.515625 48.484375 
Q 34.375 48.484375 38.109375 47.046875 
Q 41.84375 45.609375 44.71875 42.625 
Q 47.609375 39.65625 49.34375 35.109375 
Q 51.078125 30.5625 51.078125 24.3125 
Q 51.078125 17.71875 49.21875 12.90625 
Q 47.359375 8.109375 44.328125 4.953125 
Q 41.3125 1.8125 37.625 0.296875 
Q 33.9375 -1.21875 30.03125 -1.21875 
" id="Corbel-Bold-70"/>
      <path d="M 25.875 25.296875 
Q 24.265625 25.296875 22.703125 25.34375 
Q 21.140625 25.390625 19.78125 25.53125 
L 19.78125 0 
L 7.8125 0 
L 7.8125 65.328125 
L 26.65625 65.328125 
Q 31.390625 65.328125 34.9375 64.90625 
Q 38.484375 64.5 41.265625 63.671875 
Q 47.953125 61.625 51.5625 57.125 
Q 55.171875 52.640625 55.171875 45.703125 
Q 55.171875 40.96875 53.21875 37.1875 
Q 51.265625 33.40625 47.5 30.765625 
Q 43.75 28.125 38.328125 26.703125 
Q 32.90625 25.296875 25.875 25.296875 
M 19.78125 35.59375 
Q 20.796875 35.453125 22.375 35.375 
Q 23.96875 35.296875 25.6875 35.296875 
Q 30.515625 35.296875 33.78125 36.078125 
Q 37.0625 36.859375 39.0625 38.25 
Q 41.0625 39.65625 41.9375 41.625 
Q 42.828125 43.609375 42.828125 45.953125 
Q 42.828125 48.828125 41.5 50.921875 
Q 40.1875 53.03125 36.921875 54.203125 
Q 35.203125 54.78125 32.6875 55.046875 
Q 30.171875 55.328125 26.515625 55.328125 
L 19.78125 55.328125 
z
" id="Corbel-Bold-50"/>
      <path d="M 25.984375 16.453125 
L 13.765625 0 
L 0.484375 0 
L 19.1875 24.125 
L 1.609375 47.3125 
L 15.234375 47.3125 
L 26.265625 31.6875 
L 37.5 47.3125 
L 51.171875 47.3125 
L 33.109375 24.171875 
L 51.65625 0 
L 38.140625 0 
z
" id="Corbel-Bold-78"/>
      <path d="M 56.203125 32.671875 
Q 56.203125 38.625 54.734375 43.09375 
Q 53.265625 47.5625 50.671875 50.53125 
Q 48.09375 53.515625 44.53125 54.984375 
Q 40.96875 56.453125 36.71875 56.453125 
Q 32.46875 56.453125 28.90625 54.984375 
Q 25.34375 53.515625 22.75 50.53125 
Q 20.171875 47.5625 18.703125 43.09375 
Q 17.234375 38.625 17.234375 32.671875 
Q 17.234375 26.703125 18.703125 22.234375 
Q 20.171875 17.78125 22.75 14.8125 
Q 25.34375 11.859375 28.90625 10.375 
Q 32.46875 8.890625 36.71875 8.890625 
Q 40.96875 8.890625 44.53125 10.375 
Q 48.09375 11.859375 50.671875 14.8125 
Q 53.265625 17.78125 54.734375 22.234375 
Q 56.203125 26.703125 56.203125 32.671875 
M 68.5625 32.671875 
Q 68.5625 25.203125 66.4375 18.96875 
Q 64.3125 12.75 60.234375 8.25 
Q 56.15625 3.765625 50.21875 1.265625 
Q 44.28125 -1.21875 36.71875 -1.21875 
Q 29.15625 -1.21875 23.21875 1.265625 
Q 17.28125 3.765625 13.203125 8.25 
Q 9.125 12.75 7 18.96875 
Q 4.890625 25.203125 4.890625 32.671875 
Q 4.890625 40.140625 7 46.359375 
Q 9.125 52.59375 13.203125 57.078125 
Q 17.28125 61.578125 23.21875 64.0625 
Q 29.15625 66.546875 36.71875 66.546875 
Q 44.28125 66.546875 50.21875 64.0625 
Q 56.15625 61.578125 60.234375 57.078125 
Q 64.3125 52.59375 66.4375 46.359375 
Q 68.5625 40.140625 68.5625 32.671875 
" id="Corbel-Bold-4f"/>
      <path d="M 6.84375 0 
L 6.84375 70.703125 
L 18.40625 70.703125 
L 18.40625 0 
z
" id="Corbel-Bold-6c"/>
      <path d="M 67.28125 28.8125 
Q 67.28125 30.328125 67.1875 31.640625 
Q 67.09375 32.953125 66.84375 33.9375 
Q 66.3125 36.078125 64.75 37.390625 
Q 63.1875 38.71875 60.359375 38.765625 
Q 58.84375 38.765625 57.21875 38.328125 
Q 55.609375 37.890625 54.015625 37.078125 
Q 52.4375 36.28125 51 35.125 
Q 49.5625 33.984375 48.390625 32.5625 
L 48.390625 0 
L 36.8125 0 
L 36.8125 28.8125 
Q 36.8125 30.328125 36.71875 31.640625 
Q 36.625 32.953125 36.375 33.9375 
Q 35.84375 36.078125 34.296875 37.390625 
Q 32.765625 38.71875 29.890625 38.765625 
Q 28.375 38.765625 26.75 38.328125 
Q 25.140625 37.890625 23.546875 37.078125 
Q 21.96875 36.28125 20.53125 35.125 
Q 19.09375 33.984375 17.921875 32.5625 
L 17.921875 0 
L 6.34375 0 
L 6.34375 47.3125 
L 15.921875 47.3125 
L 17 40.71875 
L 17.1875 40.71875 
Q 18.21875 42.1875 19.78125 43.59375 
Q 21.34375 45.015625 23.3125 46.09375 
Q 25.296875 47.171875 27.65625 47.828125 
Q 30.03125 48.484375 32.671875 48.484375 
Q 37.359375 48.484375 41.09375 46.40625 
Q 44.828125 44.34375 46.78125 39.9375 
L 46.96875 39.9375 
Q 48.34375 41.84375 50.015625 43.40625 
Q 51.703125 44.96875 53.75 46.09375 
Q 55.8125 47.21875 58.171875 47.84375 
Q 60.546875 48.484375 63.234375 48.484375 
Q 68.3125 48.4375 71.75 46.359375 
Q 75.203125 44.28125 77.046875 40.671875 
Q 77.546875 39.75 77.875 38.640625 
Q 78.21875 37.546875 78.4375 36.171875 
Q 78.65625 34.8125 78.75 33.15625 
Q 78.859375 31.5 78.859375 29.34375 
L 78.859375 0 
L 67.28125 0 
z
" id="Corbel-Bold-6d"/>
      <path d="M 17 40.71875 
L 17.1875 40.71875 
Q 18.21875 42.1875 19.78125 43.59375 
Q 21.34375 45.015625 23.34375 46.09375 
Q 25.34375 47.171875 27.75 47.828125 
Q 30.171875 48.484375 32.90625 48.484375 
Q 35.5 48.484375 37.90625 47.890625 
Q 40.328125 47.3125 42.328125 46.0625 
Q 44.34375 44.828125 45.875 42.84375 
Q 47.40625 40.875 48.296875 38.140625 
Q 48.78125 36.625 48.953125 34.84375 
Q 49.125 33.0625 49.125 30.71875 
L 49.125 0 
L 37.546875 0 
L 37.546875 28.90625 
Q 37.546875 30.8125 37.390625 32.171875 
Q 37.25 33.546875 36.859375 34.578125 
Q 35.984375 36.8125 34.203125 37.78125 
Q 32.421875 38.765625 29.890625 38.765625 
Q 26.515625 38.765625 23.40625 37.171875 
Q 20.3125 35.59375 17.921875 32.5625 
L 17.921875 0 
L 6.34375 0 
L 6.34375 47.3125 
L 15.921875 47.3125 
z
" id="Corbel-Bold-6e"/>
      <path d="M 39.5 23.640625 
Q 39.5 27.390625 38.625 30.265625 
Q 37.75 33.15625 36.1875 35.109375 
Q 34.625 37.0625 32.421875 38.03125 
Q 30.21875 39.015625 27.640625 39.015625 
Q 25.09375 39.015625 22.921875 38.03125 
Q 20.75 37.0625 19.1875 35.109375 
Q 17.625 33.15625 16.75 30.265625 
Q 15.875 27.390625 15.875 23.640625 
Q 15.875 19.875 16.75 16.984375 
Q 17.625 14.109375 19.203125 12.171875 
Q 20.796875 10.25 22.96875 9.25 
Q 25.140625 8.25 27.734375 8.25 
Q 30.328125 8.25 32.46875 9.25 
Q 34.625 10.25 36.1875 12.171875 
Q 37.75 14.109375 38.625 16.984375 
Q 39.5 19.875 39.5 23.640625 
M 51.46875 23.640625 
Q 51.46875 18.0625 49.796875 13.46875 
Q 48.140625 8.890625 45.03125 5.609375 
Q 41.9375 2.34375 37.546875 0.5625 
Q 33.15625 -1.21875 27.734375 -1.21875 
Q 22.171875 -1.21875 17.75 0.5625 
Q 13.328125 2.34375 10.25 5.609375 
Q 7.171875 8.890625 5.53125 13.46875 
Q 3.90625 18.0625 3.90625 23.640625 
Q 3.90625 29.203125 5.5625 33.78125 
Q 7.234375 38.375 10.328125 41.640625 
Q 13.421875 44.921875 17.8125 46.703125 
Q 22.21875 48.484375 27.640625 48.484375 
Q 33.203125 48.484375 37.625 46.703125 
Q 42.046875 44.921875 45.109375 41.640625 
Q 48.1875 38.375 49.828125 33.78125 
Q 51.46875 29.203125 51.46875 23.640625 
" id="Corbel-Bold-6f"/>
     </defs>
     <g style="fill:#666666;" transform="translate(17.2690625 349.935625)rotate(-90.0)scale(0.14 -0.14)">
      <use xlink:href="#Corbel-Bold-46"/>
      <use x="52.099609375" xlink:href="#Corbel-Bold-75"/>
      <use x="106.591796875" xlink:href="#Corbel-Bold-6c"/>
      <use x="131.8359375" xlink:href="#Corbel-Bold-6c"/>
      <use x="157.080078125" xlink:href="#Corbel-Bold-20"/>
      <use x="177.638671875" xlink:href="#Corbel-Bold-4f"/>
      <use x="251.060546875" xlink:href="#Corbel-Bold-41"/>
      <use x="316.783203125" xlink:href="#Corbel-Bold-20"/>
      <use x="337.388671875" xlink:href="#Corbel-Bold-70"/>
      <use x="392.369140625" xlink:href="#Corbel-Bold-65"/>
      <use x="443.638671875" xlink:href="#Corbel-Bold-72"/>
      <use x="478.599609375" xlink:href="#Corbel-Bold-63"/>
      <use x="522.69140625" xlink:href="#Corbel-Bold-65"/>
      <use x="573.9609375" xlink:href="#Corbel-Bold-6e"/>
      <use x="629.4296875" xlink:href="#Corbel-Bold-74"/>
      <use x="667.369140625" xlink:href="#Corbel-Bold-20"/>
      <use x="687.974609375" xlink:href="#Corbel-Bold-6f"/>
      <use x="743.345703125" xlink:href="#Corbel-Bold-66"/>
      <use x="776.158203125" xlink:href="#Corbel-Bold-20"/>
      <use x="796.763671875" xlink:href="#Corbel-Bold-74"/>
      <use x="834.703125" xlink:href="#Corbel-Bold-6f"/>
      <use x="890.07421875" xlink:href="#Corbel-Bold-74"/>
      <use x="928.013671875" xlink:href="#Corbel-Bold-61"/>
      <use x="979.478515625" xlink:href="#Corbel-Bold-6c"/>
      <use x="1004.72265625" xlink:href="#Corbel-Bold-20"/>
      <use x="1025.328125" xlink:href="#Corbel-Bold-45"/>
      <use x="1082.11523438" xlink:href="#Corbel-Bold-78"/>
      <use x="1134.26367188" xlink:href="#Corbel-Bold-70"/>
      <use x="1189.24414062" xlink:href="#Corbel-Bold-65"/>
      <use x="1240.51367188" xlink:href="#Corbel-Bold-6e"/>
      <use x="1295.98242188" xlink:href="#Corbel-Bold-64"/>
      <use x="1351.74414062" xlink:href="#Corbel-Bold-69"/>
      <use x="1376.59765625" xlink:href="#Corbel-Bold-74"/>
      <use x="1414.53710938" xlink:href="#Corbel-Bold-75"/>
      <use x="1469.02929688" xlink:href="#Corbel-Bold-72"/>
      <use x="1503.99023438" xlink:href="#Corbel-Bold-65"/>
      <use x="1555.25976562" xlink:href="#Corbel-Bold-20"/>
      <use x="1575.86523438" xlink:href="#Corbel-Bold-28"/>
      <use x="1606.43164062" xlink:href="#Corbel-Bold-47"/>
      <use x="1673.66796875" xlink:href="#Corbel-Bold-42"/>
      <use x="1735.97265625" xlink:href="#Corbel-Bold-50"/>
      <use x="1796.03125" xlink:href="#Corbel-Bold-20"/>
      <use x="1816.63671875" xlink:href="#Corbel-Bold-6d"/>
      <use x="1901.84179688" xlink:href="#Corbel-Bold-69"/>
      <use x="1926.6953125" xlink:href="#Corbel-Bold-6c"/>
      <use x="1951.93945312" xlink:href="#Corbel-Bold-6c"/>
      <use x="1977.18359375" xlink:href="#Corbel-Bold-69"/>
      <use x="2002.03710938" xlink:href="#Corbel-Bold-6f"/>
      <use x="2057.40820312" xlink:href="#Corbel-Bold-6e"/>
      <use x="2112.87695312" xlink:href="#Corbel-Bold-73"/>
      <use x="2155.25976562" xlink:href="#Corbel-Bold-29"/>
     </g>
    </g>
   </g>
   <g id="patch_3">
    <path clip-path="url(#p1f2262f829)" d="M 50.5575 386.64 
L 125.8875 386.64 
L 125.8875 157.683361 
L 50.5575 157.683361 
z
" style="fill:#b71a8b;stroke:#ffffff;stroke-linejoin:miter;stroke-width:3.0;"/>
   </g>
   <g id="patch_4">
    <path clip-path="url(#p1f2262f829)" d="M 176.1075 386.64 
L 251.4375 386.64 
L 251.4375 167.855951 
L 176.1075 167.855951 
z
" style="fill:#b71a8b;stroke:#ffffff;stroke-linejoin:miter;stroke-width:3.0;"/>
   </g>
   <g id="patch_5">
    <path clip-path="url(#p1f2262f829)" d="M 301.6575 386.64 
L 376.9875 386.64 
L 376.9875 34.232018 
L 301.6575 34.232018 
z
" style="fill:#b71a8b;stroke:#ffffff;stroke-linejoin:miter;stroke-width:3.0;"/>
   </g>
   <g id="patch_6">
    <path clip-path="url(#p1f2262f829)" d="M 427.2075 386.64 
L 502.5375 386.64 
L 502.5375 41.959805 
L 427.2075 41.959805 
z
" style="fill:#b71a8b;stroke:#ffffff;stroke-linejoin:miter;stroke-width:3.0;"/>
   </g>
   <g id="patch_7">
    <path d="M 527.6475 386.64 
L 527.6475 7.2 
" style="fill:none;"/>
   </g>
   <g id="patch_8">
    <path d="M 25.4475 386.64 
L 527.6475 386.64 
" style="fill:none;"/>
   </g>
   <g id="patch_9">
    <path d="M 25.4475 386.64 
L 25.4475 7.2 
" style="fill:none;"/>
   </g>
   <g id="text_7">
    <!-- 18% -->
    <defs>
     <path d="M 63.75 41.546875 
Q 66.828125 41.546875 69.390625 40.25 
Q 71.953125 38.96875 73.75 36.328125 
Q 75.5625 33.6875 76.5625 29.703125 
Q 77.5625 25.734375 77.5625 20.359375 
Q 77.5625 14.984375 76.5625 11 
Q 75.5625 7.03125 73.75 4.390625 
Q 71.953125 1.765625 69.390625 0.4375 
Q 66.828125 -0.875 63.75 -0.875 
Q 60.671875 -0.875 58.109375 0.4375 
Q 55.546875 1.765625 53.734375 4.390625 
Q 51.9375 7.03125 50.9375 11 
Q 49.9375 14.984375 49.9375 20.359375 
Q 49.9375 25.734375 50.9375 29.703125 
Q 51.9375 33.6875 53.734375 36.328125 
Q 55.546875 38.96875 58.109375 40.25 
Q 60.671875 41.546875 63.75 41.546875 
M 63.75 5.03125 
Q 67.125 5.03125 68.875 8.8125 
Q 70.640625 12.59375 70.640625 20.359375 
Q 70.640625 28.125 68.875 31.875 
Q 67.125 35.640625 63.75 35.640625 
Q 60.375 35.640625 58.609375 31.875 
Q 56.859375 28.125 56.859375 20.359375 
Q 56.859375 12.59375 58.609375 8.8125 
Q 60.375 5.03125 63.75 5.03125 
M 61.640625 66.546875 
L 66.578125 62.75 
L 18.875 -1.21875 
L 13.9375 2.59375 
z
M 16.75 66.546875 
Q 19.828125 66.546875 22.390625 65.25 
Q 24.953125 63.96875 26.75 61.328125 
Q 28.5625 58.6875 29.5625 54.703125 
Q 30.5625 50.734375 30.5625 45.359375 
Q 30.5625 39.984375 29.5625 36 
Q 28.5625 32.03125 26.75 29.390625 
Q 24.953125 26.765625 22.390625 25.4375 
Q 19.828125 24.125 16.75 24.125 
Q 13.671875 24.125 11.109375 25.4375 
Q 8.546875 26.765625 6.734375 29.390625 
Q 4.9375 32.03125 3.9375 36 
Q 2.9375 39.984375 2.9375 45.359375 
Q 2.9375 50.734375 3.9375 54.703125 
Q 4.9375 58.6875 6.734375 61.328125 
Q 8.546875 63.96875 11.109375 65.25 
Q 13.671875 66.546875 16.75 66.546875 
M 16.75 30.03125 
Q 20.125 30.03125 21.875 33.8125 
Q 23.640625 37.59375 23.640625 45.359375 
Q 23.640625 53.125 21.875 56.875 
Q 20.125 60.640625 16.75 60.640625 
Q 13.375 60.640625 11.609375 56.875 
Q 9.859375 53.125 9.859375 45.359375 
Q 9.859375 37.59375 11.609375 33.8125 
Q 13.375 30.03125 16.75 30.03125 
" id="Corbel-25"/>
     <path d="M 25.734375 -1.21875 
Q 21 -1.21875 17.109375 0.171875 
Q 13.234375 1.5625 10.453125 4 
Q 7.671875 6.453125 6.15625 9.796875 
Q 4.640625 13.140625 4.640625 17.046875 
Q 4.640625 20.65625 5.65625 23.4375 
Q 6.6875 26.21875 8.421875 28.265625 
Q 10.15625 30.328125 12.46875 31.671875 
Q 14.796875 33.015625 17.390625 33.640625 
L 17.390625 33.84375 
Q 14.9375 34.671875 12.859375 36.078125 
Q 10.796875 37.5 9.25 39.46875 
Q 7.71875 41.453125 6.859375 43.96875 
Q 6 46.484375 6 49.515625 
Q 6 53.65625 7.65625 56.828125 
Q 9.328125 60.015625 12.078125 62.1875 
Q 14.84375 64.359375 18.375 65.453125 
Q 21.921875 66.546875 25.734375 66.546875 
Q 29.546875 66.546875 33.078125 65.453125 
Q 36.625 64.359375 39.375 62.1875 
Q 42.140625 60.015625 43.796875 56.828125 
Q 45.453125 53.65625 45.453125 49.515625 
Q 45.453125 46.484375 44.5 43.96875 
Q 43.5625 41.453125 41.9375 39.46875 
Q 40.328125 37.5 38.171875 36.078125 
Q 36.03125 34.671875 33.59375 33.84375 
L 33.59375 33.640625 
Q 36.1875 33.015625 38.578125 31.671875 
Q 40.96875 30.328125 42.796875 28.265625 
Q 44.625 26.21875 45.71875 23.4375 
Q 46.828125 20.65625 46.828125 17.046875 
Q 46.828125 13.140625 45.3125 9.796875 
Q 43.796875 6.453125 41.015625 4 
Q 38.234375 1.5625 34.34375 0.171875 
Q 30.46875 -1.21875 25.734375 -1.21875 
M 25.734375 60.109375 
Q 23.1875 60.109375 21.015625 59.390625 
Q 18.84375 58.6875 17.25 57.296875 
Q 15.671875 55.90625 14.796875 53.90625 
Q 13.921875 51.90625 13.921875 49.265625 
Q 13.921875 44.28125 17.015625 41.15625 
Q 20.125 38.03125 25.734375 36.921875 
Q 31.34375 38.03125 34.4375 41.15625 
Q 37.546875 44.28125 37.546875 49.265625 
Q 37.546875 51.90625 36.671875 53.90625 
Q 35.796875 55.90625 34.203125 57.296875 
Q 32.625 58.6875 30.46875 59.390625 
Q 28.328125 60.109375 25.734375 60.109375 
M 25.734375 30.21875 
Q 23 29.9375 20.609375 29.03125 
Q 18.21875 28.125 16.40625 26.53125 
Q 14.59375 24.953125 13.5625 22.65625 
Q 12.546875 20.359375 12.546875 17.28125 
Q 12.546875 14.5 13.546875 12.25 
Q 14.546875 10.015625 16.296875 8.453125 
Q 18.0625 6.890625 20.484375 6.046875 
Q 22.90625 5.21875 25.734375 5.21875 
Q 28.609375 5.21875 31.03125 6.046875 
Q 33.453125 6.890625 35.203125 8.453125 
Q 36.96875 10.015625 37.9375 12.25 
Q 38.921875 14.5 38.921875 17.28125 
Q 38.921875 20.359375 37.890625 22.65625 
Q 36.859375 24.953125 35.046875 26.53125 
Q 33.25 28.125 30.859375 29.03125 
Q 28.46875 29.9375 25.734375 30.21875 
" id="Corbel-38"/>
    </defs>
    <g style="fill:#b71a8b;" transform="translate(75.84890625 150.710523077)scale(0.14 -0.14)">
     <use xlink:href="#Corbel-31"/>
     <use x="44.82421875" xlink:href="#Corbel-38"/>
     <use x="96.2890625" xlink:href="#Corbel-25"/>
    </g>
   </g>
   <g id="text_8">
    <!-- 17% -->
    <defs>
     <path d="M 1.90625 39.40625 
L 1.90625 46.390625 
L 40.1875 46.390625 
L 40.1875 41.3125 
L 13.28125 -18.890625 
L 5.375 -18.890625 
L 31.453125 39.40625 
z
" id="Corbel-37"/>
    </defs>
    <g style="fill:#b71a8b;" transform="translate(202.00703125 160.883113314)scale(0.14 -0.14)">
     <use xlink:href="#Corbel-31"/>
     <use x="44.82421875" xlink:href="#Corbel-37"/>
     <use x="87.59765625" xlink:href="#Corbel-25"/>
    </g>
   </g>
   <g id="text_9">
    <!-- 28% -->
    <g style="fill:#b71a8b;" transform="translate(326.51140625 27.2591800512)scale(0.14 -0.14)">
     <use xlink:href="#Corbel-32"/>
     <use x="51.07421875" xlink:href="#Corbel-38"/>
     <use x="102.5390625" xlink:href="#Corbel-25"/>
    </g>
   </g>
   <g id="text_10">
    <!-- 27% -->
    <g style="fill:#b71a8b;" transform="translate(452.66953125 34.986967132)scale(0.14 -0.14)">
     <use xlink:href="#Corbel-32"/>
     <use x="51.07421875" xlink:href="#Corbel-37"/>
     <use x="93.84765625" xlink:href="#Corbel-25"/>
    </g>
   </g>
  </g>
 </g>
 <defs>
  <clipPath id="p1f2262f829">
   <rect height="379.44" width="502.2" x="25.4475" y="7.2"/>
  </clipPath>
 </defs>
</svg>
