<?xml version="1.0" encoding="utf-8" standalone="no"?>
<!DOCTYPE svg PUBLIC "-//W3C//DTD SVG 1.1//EN"
  "http://www.w3.org/Graphics/SVG/1.1/DTD/svg11.dtd">
<!-- Created with matplotlib (http://matplotlib.org/) -->
<svg height="485pt" version="1.1" viewBox="0 0 605 485" width="605pt" xmlns="http://www.w3.org/2000/svg" xmlns:xlink="http://www.w3.org/1999/xlink">
 <defs>
  <style type="text/css">
*{stroke-linecap:butt;stroke-linejoin:round;stroke-miterlimit:100000;}
  </style>
 </defs>
 <g id="figure_1">
  <g id="patch_1">
   <path d="M 0 485.70022 
L 605.98875 485.70022 
L 605.98875 -0 
L 0 -0 
z
" style="fill:#ffffff;"/>
  </g>
  <g id="axes_1">
   <g id="patch_2">
    <path d="M 46.469375 387.90934 
L 548.669375 387.90934 
L 548.669375 8.46934 
L 46.469375 8.46934 
z
" style="fill:#ffffff;"/>
   </g>
   <g id="matplotlib.axis_1">
    <g id="xtick_1">
     <g id="line2d_1">
      <defs>
       <path d="M 0 0 
L 0 6 
" id="mef467de564" style="stroke:#666666;stroke-width:0.7;"/>
      </defs>
      <g>
       <use style="fill:#666666;stroke:#666666;stroke-width:0.7;" x="79.221548913" xlink:href="#mef467de564" y="387.909340099"/>
      </g>
     </g>
     <g id="text_1">
      <!-- 2013 -->
      <defs>
       <path d="M 19.921875 6.6875 
Q 25.53125 6.984375 30.03125 6.984375 
L 45.265625 6.984375 
L 45.265625 0 
L 7.5625 0 
L 7.5625 5.03125 
Q 13.1875 9.1875 17.921875 12.765625 
Q 22.65625 16.359375 26.09375 19.65625 
Q 29.546875 22.953125 31.5 26.078125 
Q 33.453125 29.203125 33.453125 32.375 
Q 33.453125 36.625 30.71875 38.859375 
Q 27.984375 41.109375 22.859375 41.109375 
Q 19.046875 41.0625 15.453125 39.984375 
Q 11.859375 38.921875 8.0625 37.15625 
L 8.0625 43.609375 
Q 10.84375 45.21875 14.921875 46.40625 
Q 19 47.609375 23.875 47.609375 
Q 27.734375 47.609375 30.921875 46.625 
Q 34.125 45.65625 36.4375 43.765625 
Q 38.765625 41.890625 40.03125 39.125 
Q 41.3125 36.375 41.3125 32.765625 
Q 41.3125 28.90625 39.640625 25.5625 
Q 37.984375 22.21875 35.109375 19.140625 
Q 32.234375 16.0625 28.328125 13.0625 
Q 24.421875 10.0625 19.921875 6.890625 
z
" id="Corbel-32"/>
       <path d="M 27.25 15.046875 
Q 29.828125 14.796875 32.203125 13.765625 
Q 34.578125 12.75 36.40625 10.84375 
Q 38.234375 8.9375 39.328125 6.15625 
Q 40.4375 3.375 40.4375 -0.390625 
Q 40.4375 -4.890625 38.921875 -8.546875 
Q 37.40625 -12.203125 34.46875 -14.796875 
Q 31.546875 -17.390625 27.21875 -18.78125 
Q 22.90625 -20.171875 17.234375 -20.171875 
Q 13.28125 -20.171875 9.6875 -19.4375 
Q 6.109375 -18.703125 3.328125 -17.28125 
L 3.328125 -10.84375 
Q 6.84375 -12.359375 10.25 -13.015625 
Q 13.671875 -13.671875 16.703125 -13.671875 
Q 21.1875 -13.671875 24.21875 -12.5625 
Q 27.25 -11.46875 29.078125 -9.65625 
Q 30.90625 -7.859375 31.703125 -5.484375 
Q 32.515625 -3.125 32.515625 -0.53125 
Q 32.515625 5.8125 28.46875 8.609375 
Q 24.421875 11.421875 16.75 11.421875 
L 11.578125 11.421875 
L 11.578125 17.921875 
L 14.59375 17.921875 
Q 18.796875 17.921875 21.796875 18.875 
Q 24.8125 19.828125 26.765625 21.5 
Q 28.71875 23.1875 29.609375 25.453125 
Q 30.515625 27.734375 30.515625 30.375 
Q 30.515625 33.15625 29.515625 35.171875 
Q 28.515625 37.203125 26.78125 38.515625 
Q 25.046875 39.84375 22.703125 40.46875 
Q 20.359375 41.109375 17.671875 41.109375 
Q 14.359375 41.109375 10.984375 40.328125 
Q 7.625 39.546875 4.34375 38.234375 
L 4.34375 44.671875 
Q 8.34375 46.34375 11.984375 46.96875 
Q 15.625 47.609375 18.40625 47.609375 
Q 23.140625 47.609375 26.84375 46.328125 
Q 30.5625 45.0625 33.125 42.765625 
Q 35.6875 40.484375 37.046875 37.359375 
Q 38.421875 34.234375 38.421875 30.46875 
Q 38.421875 27.984375 37.828125 25.640625 
Q 37.25 23.296875 35.90625 21.28125 
Q 34.578125 19.28125 32.453125 17.71875 
Q 30.328125 16.15625 27.25 15.234375 
z
" id="Corbel-33"/>
       <path d="M 39.0625 23.140625 
Q 39.0625 27.34375 38.109375 30.6875 
Q 37.15625 34.03125 35.421875 36.34375 
Q 33.6875 38.671875 31.21875 39.90625 
Q 28.765625 41.15625 25.6875 41.15625 
Q 22.609375 41.15625 20.140625 39.90625 
Q 17.671875 38.671875 15.90625 36.34375 
Q 14.15625 34.03125 13.234375 30.6875 
Q 12.3125 27.34375 12.3125 23.140625 
Q 12.3125 19 13.25 15.65625 
Q 14.203125 12.3125 15.9375 10.015625 
Q 17.671875 7.71875 20.15625 6.46875 
Q 22.65625 5.21875 25.734375 5.21875 
Q 28.8125 5.21875 31.265625 6.46875 
Q 33.734375 7.71875 35.46875 10.015625 
Q 37.203125 12.3125 38.125 15.65625 
Q 39.0625 19 39.0625 23.140625 
M 46.96875 23.140625 
Q 46.96875 17.96875 45.53125 13.5 
Q 44.09375 9.03125 41.359375 5.75 
Q 38.625 2.484375 34.6875 0.625 
Q 30.765625 -1.21875 25.734375 -1.21875 
Q 20.5625 -1.21875 16.578125 0.625 
Q 12.59375 2.484375 9.875 5.75 
Q 7.171875 9.03125 5.78125 13.5 
Q 4.390625 17.96875 4.390625 23.140625 
Q 4.390625 28.375 5.828125 32.84375 
Q 7.28125 37.3125 10.015625 40.59375 
Q 12.75 43.890625 16.703125 45.75 
Q 20.65625 47.609375 25.6875 47.609375 
Q 30.8125 47.609375 34.78125 45.75 
Q 38.765625 43.890625 41.46875 40.59375 
Q 44.1875 37.3125 45.578125 32.84375 
Q 46.96875 28.375 46.96875 23.140625 
" id="Corbel-30"/>
       <path d="M 22.015625 6.984375 
L 22.015625 38.328125 
L 4.390625 32.8125 
L 4.390625 39.84375 
L 23.046875 46.390625 
L 29.59375 46.390625 
L 29.59375 6.984375 
L 42.390625 6.984375 
L 42.390625 0 
L 6.453125 0 
L 6.453125 6.984375 
z
" id="Corbel-31"/>
      </defs>
      <g style="fill:#666666;" transform="translate(65.739986413 411.807777599)scale(0.14 -0.14)">
       <use xlink:href="#Corbel-32"/>
       <use x="51.07421875" xlink:href="#Corbel-30"/>
       <use x="102.44140625" xlink:href="#Corbel-31"/>
       <use x="147.265625" xlink:href="#Corbel-33"/>
      </g>
     </g>
    </g>
    <g id="xtick_2">
     <g id="line2d_2">
      <g>
       <use style="fill:#666666;stroke:#666666;stroke-width:0.7;" x="224.786766304" xlink:href="#mef467de564" y="387.909340099"/>
      </g>
     </g>
     <g id="text_2">
      <!-- 2014 -->
      <defs>
       <path d="M 13.140625 6.5 
L 13.140625 6.296875 
L 20.359375 6.5 
L 31.0625 6.5 
L 31.0625 21.34375 
L 38.625 21.34375 
L 38.625 6.5 
L 48.25 6.5 
L 48.25 0 
L 38.625 0 
L 38.625 -18.890625 
L 31.0625 -18.890625 
L 31.0625 0 
L 4.5 0 
L 4.5 5.5625 
L 23.734375 46.390625 
L 31.890625 46.390625 
z
" id="Corbel-34"/>
      </defs>
      <g style="fill:#666666;" transform="translate(210.861141304 411.807777599)scale(0.14 -0.14)">
       <use xlink:href="#Corbel-32"/>
       <use x="51.07421875" xlink:href="#Corbel-30"/>
       <use x="102.44140625" xlink:href="#Corbel-31"/>
       <use x="147.265625" xlink:href="#Corbel-34"/>
      </g>
     </g>
    </g>
    <g id="xtick_3">
     <g id="line2d_3">
      <g>
       <use style="fill:#666666;stroke:#666666;stroke-width:0.7;" x="370.351983696" xlink:href="#mef467de564" y="387.909340099"/>
      </g>
     </g>
     <g id="text_3">
      <!-- 2015 -->
      <defs>
       <path d="M 42.875 0.640625 
Q 42.875 -3.859375 41.234375 -7.65625 
Q 39.59375 -11.46875 36.5 -14.25 
Q 33.40625 -17.046875 28.953125 -18.609375 
Q 24.515625 -20.171875 18.84375 -20.171875 
Q 15.140625 -20.171875 11.765625 -19.453125 
Q 8.40625 -18.75 5.71875 -17.28125 
L 5.71875 -10.84375 
Q 9.328125 -12.453125 12.546875 -13.015625 
Q 15.765625 -13.578125 18.5 -13.578125 
Q 22.65625 -13.578125 25.734375 -12.46875 
Q 28.8125 -11.375 30.859375 -9.46875 
Q 32.90625 -7.5625 33.9375 -5.046875 
Q 34.96875 -2.546875 34.96875 0.25 
Q 34.96875 3.609375 33.90625 6.078125 
Q 32.859375 8.546875 30.609375 10.171875 
Q 28.375 11.8125 24.859375 12.609375 
Q 21.34375 13.421875 16.359375 13.421875 
Q 12.84375 13.421875 7.859375 12.9375 
L 12.5 46.390625 
L 42.828125 46.390625 
L 42.828125 39.40625 
L 19.1875 39.40625 
L 16.453125 20.015625 
Q 18.171875 20.125 19.1875 20.125 
Q 24.90625 20.125 29.3125 18.796875 
Q 33.734375 17.484375 36.734375 14.984375 
Q 39.75 12.5 41.3125 8.890625 
Q 42.875 5.28125 42.875 0.640625 
" id="Corbel-35"/>
      </defs>
      <g style="fill:#666666;" transform="translate(356.682296196 411.807777599)scale(0.14 -0.14)">
       <use xlink:href="#Corbel-32"/>
       <use x="51.07421875" xlink:href="#Corbel-30"/>
       <use x="102.44140625" xlink:href="#Corbel-31"/>
       <use x="147.265625" xlink:href="#Corbel-35"/>
      </g>
     </g>
    </g>
    <g id="xtick_4">
     <g id="line2d_4">
      <g>
       <use style="fill:#666666;stroke:#666666;stroke-width:0.7;" x="515.917201087" xlink:href="#mef467de564" y="387.909340099"/>
      </g>
     </g>
     <g id="text_4">
      <!-- 2016 -->
      <defs>
       <path d="M 27.546875 39.359375 
Q 31.890625 39.359375 35.578125 38.109375 
Q 39.265625 36.859375 41.921875 34.421875 
Q 44.578125 31.984375 46.0625 28.390625 
Q 47.5625 24.8125 47.5625 20.125 
Q 47.5625 15.4375 46.171875 11.5 
Q 44.78125 7.5625 42.140625 4.75 
Q 39.5 1.953125 35.6875 0.359375 
Q 31.890625 -1.21875 27.046875 -1.21875 
Q 21.921875 -1.21875 17.890625 0.828125 
Q 13.875 2.875 11.078125 6.6875 
Q 8.296875 10.5 6.828125 15.921875 
Q 5.375 21.34375 5.375 28.078125 
Q 5.375 33.25 6.171875 38.109375 
Q 6.984375 42.96875 8.5625 47.234375 
Q 10.15625 51.515625 12.46875 55.046875 
Q 14.796875 58.59375 17.875 61.15625 
Q 20.953125 63.71875 24.75 65.125 
Q 28.5625 66.546875 33.0625 66.546875 
Q 36.765625 66.5 39.453125 65.8125 
Q 42.140625 65.140625 43.953125 64.265625 
L 43.953125 57.90625 
Q 42 58.6875 39.265625 59.328125 
Q 36.53125 59.96875 33.59375 59.96875 
Q 30.078125 59.96875 26.78125 58.515625 
Q 23.484375 57.078125 20.796875 54.078125 
Q 18.109375 51.078125 16.234375 46.453125 
Q 14.359375 41.84375 13.625 35.5 
L 13.8125 35.5 
Q 16.890625 37.25 20.5 38.296875 
Q 24.125 39.359375 27.546875 39.359375 
M 27.34375 5.21875 
Q 29.9375 5.21875 32.171875 6.140625 
Q 34.421875 7.078125 36.078125 8.875 
Q 37.75 10.6875 38.703125 13.34375 
Q 39.65625 16.015625 39.65625 19.4375 
Q 39.65625 23.09375 38.640625 25.609375 
Q 37.640625 28.125 35.90625 29.6875 
Q 34.1875 31.25 31.859375 31.9375 
Q 29.546875 32.625 26.90625 32.625 
Q 23.4375 32.625 19.828125 31.390625 
Q 16.21875 30.171875 13.28125 28.421875 
Q 13.234375 22.5625 14.28125 18.1875 
Q 15.328125 13.8125 17.1875 10.9375 
Q 19.046875 8.0625 21.65625 6.640625 
Q 24.265625 5.21875 27.34375 5.21875 
" id="Corbel-36"/>
      </defs>
      <g style="fill:#666666;" transform="translate(501.936888587 411.807777599)scale(0.14 -0.14)">
       <use xlink:href="#Corbel-32"/>
       <use x="51.07421875" xlink:href="#Corbel-30"/>
       <use x="102.44140625" xlink:href="#Corbel-31"/>
       <use x="147.265625" xlink:href="#Corbel-36"/>
      </g>
     </g>
    </g>
    <g id="text_5">
     <!-- Year -->
     <defs>
      <path d="M 34.1875 5.03125 
L 33.984375 5.03125 
Q 33.015625 4 31.640625 2.921875 
Q 30.28125 1.859375 28.515625 0.90625 
Q 26.765625 -0.046875 24.609375 -0.625 
Q 22.46875 -1.21875 19.96875 -1.21875 
Q 16.609375 -1.21875 13.671875 -0.171875 
Q 10.75 0.875 8.640625 2.84375 
Q 6.546875 4.828125 5.34375 7.640625 
Q 4.15625 10.453125 4.15625 13.921875 
Q 4.15625 17.71875 5.546875 20.75 
Q 6.9375 23.78125 9.421875 25.875 
Q 11.921875 27.984375 15.375 29.078125 
Q 18.84375 30.171875 23.046875 30.171875 
Q 26.125 30.171875 28.703125 29.78125 
Q 31.296875 29.390625 33.25 28.859375 
L 33.25 30.765625 
Q 33.25 32.421875 32.6875 33.953125 
Q 32.125 35.5 30.875 36.6875 
Q 29.640625 37.890625 27.640625 38.59375 
Q 25.640625 39.3125 22.75 39.3125 
Q 19.234375 39.3125 15.71875 38.53125 
Q 12.203125 37.75 8.109375 36.1875 
L 8.109375 45.21875 
Q 11.671875 46.78125 15.671875 47.609375 
Q 19.671875 48.4375 24.078125 48.484375 
Q 29.25 48.484375 33.125 47.21875 
Q 37.015625 45.953125 39.625 43.71875 
Q 42.234375 41.5 43.53125 38.46875 
Q 44.828125 35.453125 44.828125 31.890625 
L 44.828125 14.0625 
Q 44.828125 9.375 44.921875 6 
Q 45.015625 2.640625 45.125 0 
L 34.671875 0 
z
M 33.25 20.171875 
Q 31.59375 20.5625 29.4375 20.875 
Q 27.296875 21.1875 25.09375 21.1875 
Q 20.84375 21.1875 18.375 19.5 
Q 15.921875 17.828125 15.921875 14.359375 
Q 15.921875 12.75 16.484375 11.546875 
Q 17.046875 10.359375 18 9.578125 
Q 18.953125 8.796875 20.21875 8.40625 
Q 21.484375 8.015625 22.90625 8.015625 
Q 24.65625 8.015625 26.21875 8.46875 
Q 27.78125 8.9375 29.09375 9.640625 
Q 30.421875 10.359375 31.46875 11.234375 
Q 32.515625 12.109375 33.25 12.9375 
z
" id="Corbel-Bold-61"/>
      <path d="M 31.78125 37.203125 
L 49.171875 65.328125 
L 62.453125 65.328125 
L 37.703125 26.3125 
L 37.703125 0 
L 25.734375 0 
L 25.734375 26.3125 
L 0.984375 65.328125 
L 14.265625 65.328125 
L 31.640625 37.203125 
z
" id="Corbel-Bold-59"/>
      <path d="M 30.71875 8.109375 
Q 34.078125 8.109375 37.734375 8.78125 
Q 41.40625 9.46875 45.171875 10.75 
L 45.171875 1.515625 
Q 42.921875 0.53125 38.28125 -0.34375 
Q 33.640625 -1.21875 28.65625 -1.21875 
Q 23.640625 -1.21875 19.109375 0.078125 
Q 14.59375 1.375 11.21875 4.25 
Q 7.859375 7.125 5.875 11.71875 
Q 3.90625 16.3125 3.90625 22.859375 
Q 3.90625 29.296875 5.765625 34.125 
Q 7.625 38.96875 10.75 42.140625 
Q 13.875 45.3125 17.890625 46.890625 
Q 21.921875 48.484375 26.21875 48.484375 
Q 30.71875 48.484375 34.5 47.109375 
Q 38.28125 45.75 41.03125 42.8125 
Q 43.796875 39.890625 45.328125 35.28125 
Q 46.875 30.671875 46.875 24.359375 
Q 46.828125 21.921875 46.734375 20.21875 
L 15.71875 20.21875 
Q 15.96875 16.9375 17.1875 14.625 
Q 18.40625 12.3125 20.375 10.859375 
Q 22.359375 9.421875 25 8.765625 
Q 27.640625 8.109375 30.71875 8.109375 
M 26.078125 39.453125 
Q 23.875 39.453125 22.15625 38.640625 
Q 20.453125 37.84375 19.203125 36.453125 
Q 17.96875 35.0625 17.234375 33.203125 
Q 16.5 31.34375 16.265625 29.25 
L 34.859375 29.25 
Q 34.859375 31.34375 34.296875 33.203125 
Q 33.734375 35.0625 32.640625 36.453125 
Q 31.546875 37.84375 29.90625 38.640625 
Q 28.265625 39.453125 26.078125 39.453125 
" id="Corbel-Bold-65"/>
      <path d="M 34.46875 38.140625 
L 33.5 38.140625 
Q 28.171875 38.140625 24.140625 36.546875 
Q 20.125 34.96875 17.921875 31.6875 
L 17.921875 0 
L 6.34375 0 
L 6.34375 47.3125 
L 15.921875 47.3125 
L 17 40.71875 
L 17.1875 40.71875 
Q 19.234375 44.34375 22.828125 46.40625 
Q 26.421875 48.484375 31.453125 48.484375 
Q 33.203125 48.484375 34.46875 48.296875 
z
" id="Corbel-Bold-72"/>
     </defs>
     <g style="fill:#666666;" transform="translate(283.49828125 429.884652599)scale(0.14 -0.14)">
      <use xlink:href="#Corbel-Bold-59"/>
      <use x="63.318359375" xlink:href="#Corbel-Bold-65"/>
      <use x="114.587890625" xlink:href="#Corbel-Bold-61"/>
      <use x="166.052734375" xlink:href="#Corbel-Bold-72"/>
     </g>
    </g>
   </g>
   <g id="matplotlib.axis_2">
    <g id="ytick_1">
     <g id="line2d_5">
      <defs>
       <path d="M 0 0 
L -6 0 
" id="mba1f5e82c1" style="stroke:#666666;stroke-width:0.7;"/>
      </defs>
      <g>
       <use style="fill:#666666;stroke:#666666;stroke-width:0.7;" x="46.469375" xlink:href="#mba1f5e82c1" y="387.909340099"/>
      </g>
     </g>
     <g id="text_6">
      <!-- 0 -->
      <g style="fill:#666666;" transform="translate(25.276875 391.269340099)scale(0.14 -0.14)">
       <use xlink:href="#Corbel-30"/>
      </g>
     </g>
    </g>
    <g id="text_7">
     <!-- Number (thousands) -->
     <defs>
      <path d="M 18.40625 51.421875 
Q 18.40625 47.75 18.28125 45.375 
Q 18.171875 43.015625 17.875 41.109375 
L 18.0625 41.109375 
Q 19.09375 42.484375 20.578125 43.84375 
Q 22.078125 45.21875 23.859375 46.21875 
Q 25.640625 47.21875 27.90625 47.84375 
Q 30.171875 48.484375 32.90625 48.484375 
Q 35.25 48.484375 37.46875 48.015625 
Q 39.703125 47.5625 41.625 46.578125 
Q 43.5625 45.609375 45.140625 44.046875 
Q 46.734375 42.484375 47.796875 40.328125 
Q 48.734375 38.484375 49.171875 36.140625 
Q 49.609375 33.796875 49.609375 30.421875 
L 49.609375 0 
L 38.03125 0 
L 38.03125 28.859375 
Q 38.03125 31.0625 37.828125 32.453125 
Q 37.640625 33.84375 37.15625 34.859375 
Q 36.140625 37.015625 34.234375 37.890625 
Q 32.328125 38.765625 29.890625 38.765625 
Q 26.515625 38.71875 23.65625 37.15625 
Q 20.796875 35.59375 18.40625 32.5625 
L 18.40625 0 
L 6.84375 0 
L 6.84375 70.703125 
L 18.40625 70.703125 
z
" id="Corbel-Bold-68"/>
      <path d="M 27.25 -1.21875 
Q 20.125 -1.21875 15.4375 1.1875 
Q 10.75 3.609375 8.34375 7.71875 
Q 7.078125 9.90625 6.46875 12.546875 
Q 5.859375 15.1875 5.859375 18.40625 
L 5.859375 47.3125 
L 17.4375 47.3125 
L 17.4375 19.625 
Q 17.4375 17.234375 17.765625 15.5 
Q 18.109375 13.765625 18.796875 12.5 
Q 19.96875 10.359375 22.109375 9.296875 
Q 24.265625 8.25 27.25 8.25 
Q 30.375 8.25 32.59375 9.421875 
Q 34.8125 10.59375 35.9375 12.984375 
Q 37.0625 15.28125 37.0625 19.390625 
L 37.0625 47.3125 
L 48.640625 47.3125 
L 48.640625 18.40625 
Q 48.640625 12.640625 46.625 8.6875 
Q 45.515625 6.453125 43.71875 4.609375 
Q 41.9375 2.78125 39.515625 1.484375 
Q 37.109375 0.203125 34.046875 -0.5 
Q 31 -1.21875 27.25 -1.21875 
" id="Corbel-Bold-75"/>
      <path d="M 35.25 0.046875 
Q 33.296875 -0.53125 30.578125 -0.875 
Q 27.875 -1.21875 25.53125 -1.21875 
Q 19.578125 -1.21875 15.796875 0.703125 
Q 12.015625 2.640625 10.453125 6.25 
Q 9.328125 8.84375 9.328125 13.28125 
L 9.328125 37.796875 
L 0.484375 37.796875 
L 0.484375 47.3125 
L 9.328125 47.3125 
L 9.328125 60.546875 
L 20.90625 60.546875 
L 20.90625 47.3125 
L 34.578125 47.3125 
L 34.578125 37.796875 
L 20.90625 37.796875 
L 20.90625 14.796875 
Q 20.90625 12.0625 21.734375 10.75 
Q 23.1875 8.5 27.546875 8.5 
Q 29.546875 8.5 31.515625 8.8125 
Q 33.5 9.125 35.25 9.625 
z
" id="Corbel-Bold-74"/>
      <path d="M 27.296875 13.71875 
Q 27.296875 15.234375 26.4375 16.203125 
Q 25.59375 17.1875 24.171875 17.84375 
Q 22.75 18.5 20.921875 18.984375 
Q 19.09375 19.484375 17.09375 19.96875 
Q 14.546875 20.65625 12.203125 21.5625 
Q 9.859375 22.46875 8.078125 23.921875 
Q 6.296875 25.390625 5.25 27.609375 
Q 4.203125 29.828125 4.203125 33.0625 
Q 4.203125 37.015625 5.609375 39.921875 
Q 7.03125 42.828125 9.4375 44.71875 
Q 11.859375 46.625 15.0625 47.546875 
Q 18.265625 48.484375 21.828125 48.484375 
Q 26.171875 48.484375 29.984375 47.78125 
Q 33.796875 47.078125 36.859375 45.953125 
L 36.859375 36.53125 
Q 35.25 37.0625 33.46875 37.515625 
Q 31.6875 37.984375 29.859375 38.328125 
Q 28.03125 38.671875 26.21875 38.890625 
Q 24.421875 39.109375 22.796875 39.109375 
Q 20.75 39.109375 19.328125 38.71875 
Q 17.921875 38.328125 17.03125 37.671875 
Q 16.15625 37.015625 15.765625 36.15625 
Q 15.375 35.296875 15.375 34.375 
Q 15.375 32.765625 16.234375 31.734375 
Q 17.09375 30.71875 18.609375 30.078125 
Q 20.125 29.4375 21.78125 29.015625 
Q 23.4375 28.609375 25 28.21875 
Q 27.4375 27.640625 29.875 26.8125 
Q 32.328125 25.984375 34.28125 24.484375 
Q 36.234375 23 37.46875 20.625 
Q 38.71875 18.265625 38.71875 14.59375 
Q 38.71875 10.59375 37.203125 7.609375 
Q 35.6875 4.640625 32.984375 2.65625 
Q 30.28125 0.6875 26.484375 -0.265625 
Q 22.703125 -1.21875 18.171875 -1.21875 
Q 13.671875 -1.21875 10.078125 -0.5 
Q 6.5 0.203125 4.15625 1.265625 
L 4.15625 10.59375 
Q 7.953125 9.1875 11.171875 8.671875 
Q 14.40625 8.15625 17.1875 8.15625 
Q 19.34375 8.15625 21.1875 8.46875 
Q 23.046875 8.796875 24.390625 9.46875 
Q 25.734375 10.15625 26.515625 11.203125 
Q 27.296875 12.25 27.296875 13.71875 
" id="Corbel-Bold-73"/>
      <path d="M 67.28125 28.8125 
Q 67.28125 30.328125 67.1875 31.640625 
Q 67.09375 32.953125 66.84375 33.9375 
Q 66.3125 36.078125 64.75 37.390625 
Q 63.1875 38.71875 60.359375 38.765625 
Q 58.84375 38.765625 57.21875 38.328125 
Q 55.609375 37.890625 54.015625 37.078125 
Q 52.4375 36.28125 51 35.125 
Q 49.5625 33.984375 48.390625 32.5625 
L 48.390625 0 
L 36.8125 0 
L 36.8125 28.8125 
Q 36.8125 30.328125 36.71875 31.640625 
Q 36.625 32.953125 36.375 33.9375 
Q 35.84375 36.078125 34.296875 37.390625 
Q 32.765625 38.71875 29.890625 38.765625 
Q 28.375 38.765625 26.75 38.328125 
Q 25.140625 37.890625 23.546875 37.078125 
Q 21.96875 36.28125 20.53125 35.125 
Q 19.09375 33.984375 17.921875 32.5625 
L 17.921875 0 
L 6.34375 0 
L 6.34375 47.3125 
L 15.921875 47.3125 
L 17 40.71875 
L 17.1875 40.71875 
Q 18.21875 42.1875 19.78125 43.59375 
Q 21.34375 45.015625 23.3125 46.09375 
Q 25.296875 47.171875 27.65625 47.828125 
Q 30.03125 48.484375 32.671875 48.484375 
Q 37.359375 48.484375 41.09375 46.40625 
Q 44.828125 44.34375 46.78125 39.9375 
L 46.96875 39.9375 
Q 48.34375 41.84375 50.015625 43.40625 
Q 51.703125 44.96875 53.75 46.09375 
Q 55.8125 47.21875 58.171875 47.84375 
Q 60.546875 48.484375 63.234375 48.484375 
Q 68.3125 48.4375 71.75 46.359375 
Q 75.203125 44.28125 77.046875 40.671875 
Q 77.546875 39.75 77.875 38.640625 
Q 78.21875 37.546875 78.4375 36.171875 
Q 78.65625 34.8125 78.75 33.15625 
Q 78.859375 31.5 78.859375 29.34375 
L 78.859375 0 
L 67.28125 0 
z
" id="Corbel-Bold-6d"/>
      <path d="M 51.8125 24.46875 
Q 51.8125 18.0625 49.953125 13.125 
Q 48.09375 8.203125 45.09375 5.03125 
Q 42.09375 1.859375 38.328125 0.3125 
Q 34.578125 -1.21875 30.765625 -1.21875 
Q 28.078125 -1.21875 25.921875 -0.5625 
Q 23.78125 0.09375 22.171875 1.0625 
Q 20.5625 2.046875 19.453125 3.125 
Q 18.359375 4.203125 17.71875 5.03125 
L 17.53125 5.03125 
L 16.40625 0 
L 6.84375 0 
Q 6.9375 2.09375 7 5.1875 
Q 7.078125 8.296875 7.078125 11.078125 
L 7.078125 70.703125 
L 18.65625 70.703125 
L 18.65625 51.03125 
Q 18.65625 48.921875 18.625 47.140625 
Q 18.609375 45.359375 18.5625 44.390625 
L 18.65625 44.390625 
Q 19.78125 45.171875 21.09375 45.890625 
Q 22.40625 46.625 23.96875 47.203125 
Q 25.53125 47.796875 27.34375 48.140625 
Q 29.15625 48.484375 31.15625 48.484375 
Q 35.109375 48.484375 38.84375 47.046875 
Q 42.578125 45.609375 45.484375 42.65625 
Q 48.390625 39.703125 50.09375 35.078125 
Q 51.8125 30.46875 51.8125 24.46875 
M 39.84375 23.875 
Q 39.84375 28.328125 38.765625 31.515625 
Q 37.703125 34.71875 35.96875 36.40625 
Q 34.234375 38.09375 32.34375 38.671875 
Q 30.46875 39.265625 28.609375 39.265625 
Q 26.078125 39.265625 23.4375 38.234375 
Q 20.796875 37.203125 18.65625 35.5 
L 18.65625 12.84375 
Q 19.34375 12.0625 20.34375 11.203125 
Q 21.34375 10.359375 22.578125 9.640625 
Q 23.828125 8.9375 25.296875 8.46875 
Q 26.765625 8.015625 28.421875 8.015625 
Q 31.25 8.015625 33.375 9.15625 
Q 35.5 10.296875 36.9375 12.390625 
Q 38.375 14.5 39.109375 17.40625 
Q 39.84375 20.3125 39.84375 23.875 
" id="Corbel-Bold-62"/>
      <path d="M 26.703125 8.015625 
Q 28.421875 8.015625 29.953125 8.453125 
Q 31.5 8.890625 32.859375 9.625 
Q 34.234375 10.359375 35.28125 11.234375 
Q 36.328125 12.109375 37.0625 12.9375 
L 37.0625 35.40625 
Q 35.015625 37.0625 32.46875 38.15625 
Q 29.9375 39.265625 27.09375 39.265625 
Q 25.296875 39.265625 23.3125 38.53125 
Q 21.34375 37.796875 19.703125 36.03125 
Q 18.0625 34.28125 16.96875 31.15625 
Q 15.875 28.03125 15.875 23.1875 
Q 15.875 16.0625 18.625 12.0625 
Q 21.390625 8.0625 26.703125 8.015625 
M 3.90625 22.703125 
Q 3.90625 28.90625 5.609375 33.765625 
Q 7.328125 38.625 10.28125 41.921875 
Q 13.234375 45.21875 17.03125 46.84375 
Q 20.84375 48.484375 24.953125 48.484375 
Q 26.859375 48.484375 28.5625 48.140625 
Q 30.28125 47.796875 31.78125 47.203125 
Q 33.296875 46.625 34.609375 45.890625 
Q 35.9375 45.171875 37.0625 44.390625 
L 37.15625 44.390625 
Q 37.109375 45.359375 37.078125 47.140625 
Q 37.0625 48.921875 37.0625 51.03125 
L 37.0625 70.703125 
L 48.640625 70.703125 
L 48.640625 14.0625 
Q 48.640625 9.375 48.734375 6 
Q 48.828125 2.640625 48.921875 0 
L 38.484375 0 
L 37.984375 5.03125 
L 37.796875 5.03125 
Q 36.765625 3.8125 35.328125 2.640625 
Q 33.890625 1.46875 32.15625 0.609375 
Q 30.421875 -0.25 28.34375 -0.734375 
Q 26.265625 -1.21875 23.828125 -1.21875 
Q 19.96875 -1.21875 16.421875 0.140625 
Q 12.890625 1.515625 10.078125 4.375 
Q 7.28125 7.234375 5.59375 11.84375 
Q 3.90625 16.453125 3.90625 22.703125 
" id="Corbel-Bold-64"/>
      <path d="M 4.890625 25.34375 
Q 4.890625 30.859375 5.765625 35.71875 
Q 6.640625 40.578125 8.078125 44.796875 
Q 9.515625 49.03125 11.375 52.5625 
Q 13.234375 56.109375 15.1875 58.90625 
Q 17.140625 61.71875 19.015625 63.765625 
Q 20.90625 65.828125 22.359375 67.09375 
L 28.609375 61.328125 
Q 25.984375 58.453125 23.578125 54.875 
Q 21.1875 51.3125 19.359375 46.890625 
Q 17.53125 42.484375 16.453125 37.125 
Q 15.375 31.78125 15.375 25.34375 
Q 15.375 18.890625 16.453125 13.546875 
Q 17.53125 8.203125 19.359375 3.78125 
Q 21.1875 -0.640625 23.578125 -4.203125 
Q 25.984375 -7.765625 28.609375 -10.640625 
L 22.359375 -16.40625 
Q 20.90625 -15.140625 19.015625 -13.078125 
Q 17.140625 -11.03125 15.1875 -8.21875 
Q 13.234375 -5.421875 11.375 -1.875 
Q 9.515625 1.65625 8.078125 5.875 
Q 6.640625 10.109375 5.765625 14.984375 
Q 4.890625 19.875 4.890625 25.34375 
" id="Corbel-Bold-28"/>
      <path d="M 25.6875 25.34375 
Q 25.6875 19.875 24.796875 14.984375 
Q 23.921875 10.109375 22.484375 5.875 
Q 21.046875 1.65625 19.1875 -1.875 
Q 17.328125 -5.421875 15.375 -8.21875 
Q 13.421875 -11.03125 11.5625 -13.078125 
Q 9.71875 -15.140625 8.203125 -16.40625 
L 1.953125 -10.640625 
Q 4.59375 -7.765625 6.984375 -4.203125 
Q 9.375 -0.640625 11.203125 3.78125 
Q 13.03125 8.203125 14.109375 13.546875 
Q 15.1875 18.890625 15.1875 25.34375 
Q 15.1875 31.78125 14.109375 37.125 
Q 13.03125 42.484375 11.203125 46.890625 
Q 9.375 51.3125 6.984375 54.875 
Q 4.59375 58.453125 1.953125 61.328125 
L 8.203125 67.09375 
Q 9.671875 65.828125 11.546875 63.765625 
Q 13.421875 61.71875 15.375 58.90625 
Q 17.328125 56.109375 19.1875 52.5625 
Q 21.046875 49.03125 22.484375 44.796875 
Q 23.921875 40.578125 24.796875 35.71875 
Q 25.6875 30.859375 25.6875 25.34375 
" id="Corbel-Bold-29"/>
      <path d="M 41.84375 34.96875 
Q 48.875 24.953125 53.265625 17.1875 
L 53.5625 17.1875 
Q 52.984375 29.9375 52.984375 35.75 
L 52.984375 65.328125 
L 64.9375 65.328125 
L 64.9375 0 
L 52.390625 0 
L 31.109375 30.078125 
Q 25.484375 37.890625 19.484375 48.1875 
L 19.1875 48.1875 
Q 19.78125 36.1875 19.78125 29.59375 
L 19.78125 0 
L 7.8125 0 
L 7.8125 65.328125 
L 20.359375 65.328125 
z
" id="Corbel-Bold-4e"/>
      <path id="Corbel-Bold-20"/>
      <path d="M 17 40.71875 
L 17.1875 40.71875 
Q 18.21875 42.1875 19.78125 43.59375 
Q 21.34375 45.015625 23.34375 46.09375 
Q 25.34375 47.171875 27.75 47.828125 
Q 30.171875 48.484375 32.90625 48.484375 
Q 35.5 48.484375 37.90625 47.890625 
Q 40.328125 47.3125 42.328125 46.0625 
Q 44.34375 44.828125 45.875 42.84375 
Q 47.40625 40.875 48.296875 38.140625 
Q 48.78125 36.625 48.953125 34.84375 
Q 49.125 33.0625 49.125 30.71875 
L 49.125 0 
L 37.546875 0 
L 37.546875 28.90625 
Q 37.546875 30.8125 37.390625 32.171875 
Q 37.25 33.546875 36.859375 34.578125 
Q 35.984375 36.8125 34.203125 37.78125 
Q 32.421875 38.765625 29.890625 38.765625 
Q 26.515625 38.765625 23.40625 37.171875 
Q 20.3125 35.59375 17.921875 32.5625 
L 17.921875 0 
L 6.34375 0 
L 6.34375 47.3125 
L 15.921875 47.3125 
z
" id="Corbel-Bold-6e"/>
      <path d="M 39.5 23.640625 
Q 39.5 27.390625 38.625 30.265625 
Q 37.75 33.15625 36.1875 35.109375 
Q 34.625 37.0625 32.421875 38.03125 
Q 30.21875 39.015625 27.640625 39.015625 
Q 25.09375 39.015625 22.921875 38.03125 
Q 20.75 37.0625 19.1875 35.109375 
Q 17.625 33.15625 16.75 30.265625 
Q 15.875 27.390625 15.875 23.640625 
Q 15.875 19.875 16.75 16.984375 
Q 17.625 14.109375 19.203125 12.171875 
Q 20.796875 10.25 22.96875 9.25 
Q 25.140625 8.25 27.734375 8.25 
Q 30.328125 8.25 32.46875 9.25 
Q 34.625 10.25 36.1875 12.171875 
Q 37.75 14.109375 38.625 16.984375 
Q 39.5 19.875 39.5 23.640625 
M 51.46875 23.640625 
Q 51.46875 18.0625 49.796875 13.46875 
Q 48.140625 8.890625 45.03125 5.609375 
Q 41.9375 2.34375 37.546875 0.5625 
Q 33.15625 -1.21875 27.734375 -1.21875 
Q 22.171875 -1.21875 17.75 0.5625 
Q 13.328125 2.34375 10.25 5.609375 
Q 7.171875 8.890625 5.53125 13.46875 
Q 3.90625 18.0625 3.90625 23.640625 
Q 3.90625 29.203125 5.5625 33.78125 
Q 7.234375 38.375 10.328125 41.640625 
Q 13.421875 44.921875 17.8125 46.703125 
Q 22.21875 48.484375 27.640625 48.484375 
Q 33.203125 48.484375 37.625 46.703125 
Q 42.046875 44.921875 45.109375 41.640625 
Q 48.1875 38.375 49.828125 33.78125 
Q 51.46875 29.203125 51.46875 23.640625 
" id="Corbel-Bold-6f"/>
     </defs>
     <g style="fill:#b71a8b;" transform="translate(17.0984375 260.306683849)rotate(-90.0)scale(0.14 -0.14)">
      <use xlink:href="#Corbel-Bold-4e"/>
      <use x="72.75390625" xlink:href="#Corbel-Bold-75"/>
      <use x="127.24609375" xlink:href="#Corbel-Bold-6d"/>
      <use x="212.451171875" xlink:href="#Corbel-Bold-62"/>
      <use x="268.1640625" xlink:href="#Corbel-Bold-65"/>
      <use x="319.43359375" xlink:href="#Corbel-Bold-72"/>
      <use x="354.39453125" xlink:href="#Corbel-Bold-20"/>
      <use x="375.0" xlink:href="#Corbel-Bold-28"/>
      <use x="405.56640625" xlink:href="#Corbel-Bold-74"/>
      <use x="443.505859375" xlink:href="#Corbel-Bold-68"/>
      <use x="499.462890625" xlink:href="#Corbel-Bold-6f"/>
      <use x="554.833984375" xlink:href="#Corbel-Bold-75"/>
      <use x="609.326171875" xlink:href="#Corbel-Bold-73"/>
      <use x="651.708984375" xlink:href="#Corbel-Bold-61"/>
      <use x="703.173828125" xlink:href="#Corbel-Bold-6e"/>
      <use x="758.642578125" xlink:href="#Corbel-Bold-64"/>
      <use x="814.404296875" xlink:href="#Corbel-Bold-73"/>
      <use x="856.787109375" xlink:href="#Corbel-Bold-29"/>
     </g>
    </g>
   </g>
   <g id="patch_3">
    <path clip-path="url(#p47c02e5f61)" d="M 46.469375 387.90934 
L 111.973723 387.90934 
L 111.973723 299.21524 
L 46.469375 299.21524 
z
" style="fill:#5b0d45;stroke:#ffffff;stroke-linejoin:miter;stroke-width:3.0;"/>
   </g>
   <g id="patch_4">
    <path clip-path="url(#p47c02e5f61)" d="M 192.034592 387.90934 
L 257.53894 387.90934 
L 257.53894 267.43714 
L 192.034592 267.43714 
z
" style="fill:#5b0d45;stroke:#ffffff;stroke-linejoin:miter;stroke-width:3.0;"/>
   </g>
   <g id="patch_5">
    <path clip-path="url(#p47c02e5f61)" d="M 337.59981 387.90934 
L 403.104158 387.90934 
L 403.104158 189.17764 
L 337.59981 189.17764 
z
" style="fill:#5b0d45;stroke:#ffffff;stroke-linejoin:miter;stroke-width:3.0;"/>
   </g>
   <g id="patch_6">
    <path clip-path="url(#p47c02e5f61)" d="M 483.165027 387.90934 
L 548.669375 387.90934 
L 548.669375 54.95074 
L 483.165027 54.95074 
z
" style="fill:#5b0d45;stroke:#ffffff;stroke-linejoin:miter;stroke-width:3.0;"/>
   </g>
   <g id="patch_7">
    <path d="M 548.669375 387.90934 
L 548.669375 8.46934 
" style="fill:none;stroke:#666666;stroke-linecap:square;stroke-linejoin:miter;stroke-width:0.5;"/>
   </g>
   <g id="patch_8">
    <path d="M 46.469375 387.90934 
L 548.669375 387.90934 
" style="fill:none;stroke:#666666;stroke-linecap:square;stroke-linejoin:miter;stroke-width:0.5;"/>
   </g>
   <g id="patch_9">
    <path d="M 46.469375 387.90934 
L 46.469375 8.46934 
" style="fill:none;stroke:#666666;stroke-linecap:square;stroke-linejoin:miter;stroke-width:0.5;"/>
   </g>
   <g id="text_8">
    <!-- +36% -->
    <defs>
     <path d="M 41.9375 30.609375 
Q 41.9375 25.6875 39.78125 21.828125 
Q 37.640625 17.96875 32.953125 15.765625 
L 32.953125 15.578125 
Q 35.25 14.9375 37.15625 13.625 
Q 39.0625 12.3125 40.453125 10.40625 
Q 41.84375 8.5 42.625 6.078125 
Q 43.40625 3.65625 43.40625 0.734375 
Q 43.40625 -4.046875 41.859375 -7.90625 
Q 40.328125 -11.765625 37.203125 -14.5 
Q 34.078125 -17.234375 29.359375 -18.703125 
Q 24.65625 -20.171875 18.359375 -20.171875 
Q 16.609375 -20.171875 14.65625 -20 
Q 12.703125 -19.828125 10.765625 -19.453125 
Q 8.84375 -19.09375 7 -18.546875 
Q 5.171875 -18.015625 3.65625 -17.28125 
L 3.65625 -7.234375 
Q 6.390625 -8.5 9.984375 -9.375 
Q 13.578125 -10.25 17.78125 -10.25 
Q 21.578125 -10.25 24.1875 -9.375 
Q 26.8125 -8.5 28.421875 -7 
Q 30.03125 -5.515625 30.734375 -3.53125 
Q 31.453125 -1.5625 31.453125 0.640625 
Q 31.453125 3.859375 30.109375 5.984375 
Q 28.765625 8.109375 26.265625 9.1875 
Q 25 9.71875 23.359375 9.9375 
Q 21.734375 10.15625 19.4375 10.15625 
L 11.8125 10.15625 
L 11.8125 19.96875 
L 17 19.96875 
Q 19.234375 19.96875 20.984375 20.1875 
Q 22.75 20.40625 24.171875 21 
Q 26.953125 22.125 28.46875 24.4375 
Q 29.984375 26.765625 29.984375 30.28125 
Q 29.984375 32.5625 29.09375 34.15625 
Q 28.21875 35.75 26.703125 36.71875 
Q 25.203125 37.703125 23.140625 38.140625 
Q 21.09375 38.578125 19.09375 38.578125 
Q 14.984375 38.578125 11.5 37.765625 
Q 8.015625 36.96875 4.6875 35.59375 
L 4.6875 45.609375 
Q 7.859375 46.828125 11.671875 47.65625 
Q 15.484375 48.484375 20.609375 48.484375 
Q 25.59375 48.484375 29.5625 47.09375 
Q 33.546875 45.703125 36.296875 43.28125 
Q 39.0625 40.875 40.5 37.625 
Q 41.9375 34.375 41.9375 30.609375 
" id="Corbel-Bold-33"/>
     <path d="M 69.875 20.453125 
Q 69.875 23.1875 69.625 25.484375 
Q 69.390625 27.78125 68.796875 29.4375 
Q 68.21875 31.109375 67.265625 32.0625 
Q 66.3125 33.015625 64.84375 33.015625 
Q 63.375 33.015625 62.421875 32.0625 
Q 61.46875 31.109375 60.875 29.4375 
Q 60.296875 27.78125 60.046875 25.484375 
Q 59.8125 23.1875 59.8125 20.453125 
Q 59.8125 17.78125 60.046875 15.453125 
Q 60.296875 13.140625 60.875 11.46875 
Q 61.46875 9.8125 62.421875 8.859375 
Q 63.375 7.90625 64.84375 7.90625 
Q 66.3125 7.90625 67.265625 8.859375 
Q 68.21875 9.8125 68.796875 11.46875 
Q 69.390625 13.140625 69.625 15.453125 
Q 69.875 17.78125 69.875 20.453125 
M 49.171875 20.453125 
Q 49.171875 25.828125 50.3125 29.8125 
Q 51.46875 33.796875 53.53125 36.421875 
Q 55.609375 39.0625 58.484375 40.359375 
Q 61.375 41.65625 64.84375 41.65625 
Q 68.3125 41.65625 71.1875 40.359375 
Q 74.078125 39.0625 76.140625 36.421875 
Q 78.21875 33.796875 79.359375 29.8125 
Q 80.515625 25.828125 80.515625 20.453125 
Q 80.515625 15.140625 79.359375 11.15625 
Q 78.21875 7.171875 76.140625 4.53125 
Q 74.078125 1.90625 71.1875 0.578125 
Q 68.3125 -0.734375 64.84375 -0.734375 
Q 61.375 -0.734375 58.484375 0.578125 
Q 55.609375 1.90625 53.53125 4.53125 
Q 51.46875 7.171875 50.3125 11.15625 
Q 49.171875 15.140625 49.171875 20.453125 
M 68.3125 62.15625 
L 20.65625 -1.703125 
L 14.3125 3.171875 
L 61.96875 67.046875 
z
M 22.90625 45.359375 
Q 22.90625 48.09375 22.65625 50.390625 
Q 22.40625 52.6875 21.8125 54.34375 
Q 21.234375 56 20.28125 56.953125 
Q 19.34375 57.90625 17.875 57.90625 
Q 16.40625 57.90625 15.453125 56.953125 
Q 14.5 56 13.90625 54.34375 
Q 13.328125 52.6875 13.078125 50.390625 
Q 12.84375 48.09375 12.84375 45.359375 
Q 12.84375 42.671875 13.078125 40.34375 
Q 13.328125 38.03125 13.90625 36.375 
Q 14.5 34.71875 15.453125 33.765625 
Q 16.40625 32.8125 17.875 32.8125 
Q 19.34375 32.8125 20.28125 33.765625 
Q 21.234375 34.71875 21.8125 36.375 
Q 22.40625 38.03125 22.65625 40.34375 
Q 22.90625 42.671875 22.90625 45.359375 
M 2.203125 45.359375 
Q 2.203125 50.734375 3.34375 54.703125 
Q 4.5 58.6875 6.5625 61.328125 
Q 8.640625 63.96875 11.515625 65.25 
Q 14.40625 66.546875 17.875 66.546875 
Q 21.34375 66.546875 24.21875 65.25 
Q 27.09375 63.96875 29.171875 61.328125 
Q 31.25 58.6875 32.390625 54.703125 
Q 33.546875 50.734375 33.546875 45.359375 
Q 33.546875 40.046875 32.390625 36.0625 
Q 31.25 32.078125 29.171875 29.4375 
Q 27.09375 26.8125 24.21875 25.484375 
Q 21.34375 24.171875 17.875 24.171875 
Q 14.40625 24.171875 11.515625 25.484375 
Q 8.640625 26.8125 6.5625 29.4375 
Q 4.5 32.078125 3.34375 36.0625 
Q 2.203125 40.046875 2.203125 45.359375 
" id="Corbel-Bold-25"/>
     <path d="M 28.375 8.6875 
Q 30.515625 8.6875 32.34375 9.34375 
Q 34.1875 10.015625 35.546875 11.40625 
Q 36.921875 12.796875 37.671875 14.9375 
Q 38.421875 17.09375 38.421875 20.015625 
Q 38.421875 23.140625 37.59375 25.1875 
Q 36.765625 27.25 35.34375 28.4375 
Q 33.9375 29.640625 32.046875 30.125 
Q 30.171875 30.609375 27.9375 30.609375 
Q 25.09375 30.609375 22.140625 29.953125 
Q 19.1875 29.296875 16.609375 27.984375 
Q 16.609375 22.859375 17.484375 19.1875 
Q 18.359375 15.53125 19.921875 13.203125 
Q 21.484375 10.890625 23.65625 9.78125 
Q 25.828125 8.6875 28.375 8.6875 
M 29.34375 40.53125 
Q 33.796875 40.53125 37.640625 39.234375 
Q 41.5 37.9375 44.328125 35.390625 
Q 47.171875 32.859375 48.78125 29.171875 
Q 50.390625 25.484375 50.390625 20.65625 
Q 50.390625 15.828125 48.890625 11.8125 
Q 47.40625 7.8125 44.546875 4.90625 
Q 41.703125 2 37.546875 0.390625 
Q 33.40625 -1.21875 28.125 -1.21875 
Q 22.5625 -1.21875 18.21875 0.859375 
Q 13.875 2.9375 10.84375 6.78125 
Q 7.8125 10.640625 6.21875 16.078125 
Q 4.640625 21.53125 4.640625 28.328125 
Q 4.640625 36.03125 6.546875 42.96875 
Q 8.453125 49.90625 12.1875 55.15625 
Q 15.921875 60.40625 21.390625 63.46875 
Q 26.859375 66.546875 34.03125 66.546875 
Q 38.09375 66.546875 41.5 65.71875 
Q 44.921875 64.890625 46.828125 63.96875 
L 46.828125 54 
Q 43.890625 55.125 40.890625 55.875 
Q 37.890625 56.640625 34.90625 56.640625 
Q 31.890625 56.640625 29.078125 55.59375 
Q 26.265625 54.546875 23.9375 52.265625 
Q 21.625 50 19.859375 46.4375 
Q 18.109375 42.875 17.234375 37.890625 
L 17.4375 37.890625 
Q 22.90625 40.4375 29.34375 40.53125 
" id="Corbel-Bold-36"/>
     <path d="M 5.5625 30.609375 
L 21.484375 30.609375 
L 21.484375 47.40625 
L 31.25 47.40625 
L 31.25 30.609375 
L 47.171875 30.609375 
L 47.171875 21.296875 
L 31.25 21.296875 
L 31.25 4.546875 
L 21.484375 4.546875 
L 21.484375 21.296875 
L 5.5625 21.296875 
z
" id="Corbel-Bold-2b"/>
    </defs>
    <g style="fill:#ffffff;" transform="translate(210.430828804 336.996085099)scale(0.12 -0.12)">
     <use xlink:href="#Corbel-Bold-2b"/>
     <use x="52.734375" xlink:href="#Corbel-Bold-33"/>
     <use x="101.513671875" xlink:href="#Corbel-Bold-36"/>
     <use x="156.54296875" xlink:href="#Corbel-Bold-25"/>
    </g>
   </g>
   <g id="text_9">
    <!-- +65% -->
    <defs>
     <path d="M 18.796875 21.734375 
Q 20.171875 21.78125 21.1875 21.78125 
Q 26.90625 21.78125 31.25 20.328125 
Q 35.59375 18.890625 38.46875 16.234375 
Q 41.359375 13.578125 42.8125 9.84375 
Q 44.28125 6.109375 44.28125 1.5625 
Q 44.28125 -3.03125 42.59375 -7 
Q 40.921875 -10.984375 37.640625 -13.90625 
Q 34.375 -16.84375 29.59375 -18.5 
Q 24.8125 -20.171875 18.65625 -20.171875 
Q 14.59375 -20.171875 10.984375 -19.390625 
Q 7.375 -18.609375 4.390625 -17.390625 
L 4.390625 -7.28125 
Q 8.109375 -8.84375 11.421875 -9.546875 
Q 14.75 -10.25 17.828125 -10.25 
Q 21.734375 -10.25 24.46875 -9.375 
Q 27.203125 -8.5 28.953125 -6.953125 
Q 30.71875 -5.421875 31.515625 -3.296875 
Q 32.328125 -1.171875 32.328125 1.3125 
Q 32.328125 4 31.4375 6.078125 
Q 30.5625 8.15625 28.625 9.59375 
Q 26.703125 11.03125 23.71875 11.765625 
Q 20.75 12.5 16.609375 12.5 
Q 14.3125 12.5 11.6875 12.28125 
Q 9.078125 12.0625 6.0625 11.578125 
L 11.078125 47.3125 
L 44.234375 47.3125 
L 44.234375 36.765625 
L 20.953125 36.765625 
z
" id="Corbel-Bold-35"/>
    </defs>
    <g style="fill:#ffffff;" transform="translate(355.987608696 305.692285099)scale(0.12 -0.12)">
     <use xlink:href="#Corbel-Bold-2b"/>
     <use x="52.734375" xlink:href="#Corbel-Bold-36"/>
     <use x="107.763671875" xlink:href="#Corbel-Bold-35"/>
     <use x="156.689453125" xlink:href="#Corbel-Bold-25"/>
    </g>
   </g>
   <g id="text_10">
    <!-- +68% -->
    <defs>
     <path d="M 27.78125 38.140625 
Q 32.375 39.15625 34.859375 41.765625 
Q 37.359375 44.390625 37.359375 48.34375 
Q 37.359375 50.53125 36.59375 52.171875 
Q 35.84375 53.8125 34.546875 54.90625 
Q 33.25 56 31.515625 56.53125 
Q 29.78125 57.078125 27.78125 57.078125 
Q 25.828125 57.078125 24.0625 56.53125 
Q 22.3125 56 21.015625 54.90625 
Q 19.734375 53.8125 18.96875 52.171875 
Q 18.21875 50.53125 18.21875 48.34375 
Q 18.21875 44.390625 20.703125 41.765625 
Q 23.1875 39.15625 27.78125 38.140625 
M 27.78125 8.25 
Q 30.125 8.25 32.125 8.9375 
Q 34.125 9.625 35.59375 10.90625 
Q 37.0625 12.203125 37.890625 14.03125 
Q 38.71875 15.875 38.71875 18.109375 
Q 38.71875 20.609375 37.90625 22.515625 
Q 37.109375 24.421875 35.640625 25.75 
Q 34.1875 27.09375 32.171875 27.90625 
Q 30.171875 28.71875 27.78125 29 
Q 25.390625 28.71875 23.390625 27.90625 
Q 21.390625 27.09375 19.921875 25.75 
Q 18.453125 24.421875 17.640625 22.515625 
Q 16.84375 20.609375 16.84375 18.109375 
Q 16.84375 15.875 17.671875 14.03125 
Q 18.5 12.203125 19.96875 10.90625 
Q 21.4375 9.625 23.4375 8.9375 
Q 25.4375 8.25 27.78125 8.25 
M 27.78125 -1.21875 
Q 22.65625 -1.21875 18.421875 0.1875 
Q 14.203125 1.609375 11.203125 4.125 
Q 8.203125 6.640625 6.546875 10.109375 
Q 4.890625 13.578125 4.890625 17.71875 
Q 4.890625 20.953125 5.734375 23.53125 
Q 6.59375 26.125 8.078125 28.125 
Q 9.578125 30.125 11.59375 31.53125 
Q 13.625 32.953125 16.015625 33.796875 
L 16.015625 33.984375 
Q 11.46875 35.984375 8.859375 39.578125 
Q 6.25 43.171875 6.25 48.1875 
Q 6.25 52.484375 7.9375 55.90625 
Q 9.625 59.328125 12.546875 61.6875 
Q 15.484375 64.0625 19.40625 65.296875 
Q 23.34375 66.546875 27.78125 66.546875 
Q 32.234375 66.546875 36.15625 65.296875 
Q 40.09375 64.0625 43.015625 61.6875 
Q 45.953125 59.328125 47.625 55.90625 
Q 49.3125 52.484375 49.3125 48.1875 
Q 49.3125 43.171875 46.703125 39.578125 
Q 44.09375 35.984375 39.546875 33.984375 
L 39.546875 33.796875 
Q 41.9375 32.953125 43.96875 31.53125 
Q 46 30.125 47.484375 28.125 
Q 48.96875 26.125 49.828125 23.53125 
Q 50.6875 20.953125 50.6875 17.71875 
Q 50.6875 13.578125 49.015625 10.109375 
Q 47.359375 6.640625 44.359375 4.125 
Q 41.359375 1.609375 37.125 0.1875 
Q 32.90625 -1.21875 27.78125 -1.21875 
" id="Corbel-Bold-38"/>
    </defs>
    <g style="fill:#ffffff;" transform="translate(501.154388587 252.001525099)scale(0.12 -0.12)">
     <use xlink:href="#Corbel-Bold-2b"/>
     <use x="52.734375" xlink:href="#Corbel-Bold-36"/>
     <use x="107.763671875" xlink:href="#Corbel-Bold-38"/>
     <use x="163.330078125" xlink:href="#Corbel-Bold-25"/>
    </g>
   </g>
   <g id="legend_1">
    <g id="patch_10">
     <path d="M 75.269375 470.975845 
L 99.269375 470.975845 
L 99.269375 462.575845 
L 75.269375 462.575845 
z
" style="fill:#5b0d45;stroke:#ffffff;stroke-linejoin:miter;stroke-width:3.0;"/>
    </g>
    <g id="text_11">
     <!-- Number (thousands) -->
     <defs>
      <path d="M 15.375 40.046875 
L 15.53125 40.046875 
Q 16.796875 41.65625 18.359375 43.046875 
Q 19.921875 44.4375 21.828125 45.4375 
Q 23.734375 46.4375 25.921875 47.015625 
Q 28.125 47.609375 30.671875 47.609375 
Q 33.296875 47.609375 35.9375 46.890625 
Q 38.578125 46.1875 40.8125 44.375 
Q 43.0625 42.578125 44.484375 39.359375 
Q 45.90625 36.140625 45.90625 31.0625 
L 45.90625 0 
L 38.328125 0 
L 38.328125 29.828125 
Q 38.328125 35.453125 36.203125 38.28125 
Q 34.078125 41.109375 29.25 41.109375 
Q 25.25 41.109375 21.625 38.9375 
Q 18.015625 36.765625 15.375 32.953125 
L 15.375 0 
L 7.8125 0 
L 7.8125 70.703125 
L 15.375 70.703125 
z
" id="Corbel-68"/>
      <path d="M 12.546875 22.703125 
Q 12.546875 18.703125 13.453125 15.453125 
Q 14.359375 12.203125 16.0625 9.9375 
Q 17.78125 7.671875 20.265625 6.4375 
Q 22.75 5.21875 25.984375 5.21875 
Q 28.375 5.21875 30.328125 5.859375 
Q 32.28125 6.5 33.8125 7.46875 
Q 35.359375 8.453125 36.453125 9.546875 
Q 37.546875 10.640625 38.1875 11.578125 
L 38.1875 35.84375 
Q 35.84375 38.234375 32.765625 39.671875 
Q 29.6875 41.109375 26.125 41.109375 
Q 23.96875 41.109375 21.59375 40.296875 
Q 19.234375 39.5 17.203125 37.390625 
Q 15.1875 35.296875 13.859375 31.75 
Q 12.546875 28.21875 12.546875 22.703125 
M 4.640625 22.609375 
Q 4.640625 27.4375 5.59375 31.171875 
Q 6.546875 34.90625 8.109375 37.6875 
Q 9.671875 40.484375 11.765625 42.359375 
Q 13.875 44.234375 16.109375 45.40625 
Q 18.359375 46.578125 20.671875 47.09375 
Q 23 47.609375 25.046875 47.609375 
Q 29.296875 47.609375 32.421875 46.1875 
Q 35.546875 44.78125 38.03125 42.046875 
L 38.1875 42.046875 
L 38.1875 70.703125 
L 45.75 70.703125 
L 45.75 0 
L 40.046875 0 
L 38.484375 5.171875 
L 38.28125 5.171875 
Q 37.40625 4.046875 36.234375 2.90625 
Q 35.0625 1.765625 33.46875 0.828125 
Q 31.890625 -0.09375 29.8125 -0.65625 
Q 27.734375 -1.21875 25 -1.21875 
Q 21.1875 -1.21875 17.53125 0.078125 
Q 13.875 1.375 11.015625 4.21875 
Q 8.15625 7.078125 6.390625 11.59375 
Q 4.640625 16.109375 4.640625 22.609375 
" id="Corbel-64"/>
      <path id="Corbel-20"/>
      <path d="M 32.765625 40.234375 
L 32.171875 40.234375 
Q 29.5 40.234375 26.90625 39.75 
Q 24.3125 39.265625 22.046875 38.25 
Q 19.78125 37.25 17.9375 35.78125 
Q 16.109375 34.328125 14.890625 32.328125 
L 14.890625 0 
L 7.328125 0 
L 7.328125 46.390625 
L 13.1875 46.390625 
L 14.65625 39.015625 
L 14.796875 39.015625 
Q 15.921875 40.828125 17.546875 42.390625 
Q 19.1875 43.953125 21.234375 45.125 
Q 23.296875 46.296875 25.734375 46.953125 
Q 28.171875 47.609375 30.859375 47.609375 
Q 31.34375 47.609375 31.859375 47.578125 
Q 32.375 47.5625 32.765625 47.515625 
z
" id="Corbel-72"/>
      <path d="M 12.203125 34.03125 
Q 12.203125 32.125 13.03125 30.90625 
Q 13.875 29.6875 15.265625 28.921875 
Q 16.65625 28.171875 18.484375 27.6875 
Q 20.3125 27.203125 22.265625 26.8125 
Q 24.953125 26.21875 27.34375 25.515625 
Q 29.734375 24.8125 31.765625 23.390625 
Q 33.796875 21.96875 35.03125 19.546875 
Q 36.28125 17.140625 36.28125 13.28125 
Q 36.28125 9.765625 34.90625 7.046875 
Q 33.546875 4.34375 31.046875 2.515625 
Q 28.5625 0.6875 25.09375 -0.265625 
Q 21.625 -1.21875 17.484375 -1.21875 
Q 14.9375 -1.21875 12.859375 -0.953125 
Q 10.796875 -0.6875 9.203125 -0.265625 
Q 7.625 0.140625 6.5 0.578125 
Q 5.375 1.03125 4.640625 1.421875 
L 4.640625 7.765625 
Q 7.5625 6.59375 10.4375 5.90625 
Q 13.328125 5.21875 16.796875 5.21875 
Q 19.53125 5.21875 21.71875 5.703125 
Q 23.921875 6.203125 25.5 7.15625 
Q 27.09375 8.109375 27.953125 9.546875 
Q 28.8125 10.984375 28.8125 12.890625 
Q 28.8125 14.84375 28.03125 16.109375 
Q 27.25 17.390625 25.921875 18.21875 
Q 24.609375 19.046875 22.875 19.578125 
Q 21.140625 20.125 19.234375 20.5625 
Q 16.75 21.09375 14.1875 21.828125 
Q 11.625 22.5625 9.515625 23.875 
Q 7.421875 25.203125 6.125 27.46875 
Q 4.828125 29.734375 4.828125 33.296875 
Q 4.828125 36.96875 6.140625 39.640625 
Q 7.46875 42.328125 9.71875 44.078125 
Q 11.96875 45.84375 14.9375 46.71875 
Q 17.921875 47.609375 21.234375 47.609375 
Q 25.09375 47.609375 28.390625 46.875 
Q 31.6875 46.140625 34.375 45.015625 
L 34.375 38.578125 
Q 31.453125 39.703125 28.4375 40.40625 
Q 25.4375 41.109375 22.265625 41.15625 
Q 19.578125 41.15625 17.671875 40.625 
Q 15.765625 40.09375 14.546875 39.140625 
Q 13.328125 38.1875 12.765625 36.890625 
Q 12.203125 35.59375 12.203125 34.03125 
" id="Corbel-73"/>
      <path d="M 41.015625 23.390625 
Q 41.015625 28.90625 39.71875 32.34375 
Q 38.421875 35.796875 36.390625 37.71875 
Q 34.375 39.65625 32.078125 40.375 
Q 29.78125 41.109375 27.484375 41.109375 
Q 23.96875 41.109375 20.875 39.640625 
Q 17.78125 38.1875 15.375 35.84375 
L 15.375 11.578125 
Q 16.0625 10.640625 17.15625 9.546875 
Q 18.265625 8.453125 19.78125 7.5 
Q 21.296875 6.546875 23.171875 5.875 
Q 25.046875 5.21875 27.296875 5.21875 
Q 30.671875 5.21875 33.234375 6.53125 
Q 35.796875 7.859375 37.53125 10.28125 
Q 39.265625 12.703125 40.140625 16.046875 
Q 41.015625 19.390625 41.015625 23.390625 
M 48.921875 23.96875 
Q 48.921875 17.484375 47.15625 12.75 
Q 45.40625 8.015625 42.53125 4.90625 
Q 39.65625 1.8125 35.9375 0.296875 
Q 32.234375 -1.21875 28.265625 -1.21875 
Q 25.296875 -1.21875 23.015625 -0.453125 
Q 20.75 0.296875 19.15625 1.34375 
Q 17.578125 2.390625 16.625 3.46875 
Q 15.671875 4.546875 15.28125 5.171875 
L 15.140625 5.171875 
L 13.53125 0 
L 7.8125 0 
L 7.8125 70.703125 
L 15.375 70.703125 
L 15.375 42.046875 
L 15.53125 42.046875 
Q 18.015625 44.671875 21.328125 46.140625 
Q 24.65625 47.609375 28.90625 47.609375 
Q 30.859375 47.609375 33.125 47.171875 
Q 35.40625 46.734375 37.625 45.65625 
Q 39.84375 44.578125 41.890625 42.8125 
Q 43.953125 41.0625 45.515625 38.453125 
Q 47.078125 35.84375 48 32.25 
Q 48.921875 28.65625 48.921875 23.96875 
" id="Corbel-62"/>
      <path d="M 25.484375 41.109375 
Q 22.90625 41.109375 20.671875 40.078125 
Q 18.453125 39.0625 16.796875 37.296875 
Q 15.140625 35.546875 14.109375 33.171875 
Q 13.09375 30.8125 12.84375 28.125 
L 36.28125 28.125 
Q 36.28125 30.859375 35.5625 33.21875 
Q 34.859375 35.59375 33.484375 37.34375 
Q 32.125 39.109375 30.125 40.109375 
Q 28.125 41.109375 25.484375 41.109375 
M 29.640625 5.375 
Q 33.40625 5.375 36.5 5.984375 
Q 39.59375 6.59375 42.671875 7.71875 
L 42.671875 1.421875 
Q 40.1875 0.203125 36.515625 -0.5 
Q 32.859375 -1.21875 28.65625 -1.21875 
Q 23.6875 -1.21875 19.3125 0.046875 
Q 14.9375 1.3125 11.671875 4.140625 
Q 8.40625 6.984375 6.515625 11.546875 
Q 4.640625 16.109375 4.640625 22.5625 
Q 4.640625 28.90625 6.390625 33.5625 
Q 8.15625 38.234375 11.078125 41.359375 
Q 14.015625 44.484375 17.8125 46.046875 
Q 21.625 47.609375 25.78125 47.609375 
Q 29.6875 47.609375 33.078125 46.3125 
Q 36.46875 45.015625 38.953125 42.234375 
Q 41.453125 39.453125 42.890625 35.0625 
Q 44.34375 30.671875 44.34375 24.515625 
Q 44.34375 23.921875 44.34375 23.5 
Q 44.34375 23.09375 44.28125 21.625 
L 12.453125 21.625 
Q 12.453125 17.1875 13.796875 14.078125 
Q 15.140625 10.984375 17.453125 9.046875 
Q 19.78125 7.125 22.90625 6.25 
Q 26.03125 5.375 29.640625 5.375 
" id="Corbel-65"/>
      <path d="M 12.9375 25.34375 
Q 12.9375 18.796875 14.0625 13.234375 
Q 15.1875 7.671875 17.03125 3.03125 
Q 18.890625 -1.609375 21.359375 -5.34375 
Q 23.828125 -9.078125 26.46875 -11.96875 
L 22.3125 -15.875 
Q 20.953125 -14.703125 19.140625 -12.71875 
Q 17.328125 -10.75 15.453125 -7.984375 
Q 13.578125 -5.21875 11.765625 -1.71875 
Q 9.96875 1.765625 8.546875 5.9375 
Q 7.125 10.109375 6.25 14.984375 
Q 5.375 19.875 5.375 25.34375 
Q 5.375 30.859375 6.25 35.71875 
Q 7.125 40.578125 8.546875 44.75 
Q 9.96875 48.921875 11.765625 52.40625 
Q 13.578125 55.90625 15.453125 58.65625 
Q 17.328125 61.421875 19.140625 63.390625 
Q 20.953125 65.375 22.3125 66.546875 
L 26.46875 62.640625 
Q 23.828125 59.765625 21.359375 56.03125 
Q 18.890625 52.296875 17.03125 47.65625 
Q 15.1875 43.015625 14.0625 37.453125 
Q 12.9375 31.890625 12.9375 25.34375 
" id="Corbel-28"/>
      <path d="M 31.78125 -0.09375 
Q 30.8125 -0.484375 28.8125 -0.828125 
Q 26.8125 -1.171875 24.03125 -1.21875 
Q 20.359375 -1.21875 17.671875 -0.3125 
Q 14.984375 0.59375 13.203125 2.265625 
Q 11.421875 3.953125 10.546875 6.34375 
Q 9.671875 8.734375 9.671875 11.671875 
L 9.671875 39.890625 
L 0.734375 39.890625 
L 0.734375 46.390625 
L 9.671875 46.390625 
L 9.671875 59.078125 
L 17.234375 59.078125 
L 17.234375 46.390625 
L 31.109375 46.390625 
L 31.109375 39.890625 
L 17.234375 39.890625 
L 17.234375 12.84375 
Q 17.234375 11.234375 17.703125 9.859375 
Q 18.171875 8.5 19.171875 7.5 
Q 20.171875 6.5 21.734375 5.9375 
Q 23.296875 5.375 25.484375 5.375 
Q 27 5.375 28.6875 5.609375 
Q 30.375 5.859375 31.78125 6.25 
z
" id="Corbel-74"/>
      <path d="M 25.734375 -1.21875 
Q 22.125 -1.21875 19.234375 -0.4375 
Q 16.359375 0.34375 14.1875 1.75 
Q 12.015625 3.171875 10.5 5.140625 
Q 8.984375 7.125 8.109375 9.46875 
Q 7.421875 11.234375 7.125 13.328125 
Q 6.84375 15.4375 6.84375 17.921875 
L 6.84375 46.390625 
L 14.40625 46.390625 
L 14.40625 17.96875 
Q 14.40625 14.109375 15.4375 11.53125 
Q 16.609375 8.59375 19.21875 6.90625 
Q 21.828125 5.21875 25.875 5.21875 
Q 30.171875 5.21875 32.78125 7.078125 
Q 35.40625 8.9375 36.53125 12.0625 
Q 37.359375 14.453125 37.359375 17.96875 
L 37.359375 46.390625 
L 44.921875 46.390625 
L 44.921875 17.875 
Q 44.921875 15.53125 44.65625 13.5 
Q 44.390625 11.46875 43.796875 9.765625 
Q 42.921875 7.375 41.375 5.34375 
Q 39.84375 3.328125 37.59375 1.859375 
Q 35.359375 0.390625 32.390625 -0.40625 
Q 29.4375 -1.21875 25.734375 -1.21875 
" id="Corbel-75"/>
      <path d="M 34.46875 5.125 
L 34.28125 5.125 
Q 33.34375 3.953125 31.921875 2.796875 
Q 30.515625 1.65625 28.65625 0.75 
Q 26.8125 -0.140625 24.609375 -0.671875 
Q 22.40625 -1.21875 19.921875 -1.21875 
Q 16.546875 -1.21875 13.734375 -0.21875 
Q 10.9375 0.78125 8.90625 2.703125 
Q 6.890625 4.640625 5.765625 7.421875 
Q 4.640625 10.203125 4.640625 13.71875 
Q 4.640625 17.1875 5.875 19.921875 
Q 7.125 22.65625 9.375 24.5625 
Q 11.625 26.46875 14.765625 27.484375 
Q 17.921875 28.515625 21.734375 28.515625 
Q 25.34375 28.46875 28.421875 27.875 
Q 31.5 27.296875 33.890625 26.421875 
L 34.078125 26.421875 
L 34.078125 29.640625 
Q 34.078125 31.546875 33.828125 33 
Q 33.59375 34.46875 33.015625 35.59375 
Q 31.734375 37.9375 28.953125 39.46875 
Q 26.171875 41.015625 21.4375 41.015625 
Q 17.921875 41.015625 14.8125 40.359375 
Q 11.71875 39.703125 8.640625 38.53125 
L 8.640625 44.875 
Q 9.8125 45.453125 11.390625 45.96875 
Q 12.984375 46.484375 14.734375 46.84375 
Q 16.5 47.21875 18.453125 47.40625 
Q 20.40625 47.609375 22.359375 47.609375 
Q 29.390625 47.609375 33.859375 45.109375 
Q 38.328125 42.625 40.28125 38.53125 
Q 41.015625 36.96875 41.328125 35.078125 
Q 41.65625 33.203125 41.65625 30.953125 
L 41.65625 0 
L 35.296875 0 
z
M 34.078125 20.359375 
Q 31.984375 20.953125 29.09375 21.484375 
Q 26.21875 22.015625 22.75 22.078125 
Q 17.921875 22.078125 15.1875 20.015625 
Q 12.453125 17.96875 12.453125 13.71875 
Q 12.453125 11.578125 13.125 9.953125 
Q 13.8125 8.34375 15.015625 7.296875 
Q 16.21875 6.25 17.84375 5.734375 
Q 19.484375 5.21875 21.34375 5.21875 
Q 23.78125 5.21875 25.875 5.921875 
Q 27.984375 6.640625 29.609375 7.609375 
Q 31.25 8.59375 32.390625 9.5625 
Q 33.546875 10.546875 34.078125 11.078125 
z
" id="Corbel-61"/>
      <path d="M 41.84375 28.90625 
Q 47.859375 20.265625 53.71875 11.140625 
L 54 11.140625 
Q 53.375 20.65625 53.375 30.5625 
L 53.375 65.328125 
L 61.328125 65.328125 
L 61.328125 0 
L 53.421875 0 
L 27.78125 36.421875 
Q 21.140625 45.953125 15.921875 54.203125 
L 15.625 54.203125 
Q 16.265625 45.265625 16.265625 33.34375 
L 16.265625 0 
L 8.296875 0 
L 8.296875 65.328125 
L 16.21875 65.328125 
z
" id="Corbel-4e"/>
      <path d="M 17.046875 25.34375 
Q 17.046875 31.890625 15.921875 37.453125 
Q 14.796875 43.015625 12.9375 47.65625 
Q 11.078125 52.296875 8.609375 56.03125 
Q 6.15625 59.765625 3.515625 62.640625 
L 7.671875 66.546875 
Q 9.03125 65.375 10.828125 63.390625 
Q 12.640625 61.421875 14.515625 58.65625 
Q 16.40625 55.90625 18.203125 52.40625 
Q 20.015625 48.921875 21.4375 44.75 
Q 22.859375 40.578125 23.734375 35.71875 
Q 24.609375 30.859375 24.609375 25.34375 
Q 24.609375 19.875 23.734375 14.984375 
Q 22.859375 10.109375 21.4375 5.9375 
Q 20.015625 1.765625 18.203125 -1.71875 
Q 16.40625 -5.21875 14.515625 -7.984375 
Q 12.640625 -10.75 10.828125 -12.71875 
Q 9.03125 -14.703125 7.671875 -15.875 
L 3.515625 -11.96875 
Q 6.15625 -9.078125 8.609375 -5.34375 
Q 11.078125 -1.609375 12.9375 3.03125 
Q 14.796875 7.671875 15.921875 13.234375 
Q 17.046875 18.796875 17.046875 25.34375 
" id="Corbel-29"/>
      <path d="M 14.65625 39.9375 
L 14.796875 39.9375 
Q 16.0625 41.546875 17.59375 42.9375 
Q 19.140625 44.34375 21.046875 45.390625 
Q 22.953125 46.4375 25.21875 47.015625 
Q 27.484375 47.609375 30.171875 47.609375 
Q 33.34375 47.609375 36.125 46.71875 
Q 38.921875 45.84375 40.96875 43.890625 
Q 43.015625 41.9375 44.203125 38.78125 
Q 45.40625 35.640625 45.40625 31.0625 
L 45.40625 0 
L 37.84375 0 
L 37.84375 29.828125 
Q 37.84375 35.84375 35.515625 38.46875 
Q 33.203125 41.109375 28.765625 41.109375 
Q 24.859375 41.109375 21.1875 38.9375 
Q 17.53125 36.765625 14.890625 32.953125 
L 14.890625 0 
L 7.328125 0 
L 7.328125 46.390625 
L 13.1875 46.390625 
z
" id="Corbel-6e"/>
      <path d="M 45.21875 0 
L 37.640625 0 
L 37.640625 29.828125 
Q 37.640625 32.859375 36.984375 34.984375 
Q 36.328125 37.109375 35.078125 38.46875 
Q 33.84375 39.84375 32.109375 40.46875 
Q 30.375 41.109375 28.21875 41.109375 
Q 24.171875 41.109375 20.84375 38.9375 
Q 17.53125 36.765625 14.890625 32.953125 
L 14.890625 0 
L 7.328125 0 
L 7.328125 46.390625 
L 13.1875 46.390625 
L 14.65625 39.9375 
L 14.796875 39.9375 
Q 16.0625 41.546875 17.546875 42.9375 
Q 19.046875 44.34375 20.875 45.390625 
Q 22.703125 46.4375 24.890625 47.015625 
Q 27.09375 47.609375 29.6875 47.609375 
Q 34.859375 47.609375 38.28125 45.109375 
Q 41.703125 42.625 43.5625 38.328125 
L 43.75 38.328125 
Q 46.828125 42.671875 50.78125 45.140625 
Q 54.734375 47.609375 60.015625 47.609375 
Q 62.453125 47.609375 65.1875 46.921875 
Q 67.921875 46.234375 70.21875 44.40625 
Q 72.515625 42.578125 74.015625 39.359375 
Q 75.53125 36.140625 75.53125 31.0625 
L 75.53125 0 
L 68.015625 0 
L 68.015625 29.828125 
Q 68.015625 32.859375 67.359375 34.984375 
Q 66.703125 37.109375 65.453125 38.46875 
Q 64.203125 39.84375 62.46875 40.46875 
Q 60.75 41.109375 58.59375 41.109375 
Q 54.546875 41.109375 51.203125 38.9375 
Q 47.859375 36.765625 45.21875 32.953125 
z
" id="Corbel-6d"/>
      <path d="M 40.765625 23.140625 
Q 40.765625 27.4375 39.71875 30.78125 
Q 38.671875 34.125 36.78125 36.4375 
Q 34.90625 38.765625 32.3125 39.953125 
Q 29.734375 41.15625 26.65625 41.15625 
Q 23.578125 41.15625 20.984375 39.953125 
Q 18.40625 38.765625 16.53125 36.4375 
Q 14.65625 34.125 13.59375 30.78125 
Q 12.546875 27.4375 12.546875 23.140625 
Q 12.546875 18.890625 13.59375 15.546875 
Q 14.65625 12.203125 16.546875 9.90625 
Q 18.453125 7.625 21.046875 6.421875 
Q 23.640625 5.21875 26.703125 5.21875 
Q 29.78125 5.21875 32.34375 6.421875 
Q 34.90625 7.625 36.78125 9.90625 
Q 38.671875 12.203125 39.71875 15.546875 
Q 40.765625 18.890625 40.765625 23.140625 
M 48.6875 23.140625 
Q 48.6875 17.671875 47.125 13.171875 
Q 45.5625 8.6875 42.703125 5.484375 
Q 39.84375 2.296875 35.78125 0.53125 
Q 31.734375 -1.21875 26.703125 -1.21875 
Q 21.53125 -1.21875 17.453125 0.53125 
Q 13.375 2.296875 10.515625 5.484375 
Q 7.671875 8.6875 6.15625 13.171875 
Q 4.640625 17.671875 4.640625 23.140625 
Q 4.640625 28.65625 6.203125 33.140625 
Q 7.765625 37.640625 10.625 40.859375 
Q 13.484375 44.09375 17.546875 45.84375 
Q 21.625 47.609375 26.65625 47.609375 
Q 31.78125 47.609375 35.875 45.84375 
Q 39.984375 44.09375 42.8125 40.859375 
Q 45.65625 37.640625 47.171875 33.140625 
Q 48.6875 28.65625 48.6875 23.140625 
" id="Corbel-6f"/>
     </defs>
     <g style="fill:#666666;" transform="translate(108.869375 470.975845099)scale(0.12 -0.12)">
      <use xlink:href="#Corbel-4e"/>
      <use x="69.62890625" xlink:href="#Corbel-75"/>
      <use x="121.38671875" xlink:href="#Corbel-6d"/>
      <use x="204.248046875" xlink:href="#Corbel-62"/>
      <use x="257.8125" xlink:href="#Corbel-65"/>
      <use x="307.568359375" xlink:href="#Corbel-72"/>
      <use x="341.064453125" xlink:href="#Corbel-20"/>
      <use x="361.083984375" xlink:href="#Corbel-28"/>
      <use x="391.064453125" xlink:href="#Corbel-74"/>
      <use x="425.78125" xlink:href="#Corbel-68"/>
      <use x="479.00390625" xlink:href="#Corbel-6f"/>
      <use x="532.32421875" xlink:href="#Corbel-75"/>
      <use x="584.08203125" xlink:href="#Corbel-73"/>
      <use x="624.51171875" xlink:href="#Corbel-61"/>
      <use x="673.486328125" xlink:href="#Corbel-6e"/>
      <use x="726.220703125" xlink:href="#Corbel-64"/>
      <use x="779.78515625" xlink:href="#Corbel-73"/>
      <use x="820.21484375" xlink:href="#Corbel-29"/>
     </g>
    </g>
    <g id="line2d_6">
     <path d="M 238.495625 466.775845 
L 255.295625 466.775845 
" style="fill:none;stroke:#0092cb;stroke-linecap:square;stroke-width:1.5;"/>
    </g>
    <g id="line2d_7"/>
    <g id="text_12">
     <!-- Expenditure (GBP millions) -->
     <defs>
      <path d="M 7.8125 0 
L 7.8125 46.390625 
L 15.375 46.390625 
L 15.375 0 
z
M 7.625 57.171875 
L 7.625 65.625 
L 15.578125 65.625 
L 15.578125 57.171875 
z
" id="Corbel-69"/>
      <path d="M 16.265625 0 
L 8.296875 0 
L 8.296875 65.328125 
L 26.421875 65.328125 
Q 30.46875 65.328125 33.90625 64.84375 
Q 37.359375 64.359375 40.234375 63.328125 
Q 46.09375 61.234375 49.125 57.046875 
Q 52.15625 52.875 52.15625 46.78125 
Q 52.15625 41.796875 50.171875 38.015625 
Q 48.1875 34.234375 44.421875 31.6875 
Q 40.671875 29.15625 35.28125 27.859375 
Q 29.890625 26.5625 23.046875 26.5625 
Q 19.78125 26.5625 16.265625 26.859375 
z
M 16.265625 34.125 
Q 17.875 33.9375 19.625 33.828125 
Q 21.390625 33.734375 22.953125 33.734375 
Q 28.5625 33.734375 32.515625 34.609375 
Q 36.46875 35.5 38.953125 37.1875 
Q 41.453125 38.875 42.578125 41.28125 
Q 43.703125 43.703125 43.703125 46.78125 
Q 43.703125 50.59375 41.875 53.03125 
Q 40.046875 55.46875 36.671875 56.734375 
Q 34.578125 57.515625 31.84375 57.828125 
Q 29.109375 58.15625 25.484375 58.15625 
L 16.265625 58.15625 
z
" id="Corbel-50"/>
      <path d="M 22.953125 28.515625 
L 35.546875 46.390625 
L 43.890625 46.390625 
L 26.953125 23.4375 
L 44.53125 0 
L 36.328125 0 
L 22.75 18.5625 
L 22.5625 18.5625 
L 9.1875 0 
L 0.984375 0 
L 18.5625 23.640625 
L 1.609375 46.390625 
L 9.96875 46.390625 
L 22.75 28.515625 
z
" id="Corbel-78"/>
      <path d="M 51.03125 26.421875 
L 36.140625 26.421875 
L 36.140625 33.59375 
L 58.984375 33.59375 
L 58.984375 2 
Q 57.953125 1.46875 55.96875 0.90625 
Q 54 0.34375 51.453125 -0.140625 
Q 48.921875 -0.640625 46.015625 -0.921875 
Q 43.109375 -1.21875 40.28125 -1.21875 
Q 31.890625 -1.21875 25.46875 1.078125 
Q 19.046875 3.375 14.703125 7.5625 
Q 10.359375 11.765625 8.109375 17.765625 
Q 5.859375 23.78125 5.859375 31.15625 
Q 5.859375 39.15625 8.46875 45.703125 
Q 11.078125 52.25 15.84375 56.890625 
Q 20.609375 61.53125 27.21875 64.03125 
Q 33.84375 66.546875 41.796875 66.546875 
Q 43.953125 66.546875 46.09375 66.375 
Q 48.25 66.21875 50.203125 65.890625 
Q 52.15625 65.578125 53.8125 65.140625 
Q 55.46875 64.703125 56.59375 64.203125 
L 56.59375 57.171875 
Q 53.65625 58.15625 49.84375 58.8125 
Q 46.046875 59.46875 42.234375 59.46875 
Q 36.671875 59.46875 31.609375 57.78125 
Q 26.5625 56.109375 22.703125 52.6875 
Q 18.84375 49.265625 16.546875 44.109375 
Q 14.265625 38.96875 14.265625 32.03125 
Q 14.265625 25.25 16.140625 20.3125 
Q 18.015625 15.375 21.453125 12.15625 
Q 24.90625 8.9375 29.8125 7.390625 
Q 34.71875 5.859375 40.71875 5.859375 
Q 43.5 5.859375 46.203125 6.15625 
Q 48.921875 6.453125 51.03125 6.984375 
z
" id="Corbel-47"/>
      <path d="M 40.53125 23.640625 
Q 40.53125 27.6875 39.671875 30.90625 
Q 38.8125 34.125 37.109375 36.390625 
Q 35.40625 38.671875 32.90625 39.890625 
Q 30.421875 41.109375 27.15625 41.109375 
Q 24.8125 41.109375 22.875 40.46875 
Q 20.953125 39.84375 19.390625 38.859375 
Q 17.828125 37.890625 16.703125 36.765625 
Q 15.578125 35.640625 14.890625 34.765625 
L 14.890625 10.5 
Q 17.28125 8.0625 20.328125 6.640625 
Q 23.390625 5.21875 26.90625 5.21875 
Q 29.046875 5.21875 31.4375 6.03125 
Q 33.84375 6.84375 35.859375 8.90625 
Q 37.890625 10.984375 39.203125 14.546875 
Q 40.53125 18.109375 40.53125 23.640625 
M 48.4375 23.734375 
Q 48.4375 18.890625 47.484375 15.15625 
Q 46.53125 11.421875 44.96875 8.640625 
Q 43.40625 5.859375 41.296875 3.96875 
Q 39.203125 2.09375 36.953125 0.9375 
Q 34.71875 -0.203125 32.390625 -0.703125 
Q 30.078125 -1.21875 28.03125 -1.21875 
Q 23.78125 -1.21875 20.65625 0.171875 
Q 17.53125 1.5625 15.046875 4.296875 
L 14.890625 4.296875 
L 14.890625 -22.703125 
L 7.328125 -22.703125 
L 7.328125 46.390625 
L 13.03125 46.390625 
L 14.65625 41.109375 
L 14.796875 41.109375 
Q 15.4375 42.09375 16.4375 43.015625 
Q 17.4375 43.953125 19.109375 45 
Q 20.796875 46.046875 23.15625 46.828125 
Q 25.53125 47.609375 28.328125 47.609375 
Q 32.234375 47.609375 35.859375 46.28125 
Q 39.5 44.96875 42.28125 42.078125 
Q 45.0625 39.203125 46.75 34.6875 
Q 48.4375 30.171875 48.4375 23.734375 
" id="Corbel-70"/>
      <path d="M 40.53125 33.796875 
Q 43.5625 33.34375 45.96875 32.171875 
Q 48.390625 31 50.125 29.171875 
Q 51.859375 27.34375 52.78125 24.828125 
Q 53.71875 22.3125 53.71875 19.09375 
Q 53.71875 16.796875 53.03125 14.28125 
Q 52.34375 11.765625 50.75 9.390625 
Q 49.171875 7.03125 46.609375 5.03125 
Q 44.046875 3.03125 40.234375 1.765625 
Q 37.3125 0.78125 33.734375 0.390625 
Q 30.171875 0 25.203125 0 
L 8.296875 0 
L 8.296875 65.328125 
L 24.609375 65.328125 
Q 26.859375 65.328125 28.6875 65.25 
Q 30.515625 65.1875 32.046875 65.03125 
Q 33.59375 64.890625 34.90625 64.671875 
Q 36.234375 64.453125 37.40625 64.15625 
Q 40.484375 63.328125 43 61.890625 
Q 45.515625 60.453125 47.265625 58.453125 
Q 49.03125 56.453125 49.96875 53.90625 
Q 50.921875 51.375 50.921875 48.390625 
Q 50.921875 46 50.359375 43.796875 
Q 49.8125 41.609375 48.5625 39.75 
Q 47.3125 37.890625 45.328125 36.421875 
Q 43.359375 34.96875 40.53125 33.984375 
z
M 28.375 37.0625 
Q 30.71875 37.0625 32.421875 37.28125 
Q 34.125 37.5 35.5 37.9375 
Q 39.15625 39.15625 40.84375 41.75 
Q 42.53125 44.34375 42.53125 47.859375 
Q 42.53125 51.46875 40.765625 53.765625 
Q 39.015625 56.0625 35.25 57.171875 
Q 33.40625 57.71875 30.953125 57.9375 
Q 28.515625 58.15625 25.203125 58.15625 
L 16.265625 58.15625 
L 16.265625 37.0625 
z
M 16.265625 29.890625 
L 16.265625 7.171875 
L 25.875 7.171875 
Q 29.296875 7.171875 32.21875 7.484375 
Q 35.15625 7.8125 37.203125 8.5 
Q 39.453125 9.234375 41.015625 10.375 
Q 42.578125 11.53125 43.53125 12.921875 
Q 44.484375 14.3125 44.890625 15.875 
Q 45.3125 17.4375 45.3125 19.046875 
Q 45.3125 20.90625 44.875 22.53125 
Q 44.4375 24.171875 43.4375 25.46875 
Q 42.4375 26.765625 40.796875 27.734375 
Q 39.15625 28.71875 36.71875 29.25 
Q 35.25 29.59375 33.375 29.734375 
Q 31.5 29.890625 28.71875 29.890625 
z
" id="Corbel-42"/>
      <path d="M 7.8125 0 
L 7.8125 70.703125 
L 15.375 70.703125 
L 15.375 0 
z
" id="Corbel-6c"/>
      <path d="M 16.265625 7.171875 
L 49.75 7.171875 
L 49.75 0 
L 8.296875 0 
L 8.296875 65.328125 
L 47.953125 65.328125 
L 47.953125 58.15625 
L 16.265625 58.15625 
L 16.265625 37.0625 
L 44.4375 37.0625 
L 44.4375 29.890625 
L 16.265625 29.890625 
z
" id="Corbel-45"/>
     </defs>
     <g style="fill:#666666;" transform="translate(268.495625 470.975845099)scale(0.12 -0.12)">
      <use xlink:href="#Corbel-45"/>
      <use x="55.126953125" xlink:href="#Corbel-78"/>
      <use x="100.634765625" xlink:href="#Corbel-70"/>
      <use x="153.7109375" xlink:href="#Corbel-65"/>
      <use x="203.466796875" xlink:href="#Corbel-6e"/>
      <use x="256.201171875" xlink:href="#Corbel-64"/>
      <use x="309.765625" xlink:href="#Corbel-69"/>
      <use x="332.958984375" xlink:href="#Corbel-74"/>
      <use x="367.67578125" xlink:href="#Corbel-75"/>
      <use x="419.43359375" xlink:href="#Corbel-72"/>
      <use x="452.9296875" xlink:href="#Corbel-65"/>
      <use x="502.685546875" xlink:href="#Corbel-20"/>
      <use x="522.705078125" xlink:href="#Corbel-28"/>
      <use x="552.685546875" xlink:href="#Corbel-47"/>
      <use x="619.482421875" xlink:href="#Corbel-42"/>
      <use x="678.80859375" xlink:href="#Corbel-50"/>
      <use x="735.83984375" xlink:href="#Corbel-20"/>
      <use x="755.859375" xlink:href="#Corbel-6d"/>
      <use x="838.720703125" xlink:href="#Corbel-69"/>
      <use x="861.9140625" xlink:href="#Corbel-6c"/>
      <use x="885.107421875" xlink:href="#Corbel-6c"/>
      <use x="908.30078125" xlink:href="#Corbel-69"/>
      <use x="931.494140625" xlink:href="#Corbel-6f"/>
      <use x="984.814453125" xlink:href="#Corbel-6e"/>
      <use x="1037.54882812" xlink:href="#Corbel-73"/>
      <use x="1077.97851562" xlink:href="#Corbel-29"/>
     </g>
    </g>
   </g>
  </g>
  <g id="axes_2">
   <g id="matplotlib.axis_3">
    <g id="ytick_2">
     <g id="line2d_8">
      <defs>
       <path d="M 0 0 
L 6 0 
" id="m9a02491d12" style="stroke:#666666;stroke-width:0.7;"/>
      </defs>
      <g>
       <use style="fill:#666666;stroke:#666666;stroke-width:0.7;" x="548.669375" xlink:href="#m9a02491d12" y="387.909340099"/>
      </g>
     </g>
     <g id="text_13">
      <!-- 0.2 -->
      <defs>
       <path d="M 8.546875 0 
L 8.546875 9.515625 
L 17.875 9.515625 
L 17.875 0 
z
" id="Corbel-2e"/>
      </defs>
      <g style="fill:#666666;" transform="translate(562.669375 391.269340099)scale(0.14 -0.14)">
       <use xlink:href="#Corbel-30"/>
       <use x="51.3671875" xlink:href="#Corbel-2e"/>
       <use x="77.783203125" xlink:href="#Corbel-32"/>
      </g>
     </g>
    </g>
    <g id="text_14">
     <!-- Expenditure (GBP millions) -->
     <defs>
      <path d="M 6.640625 47.3125 
L 18.21875 47.3125 
L 18.21875 0 
L 6.640625 0 
z
M 6.34375 70.703125 
L 18.5 70.703125 
L 18.5 58.15625 
L 6.34375 58.15625 
z
" id="Corbel-Bold-69"/>
      <path d="M 28.515625 39.203125 
Q 25.484375 39.15625 22.75 37.71875 
Q 20.015625 36.28125 17.921875 33.84375 
L 17.921875 12.75 
Q 18.65625 11.921875 19.671875 11.078125 
Q 20.703125 10.25 21.96875 9.5625 
Q 23.25 8.890625 24.78125 8.453125 
Q 26.3125 8.015625 27.984375 8.015625 
Q 30.671875 8.015625 32.765625 9.15625 
Q 34.859375 10.296875 36.25 12.390625 
Q 37.640625 14.5 38.375 17.40625 
Q 39.109375 20.3125 39.109375 23.875 
Q 39.109375 27.6875 38.34375 30.5625 
Q 37.59375 33.453125 36.203125 35.34375 
Q 34.8125 37.25 32.859375 38.21875 
Q 30.90625 39.203125 28.515625 39.203125 
M 30.03125 -1.21875 
Q 26.21875 -1.21875 23.109375 0.171875 
Q 20.015625 1.5625 17.96875 3.609375 
L 17.78125 3.609375 
Q 17.828125 2.640625 17.875 0.859375 
Q 17.921875 -0.921875 17.921875 -3.03125 
L 17.921875 -22.703125 
L 6.34375 -22.703125 
L 6.34375 47.3125 
L 16.5 47.3125 
L 17 42 
L 17.1875 42 
Q 19.34375 44.828125 22.703125 46.65625 
Q 26.078125 48.484375 30.515625 48.484375 
Q 34.375 48.484375 38.109375 47.046875 
Q 41.84375 45.609375 44.71875 42.625 
Q 47.609375 39.65625 49.34375 35.109375 
Q 51.078125 30.5625 51.078125 24.3125 
Q 51.078125 17.71875 49.21875 12.90625 
Q 47.359375 8.109375 44.328125 4.953125 
Q 41.3125 1.8125 37.625 0.296875 
Q 33.9375 -1.21875 30.03125 -1.21875 
" id="Corbel-Bold-70"/>
      <path d="M 48.4375 24.953125 
L 33.796875 24.953125 
L 33.796875 34.96875 
L 60.40625 34.96875 
L 60.40625 2 
Q 58.9375 1.46875 56.65625 0.875 
Q 54.390625 0.296875 51.578125 -0.171875 
Q 48.78125 -0.640625 45.796875 -0.921875 
Q 42.828125 -1.21875 39.890625 -1.21875 
Q 31.109375 -1.21875 24.53125 1.140625 
Q 17.96875 3.515625 13.59375 7.8125 
Q 9.234375 12.109375 7.0625 18.03125 
Q 4.890625 23.96875 4.890625 31.15625 
Q 4.890625 36.234375 6.03125 40.84375 
Q 7.171875 45.453125 9.390625 49.390625 
Q 11.625 53.328125 14.796875 56.5 
Q 17.96875 59.671875 22.046875 61.90625 
Q 26.125 64.15625 30.984375 65.34375 
Q 35.84375 66.546875 41.40625 66.546875 
Q 46.34375 66.546875 50.78125 65.84375 
Q 55.21875 65.140625 58.0625 64.109375 
L 58.0625 53.953125 
Q 54.25 55.171875 50.359375 55.8125 
Q 46.484375 56.453125 42.53125 56.453125 
Q 37.203125 56.453125 32.5625 54.859375 
Q 27.9375 53.265625 24.53125 50.171875 
Q 21.140625 47.078125 19.1875 42.53125 
Q 17.234375 37.984375 17.234375 32.03125 
Q 17.28125 20.453125 23.28125 14.671875 
Q 29.296875 8.890625 40.328125 8.890625 
Q 42.390625 8.890625 44.578125 9.109375 
Q 46.78125 9.328125 48.4375 9.671875 
z
" id="Corbel-Bold-47"/>
      <path d="M 19.78125 10.015625 
L 51.90625 10.015625 
L 51.90625 0 
L 7.8125 0 
L 7.8125 65.328125 
L 50.140625 65.328125 
L 50.140625 55.328125 
L 19.78125 55.328125 
L 19.78125 38.421875 
L 45.84375 38.421875 
L 45.84375 28.421875 
L 19.78125 28.421875 
z
" id="Corbel-Bold-45"/>
      <path d="M 55.125 47.953125 
Q 55.125 43.703125 53.21875 40.15625 
Q 51.3125 36.625 46.921875 34.28125 
L 46.921875 34.078125 
Q 49.359375 33.25 51.390625 31.953125 
Q 53.421875 30.671875 54.859375 28.875 
Q 56.296875 27.09375 57.09375 24.84375 
Q 57.90625 22.609375 57.90625 19.828125 
Q 57.90625 17.4375 57.140625 14.703125 
Q 56.390625 11.96875 54.484375 9.40625 
Q 52.59375 6.84375 49.40625 4.6875 
Q 46.234375 2.546875 41.40625 1.265625 
Q 40.1875 0.984375 38.75 0.734375 
Q 37.3125 0.484375 35.546875 0.3125 
Q 33.796875 0.140625 31.640625 0.0625 
Q 29.5 0 26.8125 0 
L 7.8125 0 
L 7.8125 65.328125 
L 30.515625 65.328125 
Q 37.796875 65.328125 42.234375 63.875 
Q 45.5625 62.796875 48 61.0625 
Q 50.4375 59.328125 52.015625 57.203125 
Q 53.609375 55.078125 54.359375 52.703125 
Q 55.125 50.34375 55.125 47.953125 
M 19.78125 28.421875 
L 19.78125 10.015625 
L 27.59375 10.015625 
Q 30.71875 10.015625 32.953125 10.1875 
Q 35.203125 10.359375 36.8125 10.75 
Q 39.3125 11.28125 40.96875 12.1875 
Q 42.625 13.09375 43.640625 14.234375 
Q 44.671875 15.375 45.109375 16.765625 
Q 45.5625 18.171875 45.5625 19.734375 
Q 45.5625 22.46875 44.046875 24.515625 
Q 42.53125 26.5625 39.3125 27.59375 
Q 37.890625 28.03125 35.984375 28.21875 
Q 34.078125 28.421875 31.109375 28.421875 
z
M 30.5625 38.421875 
Q 35.453125 38.421875 37.84375 39.40625 
Q 40.53125 40.53125 41.671875 42.5 
Q 42.828125 44.484375 42.828125 46.96875 
Q 42.828125 49.5625 41.5 51.578125 
Q 40.1875 53.609375 37.015625 54.59375 
Q 35.6875 54.984375 33.921875 55.15625 
Q 32.171875 55.328125 29.59375 55.328125 
L 19.78125 55.328125 
L 19.78125 38.421875 
z
" id="Corbel-Bold-42"/>
      <path d="M 25.875 25.296875 
Q 24.265625 25.296875 22.703125 25.34375 
Q 21.140625 25.390625 19.78125 25.53125 
L 19.78125 0 
L 7.8125 0 
L 7.8125 65.328125 
L 26.65625 65.328125 
Q 31.390625 65.328125 34.9375 64.90625 
Q 38.484375 64.5 41.265625 63.671875 
Q 47.953125 61.625 51.5625 57.125 
Q 55.171875 52.640625 55.171875 45.703125 
Q 55.171875 40.96875 53.21875 37.1875 
Q 51.265625 33.40625 47.5 30.765625 
Q 43.75 28.125 38.328125 26.703125 
Q 32.90625 25.296875 25.875 25.296875 
M 19.78125 35.59375 
Q 20.796875 35.453125 22.375 35.375 
Q 23.96875 35.296875 25.6875 35.296875 
Q 30.515625 35.296875 33.78125 36.078125 
Q 37.0625 36.859375 39.0625 38.25 
Q 41.0625 39.65625 41.9375 41.625 
Q 42.828125 43.609375 42.828125 45.953125 
Q 42.828125 48.828125 41.5 50.921875 
Q 40.1875 53.03125 36.921875 54.203125 
Q 35.203125 54.78125 32.6875 55.046875 
Q 30.171875 55.328125 26.515625 55.328125 
L 19.78125 55.328125 
z
" id="Corbel-Bold-50"/>
      <path d="M 25.984375 16.453125 
L 13.765625 0 
L 0.484375 0 
L 19.1875 24.125 
L 1.609375 47.3125 
L 15.234375 47.3125 
L 26.265625 31.6875 
L 37.5 47.3125 
L 51.171875 47.3125 
L 33.109375 24.171875 
L 51.65625 0 
L 38.140625 0 
z
" id="Corbel-Bold-78"/>
      <path d="M 6.84375 0 
L 6.84375 70.703125 
L 18.40625 70.703125 
L 18.40625 0 
z
" id="Corbel-Bold-6c"/>
     </defs>
     <g style="fill:#0092cb;" transform="translate(595.6103125 279.428715099)rotate(-90.0)scale(0.14 -0.14)">
      <use xlink:href="#Corbel-Bold-45"/>
      <use x="56.787109375" xlink:href="#Corbel-Bold-78"/>
      <use x="108.935546875" xlink:href="#Corbel-Bold-70"/>
      <use x="163.916015625" xlink:href="#Corbel-Bold-65"/>
      <use x="215.185546875" xlink:href="#Corbel-Bold-6e"/>
      <use x="270.654296875" xlink:href="#Corbel-Bold-64"/>
      <use x="326.416015625" xlink:href="#Corbel-Bold-69"/>
      <use x="351.26953125" xlink:href="#Corbel-Bold-74"/>
      <use x="389.208984375" xlink:href="#Corbel-Bold-75"/>
      <use x="443.701171875" xlink:href="#Corbel-Bold-72"/>
      <use x="478.662109375" xlink:href="#Corbel-Bold-65"/>
      <use x="529.931640625" xlink:href="#Corbel-Bold-20"/>
      <use x="550.537109375" xlink:href="#Corbel-Bold-28"/>
      <use x="581.103515625" xlink:href="#Corbel-Bold-47"/>
      <use x="648.33984375" xlink:href="#Corbel-Bold-42"/>
      <use x="710.64453125" xlink:href="#Corbel-Bold-50"/>
      <use x="770.703125" xlink:href="#Corbel-Bold-20"/>
      <use x="791.30859375" xlink:href="#Corbel-Bold-6d"/>
      <use x="876.513671875" xlink:href="#Corbel-Bold-69"/>
      <use x="901.3671875" xlink:href="#Corbel-Bold-6c"/>
      <use x="926.611328125" xlink:href="#Corbel-Bold-6c"/>
      <use x="951.85546875" xlink:href="#Corbel-Bold-69"/>
      <use x="976.708984375" xlink:href="#Corbel-Bold-6f"/>
      <use x="1032.08007812" xlink:href="#Corbel-Bold-6e"/>
      <use x="1087.54882812" xlink:href="#Corbel-Bold-73"/>
      <use x="1129.93164062" xlink:href="#Corbel-Bold-29"/>
     </g>
    </g>
   </g>
   <g id="line2d_9">
    <path clip-path="url(#p47c02e5f61)" d="M 79.221549 377.174979 
L 224.786766 340.465434 
L 370.351984 220.739211 
L 515.917201 30.684375 
" style="fill:none;stroke:#0092cb;stroke-linecap:square;stroke-width:1.5;"/>
   </g>
   <g id="patch_11">
    <path d="M 548.669375 387.90934 
L 548.669375 8.46934 
" style="fill:none;stroke:#666666;stroke-linecap:square;stroke-linejoin:miter;stroke-width:0.5;"/>
   </g>
   <g id="patch_12">
    <path d="M 46.469375 387.90934 
L 548.669375 387.90934 
" style="fill:none;stroke:#666666;stroke-linecap:square;stroke-linejoin:miter;stroke-width:0.5;"/>
   </g>
   <g id="patch_13">
    <path d="M 46.469375 387.90934 
L 46.469375 8.46934 
" style="fill:none;stroke:#666666;stroke-linecap:square;stroke-linejoin:miter;stroke-width:0.5;"/>
   </g>
   <g id="patch_14">
    <path d="M 190.190963 329.07124 
Q 206.540774 334.456081 222.890585 339.840923 
" style="fill:none;stroke:#666666;stroke-linecap:round;"/>
   </g>
   <g id="text_15">
    <!-- +42% -->
    <defs>
     <path d="M 41.84375 32.859375 
Q 41.84375 29.34375 40.40625 26.3125 
Q 38.96875 23.296875 36.453125 20.5 
Q 33.9375 17.71875 30.46875 15.0625 
Q 27 12.40625 22.953125 9.625 
L 22.953125 9.421875 
Q 29.6875 9.8125 32.953125 9.8125 
L 45.75 9.8125 
L 45.75 0 
L 4.390625 0 
L 4.390625 7.078125 
Q 9.515625 10.59375 14.15625 13.984375 
Q 18.796875 17.390625 22.28125 20.484375 
Q 25.78125 23.578125 27.828125 26.5 
Q 29.890625 29.4375 29.890625 32.28125 
Q 29.890625 33.984375 29.25 35.15625 
Q 28.609375 36.328125 27.453125 37.078125 
Q 26.3125 37.84375 24.78125 38.1875 
Q 23.25 38.53125 21.4375 38.53125 
Q 17.921875 38.53125 13.671875 37.40625 
Q 9.421875 36.28125 4.890625 34.078125 
L 4.890625 43.890625 
Q 6.453125 44.734375 8.421875 45.53125 
Q 10.40625 46.34375 12.6875 47 
Q 14.984375 47.65625 17.59375 48.0625 
Q 20.21875 48.484375 23 48.484375 
Q 27.15625 48.484375 30.609375 47.453125 
Q 34.078125 46.4375 36.5625 44.453125 
Q 39.0625 42.484375 40.453125 39.578125 
Q 41.84375 36.671875 41.84375 32.859375 
" id="Corbel-Bold-32"/>
     <path d="M 15.53125 9.515625 
L 15.625 9.375 
Q 19.578125 9.8125 24.953125 9.8125 
L 30.03125 9.8125 
L 30.03125 21.921875 
L 41.609375 21.921875 
L 41.609375 9.8125 
L 50.09375 9.8125 
L 50.09375 0 
L 41.609375 0 
L 41.609375 -18.890625 
L 30.03125 -18.890625 
L 30.03125 0 
L 3.171875 0 
L 3.171875 8.25 
L 21 47.3125 
L 32.8125 47.3125 
z
" id="Corbel-Bold-34"/>
    </defs>
    <g style="fill:#0092cb;" transform="translate(156.209891304 325.465433623)scale(0.12 -0.12)">
     <use xlink:href="#Corbel-Bold-2b"/>
     <use x="52.734375" xlink:href="#Corbel-Bold-34"/>
     <use x="105.517578125" xlink:href="#Corbel-Bold-32"/>
     <use x="155.419921875" xlink:href="#Corbel-Bold-25"/>
    </g>
   </g>
   <g id="patch_15">
    <path d="M 335.753611 209.359499 
Q 352.104636 214.737496 368.455662 220.115494 
" style="fill:none;stroke:#666666;stroke-linecap:round;"/>
   </g>
   <g id="text_16">
    <!-- +97% -->
    <defs>
     <path d="M 19.484375 -10.25 
Q 27.390625 -10.25 32.078125 -5.5625 
Q 36.765625 -0.875 38.09375 9.328125 
L 37.890625 9.328125 
Q 35.40625 8.0625 32.125 7.390625 
Q 28.859375 6.734375 25.34375 6.734375 
Q 21 6.734375 17.203125 8 
Q 13.421875 9.28125 10.640625 11.796875 
Q 7.859375 14.3125 6.25 18.046875 
Q 4.640625 21.78125 4.640625 26.65625 
Q 4.640625 31.296875 6.09375 35.28125 
Q 7.5625 39.265625 10.375 42.1875 
Q 13.1875 45.125 17.28125 46.796875 
Q 21.390625 48.484375 26.65625 48.484375 
Q 32.421875 48.484375 36.84375 46.4375 
Q 41.265625 44.390625 44.28125 40.421875 
Q 47.3125 36.46875 48.875 30.6875 
Q 50.4375 24.90625 50.4375 17.4375 
Q 50.4375 12.453125 49.734375 7.71875 
Q 49.03125 2.984375 47.484375 -1.1875 
Q 45.953125 -5.375 43.578125 -8.859375 
Q 41.21875 -12.359375 37.859375 -14.875 
Q 34.515625 -17.390625 30.171875 -18.78125 
Q 25.828125 -20.171875 20.40625 -20.171875 
Q 16.265625 -20.171875 12.53125 -19.390625 
Q 8.796875 -18.609375 5.953125 -17.1875 
L 5.953125 -7.078125 
Q 9.125 -8.640625 12.734375 -9.4375 
Q 16.359375 -10.25 19.484375 -10.25 
M 26.8125 16.65625 
Q 29.734375 16.65625 32.78125 17.28125 
Q 35.84375 17.921875 38.421875 19.28125 
Q 38.328125 24.609375 37.390625 28.296875 
Q 36.46875 31.984375 34.90625 34.25 
Q 33.34375 36.53125 31.1875 37.546875 
Q 29.046875 38.578125 26.46875 38.578125 
Q 24.3125 38.578125 22.5 37.890625 
Q 20.703125 37.203125 19.375 35.8125 
Q 18.0625 34.421875 17.328125 32.3125 
Q 16.609375 30.21875 16.609375 27.390625 
Q 16.609375 24.421875 17.328125 22.359375 
Q 18.0625 20.3125 19.421875 19.046875 
Q 20.796875 17.78125 22.671875 17.21875 
Q 24.5625 16.65625 26.8125 16.65625 
" id="Corbel-Bold-39"/>
     <path d="M 2.875 36.765625 
L 2.875 47.3125 
L 45.125 47.3125 
L 45.125 39.40625 
L 17.484375 -18.890625 
L 5.609375 -18.890625 
L 31.984375 36.765625 
z
" id="Corbel-Bold-37"/>
    </defs>
    <g style="fill:#0092cb;" transform="translate(301.628858696 205.739210633)scale(0.12 -0.12)">
     <use xlink:href="#Corbel-Bold-2b"/>
     <use x="52.734375" xlink:href="#Corbel-Bold-39"/>
     <use x="107.8125" xlink:href="#Corbel-Bold-37"/>
     <use x="156.640625" xlink:href="#Corbel-Bold-25"/>
    </g>
   </g>
   <g id="patch_16">
    <path d="M 481.319212 19.31087 
Q 497.670056 24.685934 514.0209 30.060998 
" style="fill:none;stroke:#666666;stroke-linecap:round;"/>
   </g>
   <g id="text_17">
    <!-- +78% -->
    <g style="fill:#0092cb;" transform="translate(447.135951087 15.684375)scale(0.12 -0.12)">
     <use xlink:href="#Corbel-Bold-2b"/>
     <use x="52.734375" xlink:href="#Corbel-Bold-37"/>
     <use x="101.5625" xlink:href="#Corbel-Bold-38"/>
     <use x="157.12890625" xlink:href="#Corbel-Bold-25"/>
    </g>
   </g>
  </g>
 </g>
 <defs>
  <clipPath id="p47c02e5f61">
   <rect height="379.44" width="502.2" x="46.469375" y="8.46934009877"/>
  </clipPath>
 </defs>
</svg>
