<?xml version="1.0" encoding="utf-8" standalone="no"?>
<!DOCTYPE svg PUBLIC "-//W3C//DTD SVG 1.1//EN"
  "http://www.w3.org/Graphics/SVG/1.1/DTD/svg11.dtd">
<!-- Created with matplotlib (http://matplotlib.org/) -->
<svg height="420pt" version="1.1" viewBox="0 0 628 420" width="628pt" xmlns="http://www.w3.org/2000/svg" xmlns:xlink="http://www.w3.org/1999/xlink">
 <defs>
  <style type="text/css">
*{stroke-linecap:butt;stroke-linejoin:round;stroke-miterlimit:100000;}
  </style>
 </defs>
 <g id="figure_1">
  <g id="patch_1">
   <path d="M 0 420.916875 
L 628.3825 420.916875 
L 628.3825 0 
L 0 0 
z
" style="fill:#ffffff;"/>
  </g>
  <g id="axes_1">
   <g id="patch_2">
    <path d="M 49.202188 386.64 
L 607.202188 386.64 
L 607.202188 7.2 
L 49.202188 7.2 
z
" style="fill:#ffffff;"/>
   </g>
   <g id="matplotlib.axis_1">
    <g id="xtick_1">
     <g id="line2d_1">
      <defs>
       <path d="M 0 0 
L 0 6 
" id="m2458a1748d" style="stroke:#666666;stroke-width:0.7;"/>
      </defs>
      <g>
       <use style="fill:#666666;stroke:#666666;stroke-width:0.7;" x="49.2021875" xlink:href="#m2458a1748d" y="386.64"/>
      </g>
     </g>
     <g id="text_1">
      <!-- 2013 -->
      <defs>
       <path d="M 19.921875 6.6875 
Q 25.53125 6.984375 30.03125 6.984375 
L 45.265625 6.984375 
L 45.265625 0 
L 7.5625 0 
L 7.5625 5.03125 
Q 13.1875 9.1875 17.921875 12.765625 
Q 22.65625 16.359375 26.09375 19.65625 
Q 29.546875 22.953125 31.5 26.078125 
Q 33.453125 29.203125 33.453125 32.375 
Q 33.453125 36.625 30.71875 38.859375 
Q 27.984375 41.109375 22.859375 41.109375 
Q 19.046875 41.0625 15.453125 39.984375 
Q 11.859375 38.921875 8.0625 37.15625 
L 8.0625 43.609375 
Q 10.84375 45.21875 14.921875 46.40625 
Q 19 47.609375 23.875 47.609375 
Q 27.734375 47.609375 30.921875 46.625 
Q 34.125 45.65625 36.4375 43.765625 
Q 38.765625 41.890625 40.03125 39.125 
Q 41.3125 36.375 41.3125 32.765625 
Q 41.3125 28.90625 39.640625 25.5625 
Q 37.984375 22.21875 35.109375 19.140625 
Q 32.234375 16.0625 28.328125 13.0625 
Q 24.421875 10.0625 19.921875 6.890625 
z
" id="Corbel-32"/>
       <path d="M 27.25 15.046875 
Q 29.828125 14.796875 32.203125 13.765625 
Q 34.578125 12.75 36.40625 10.84375 
Q 38.234375 8.9375 39.328125 6.15625 
Q 40.4375 3.375 40.4375 -0.390625 
Q 40.4375 -4.890625 38.921875 -8.546875 
Q 37.40625 -12.203125 34.46875 -14.796875 
Q 31.546875 -17.390625 27.21875 -18.78125 
Q 22.90625 -20.171875 17.234375 -20.171875 
Q 13.28125 -20.171875 9.6875 -19.4375 
Q 6.109375 -18.703125 3.328125 -17.28125 
L 3.328125 -10.84375 
Q 6.84375 -12.359375 10.25 -13.015625 
Q 13.671875 -13.671875 16.703125 -13.671875 
Q 21.1875 -13.671875 24.21875 -12.5625 
Q 27.25 -11.46875 29.078125 -9.65625 
Q 30.90625 -7.859375 31.703125 -5.484375 
Q 32.515625 -3.125 32.515625 -0.53125 
Q 32.515625 5.8125 28.46875 8.609375 
Q 24.421875 11.421875 16.75 11.421875 
L 11.578125 11.421875 
L 11.578125 17.921875 
L 14.59375 17.921875 
Q 18.796875 17.921875 21.796875 18.875 
Q 24.8125 19.828125 26.765625 21.5 
Q 28.71875 23.1875 29.609375 25.453125 
Q 30.515625 27.734375 30.515625 30.375 
Q 30.515625 33.15625 29.515625 35.171875 
Q 28.515625 37.203125 26.78125 38.515625 
Q 25.046875 39.84375 22.703125 40.46875 
Q 20.359375 41.109375 17.671875 41.109375 
Q 14.359375 41.109375 10.984375 40.328125 
Q 7.625 39.546875 4.34375 38.234375 
L 4.34375 44.671875 
Q 8.34375 46.34375 11.984375 46.96875 
Q 15.625 47.609375 18.40625 47.609375 
Q 23.140625 47.609375 26.84375 46.328125 
Q 30.5625 45.0625 33.125 42.765625 
Q 35.6875 40.484375 37.046875 37.359375 
Q 38.421875 34.234375 38.421875 30.46875 
Q 38.421875 27.984375 37.828125 25.640625 
Q 37.25 23.296875 35.90625 21.28125 
Q 34.578125 19.28125 32.453125 17.71875 
Q 30.328125 16.15625 27.25 15.234375 
z
" id="Corbel-33"/>
       <path d="M 39.0625 23.140625 
Q 39.0625 27.34375 38.109375 30.6875 
Q 37.15625 34.03125 35.421875 36.34375 
Q 33.6875 38.671875 31.21875 39.90625 
Q 28.765625 41.15625 25.6875 41.15625 
Q 22.609375 41.15625 20.140625 39.90625 
Q 17.671875 38.671875 15.90625 36.34375 
Q 14.15625 34.03125 13.234375 30.6875 
Q 12.3125 27.34375 12.3125 23.140625 
Q 12.3125 19 13.25 15.65625 
Q 14.203125 12.3125 15.9375 10.015625 
Q 17.671875 7.71875 20.15625 6.46875 
Q 22.65625 5.21875 25.734375 5.21875 
Q 28.8125 5.21875 31.265625 6.46875 
Q 33.734375 7.71875 35.46875 10.015625 
Q 37.203125 12.3125 38.125 15.65625 
Q 39.0625 19 39.0625 23.140625 
M 46.96875 23.140625 
Q 46.96875 17.96875 45.53125 13.5 
Q 44.09375 9.03125 41.359375 5.75 
Q 38.625 2.484375 34.6875 0.625 
Q 30.765625 -1.21875 25.734375 -1.21875 
Q 20.5625 -1.21875 16.578125 0.625 
Q 12.59375 2.484375 9.875 5.75 
Q 7.171875 9.03125 5.78125 13.5 
Q 4.390625 17.96875 4.390625 23.140625 
Q 4.390625 28.375 5.828125 32.84375 
Q 7.28125 37.3125 10.015625 40.59375 
Q 12.75 43.890625 16.703125 45.75 
Q 20.65625 47.609375 25.6875 47.609375 
Q 30.8125 47.609375 34.78125 45.75 
Q 38.765625 43.890625 41.46875 40.59375 
Q 44.1875 37.3125 45.578125 32.84375 
Q 46.96875 28.375 46.96875 23.140625 
" id="Corbel-30"/>
       <path d="M 22.015625 6.984375 
L 22.015625 38.328125 
L 4.390625 32.8125 
L 4.390625 39.84375 
L 23.046875 46.390625 
L 29.59375 46.390625 
L 29.59375 6.984375 
L 42.390625 6.984375 
L 42.390625 0 
L 6.453125 0 
L 6.453125 6.984375 
z
" id="Corbel-31"/>
      </defs>
      <g style="fill:#666666;" transform="translate(35.720625 410.5384375)scale(0.14 -0.14)">
       <use xlink:href="#Corbel-32"/>
       <use x="51.07421875" xlink:href="#Corbel-30"/>
       <use x="102.44140625" xlink:href="#Corbel-31"/>
       <use x="147.265625" xlink:href="#Corbel-33"/>
      </g>
     </g>
    </g>
    <g id="xtick_2">
     <g id="line2d_2">
      <g>
       <use style="fill:#666666;stroke:#666666;stroke-width:0.7;" x="235.2021875" xlink:href="#m2458a1748d" y="386.64"/>
      </g>
     </g>
     <g id="text_2">
      <!-- 2014 -->
      <defs>
       <path d="M 13.140625 6.5 
L 13.140625 6.296875 
L 20.359375 6.5 
L 31.0625 6.5 
L 31.0625 21.34375 
L 38.625 21.34375 
L 38.625 6.5 
L 48.25 6.5 
L 48.25 0 
L 38.625 0 
L 38.625 -18.890625 
L 31.0625 -18.890625 
L 31.0625 0 
L 4.5 0 
L 4.5 5.5625 
L 23.734375 46.390625 
L 31.890625 46.390625 
z
" id="Corbel-34"/>
      </defs>
      <g style="fill:#666666;" transform="translate(221.2765625 410.5384375)scale(0.14 -0.14)">
       <use xlink:href="#Corbel-32"/>
       <use x="51.07421875" xlink:href="#Corbel-30"/>
       <use x="102.44140625" xlink:href="#Corbel-31"/>
       <use x="147.265625" xlink:href="#Corbel-34"/>
      </g>
     </g>
    </g>
    <g id="xtick_3">
     <g id="line2d_3">
      <g>
       <use style="fill:#666666;stroke:#666666;stroke-width:0.7;" x="421.2021875" xlink:href="#m2458a1748d" y="386.64"/>
      </g>
     </g>
     <g id="text_3">
      <!-- 2015 -->
      <defs>
       <path d="M 42.875 0.640625 
Q 42.875 -3.859375 41.234375 -7.65625 
Q 39.59375 -11.46875 36.5 -14.25 
Q 33.40625 -17.046875 28.953125 -18.609375 
Q 24.515625 -20.171875 18.84375 -20.171875 
Q 15.140625 -20.171875 11.765625 -19.453125 
Q 8.40625 -18.75 5.71875 -17.28125 
L 5.71875 -10.84375 
Q 9.328125 -12.453125 12.546875 -13.015625 
Q 15.765625 -13.578125 18.5 -13.578125 
Q 22.65625 -13.578125 25.734375 -12.46875 
Q 28.8125 -11.375 30.859375 -9.46875 
Q 32.90625 -7.5625 33.9375 -5.046875 
Q 34.96875 -2.546875 34.96875 0.25 
Q 34.96875 3.609375 33.90625 6.078125 
Q 32.859375 8.546875 30.609375 10.171875 
Q 28.375 11.8125 24.859375 12.609375 
Q 21.34375 13.421875 16.359375 13.421875 
Q 12.84375 13.421875 7.859375 12.9375 
L 12.5 46.390625 
L 42.828125 46.390625 
L 42.828125 39.40625 
L 19.1875 39.40625 
L 16.453125 20.015625 
Q 18.171875 20.125 19.1875 20.125 
Q 24.90625 20.125 29.3125 18.796875 
Q 33.734375 17.484375 36.734375 14.984375 
Q 39.75 12.5 41.3125 8.890625 
Q 42.875 5.28125 42.875 0.640625 
" id="Corbel-35"/>
      </defs>
      <g style="fill:#666666;" transform="translate(407.5325 410.5384375)scale(0.14 -0.14)">
       <use xlink:href="#Corbel-32"/>
       <use x="51.07421875" xlink:href="#Corbel-30"/>
       <use x="102.44140625" xlink:href="#Corbel-31"/>
       <use x="147.265625" xlink:href="#Corbel-35"/>
      </g>
     </g>
    </g>
    <g id="xtick_4">
     <g id="line2d_4">
      <g>
       <use style="fill:#666666;stroke:#666666;stroke-width:0.7;" x="607.2021875" xlink:href="#m2458a1748d" y="386.64"/>
      </g>
     </g>
     <g id="text_4">
      <!-- 2016 -->
      <defs>
       <path d="M 27.546875 39.359375 
Q 31.890625 39.359375 35.578125 38.109375 
Q 39.265625 36.859375 41.921875 34.421875 
Q 44.578125 31.984375 46.0625 28.390625 
Q 47.5625 24.8125 47.5625 20.125 
Q 47.5625 15.4375 46.171875 11.5 
Q 44.78125 7.5625 42.140625 4.75 
Q 39.5 1.953125 35.6875 0.359375 
Q 31.890625 -1.21875 27.046875 -1.21875 
Q 21.921875 -1.21875 17.890625 0.828125 
Q 13.875 2.875 11.078125 6.6875 
Q 8.296875 10.5 6.828125 15.921875 
Q 5.375 21.34375 5.375 28.078125 
Q 5.375 33.25 6.171875 38.109375 
Q 6.984375 42.96875 8.5625 47.234375 
Q 10.15625 51.515625 12.46875 55.046875 
Q 14.796875 58.59375 17.875 61.15625 
Q 20.953125 63.71875 24.75 65.125 
Q 28.5625 66.546875 33.0625 66.546875 
Q 36.765625 66.5 39.453125 65.8125 
Q 42.140625 65.140625 43.953125 64.265625 
L 43.953125 57.90625 
Q 42 58.6875 39.265625 59.328125 
Q 36.53125 59.96875 33.59375 59.96875 
Q 30.078125 59.96875 26.78125 58.515625 
Q 23.484375 57.078125 20.796875 54.078125 
Q 18.109375 51.078125 16.234375 46.453125 
Q 14.359375 41.84375 13.625 35.5 
L 13.8125 35.5 
Q 16.890625 37.25 20.5 38.296875 
Q 24.125 39.359375 27.546875 39.359375 
M 27.34375 5.21875 
Q 29.9375 5.21875 32.171875 6.140625 
Q 34.421875 7.078125 36.078125 8.875 
Q 37.75 10.6875 38.703125 13.34375 
Q 39.65625 16.015625 39.65625 19.4375 
Q 39.65625 23.09375 38.640625 25.609375 
Q 37.640625 28.125 35.90625 29.6875 
Q 34.1875 31.25 31.859375 31.9375 
Q 29.546875 32.625 26.90625 32.625 
Q 23.4375 32.625 19.828125 31.390625 
Q 16.21875 30.171875 13.28125 28.421875 
Q 13.234375 22.5625 14.28125 18.1875 
Q 15.328125 13.8125 17.1875 10.9375 
Q 19.046875 8.0625 21.65625 6.640625 
Q 24.265625 5.21875 27.34375 5.21875 
" id="Corbel-36"/>
      </defs>
      <g style="fill:#666666;" transform="translate(593.221875 410.5384375)scale(0.14 -0.14)">
       <use xlink:href="#Corbel-32"/>
       <use x="51.07421875" xlink:href="#Corbel-30"/>
       <use x="102.44140625" xlink:href="#Corbel-31"/>
       <use x="147.265625" xlink:href="#Corbel-36"/>
      </g>
     </g>
    </g>
   </g>
   <g id="matplotlib.axis_2">
    <g id="ytick_1">
     <g id="line2d_5">
      <path clip-path="url(#pd61092b920)" d="M 49.202188 386.64 
L 607.202188 386.64 
" style="fill:none;stroke:#666666;stroke-linecap:square;stroke-width:0.7;"/>
     </g>
     <g id="line2d_6">
      <defs>
       <path d="M 0 0 
L -6 0 
" id="me952ccfa4d" style="stroke:#666666;stroke-width:0.7;"/>
      </defs>
      <g>
       <use style="fill:#666666;stroke:#666666;stroke-width:0.7;" x="49.2021875" xlink:href="#me952ccfa4d" y="386.64"/>
      </g>
     </g>
     <g id="line2d_7">
      <defs>
       <path d="M 0 0 
L 6 0 
" id="m3b577d6c8f" style="stroke:#666666;stroke-width:0.7;"/>
      </defs>
      <g>
       <use style="fill:#666666;stroke:#666666;stroke-width:0.7;" x="607.2021875" xlink:href="#m3b577d6c8f" y="386.64"/>
      </g>
     </g>
     <g id="text_5">
      <!-- 0 -->
      <g style="fill:#666666;" transform="translate(28.0096875 390.0)scale(0.14 -0.14)">
       <use xlink:href="#Corbel-30"/>
      </g>
     </g>
    </g>
    <g id="ytick_2">
     <g id="line2d_8">
      <path clip-path="url(#pd61092b920)" d="M 49.202188 343.521818 
L 607.202188 343.521818 
" style="fill:none;stroke:#666666;stroke-linecap:square;stroke-width:0.7;"/>
     </g>
     <g id="line2d_9">
      <g>
       <use style="fill:#666666;stroke:#666666;stroke-width:0.7;" x="49.2021875" xlink:href="#me952ccfa4d" y="343.521818182"/>
      </g>
     </g>
     <g id="line2d_10">
      <g>
       <use style="fill:#666666;stroke:#666666;stroke-width:0.7;" x="607.2021875" xlink:href="#m3b577d6c8f" y="343.521818182"/>
      </g>
     </g>
     <g id="text_6">
      <!-- 200 -->
      <g style="fill:#666666;" transform="translate(13.66625 346.881818182)scale(0.14 -0.14)">
       <use xlink:href="#Corbel-32"/>
       <use x="51.07421875" xlink:href="#Corbel-30"/>
       <use x="102.44140625" xlink:href="#Corbel-30"/>
      </g>
     </g>
    </g>
    <g id="ytick_3">
     <g id="line2d_11">
      <path clip-path="url(#pd61092b920)" d="M 49.202188 300.403636 
L 607.202188 300.403636 
" style="fill:none;stroke:#666666;stroke-linecap:square;stroke-width:0.7;"/>
     </g>
     <g id="line2d_12">
      <g>
       <use style="fill:#666666;stroke:#666666;stroke-width:0.7;" x="49.2021875" xlink:href="#me952ccfa4d" y="300.403636364"/>
      </g>
     </g>
     <g id="line2d_13">
      <g>
       <use style="fill:#666666;stroke:#666666;stroke-width:0.7;" x="607.2021875" xlink:href="#m3b577d6c8f" y="300.403636364"/>
      </g>
     </g>
     <g id="text_7">
      <!-- 400 -->
      <g style="fill:#666666;" transform="translate(13.5853125 303.763636364)scale(0.14 -0.14)">
       <use xlink:href="#Corbel-34"/>
       <use x="51.66015625" xlink:href="#Corbel-30"/>
       <use x="103.02734375" xlink:href="#Corbel-30"/>
      </g>
     </g>
    </g>
    <g id="ytick_4">
     <g id="line2d_14">
      <path clip-path="url(#pd61092b920)" d="M 49.202188 257.285455 
L 607.202188 257.285455 
" style="fill:none;stroke:#666666;stroke-linecap:square;stroke-width:0.7;"/>
     </g>
     <g id="line2d_15">
      <g>
       <use style="fill:#666666;stroke:#666666;stroke-width:0.7;" x="49.2021875" xlink:href="#me952ccfa4d" y="257.285454545"/>
      </g>
     </g>
     <g id="line2d_16">
      <g>
       <use style="fill:#666666;stroke:#666666;stroke-width:0.7;" x="607.2021875" xlink:href="#m3b577d6c8f" y="257.285454545"/>
      </g>
     </g>
     <g id="text_8">
      <!-- 600 -->
      <g style="fill:#666666;" transform="translate(13.4759375 260.645454545)scale(0.14 -0.14)">
       <use xlink:href="#Corbel-36"/>
       <use x="52.44140625" xlink:href="#Corbel-30"/>
       <use x="103.80859375" xlink:href="#Corbel-30"/>
      </g>
     </g>
    </g>
    <g id="ytick_5">
     <g id="line2d_17">
      <path clip-path="url(#pd61092b920)" d="M 49.202188 214.167273 
L 607.202188 214.167273 
" style="fill:none;stroke:#666666;stroke-linecap:square;stroke-width:0.7;"/>
     </g>
     <g id="line2d_18">
      <g>
       <use style="fill:#666666;stroke:#666666;stroke-width:0.7;" x="49.2021875" xlink:href="#me952ccfa4d" y="214.167272727"/>
      </g>
     </g>
     <g id="line2d_19">
      <g>
       <use style="fill:#666666;stroke:#666666;stroke-width:0.7;" x="607.2021875" xlink:href="#m3b577d6c8f" y="214.167272727"/>
      </g>
     </g>
     <g id="text_9">
      <!-- 800 -->
      <defs>
       <path d="M 25.734375 -1.21875 
Q 21 -1.21875 17.109375 0.171875 
Q 13.234375 1.5625 10.453125 4 
Q 7.671875 6.453125 6.15625 9.796875 
Q 4.640625 13.140625 4.640625 17.046875 
Q 4.640625 20.65625 5.65625 23.4375 
Q 6.6875 26.21875 8.421875 28.265625 
Q 10.15625 30.328125 12.46875 31.671875 
Q 14.796875 33.015625 17.390625 33.640625 
L 17.390625 33.84375 
Q 14.9375 34.671875 12.859375 36.078125 
Q 10.796875 37.5 9.25 39.46875 
Q 7.71875 41.453125 6.859375 43.96875 
Q 6 46.484375 6 49.515625 
Q 6 53.65625 7.65625 56.828125 
Q 9.328125 60.015625 12.078125 62.1875 
Q 14.84375 64.359375 18.375 65.453125 
Q 21.921875 66.546875 25.734375 66.546875 
Q 29.546875 66.546875 33.078125 65.453125 
Q 36.625 64.359375 39.375 62.1875 
Q 42.140625 60.015625 43.796875 56.828125 
Q 45.453125 53.65625 45.453125 49.515625 
Q 45.453125 46.484375 44.5 43.96875 
Q 43.5625 41.453125 41.9375 39.46875 
Q 40.328125 37.5 38.171875 36.078125 
Q 36.03125 34.671875 33.59375 33.84375 
L 33.59375 33.640625 
Q 36.1875 33.015625 38.578125 31.671875 
Q 40.96875 30.328125 42.796875 28.265625 
Q 44.625 26.21875 45.71875 23.4375 
Q 46.828125 20.65625 46.828125 17.046875 
Q 46.828125 13.140625 45.3125 9.796875 
Q 43.796875 6.453125 41.015625 4 
Q 38.234375 1.5625 34.34375 0.171875 
Q 30.46875 -1.21875 25.734375 -1.21875 
M 25.734375 60.109375 
Q 23.1875 60.109375 21.015625 59.390625 
Q 18.84375 58.6875 17.25 57.296875 
Q 15.671875 55.90625 14.796875 53.90625 
Q 13.921875 51.90625 13.921875 49.265625 
Q 13.921875 44.28125 17.015625 41.15625 
Q 20.125 38.03125 25.734375 36.921875 
Q 31.34375 38.03125 34.4375 41.15625 
Q 37.546875 44.28125 37.546875 49.265625 
Q 37.546875 51.90625 36.671875 53.90625 
Q 35.796875 55.90625 34.203125 57.296875 
Q 32.625 58.6875 30.46875 59.390625 
Q 28.328125 60.109375 25.734375 60.109375 
M 25.734375 30.21875 
Q 23 29.9375 20.609375 29.03125 
Q 18.21875 28.125 16.40625 26.53125 
Q 14.59375 24.953125 13.5625 22.65625 
Q 12.546875 20.359375 12.546875 17.28125 
Q 12.546875 14.5 13.546875 12.25 
Q 14.546875 10.015625 16.296875 8.453125 
Q 18.0625 6.890625 20.484375 6.046875 
Q 22.90625 5.21875 25.734375 5.21875 
Q 28.609375 5.21875 31.03125 6.046875 
Q 33.453125 6.890625 35.203125 8.453125 
Q 36.96875 10.015625 37.9375 12.25 
Q 38.921875 14.5 38.921875 17.28125 
Q 38.921875 20.359375 37.890625 22.65625 
Q 36.859375 24.953125 35.046875 26.53125 
Q 33.25 28.125 30.859375 29.03125 
Q 28.46875 29.9375 25.734375 30.21875 
" id="Corbel-38"/>
      </defs>
      <g style="fill:#666666;" transform="translate(13.6115625 217.527272727)scale(0.14 -0.14)">
       <use xlink:href="#Corbel-38"/>
       <use x="51.46484375" xlink:href="#Corbel-30"/>
       <use x="102.83203125" xlink:href="#Corbel-30"/>
      </g>
     </g>
    </g>
    <g id="ytick_6">
     <g id="line2d_20">
      <path clip-path="url(#pd61092b920)" d="M 49.202188 171.049091 
L 607.202188 171.049091 
" style="fill:none;stroke:#666666;stroke-linecap:square;stroke-width:0.7;"/>
     </g>
     <g id="line2d_21">
      <g>
       <use style="fill:#666666;stroke:#666666;stroke-width:0.7;" x="49.2021875" xlink:href="#me952ccfa4d" y="171.049090909"/>
      </g>
     </g>
     <g id="line2d_22">
      <g>
       <use style="fill:#666666;stroke:#666666;stroke-width:0.7;" x="607.2021875" xlink:href="#m3b577d6c8f" y="171.049090909"/>
      </g>
     </g>
     <g id="text_10">
      <!-- 1000 -->
      <g style="fill:#666666;" transform="translate(7.34875 174.409090909)scale(0.14 -0.14)">
       <use xlink:href="#Corbel-31"/>
       <use x="44.82421875" xlink:href="#Corbel-30"/>
       <use x="96.19140625" xlink:href="#Corbel-30"/>
       <use x="147.55859375" xlink:href="#Corbel-30"/>
      </g>
     </g>
    </g>
    <g id="ytick_7">
     <g id="line2d_23">
      <path clip-path="url(#pd61092b920)" d="M 49.202188 127.930909 
L 607.202188 127.930909 
" style="fill:none;stroke:#666666;stroke-linecap:square;stroke-width:0.7;"/>
     </g>
     <g id="line2d_24">
      <g>
       <use style="fill:#666666;stroke:#666666;stroke-width:0.7;" x="49.2021875" xlink:href="#me952ccfa4d" y="127.930909091"/>
      </g>
     </g>
     <g id="line2d_25">
      <g>
       <use style="fill:#666666;stroke:#666666;stroke-width:0.7;" x="607.2021875" xlink:href="#m3b577d6c8f" y="127.930909091"/>
      </g>
     </g>
     <g id="text_11">
      <!-- 1200 -->
      <g style="fill:#666666;" transform="translate(7.3903125 131.290909091)scale(0.14 -0.14)">
       <use xlink:href="#Corbel-31"/>
       <use x="44.82421875" xlink:href="#Corbel-32"/>
       <use x="95.8984375" xlink:href="#Corbel-30"/>
       <use x="147.265625" xlink:href="#Corbel-30"/>
      </g>
     </g>
    </g>
    <g id="ytick_8">
     <g id="line2d_26">
      <path clip-path="url(#pd61092b920)" d="M 49.202188 84.812727 
L 607.202188 84.812727 
" style="fill:none;stroke:#666666;stroke-linecap:square;stroke-width:0.7;"/>
     </g>
     <g id="line2d_27">
      <g>
       <use style="fill:#666666;stroke:#666666;stroke-width:0.7;" x="49.2021875" xlink:href="#me952ccfa4d" y="84.8127272727"/>
      </g>
     </g>
     <g id="line2d_28">
      <g>
       <use style="fill:#666666;stroke:#666666;stroke-width:0.7;" x="607.2021875" xlink:href="#m3b577d6c8f" y="84.8127272727"/>
      </g>
     </g>
     <g id="text_12">
      <!-- 1400 -->
      <g style="fill:#666666;" transform="translate(7.309375 88.1727272727)scale(0.14 -0.14)">
       <use xlink:href="#Corbel-31"/>
       <use x="44.82421875" xlink:href="#Corbel-34"/>
       <use x="96.484375" xlink:href="#Corbel-30"/>
       <use x="147.8515625" xlink:href="#Corbel-30"/>
      </g>
     </g>
    </g>
    <g id="ytick_9">
     <g id="line2d_29">
      <path clip-path="url(#pd61092b920)" d="M 49.202188 41.694545 
L 607.202188 41.694545 
" style="fill:none;stroke:#666666;stroke-linecap:square;stroke-width:0.7;"/>
     </g>
     <g id="line2d_30">
      <g>
       <use style="fill:#666666;stroke:#666666;stroke-width:0.7;" x="49.2021875" xlink:href="#me952ccfa4d" y="41.6945454545"/>
      </g>
     </g>
     <g id="line2d_31">
      <g>
       <use style="fill:#666666;stroke:#666666;stroke-width:0.7;" x="607.2021875" xlink:href="#m3b577d6c8f" y="41.6945454545"/>
      </g>
     </g>
     <g id="text_13">
      <!-- 1600 -->
      <g style="fill:#666666;" transform="translate(7.2 45.0545454545)scale(0.14 -0.14)">
       <use xlink:href="#Corbel-31"/>
       <use x="44.82421875" xlink:href="#Corbel-36"/>
       <use x="97.265625" xlink:href="#Corbel-30"/>
       <use x="148.6328125" xlink:href="#Corbel-30"/>
      </g>
     </g>
    </g>
   </g>
   <g id="line2d_32">
    <path clip-path="url(#pd61092b920)" d="M 49.202188 162.996713 
L 235.202188 131.751412 
L 421.202188 91.781545 
L 607.202188 66.907191 
" style="fill:none;stroke:#b71a8b;stroke-linecap:square;stroke-width:1.5;"/>
   </g>
   <g id="line2d_33">
    <path clip-path="url(#pd61092b920)" d="M 49.202188 138.43467 
L 235.202188 109.987705 
L 421.202188 70.173577 
L 607.202188 46.554263 
" style="fill:none;stroke:#0092cb;stroke-linecap:square;stroke-width:1.5;"/>
   </g>
   <g id="patch_3">
    <path d="M 607.202188 386.64 
L 607.202188 7.2 
" style="fill:none;stroke:#666666;stroke-linecap:square;stroke-linejoin:miter;stroke-width:0.5;"/>
   </g>
   <g id="patch_4">
    <path d="M 49.202188 386.64 
L 607.202188 386.64 
" style="fill:none;stroke:#666666;stroke-linecap:square;stroke-linejoin:miter;stroke-width:0.5;"/>
   </g>
   <g id="patch_5">
    <path d="M 49.202188 386.64 
L 49.202188 7.2 
" style="fill:none;stroke:#666666;stroke-linecap:square;stroke-linejoin:miter;stroke-width:0.5;"/>
   </g>
  </g>
 </g>
 <defs>
  <clipPath id="pd61092b920">
   <rect height="379.44" width="558.0" x="49.2021875" y="7.2"/>
  </clipPath>
 </defs>
</svg>
